<?xml version="1.0" encoding="UTF-8" standalone="no"?>
<!-- Created with Inkscape (http://www.inkscape.org/) -->

<svg
   xmlns:osb="http://www.openswatchbook.org/uri/2009/osb"
   xmlns:dc="http://purl.org/dc/elements/1.1/"
   xmlns:cc="http://creativecommons.org/ns#"
   xmlns:rdf="http://www.w3.org/1999/02/22-rdf-syntax-ns#"
   xmlns:svg="http://www.w3.org/2000/svg"
   xmlns="http://www.w3.org/2000/svg"
   xmlns:xlink="http://www.w3.org/1999/xlink"
   xmlns:sodipodi="http://sodipodi.sourceforge.net/DTD/sodipodi-0.dtd"
   xmlns:inkscape="http://www.inkscape.org/namespaces/inkscape"
   width="48"
   height="48"
   id="svg7564"
   version="1.1"
   inkscape:version="0.48.3.1 r9886"
   sodipodi:docname="enote.svg">
  <title
     id="title5651">enote icon</title>
  <defs
     id="defs7566">
    <linearGradient
       id="linearGradient6206">
      <stop
         offset="0"
         style="stop-color:#fefdf6;stop-opacity:1;"
         id="stop6208" />
      <stop
         offset="1"
         style="stop-color:#f8e384;stop-opacity:1;"
         id="stop6210" />
    </linearGradient>
    <linearGradient
       id="linearGradient5604"
       osb:paint="solid">
      <stop
         style="stop-color:#ff80c8;stop-opacity:1;"
         offset="0"
         id="stop5606" />
    </linearGradient>
    <linearGradient
       id="linearGradient5578"
       osb:paint="gradient">
      <stop
         style="stop-color:#0c80c8;stop-opacity:1;"
         offset="0"
         id="stop5580" />
      <stop
         style="stop-color:#0c80c8;stop-opacity:0;"
         offset="1"
         id="stop5582" />
    </linearGradient>
    <linearGradient
       id="linearGradient5570"
       osb:paint="solid">
      <stop
         style="stop-color:#ff80c8;stop-opacity:1;"
         offset="0"
         id="stop5572" />
    </linearGradient>
    <linearGradient
       id="linearGradient4040">
      <stop
         style="stop-color:#0c80c8;stop-opacity:1;"
         offset="0"
         id="stop4042" />
      <stop
         style="stop-color:#0c80c8;stop-opacity:0;"
         offset="1"
         id="stop4044" />
    </linearGradient>
    <linearGradient
       id="linearGradient3894">
      <stop
         id="stop3896"
         offset="0"
         style="stop-color:#0c80c8;stop-opacity:1" />
      <stop
         id="stop3898"
         offset="1"
         style="stop-color:#185f9a;stop-opacity:1;" />
    </linearGradient>
    <linearGradient
       inkscape:collect="always"
       xlink:href="#linearGradient3688-166-749"
       id="linearGradient18443"
       gradientUnits="userSpaceOnUse"
       gradientTransform="translate(-0.12497443,0.06897341)"
       x1="34.124973"
       y1="42.931026"
       x2="34.124973"
       y2="16.931026" />
    <linearGradient
       id="linearGradient3688-166-749">
      <stop
         id="stop2883"
         style="stop-color:#181818;stop-opacity:1"
         offset="0" />
      <stop
         id="stop2885"
         style="stop-color:#181818;stop-opacity:0"
         offset="1" />
    </linearGradient>
    <linearGradient
       inkscape:collect="always"
       xlink:href="#linearGradient3688-166-749"
       id="linearGradient18440"
       gradientUnits="userSpaceOnUse"
       gradientTransform="translate(-0.12497443,0.06897341)"
       x1="34.124973"
       y1="42.931026"
       x2="34.124973"
       y2="16.931026" />
    <linearGradient
       id="linearGradient7476">
      <stop
         id="stop7478"
         style="stop-color:#181818;stop-opacity:1"
         offset="0" />
      <stop
         id="stop7480"
         style="stop-color:#181818;stop-opacity:0"
         offset="1" />
    </linearGradient>
    <linearGradient
       inkscape:collect="always"
       xlink:href="#linearGradient3688-166-749"
       id="linearGradient18437"
       gradientUnits="userSpaceOnUse"
       gradientTransform="translate(-0.12497443,0.06897341)"
       x1="34.124973"
       y1="42.931026"
       x2="34.124973"
       y2="16.931026" />
    <linearGradient
       id="linearGradient7483">
      <stop
         id="stop7485"
         style="stop-color:#181818;stop-opacity:1"
         offset="0" />
      <stop
         id="stop7487"
         style="stop-color:#181818;stop-opacity:0"
         offset="1" />
    </linearGradient>
    <radialGradient
       inkscape:collect="always"
       xlink:href="#linearGradient18375"
       id="radialGradient18432"
       gradientUnits="userSpaceOnUse"
       gradientTransform="matrix(-8.6867956e-8,2.3570682,-1.5152443,-5.5842562e-8,64.085431,-60.140705)"
       cx="33.575909"
       cy="22.495005"
       fx="33.575909"
       fy="22.495005"
       r="11.879165" />
    <linearGradient
       id="linearGradient18375">
      <stop
         style="stop-color:#90dbec;stop-opacity:1;"
         offset="0"
         id="stop18377" />
      <stop
         id="stop18387"
         offset="0.35714287"
         style="stop-color:#55c1ec;stop-opacity:1;" />
      <stop
         id="stop18385"
         offset="0.60714287"
         style="stop-color:#3689e6;stop-opacity:1;" />
      <stop
         style="stop-color:#2b63a0;stop-opacity:1;"
         offset="1"
         id="stop18379" />
    </linearGradient>
    <linearGradient
       inkscape:collect="always"
       xlink:href="#linearGradient18393"
       id="linearGradient18434"
       gradientUnits="userSpaceOnUse"
       x1="46"
       y1="18"
       x2="46"
       y2="41.999996" />
    <linearGradient
       id="linearGradient18393">
      <stop
         style="stop-color:#599ec9;stop-opacity:1;"
         offset="0"
         id="stop18395" />
      <stop
         style="stop-color:#185f9a;stop-opacity:1;"
         offset="1"
         id="stop18397" />
    </linearGradient>
    <linearGradient
       inkscape:collect="always"
       xlink:href="#linearGradient3924"
       id="linearGradient18429"
       gradientUnits="userSpaceOnUse"
       gradientTransform="translate(-2.523e-5,0.06602467)"
       x1="44.000027"
       y1="19.933975"
       x2="44.000027"
       y2="39.933975" />
    <linearGradient
       id="linearGradient3924">
      <stop
         id="stop3926"
         style="stop-color:#ffffff;stop-opacity:1"
         offset="0" />
      <stop
         id="stop3928"
         style="stop-color:#ffffff;stop-opacity:0.23529412"
         offset="0.10000001" />
      <stop
         id="stop3930"
         style="stop-color:#ffffff;stop-opacity:0.15686275"
         offset="0.94999999" />
      <stop
         id="stop3932"
         style="stop-color:#ffffff;stop-opacity:0.39215687"
         offset="1" />
    </linearGradient>
    <linearGradient
       inkscape:collect="always"
       xlink:href="#linearGradient3104-6"
       id="linearGradient7095"
       gradientUnits="userSpaceOnUse"
       gradientTransform="matrix(0.72238461,0,0,0.91083283,-1049.9237,6.968313)"
       x1="0.50847417"
       y1="-34"
       x2="59.491524"
       y2="-34" />
    <linearGradient
       id="linearGradient3104-6">
      <stop
         offset="0"
         style="stop-color:#000000;stop-opacity:0.31782946"
         id="stop3106-3" />
      <stop
         offset="1"
         style="stop-color:#000000;stop-opacity:0.24031007"
         id="stop3108-9" />
    </linearGradient>
    <linearGradient
       inkscape:collect="always"
       xlink:href="#linearGradient3977-4-9"
       id="linearGradient7004"
       gradientUnits="userSpaceOnUse"
       gradientTransform="matrix(0.70835777,0,0,0.8931467,1007.0013,6.366986)"
       x1="1.5087713"
       y1="-34"
       x2="58.491226"
       y2="-34" />
    <linearGradient
       id="linearGradient3977-4-9">
      <stop
         id="stop3979-7-0"
         style="stop-color:#ffffff;stop-opacity:1"
         offset="0" />
      <stop
         id="stop3981-6-9"
         style="stop-color:#ffffff;stop-opacity:0.23529412"
         offset="0.01785714" />
      <stop
         id="stop3983-5-2"
         style="stop-color:#ffffff;stop-opacity:0.15686275"
         offset="0.98245609" />
      <stop
         id="stop3985-6-8"
         style="stop-color:#ffffff;stop-opacity:0.39215687"
         offset="1" />
    </linearGradient>
    <linearGradient
       id="linearGradient3600-9-3">
      <stop
         id="stop3602-3-0"
         style="stop-color:#f4f4f4;stop-opacity:1"
         offset="0" />
      <stop
         id="stop3604-7-1"
         style="stop-color:#dbdbdb;stop-opacity:1"
         offset="1" />
    </linearGradient>
    <linearGradient
       id="linearGradient7520">
      <stop
         id="stop7522"
         style="stop-color:#181818;stop-opacity:1"
         offset="0" />
      <stop
         id="stop7524"
         style="stop-color:#181818;stop-opacity:0"
         offset="1" />
    </linearGradient>
    <linearGradient
       id="linearGradient3688-464-309">
      <stop
         id="stop2889"
         style="stop-color:#181818;stop-opacity:1"
         offset="0" />
      <stop
         id="stop2891"
         style="stop-color:#181818;stop-opacity:0"
         offset="1" />
    </linearGradient>
    <linearGradient
       inkscape:collect="always"
       xlink:href="#linearGradient3702-501-757"
       id="linearGradient7118"
       gradientUnits="userSpaceOnUse"
       gradientTransform="matrix(1.5714287,0,0,0.7142857,-5.7142845,28.428574)"
       x1="25.058096"
       y1="47.027729"
       x2="25.058096"
       y2="39.999443" />
    <linearGradient
       id="linearGradient3702-501-757">
      <stop
         id="stop2895"
         style="stop-color:#181818;stop-opacity:0"
         offset="0" />
      <stop
         id="stop2897"
         style="stop-color:#181818;stop-opacity:1"
         offset="0.5" />
      <stop
         id="stop2899"
         style="stop-color:#181818;stop-opacity:0"
         offset="1" />
    </linearGradient>
    <linearGradient
       inkscape:collect="always"
       xlink:href="#linearGradient3702-501-757"
       id="linearGradient7788"
       gradientUnits="userSpaceOnUse"
       gradientTransform="matrix(3.0714288,0,0,1.4285713,-9.7142831,979.21942)"
       x1="25.058096"
       y1="47.027729"
       x2="25.058096"
       y2="39.999443" />
    <radialGradient
       inkscape:collect="always"
       xlink:href="#linearGradient3688-464-309"
       id="radialGradient7791"
       gradientUnits="userSpaceOnUse"
       gradientTransform="matrix(6.4121086,0,0,2,-53.037984,-1128.3622)"
       cx="4.9929786"
       cy="43.5"
       fx="4.9929786"
       fy="43.5"
       r="2.5" />
    <radialGradient
       inkscape:collect="always"
       xlink:href="#linearGradient3688-166-749"
       id="radialGradient7794"
       gradientUnits="userSpaceOnUse"
       gradientTransform="matrix(6.4121086,0,0,2,74.96201,954.36222)"
       cx="4.9929786"
       cy="43.5"
       fx="4.9929786"
       fy="43.5"
       r="2.5" />
    <linearGradient
       inkscape:collect="always"
       xlink:href="#linearGradient3924"
       id="linearGradient8332"
       gradientUnits="userSpaceOnUse"
       gradientTransform="matrix(2.1484769,0,0,2.1494197,-53.84864,933.94246)"
       x1="44.000027"
       y1="19.933975"
       x2="44.000027"
       y2="39.933975" />
    <radialGradient
       inkscape:collect="always"
       xlink:href="#linearGradient18375"
       id="radialGradient8335"
       gradientUnits="userSpaceOnUse"
       gradientTransform="matrix(-1.746571e-7,4.7406513,-3.046557,-1.123133e-7,79.789501,817.24102)"
       cx="33.575909"
       cy="22.495005"
       fx="33.575909"
       fy="22.495005"
       r="11.879165" />
    <linearGradient
       inkscape:collect="always"
       xlink:href="#linearGradient18393"
       id="linearGradient8337"
       gradientUnits="userSpaceOnUse"
       x1="46"
       y1="18"
       x2="46"
       y2="41.999996"
       gradientTransform="matrix(2.0106045,0,0,2.0112491,-49.060955,938.19897)" />
    <linearGradient
       inkscape:collect="always"
       xlink:href="#linearGradient3688-166-749"
       id="linearGradient8340"
       gradientUnits="userSpaceOnUse"
       gradientTransform="matrix(1.9206264,0,0,1.9212894,-46.360527,941.29341)"
       x1="34.124973"
       y1="42.931026"
       x2="34.124973"
       y2="16.931026" />
    <linearGradient
       inkscape:collect="always"
       xlink:href="#linearGradient3688-166-749"
       id="linearGradient8343"
       gradientUnits="userSpaceOnUse"
       gradientTransform="matrix(1.7998049,0,0,1.8003922,-42.912231,945.62838)"
       x1="34.124973"
       y1="42.931026"
       x2="34.124973"
       y2="16.931026" />
    <linearGradient
       inkscape:collect="always"
       xlink:href="#linearGradient3688-166-749"
       id="linearGradient8346"
       gradientUnits="userSpaceOnUse"
       gradientTransform="matrix(1.7405727,0,0,1.7412667,-40.869182,947.39659)"
       x1="34.124973"
       y1="42.931026"
       x2="34.124973"
       y2="16.931026" />
    <linearGradient
       inkscape:collect="always"
       xlink:href="#linearGradient3688-166-749"
       id="linearGradient8355"
       gradientUnits="userSpaceOnUse"
       gradientTransform="matrix(1.7405727,0,0,1.7412667,-40.869182,947.39659)"
       x1="34.124973"
       y1="42.931026"
       x2="34.124973"
       y2="16.931026" />
    <linearGradient
       inkscape:collect="always"
       xlink:href="#linearGradient3688-166-749"
       id="linearGradient8357"
       gradientUnits="userSpaceOnUse"
       gradientTransform="matrix(1.7998049,0,0,1.8003922,-42.912231,945.62838)"
       x1="34.124973"
       y1="42.931026"
       x2="34.124973"
       y2="16.931026" />
    <linearGradient
       inkscape:collect="always"
       xlink:href="#linearGradient3688-166-749"
       id="linearGradient8359"
       gradientUnits="userSpaceOnUse"
       gradientTransform="matrix(1.9206264,0,0,1.9212894,-46.360527,941.29341)"
       x1="34.124973"
       y1="42.931026"
       x2="34.124973"
       y2="16.931026" />
    <radialGradient
       inkscape:collect="always"
       xlink:href="#linearGradient18375"
       id="radialGradient8361"
       gradientUnits="userSpaceOnUse"
       gradientTransform="matrix(-1.746571e-7,4.7406513,-3.046557,-1.123133e-7,79.789501,817.24102)"
       cx="35.207165"
       cy="22.940353"
       fx="33.194881"
       fy="17.51687"
       r="11.879165" />
    <linearGradient
       inkscape:collect="always"
       xlink:href="#linearGradient18393"
       id="linearGradient8363"
       gradientUnits="userSpaceOnUse"
       gradientTransform="matrix(2.0106045,0,0,2.0112491,-49.060955,938.19897)"
       x1="45.738163"
       y1="18.576885"
       x2="45.738163"
       y2="41.448246" />
    <linearGradient
       inkscape:collect="always"
       xlink:href="#linearGradient3924"
       id="linearGradient8365"
       gradientUnits="userSpaceOnUse"
       gradientTransform="matrix(2.1484769,0,0,2.1494197,-53.84864,933.94246)"
       x1="44.000027"
       y1="19.933975"
       x2="44.000027"
       y2="39.933975" />
    <radialGradient
       inkscape:collect="always"
       xlink:href="#linearGradient18375-4"
       id="radialGradient8361-8"
       gradientUnits="userSpaceOnUse"
       gradientTransform="matrix(-1.746571e-7,4.7406513,-3.046557,-1.123133e-7,79.789501,817.24102)"
       cx="35.207165"
       cy="22.940353"
       fx="33.194881"
       fy="17.51687"
       r="11.879165" />
    <linearGradient
       id="linearGradient18375-4">
      <stop
         style="stop-color:#90dbec;stop-opacity:1;"
         offset="0"
         id="stop18377-1" />
      <stop
         id="stop18387-4"
         offset="0.35714287"
         style="stop-color:#55c1ec;stop-opacity:1;" />
      <stop
         id="stop18385-5"
         offset="0.60714287"
         style="stop-color:#3689e6;stop-opacity:1;" />
      <stop
         style="stop-color:#2b63a0;stop-opacity:1;"
         offset="1"
         id="stop18379-1" />
    </linearGradient>
    <linearGradient
       inkscape:collect="always"
       xlink:href="#linearGradient18393-9"
       id="linearGradient8363-4"
       gradientUnits="userSpaceOnUse"
       gradientTransform="matrix(2.0106045,0,0,2.0112491,-49.060955,938.19897)"
       x1="45.738163"
       y1="18.576885"
       x2="45.738163"
       y2="41.448246" />
    <linearGradient
       id="linearGradient18393-9">
      <stop
         style="stop-color:#599ec9;stop-opacity:1;"
         offset="0"
         id="stop18395-1" />
      <stop
         style="stop-color:#185f9a;stop-opacity:1;"
         offset="1"
         id="stop18397-8" />
    </linearGradient>
    <radialGradient
       r="11.879165"
       fy="17.51687"
       fx="33.194881"
       cy="22.940353"
       cx="35.207165"
       gradientTransform="matrix(-1.5955043e-8,0.43306165,-0.27830502,-1.0259896e-8,13.115827,995.0876)"
       gradientUnits="userSpaceOnUse"
       id="radialGradient3929"
       xlink:href="#linearGradient18375-4"
       inkscape:collect="always" />
    <linearGradient
       y2="41.448246"
       x2="45.738163"
       y1="18.576885"
       x1="45.738163"
       gradientTransform="matrix(0.18367007,0,0,0.18372894,1.34525,1006.1372)"
       gradientUnits="userSpaceOnUse"
       id="linearGradient3931"
       xlink:href="#linearGradient18393-9"
       inkscape:collect="always" />
    <radialGradient
       r="11.879165"
       fy="17.51687"
       fx="33.194881"
       cy="22.940353"
       cx="35.207165"
       gradientTransform="matrix(-3.9222812e-8,1.0646099,-0.68416647,-2.5222241e-8,37.243071,909.83295)"
       gradientUnits="userSpaceOnUse"
       id="radialGradient3929-1"
       xlink:href="#linearGradient18375-4-9"
       inkscape:collect="always" />
    <linearGradient
       id="linearGradient18375-4-9">
      <stop
         style="stop-color:#ffdbec;stop-opacity:1;"
         offset="0"
         id="stop18377-1-2" />
      <stop
         id="stop18387-4-1"
         offset="0.35714287"
         style="stop-color:#55c1ec;stop-opacity:1;" />
      <stop
         id="stop18385-5-6"
         offset="0.60714287"
         style="stop-color:#3689e6;stop-opacity:1;" />
      <stop
         style="stop-color:#2b63a0;stop-opacity:1;"
         offset="1"
         id="stop18379-1-7" />
    </linearGradient>
    <linearGradient
       y2="41.448246"
       x2="45.738163"
       y1="18.576885"
       x1="45.738163"
       gradientTransform="matrix(0.45152221,0,0,0.45166697,8.3070727,936.99652)"
       gradientUnits="userSpaceOnUse"
       id="linearGradient3931-4"
       xlink:href="#linearGradient18393-9-0"
       inkscape:collect="always" />
    <linearGradient
       id="linearGradient18393-9-0">
      <stop
         style="stop-color:#ffffff;stop-opacity:1;"
         offset="0"
         id="stop18395-1-8" />
      <stop
         id="stop5876"
         offset="0.5"
         style="stop-color:#0e97ee;stop-opacity:1;" />
      <stop
         style="stop-color:#074871;stop-opacity:1;"
         offset="1"
         id="stop18397-8-4" />
    </linearGradient>
    <radialGradient
       inkscape:collect="always"
       xlink:href="#linearGradient18375-4"
       id="radialGradient4022"
       gradientUnits="userSpaceOnUse"
       gradientTransform="matrix(-1.5955043e-8,0.43306165,-0.27830502,-1.0259896e-8,13.115827,1003.2232)"
       cx="35.207165"
       cy="22.940353"
       fx="33.194881"
       fy="17.51687"
       r="11.879165" />
    <linearGradient
       inkscape:collect="always"
       xlink:href="#linearGradient18393-9"
       id="linearGradient4024"
       gradientUnits="userSpaceOnUse"
       gradientTransform="matrix(0.18367007,0,0,0.18372894,1.34525,1014.2728)"
       x1="45.738163"
       y1="18.576885"
       x2="45.738163"
       y2="41.448246" />
    <radialGradient
       inkscape:collect="always"
       xlink:href="#linearGradient18375-4"
       id="radialGradient4028"
       gradientUnits="userSpaceOnUse"
       gradientTransform="matrix(-1.5955043e-8,0.43306165,-0.27830502,-1.0259896e-8,13.115827,1028.4436)"
       cx="35.207165"
       cy="22.940353"
       fx="33.194881"
       fy="17.51687"
       r="11.879165" />
    <linearGradient
       inkscape:collect="always"
       xlink:href="#linearGradient18393-9"
       id="linearGradient4030"
       gradientUnits="userSpaceOnUse"
       gradientTransform="matrix(0.18367007,0,0,0.18372894,1.34525,1039.4932)"
       x1="45.738163"
       y1="18.576885"
       x2="45.738163"
       y2="41.448246" />
    <linearGradient
       inkscape:collect="always"
       xlink:href="#linearGradient18375-4"
       id="linearGradient6202"
       x1="7.875"
       y1="38.697365"
       x2="55.59375"
       y2="38.697365"
       gradientUnits="userSpaceOnUse" />
    <linearGradient
       inkscape:collect="always"
       xlink:href="#linearGradient18375-4"
       id="linearGradient6204"
       gradientUnits="userSpaceOnUse"
       x1="27.750006"
       y1="16.916304"
       x2="27.750006"
       y2="54.037865"
       gradientTransform="matrix(0.78310253,0,0,0.78310253,1.7080675,10.873486)" />
    <linearGradient
       inkscape:collect="always"
       xlink:href="#linearGradient6206"
       id="linearGradient6218"
       x1="940.54749"
       y1="-64"
       x2="1042.3622"
       y2="-64"
       gradientUnits="userSpaceOnUse"
       gradientTransform="matrix(0.40677966,0,0,0.40677966,624.98601,2.033898)" />
  </defs>
  <sodipodi:namedview
     id="base"
     pagecolor="#ffffff"
     bordercolor="#666666"
     borderopacity="1.0"
     inkscape:pageopacity="0.0"
     inkscape:pageshadow="2"
     inkscape:zoom="13.743576"
     inkscape:cx="24"
     inkscape:cy="23.50003"
     inkscape:document-units="px"
     inkscape:current-layer="layer1"
     showgrid="false"
     inkscape:window-width="1371"
     inkscape:window-height="931"
     inkscape:window-x="437"
     inkscape:window-y="139"
     inkscape:window-maximized="0">
    <inkscape:grid
       type="xygrid"
       id="grid7756"
       empspacing="12"
       visible="true"
       enabled="true"
       snapvisiblegridlinesonly="true" />
  </sodipodi:namedview>
  <metadata
     id="metadata7569">
    <rdf:RDF>
      <cc:Work
         rdf:about="">
        <dc:format>image/svg+xml</dc:format>
        <dc:type
           rdf:resource="http://purl.org/dc/dcmitype/StillImage" />
        <dc:title>enote icon</dc:title>
        <cc:license
           rdf:resource="http://creativecommons.org/licenses/by/3.0/" />
        <dc:date>01/14/2014</dc:date>
        <dc:creator>
          <cc:Agent>
            <dc:title>Nikos Vasilakis</dc:title>
          </cc:Agent>
        </dc:creator>
        <dc:subject>
          <rdf:Bag>
            <rdf:li>enote</rdf:li>
            <rdf:li>icon</rdf:li>
            <rdf:li>note taking</rdf:li>
            <rdf:li>reminders</rdf:li>
          </rdf:Bag>
        </dc:subject>
        <dc:rights>
          <cc:Agent>
            <dc:title>Nikos Vasilakis</dc:title>
          </cc:Agent>
        </dc:rights>
      </cc:Work>
      <cc:License
         rdf:about="http://creativecommons.org/licenses/by/3.0/">
        <cc:permits
           rdf:resource="http://creativecommons.org/ns#Reproduction" />
        <cc:permits
           rdf:resource="http://creativecommons.org/ns#Distribution" />
        <cc:requires
           rdf:resource="http://creativecommons.org/ns#Notice" />
        <cc:requires
           rdf:resource="http://creativecommons.org/ns#Attribution" />
        <cc:permits
           rdf:resource="http://creativecommons.org/ns#DerivativeWorks" />
      </cc:License>
    </rdf:RDF>
  </metadata>
  <g
     inkscape:label="Layer 1"
     inkscape:groupmode="layer"
     id="layer1"
     transform="translate(0,-1004.3622)"
     style="display:inline">
    <g
       id="g7796"
       transform="matrix(0.40677966,0,0,0.40677966,-2.033898,624.98601)">
      <rect
         width="16"
         height="10"
         x="107"
         y="1036.3622"
         id="rect2801"
         style="opacity:0.4;fill:url(#radialGradient7794);fill-opacity:1;stroke:none" />
      <rect
         width="16"
         height="10"
         x="-21"
         y="-1046.3622"
         transform="scale(-1,-1)"
         id="rect3696"
         style="opacity:0.4;fill:url(#radialGradient7791);fill-opacity:1;stroke:none" />
      <rect
         width="86"
         height="10"
         x="21"
         y="1036.3622"
         id="rect3700"
         style="opacity:0.4;fill:url(#linearGradient7788);fill-opacity:1;stroke:none" />
    </g>
    <g
       id="g8348"
       transform="matrix(0.40677966,0,0,0.40677966,15.904923,621.6506)">
      <path
         sodipodi:nodetypes="ccccccccc"
         style="opacity:0.03999999;fill:none;stroke:url(#linearGradient8355);stroke-width:1;stroke-linecap:round;stroke-linejoin:bevel;stroke-miterlimit:0;stroke-opacity:1;stroke-dasharray:none;stroke-dashoffset:0"
         d="M 32.146618,972.84239 14.481464,1003.7119 0.25213459,995.56921 -6.3604727,1007.0981 c -0.6756764,0.9281 0.603646,2.8845 1.2993198,3.2507 l 22.2297879,13.0891 c 1.607447,0.7136 3.744467,0.025 4.636044,-1.3342 l 23.915319,-41.55498 z"
         id="path18415"
         inkscape:connector-curvature="0" />
      <path
         inkscape:connector-curvature="0"
         id="path18413"
         d="M 32.709552,973.48232 14.791386,1004.8476 0.54199027,996.84625 -5.0493947,1006.577 c -0.6986698,0.9596 -0.503036,2.4458 0.2163119,2.8244 l 22.0830658,12.8732 c 1.538328,1.0447 3.60011,-0.074 4.005012,-1.1695 l 23.265002,-40.52121 z"
         style="opacity:0.07999998;fill:none;stroke:url(#linearGradient8357);stroke-width:0.99999994;stroke-linecap:round;stroke-linejoin:bevel;stroke-miterlimit:0;stroke-opacity:1;stroke-dasharray:none;stroke-dashoffset:0"
         sodipodi:nodetypes="ccccccccc" />
      <path
         sodipodi:nodetypes="ccccccccc"
         style="opacity:0.16000001;fill:none;stroke:url(#linearGradient8359);stroke-width:1;stroke-linecap:round;stroke-linejoin:bevel;stroke-miterlimit:0;stroke-opacity:1;stroke-dasharray:none;stroke-dashoffset:0"
         d="m 33.076658,974.85342 -17.985637,31.24988 -14.1064917,-7.98513 -5.2332754,9.05693 c -0.7455718,1.024 -0.024603,1.556 0.7430347,1.9601 l 20.9618774,12.1367 c 1.701319,1.0081 2.313327,0.6102 3.213661,-1.0503 l 22.650011,-39.44359 z"
         id="path18407"
         inkscape:connector-curvature="0" />
      <path
         inkscape:connector-curvature="0"
         id="rect17386"
         d="m 33.472758,975.97308 -18.095441,31.35232 -13.9298759,-8.045 -5.0265112,8.7089 13.9298761,8.045 8.706173,5.0281 5.026511,-8.7089 18.095441,-31.35233 -8.706173,-5.02809 z"
         style="fill:url(#radialGradient8361);fill-opacity:1;fill-rule:nonzero;stroke:url(#linearGradient8363);stroke-width:0.99999994;stroke-linecap:butt;stroke-linejoin:round;stroke-miterlimit:0;stroke-opacity:1;stroke-dasharray:none;stroke-dashoffset:0" />
      <path
         sodipodi:nodetypes="ccccccc"
         style="opacity:0.5;fill:none;stroke:url(#linearGradient8365);stroke-width:0.99999994;stroke-linecap:butt;stroke-linejoin:round;stroke-miterlimit:0;stroke-opacity:1;stroke-dasharray:none;stroke-dashoffset:0"
         d="m 33.931024,977.34784 -18.036292,31.40606 -13.9850866,-8.1977 -4.2227153,6.9843 20.9669919,12.1219 22.159008,-38.39042 z"
         id="path18401"
         inkscape:connector-curvature="0" />
    </g>
    <rect
       style="fill:url(#linearGradient6218);fill-opacity:1;stroke:none"
       id="rect6994"
       width="41.491528"
       height="41.491528"
       x="1007.5063"
       y="-44.745766"
       rx="1.0169491"
       ry="1.0169491"
       transform="matrix(0,1,-1,0,0,0)" />
    <rect
       style="fill:none;stroke:url(#linearGradient7004);stroke-width:0.40677971"
       id="rect7002"
       width="41.084747"
       height="41.084747"
       x="1007.7097"
       y="-44.542366"
       rx="0.81355941"
       ry="0.81355941"
       transform="matrix(0,1,-1,0,0,0)" />
    <rect
       transform="matrix(0,-1,-1,0,0,0)"
       ry="1.2203389"
       rx="1.2203389"
       y="-44.949142"
       x="-1049.2012"
       height="41.898304"
       width="41.898304"
       id="rect6998"
       style="fill:none;stroke:url(#linearGradient7095);stroke-width:0.40677971" />
    <g
       id="g8367"
       style="opacity:0.6"
       transform="matrix(0.40677966,0,0,0.40677966,-2.033898,624.98601)">
      <rect
         y="940.36218"
         x="33"
         height="102"
         width="1"
         id="rect15708"
         style="opacity:0.12000002;fill:#da4d45;fill-opacity:1;fill-rule:nonzero;stroke:none" />
      <rect
         y="960.36218"
         x="13"
         height="1"
         width="102"
         id="rect15710"
         style="opacity:0.5;fill:#b9b9b9;fill-opacity:1;fill-rule:nonzero;stroke:none" />
      <rect
         style="opacity:0.5;fill:#b9b9b9;fill-opacity:1;fill-rule:nonzero;stroke:none"
         id="rect15712"
         width="102"
         height="1"
         x="13"
         y="981.36218" />
      <rect
         y="1002.3622"
         x="13"
         height="1"
         width="102"
         id="rect16848"
         style="opacity:0.5;fill:#b9b9b9;fill-opacity:1;fill-rule:nonzero;stroke:none" />
      <rect
         style="opacity:0.5;fill:#b9b9b9;fill-opacity:1;fill-rule:nonzero;stroke:none"
         id="rect7153"
         width="102"
         height="1"
         x="13"
         y="1023.3622" />
      <rect
         style="opacity:0.12000002;fill:#da4d45;fill-opacity:1;fill-rule:nonzero;stroke:none"
         id="rect5610"
         width="1"
         height="102"
         x="31"
         y="940.36218" />
    </g>
    <text
       sodipodi:linespacing="125%"
       id="text5616"
       y="1020.9916"
       x="14.367527"
       style="font-size:4.06779623px;font-style:normal;font-variant:normal;font-weight:normal;font-stretch:normal;line-height:125%;letter-spacing:0px;word-spacing:0px;fill:#000000;fill-opacity:0.18039216;stroke:none;font-family:Jenna Sue;-inkscape-font-specification:Jenna Sue"
       xml:space="preserve"><tspan
         y="1020.9916"
         x="14.367527"
         id="tspan5618"
         sodipodi:role="line">create the application icon</tspan></text>
    <text
       sodipodi:linespacing="125%"
       id="text6239"
       y="1029.668"
       x="12.740406"
       style="font-size:4.06779623px;font-style:normal;font-variant:normal;font-weight:normal;font-stretch:normal;line-height:125%;letter-spacing:0px;word-spacing:0px;fill:#000000;fill-opacity:0.18039216;stroke:none;font-family:Jenna Sue;-inkscape-font-specification:Jenna Sue"
       xml:space="preserve"><tspan
         y="1029.668"
         x="12.740406"
         id="tspan6241"
         sodipodi:role="line">enote, for real!</tspan></text>
    <path
       inkscape:connector-curvature="0"
       id="rect17386-9"
       d="m 8.88476,1009.5878 -1.653031,2.8641 -1.272503,-0.735 -0.459175,0.7956 1.272503,0.735 0.795315,0.4592 0.459175,-0.7955 1.65303,-2.8641 -0.795314,-0.4593 z"
       style="fill:url(#radialGradient3929);fill-opacity:1;fill-rule:nonzero;stroke:url(#linearGradient3931);stroke-width:0.09135066;stroke-linecap:butt;stroke-linejoin:round;stroke-miterlimit:0;stroke-opacity:1;stroke-dasharray:none;stroke-dashoffset:0" />
    <path
       style="fill:url(#radialGradient4022);fill-opacity:1;fill-rule:nonzero;stroke:url(#linearGradient4024);stroke-width:0.09135066;stroke-linecap:butt;stroke-linejoin:round;stroke-miterlimit:0;stroke-opacity:1;stroke-dasharray:none;stroke-dashoffset:0"
       d="m 8.88476,1017.7234 -1.653031,2.864 -1.272503,-0.7349 -0.459175,0.7955 1.272503,0.735 0.795315,0.4593 0.459175,-0.7956 1.65303,-2.8641 -0.795314,-0.4592 z"
       id="path4020"
       inkscape:connector-curvature="0" />
    <path
       inkscape:connector-curvature="0"
       id="path4026"
       d="m 8.88476,1042.9437 -1.653031,2.8641 -1.272503,-0.735 -0.459175,0.7956 1.272503,0.7349 0.795315,0.4594 0.459175,-0.7956 1.65303,-2.864 -0.795314,-0.4593 z"
       style="fill:url(#radialGradient4028);fill-opacity:1;fill-rule:nonzero;stroke:url(#linearGradient4030);stroke-width:0.09135066;stroke-linecap:butt;stroke-linejoin:round;stroke-miterlimit:0;stroke-opacity:1;stroke-dasharray:none;stroke-dashoffset:0" />
    <text
       xml:space="preserve"
       style="font-size:4.06779623px;font-style:normal;font-variant:normal;font-weight:normal;font-stretch:normal;line-height:125%;letter-spacing:0px;word-spacing:0px;fill:#000000;fill-opacity:0.18039216;stroke:none;font-family:Jenna Sue;-inkscape-font-specification:Jenna Sue"
       x="12.740406"
       y="1012.8561"
       id="text5612"
       sodipodi:linespacing="125%"><tspan
         sodipodi:role="line"
         id="tspan5614"
         x="12.740406"
         y="1012.8561">don't forget to create enote</tspan></text>
    <text
       xml:space="preserve"
       style="font-size:4.06779623px;font-style:normal;font-variant:normal;font-weight:normal;font-stretch:normal;line-height:125%;letter-spacing:0px;word-spacing:0px;fill:#000000;fill-opacity:0.18039216;stroke:none;font-family:Jenna Sue;-inkscape-font-specification:Jenna Sue"
       x="12.740406"
       y="1045.9392"
       id="text5620"
       sodipodi:linespacing="125%"><tspan
         sodipodi:role="line"
         id="tspan5622"
         x="12.740406"
         y="1045.9392">have breakfast at Milliways!</tspan></text>
    <g
       transform="matrix(0.13276667,0,0,0.13276667,3.426197,1022.8637)"
       id="g3877"
       style="fill:url(#linearGradient6202);fill-opacity:1;stroke:none">
      <path
         inkscape:connector-curvature="0"
         id="path3873"
         d="m 24.687233,30.666734 c -5.038477,0 -9.179644,3.914524 -9.666422,8.932263 -0.100328,-0.0038 -0.192261,-0.02447 -0.293664,-0.02447 -3.782503,0 -6.852147,2.726367 -6.852147,6.069045 0,3.321091 3.029942,6.009886 6.778731,6.044573 0.02436,2.25e-4 0.04899,0 0.07342,0 l 26.160519,0 c 2.419203,0 4.356008,-1.660841 4.356008,-3.719737 0,-1.785037 -1.46007,-3.258825 -3.426074,-3.62185 0.0054,-0.100203 0.02447,-0.192136 0.02447,-0.293663 0,-3.108103 -2.559689,-5.62855 -5.726437,-5.62855 -0.660784,0 -1.293645,0.116271 -1.88434,0.318136 -0.85005,-4.596751 -4.798492,-8.075745 -9.544062,-8.075745 z"
         style="fill:url(#linearGradient6204);fill-opacity:1;stroke:#0c80c8;stroke-opacity:1" />
    </g>
    <text
       sodipodi:linespacing="125%"
       id="text5628"
       y="1011.229"
       x="38.7743"
       style="font-size:4.06779623px;font-style:normal;font-variant:normal;font-weight:normal;font-stretch:normal;line-height:125%;letter-spacing:0px;word-spacing:0px;fill:#000000;fill-opacity:0.18039216;stroke:none;font-family:Jenna Sue;-inkscape-font-specification:Jenna Sue"
       xml:space="preserve"><tspan
         y="1011.229"
         x="38.7743"
         id="tspan5630"
         sodipodi:role="line">,</tspan></text>
    <text
       xml:space="preserve"
       style="font-size:4.06779623px;font-style:normal;font-variant:normal;font-weight:normal;font-stretch:normal;line-height:125%;letter-spacing:0px;word-spacing:0px;fill:#000000;fill-opacity:0.18039216;stroke:none;font-family:Jenna Sue;-inkscape-font-specification:Jenna Sue"
       x="12.740406"
       y="1037.8035"
       id="text6243"
       sodipodi:linespacing="125%"><tspan
         sodipodi:role="line"
         id="tspan6245"
         x="12.740406"
         y="1037.8035">well..            ..more work on icon?</tspan></text>
    <path
       style="fill:#ffeeaa;fill-opacity:1;stroke:#0c80c8;stroke-width:0.81355941;stroke-linejoin:round;stroke-miterlimit:4;stroke-opacity:1;stroke-dasharray:none;stroke-dashoffset:0"
       id="path6268"
       d="m 3.294662,1033.7078 c 1.427181,-0.058 2.802993,-0.5049 4.158822,-0.9147 2.449665,-0.8042 4.777937,-1.9386 6.817888,-3.5273 0.467767,-0.3642 0.899688,-0.7723 1.349532,-1.1586 1.650901,-1.5657 3.032371,-3.3826 4.221432,-5.317 0.706112,-1.1488 0.91762,-1.5923 1.540991,-2.7695 0.747524,-1.5793 1.474756,-3.2154 1.762835,-4.9527 0.0259,-0.1562 0.03719,-0.3144 0.05581,-0.4716 -0.0017,-0.1166 0.02791,-0.4035 -0.07286,-0.5255 -0.232438,-0.281 -1.216359,0.3699 -1.369376,0.4562 0.191676,0.5256 0.05435,0.043 -0.946221,0.978 -1.254417,1.1727 -2.333045,2.4187 -3.281457,3.8547 -0.325958,0.4935 -0.608099,1.0146 -0.912148,1.5219 -0.242332,0.5034 -0.510733,0.9951 -0.726992,1.5102 -0.6877,1.6383 -1.098202,3.4292 -1.071086,5.2118 0.0044,0.289 0.04619,0.5762 0.06927,0.8644 0.09511,0.4948 0.101463,0.6833 0.282744,1.1247 0.0625,0.1523 0.174115,0.3896 0.341558,0.4752 0.167627,0.086 0.300176,-0.01 0.45526,-0.062 -0.194481,0.096 -0.425549,0.4383 -0.583444,0.2893 -0.148692,-0.1402 0.312181,-0.2645 0.459025,-0.4067 0.173853,-0.1683 0.340588,-0.3441 0.502266,-0.5243 0.519481,-0.5787 0.982097,-1.2044 1.446113,-1.8273 0.496373,-0.6747 0.743409,-1.0296 1.7022,-1.2852 0.0891,-0.023 0.105079,0.1562 0.126987,0.2457 0.04569,0.1868 0.0114,0.6706 0.0051,0.834 -0.014,0.4536 -0.07106,0.9062 -0.06613,1.3606 10e-4,0.096 0.0091,0.3233 0.05443,0.433 0.0095,0.023 0.0346,0.035 0.05192,0.054 0.05987,-0.014 0.0863,-0.095 0.150931,-0.098 0.112037,-0.01 0.164753,0.1263 0.205271,0.2043 0.07357,0.1752 0.09694,0.3658 0.188694,0.5332 0.0925,0.1252 0.187313,0.2508 0.294966,0.3635 0.06053,0.038 0.117078,0.079 0.189382,0.094 0.205904,0.04 0.469212,-0.019 0.673758,-0.048 0.379473,-0.068 0.663869,-0.089 1.029839,0.044 0.438648,0.2098 0.833566,0.5025 1.245485,0.7599 0.595854,0.4018 1.221711,0.7555 1.834647,1.1298 0.342922,0.2093 0.681299,0.426 1.023967,0.6359 0.143617,0.088 0.285874,0.1792 0.43086,0.2653 0.01706,0.01 0.498112,0.2921 0.568057,0.3022 0.02775,0 0.07104,-0.082 0.04512,-0.07 -1.233135,0.505 -0.80847,0.8089 -1.333492,0.1856 -0.927419,-1.053 -1.870264,-2.0939 -2.75302,-3.1851 -0.308119,-0.381 -0.620623,-0.759 -0.90596,-1.1574 -0.299083,-0.4174 -0.563863,-0.8583 -0.845795,-1.2876 -0.500754,-0.9422 -0.977195,-1.7126 -1.266188,-2.7506 -0.266859,-0.9583 -0.33016,-1.8952 -0.174298,-2.8783 0.193714,-1.2218 0.450262,-1.5127 1.003679,-2.5935 0.312798,-0.3755 0.593849,-0.78 0.938395,-1.1267 0.716949,-0.7215 1.514929,-1.2666 2.395205,-1.7652 0.633275,-0.3588 1.276062,-0.7023 1.934442,-1.0127 0.683992,-0.3223 1.32282,-0.4846 2.038012,-0.6949 0.489615,-0.067 1.271764,-0.3835 1.696564,0.08 0.429079,0.4683 0.286639,1.444 0.263059,1.9955 -0.208095,1.5495 -0.543893,3.0777 -0.828638,4.6141 -0.188692,1.018 -0.194865,1.0991 -0.349447,2.0834 -0.07052,0.5184 -0.13059,0.9213 -0.183068,1.4316 -0.01639,0.1592 -0.05289,0.4776 -0.02794,0.6645 0.01875,0.1404 0.02978,0.1038 0.07907,0.053 0.0192,-0.018 0.03203,-0.047 0.05752,-0.053 0.0909,-0.022 0.144187,0.073 0.163252,0.1418 0.06161,0.2227 -0.05062,0.5569 -0.102266,0.7633 -0.231551,0.8941 -0.588131,1.7488 -0.851861,2.6325 -0.29715,0.1884 -0.02085,0.2407 0.03484,0.2014 0.0603,-0.043 0.232271,-0.1745 0.162128,-0.1512 -0.22785,0.076 -0.411743,0.3505 -0.648803,0.3126 -0.170872,-0.027 0.253965,-0.2351 0.377895,-0.3559 0.136526,-0.133 0.26892,-0.2703 0.403373,-0.4053 0.636577,-0.7077 1.030297,-1.164 2.039493,-1.4677 0.124268,-0.037 0.184512,0.2826 0.243492,0.4945 0.07592,0.3594 0.05402,0.7299 0.12348,1.0901 0.02453,0.1276 0.06397,0.304 0.156832,0.2614 0.05428,-0.025 0.07252,-0.095 0.10881,-0.1423 -0.97068,0.4361 -0.909502,0.5795 -0.583271,0.041 0.06467,-0.1067 0.124234,-0.2164 0.184425,-0.3258 0.04774,-0.086 0.094,-0.1742 0.139369,-0.2624 0.01894,-0.036 0.0165,-0.094 0.05359,-0.112 0.33894,-0.1664 0.698933,-0.2858 1.048388,-0.4289 -0.533348,0.9061 -0.877238,1.9023 -1.167274,2.9079 -0.06476,0.263 -0.160024,0.6129 -0.196766,0.8892 -0.01354,0.1015 -0.07218,0.3725 0.08187,0.4536 0.149531,0.078 0.569231,-0.055 0.653081,-0.073 0.6135,-0.2218 0.660941,-0.2097 1.27221,-0.5745 0.01256,-0.01 -0.04084,-0.024 -0.0294,-0.032 0.266119,-0.2157 0.556939,-0.3993 0.825274,-0.6122 0.506591,-0.4018 0.892234,-0.7688 1.36485,-1.2015 0.64458,-0.6176 1.221915,-1.1865 2.148045,-1.3949 0.07959,-0.018 0.06799,0.1499 0.0837,0.2299 0.01826,0.093 0.01144,0.1894 0.0171,0.2841 0.0026,0.292 -0.04529,0.5809 -0.06494,0.8715 -3.75e-4,0.01 -0.01999,0.2139 0.01841,0.255 0.0093,0.01 0.01856,-0.02 0.02794,-0.03 0.189364,-0.4032 0.02662,-0.016 -0.877624,0.4289 -0.03875,0.019 0.05647,-0.065 0.08265,-0.1 0.0617,-0.08 0.114825,-0.1638 0.181406,-0.2409 0.774942,-0.7333 0.878558,-0.6338 1.551615,-0.7002 0.219795,-0.041 0.441687,-0.065 0.661133,-0.1079 0,0 -0.922088,0.6953 -0.922088,0.6953 l 0,0 c -0.224298,0.037 -0.449081,0.072 -0.673867,0.106 -0.111746,0.011 -0.230419,0.014 -0.338531,0.047 -0.02235,0.01 -0.08491,0.04 -0.06476,0.027 0.825248,-0.4927 1.27698,-0.7229 0.874043,-0.5161 -0.07121,0.058 -0.07279,0.052 -0.132042,0.1297 -0.02411,0.031 -0.04564,0.064 -0.06755,0.097 -0.02494,0.038 -0.03596,0.088 -0.07304,0.1135 -1.017026,0.6986 -0.662723,0.6843 -1.185923,0.6773 -0.02565,-0.025 -0.06118,-0.043 -0.07698,-0.074 -0.03709,-0.075 -0.0093,-0.2435 -0.0019,-0.3055 0.03517,-0.2834 0.08614,-0.5657 0.07776,-0.8531 -0.007,-0.083 -0.0088,-0.1668 -0.0213,-0.2492 -0.07566,-0.499 -0.517072,0.2113 0.844811,-0.693 0.08247,-0.054 -0.174652,0.094 -0.254437,0.1531 -0.241838,0.1775 -0.710216,0.6052 -0.904478,0.7777 -0.444015,0.3997 -0.934792,0.8518 -1.398517,1.2247 -0.263329,0.212 -0.525844,0.4266 -0.807892,0.6127 -0.534469,0.3529 -1.085453,0.6805 -1.638885,1.0028 -0.666983,0.3884 -0.693923,0.3669 -1.361873,0.6063 -0.237619,0.041 -0.548047,0.1681 -0.779906,-0.012 -0.167404,-0.1302 -0.103879,-0.3891 -0.07584,-0.5458 0.04198,-0.2352 0.177172,-0.7047 0.235147,-0.9165 0.287993,-0.9716 0.61002,-1.9375 1.043217,-2.8551 0.362486,-0.1809 0.714266,-0.3849 1.087485,-0.5422 0.04756,-0.02 -0.06633,0.079 -0.09401,0.1232 -0.07732,0.1217 -0.274654,0.488 -0.336488,0.5986 -0.05918,0.1058 -0.08749,0.2376 -0.17967,0.3163 -0.356366,0.3045 -0.763563,0.5442 -1.145351,0.8162 -0.06641,0.011 -0.134666,0.052 -0.199335,0.034 -0.133774,-0.039 -0.145912,-0.2796 -0.156802,-0.3615 -0.04722,-0.355 -0.03727,-0.7172 -0.122727,-1.0674 -0.02794,-0.084 -0.04276,-0.1733 -0.08378,-0.2517 -0.20241,-0.3873 -1.046243,0.4957 0.709069,-0.6156 0.08888,-0.056 -0.17901,0.1119 -0.258994,0.1803 -0.207533,0.1773 -0.51216,0.5242 -0.687053,0.7153 -0.129705,0.134 -0.258963,0.2684 -0.389126,0.4018 -0.115477,0.1186 -0.213877,0.257 -0.347805,0.3541 -0.403942,0.2931 -0.82698,0.5602 -1.25838,0.811 -0.08927,0.051 -0.338223,0.1613 -0.369093,-0.052 -0.01166,-0.081 0.03746,-0.159 0.05619,-0.2386 0.300104,-0.8682 0.656002,-1.7201 0.850308,-2.6216 0.06179,-0.288 0.0707,-0.2707 0.08745,-0.5292 0.0026,-0.047 0.01211,-0.1475 -0.01144,-0.1501 -0.05342,-0.01 -0.103083,0.059 -0.160395,0.016 -0.03202,-0.025 -0.07636,-0.038 -0.09608,-0.073 -0.05385,-0.096 -0.0044,-0.3506 0.0044,-0.4128 0.09632,-0.6425 0.247916,-1.2763 0.342532,-1.9192 0.201439,-1.1001 0.41715,-2.1971 0.625733,-3.2956 0.147307,-0.776 0.298072,-1.563 0.405735,-2.3459 0.04687,-0.3406 0.07689,-0.6834 0.115387,-1.025 0.0026,-0.49 0.08938,-1.4332 -0.295125,-1.8458 -0.383812,-0.4118 -1.101558,-0.1399 -1.54425,-0.09 -1.301077,0.3627 -0.527602,0.1199 -1.947652,0.6445 -0.162547,0.061 -0.33723,0.093 -0.489214,0.1758 -0.874023,0.4788 -1.690975,1.0344 -2.40113,1.7396 -0.341409,0.3391 -0.620479,0.7356 -0.930719,1.1033 -0.56071,1.0661 -0.819702,1.3556 -1.026997,2.5652 -0.168174,0.9812 -0.116686,1.8939 0.142809,2.8548 0.286891,1.0624 0.736602,1.7775 1.247401,2.7408 0.285683,0.4243 0.554142,0.8607 0.857049,1.273 0.289882,0.3943 0.603768,0.771 0.919742,1.1449 0.916403,1.0845 1.920909,2.0885 2.960754,3.0535 0.581505,0.5434 0.47334,0.2463 -0.535744,1.1105 -0.01796,0.016 -0.04136,-0.023 -0.06136,-0.035 -0.06916,-0.044 -0.13782,-0.088 -0.206066,-0.1329 -0.104752,-0.069 -0.20859,-0.1395 -0.312922,-0.2091 -0.13755,-0.092 -0.275142,-0.1836 -0.412714,-0.2753 -0.149425,-0.094 -0.875449,-0.5542 -1.015336,-0.6381 -0.624224,-0.3743 -1.265376,-0.7207 -1.889951,-1.0945 -0.1053,-0.058 -0.211838,-0.1154 -0.315902,-0.1763 -0.315022,-0.1844 -0.608847,-0.4127 -0.956094,-0.5362 -0.337581,-0.096 -0.650807,-0.067 -0.993769,-0.01 -0.324202,0.041 -0.673539,0.1033 -0.943835,-0.1248 -0.112968,-0.1229 -0.225342,-0.2491 -0.321664,-0.3852 -0.08489,-0.171 -0.09501,-0.3646 -0.179363,-0.5367 -0.01164,-0.02 -0.01904,-0.044 -0.03491,-0.062 -0.0082,-0.01 -0.02159,-0.014 -0.03371,-0.014 -0.01616,0 -0.03014,0.013 -0.04548,0.016 -0.09221,0.03 -0.156956,0.032 -0.234363,-0.038 -0.01987,-0.035 -0.04877,-0.068 -0.0596,-0.1079 -0.03172,-0.1162 -0.02237,-0.3842 -0.01795,-0.4791 0.02129,-0.4552 0.08106,-0.9085 0.08209,-1.3648 -0.0013,-0.2159 0.01147,-0.5325 -0.03482,-0.7566 -0.0089,-0.043 -0.09032,-0.091 -0.05694,-0.1197 0.245658,-0.2124 0.525508,-0.3862 0.814124,-0.5352 0.29044,-0.1497 -1.312098,1.0005 -0.659258,0.7258 -0.469951,0.6176 -0.930374,1.2459 -1.436529,1.8348 -0.09816,0.1142 -0.724564,0.8132 -0.890417,0.9275 -0.422955,0.2918 -0.881375,0.5284 -1.322062,0.7925 -0.09997,0.018 -0.198643,0.058 -0.299906,0.052 -0.325082,-0.021 -0.463182,-0.383 -0.542964,-0.638 -0.149857,-0.4792 -0.144746,-0.6618 -0.210444,-1.1896 -0.0091,-0.299 -0.03493,-0.5981 -0.02734,-0.8973 0.04621,-1.8178 0.477777,-3.6372 1.191192,-5.3065 0.222429,-0.5206 0.496759,-1.0173 0.745139,-1.5259 0.304938,-0.5099 0.58992,-1.0323 0.914818,-1.5299 0.621043,-0.9508 1.362436,-1.9209 2.121952,-2.7675 0.328328,-0.3659 0.680694,-0.7098 1.032927,-1.053 0.29873,-0.2908 0.58806,-0.5951 0.919359,-0.8483 0.523989,-0.4004 1.093035,-0.7384 1.639552,-1.1075 0.328887,-0.1821 0.951027,-0.6271 1.383414,-0.4979 0.325461,0.097 0.239761,0.5036 0.223354,0.7404 -0.03109,0.1661 -0.05587,0.3336 -0.09329,0.4983 -0.402162,1.7707 -1.165659,3.4415 -1.952144,5.0678 -0.630711,1.172 -0.862722,1.642 -1.566908,2.788 -1.194754,1.9445 -2.57962,3.7708 -4.236636,5.3474 -0.447936,0.388 -0.87735,0.7986 -1.343804,1.1641 -1.115882,0.8747 -2.400841,1.6314 -3.626362,2.3192 -1.455742,0.8169 -2.992609,1.4821 -4.57484,2.0113 -1.450051,0.4565 -2.914291,0.9409 -4.43632,1.0846 0,0 0.957665,-0.6958 0.957665,-0.6958 z"
       inkscape:connector-curvature="0" />
    <path
       style="fill:#ffeeaa;fill-opacity:1;stroke:#0c80c8;stroke-width:0.81355941;stroke-linejoin:round;stroke-miterlimit:4;stroke-opacity:1;stroke-dasharray:none;stroke-dashoffset:0"
       id="path6270"
       d="m 35.634783,1025.5599 c 0.161172,0 0.322437,0 0.48366,0 0,0 -0.947212,0.6883 -0.947212,0.6883 l 0,0 c -0.165356,-10e-5 -0.330746,-10e-5 -0.49605,0 0,0 0.959602,-0.6972 0.959602,-0.6972 z"
       inkscape:connector-curvature="0" />
    <path
       style="fill:#ffeeaa;fill-opacity:1;stroke:#0c80c8;stroke-width:0.81355941;stroke-linejoin:round;stroke-miterlimit:4;stroke-opacity:1;stroke-dasharray:none;stroke-dashoffset:0"
       id="path6272"
       d="m 33.469492,1024.7918 c 0.230539,-0.1053 0.461543,-0.2053 0.678642,-0.3368 0,0 -0.89985,0.7281 -0.89985,0.7281 l 0,0 c -0.229973,0.1242 -0.469808,0.2272 -0.701858,0.3472 0,0 0.923066,-0.7384 0.923066,-0.7384 z"
       inkscape:connector-curvature="0" />
    <path
       style="fill:#ffeeaa;fill-opacity:1;stroke:#0c80c8;stroke-width:0.81355941;stroke-linejoin:round;stroke-miterlimit:4;stroke-opacity:1;stroke-dasharray:none;stroke-dashoffset:0"
       id="path6274"
       d="m 17.684548,1041.0977 c 1.044831,-0.766 2.260915,-1.2432 3.443221,-1.7466 2.215281,-0.8516 4.484739,-1.5686 6.784441,-2.1559 0.537641,-0.1372 1.079404,-0.2578 1.619111,-0.3868 2.333854,-0.5291 4.688805,-0.9574 7.04865,-1.352 0.610474,-0.074 1.22106,-0.2391 1.8402,-0.1959 0.08177,0.01 0.163275,0.02 0.244999,0.03 0,0 -0.963447,0.6817 -0.963447,0.6817 l 0,0 c -0.07741,-0.011 -0.154815,-0.023 -0.23259,-0.031 -0.569771,-0.047 -1.137236,0.07 -1.702162,0.1255 -2.300715,0.313 -4.59063,0.7091 -6.856886,1.2164 -0.538594,0.1292 -1.079685,0.2483 -1.615789,0.3876 -2.353572,0.6111 -4.675,1.3671 -6.927364,2.2828 -0.556105,0.2471 -0.984762,0.4317 -1.524075,0.6901 -0.158493,0.076 -0.61044,0.3437 -0.471403,0.2362 0.211674,-0.1637 0.46075,-0.2722 0.692022,-0.4066 0.09777,-0.057 -0.325383,0.1898 -0.285251,0.1838 0,0 -1.093677,0.4414 -1.093677,0.4414 z"
       inkscape:connector-curvature="0" />
  </g>
</svg>
