<?xml version="1.0" encoding="UTF-8" standalone="no"?>
<!-- Created with Inkscape (http://www.inkscape.org/) -->

<svg
   xmlns:osb="http://www.openswatchbook.org/uri/2009/osb"
   xmlns:dc="http://purl.org/dc/elements/1.1/"
   xmlns:cc="http://creativecommons.org/ns#"
   xmlns:rdf="http://www.w3.org/1999/02/22-rdf-syntax-ns#"
   xmlns:svg="http://www.w3.org/2000/svg"
   xmlns="http://www.w3.org/2000/svg"
   xmlns:xlink="http://www.w3.org/1999/xlink"
   xmlns:sodipodi="http://sodipodi.sourceforge.net/DTD/sodipodi-0.dtd"
   xmlns:inkscape="http://www.inkscape.org/namespaces/inkscape"
   width="24"
   height="24"
   id="svg7564"
   version="1.1"
   inkscape:version="0.48.3.1 r9886"
   sodipodi:docname="enote.svg">
  <title
     id="title5651">enote icon</title>
  <defs
     id="defs7566">
    <linearGradient
       id="linearGradient6206">
      <stop
         offset="0"
         style="stop-color:#fefdf6;stop-opacity:1;"
         id="stop6208" />
      <stop
         offset="1"
         style="stop-color:#f8e384;stop-opacity:1;"
         id="stop6210" />
    </linearGradient>
    <linearGradient
       id="linearGradient5604"
       osb:paint="solid">
      <stop
         style="stop-color:#ff80c8;stop-opacity:1;"
         offset="0"
         id="stop5606" />
    </linearGradient>
    <linearGradient
       id="linearGradient5578"
       osb:paint="gradient">
      <stop
         style="stop-color:#0c80c8;stop-opacity:1;"
         offset="0"
         id="stop5580" />
      <stop
         style="stop-color:#0c80c8;stop-opacity:0;"
         offset="1"
         id="stop5582" />
    </linearGradient>
    <linearGradient
       id="linearGradient5570"
       osb:paint="solid">
      <stop
         style="stop-color:#ff80c8;stop-opacity:1;"
         offset="0"
         id="stop5572" />
    </linearGradient>
    <linearGradient
       id="linearGradient4040">
      <stop
         style="stop-color:#0c80c8;stop-opacity:1;"
         offset="0"
         id="stop4042" />
      <stop
         style="stop-color:#0c80c8;stop-opacity:0;"
         offset="1"
         id="stop4044" />
    </linearGradient>
    <linearGradient
       id="linearGradient3894">
      <stop
         id="stop3896"
         offset="0"
         style="stop-color:#0c80c8;stop-opacity:1" />
      <stop
         id="stop3898"
         offset="1"
         style="stop-color:#185f9a;stop-opacity:1;" />
    </linearGradient>
    <linearGradient
       inkscape:collect="always"
       xlink:href="#linearGradient3688-166-749"
       id="linearGradient18443"
       gradientUnits="userSpaceOnUse"
       gradientTransform="translate(-0.12497443,0.06897341)"
       x1="34.124973"
       y1="42.931026"
       x2="34.124973"
       y2="16.931026" />
    <linearGradient
       id="linearGradient3688-166-749">
      <stop
         id="stop2883"
         style="stop-color:#181818;stop-opacity:1"
         offset="0" />
      <stop
         id="stop2885"
         style="stop-color:#181818;stop-opacity:0"
         offset="1" />
    </linearGradient>
    <linearGradient
       inkscape:collect="always"
       xlink:href="#linearGradient3688-166-749"
       id="linearGradient18440"
       gradientUnits="userSpaceOnUse"
       gradientTransform="translate(-0.12497443,0.06897341)"
       x1="34.124973"
       y1="42.931026"
       x2="34.124973"
       y2="16.931026" />
    <linearGradient
       id="linearGradient7476">
      <stop
         id="stop7478"
         style="stop-color:#181818;stop-opacity:1"
         offset="0" />
      <stop
         id="stop7480"
         style="stop-color:#181818;stop-opacity:0"
         offset="1" />
    </linearGradient>
    <linearGradient
       inkscape:collect="always"
       xlink:href="#linearGradient3688-166-749"
       id="linearGradient18437"
       gradientUnits="userSpaceOnUse"
       gradientTransform="translate(-0.12497443,0.06897341)"
       x1="34.124973"
       y1="42.931026"
       x2="34.124973"
       y2="16.931026" />
    <linearGradient
       id="linearGradient7483">
      <stop
         id="stop7485"
         style="stop-color:#181818;stop-opacity:1"
         offset="0" />
      <stop
         id="stop7487"
         style="stop-color:#181818;stop-opacity:0"
         offset="1" />
    </linearGradient>
    <radialGradient
       inkscape:collect="always"
       xlink:href="#linearGradient18375"
       id="radialGradient18432"
       gradientUnits="userSpaceOnUse"
       gradientTransform="matrix(-8.6867956e-8,2.3570682,-1.5152443,-5.5842562e-8,64.085431,-60.140705)"
       cx="33.575909"
       cy="22.495005"
       fx="33.575909"
       fy="22.495005"
       r="11.879165" />
    <linearGradient
       id="linearGradient18375">
      <stop
         style="stop-color:#90dbec;stop-opacity:1;"
         offset="0"
         id="stop18377" />
      <stop
         id="stop18387"
         offset="0.35714287"
         style="stop-color:#55c1ec;stop-opacity:1;" />
      <stop
         id="stop18385"
         offset="0.60714287"
         style="stop-color:#3689e6;stop-opacity:1;" />
      <stop
         style="stop-color:#2b63a0;stop-opacity:1;"
         offset="1"
         id="stop18379" />
    </linearGradient>
    <linearGradient
       inkscape:collect="always"
       xlink:href="#linearGradient18393"
       id="linearGradient18434"
       gradientUnits="userSpaceOnUse"
       x1="46"
       y1="18"
       x2="46"
       y2="41.999996" />
    <linearGradient
       id="linearGradient18393">
      <stop
         style="stop-color:#599ec9;stop-opacity:1;"
         offset="0"
         id="stop18395" />
      <stop
         style="stop-color:#185f9a;stop-opacity:1;"
         offset="1"
         id="stop18397" />
    </linearGradient>
    <linearGradient
       inkscape:collect="always"
       xlink:href="#linearGradient3924"
       id="linearGradient18429"
       gradientUnits="userSpaceOnUse"
       gradientTransform="translate(-2.523e-5,0.06602467)"
       x1="44.000027"
       y1="19.933975"
       x2="44.000027"
       y2="39.933975" />
    <linearGradient
       id="linearGradient3924">
      <stop
         id="stop3926"
         style="stop-color:#ffffff;stop-opacity:1"
         offset="0" />
      <stop
         id="stop3928"
         style="stop-color:#ffffff;stop-opacity:0.23529412"
         offset="0.10000001" />
      <stop
         id="stop3930"
         style="stop-color:#ffffff;stop-opacity:0.15686275"
         offset="0.94999999" />
      <stop
         id="stop3932"
         style="stop-color:#ffffff;stop-opacity:0.39215687"
         offset="1" />
    </linearGradient>
    <linearGradient
       inkscape:collect="always"
       xlink:href="#linearGradient3104-6"
       id="linearGradient7095"
       gradientUnits="userSpaceOnUse"
       gradientTransform="matrix(0.36119231,0,0,0.45541642,-1051.3929,3.4841565)"
       x1="0.50847417"
       y1="-34"
       x2="59.491524"
       y2="-34" />
    <linearGradient
       id="linearGradient3104-6">
      <stop
         offset="0"
         style="stop-color:#000000;stop-opacity:0.31782946"
         id="stop3106-3" />
      <stop
         offset="1"
         style="stop-color:#000000;stop-opacity:0.24031007"
         id="stop3108-9" />
    </linearGradient>
    <linearGradient
       inkscape:collect="always"
       xlink:href="#linearGradient3977-4-9"
       id="linearGradient7004"
       gradientUnits="userSpaceOnUse"
       gradientTransform="matrix(0.35417889,0,0,0.44657336,1029.9318,3.183493)"
       x1="1.5087713"
       y1="-34"
       x2="58.491226"
       y2="-34" />
    <linearGradient
       id="linearGradient3977-4-9">
      <stop
         id="stop3979-7-0"
         style="stop-color:#ffffff;stop-opacity:1"
         offset="0" />
      <stop
         id="stop3981-6-9"
         style="stop-color:#ffffff;stop-opacity:0.23529412"
         offset="0.01785714" />
      <stop
         id="stop3983-5-2"
         style="stop-color:#ffffff;stop-opacity:0.15686275"
         offset="0.98245609" />
      <stop
         id="stop3985-6-8"
         style="stop-color:#ffffff;stop-opacity:0.39215687"
         offset="1" />
    </linearGradient>
    <linearGradient
       id="linearGradient3600-9-3">
      <stop
         id="stop3602-3-0"
         style="stop-color:#f4f4f4;stop-opacity:1"
         offset="0" />
      <stop
         id="stop3604-7-1"
         style="stop-color:#dbdbdb;stop-opacity:1"
         offset="1" />
    </linearGradient>
    <linearGradient
       id="linearGradient7520">
      <stop
         id="stop7522"
         style="stop-color:#181818;stop-opacity:1"
         offset="0" />
      <stop
         id="stop7524"
         style="stop-color:#181818;stop-opacity:0"
         offset="1" />
    </linearGradient>
    <linearGradient
       id="linearGradient3688-464-309">
      <stop
         id="stop2889"
         style="stop-color:#181818;stop-opacity:1"
         offset="0" />
      <stop
         id="stop2891"
         style="stop-color:#181818;stop-opacity:0"
         offset="1" />
    </linearGradient>
    <linearGradient
       inkscape:collect="always"
       xlink:href="#linearGradient3702-501-757"
       id="linearGradient7118"
       gradientUnits="userSpaceOnUse"
       gradientTransform="matrix(1.5714287,0,0,0.7142857,-5.7142845,28.428574)"
       x1="25.058096"
       y1="47.027729"
       x2="25.058096"
       y2="39.999443" />
    <linearGradient
       id="linearGradient3702-501-757">
      <stop
         id="stop2895"
         style="stop-color:#181818;stop-opacity:0"
         offset="0" />
      <stop
         id="stop2897"
         style="stop-color:#181818;stop-opacity:1"
         offset="0.5" />
      <stop
         id="stop2899"
         style="stop-color:#181818;stop-opacity:0"
         offset="1" />
    </linearGradient>
    <linearGradient
       inkscape:collect="always"
       xlink:href="#linearGradient3702-501-757"
       id="linearGradient7788"
       gradientUnits="userSpaceOnUse"
       gradientTransform="matrix(3.0714288,0,0,1.4285713,-9.7142831,979.21942)"
       x1="25.058096"
       y1="47.027729"
       x2="25.058096"
       y2="39.999443" />
    <radialGradient
       inkscape:collect="always"
       xlink:href="#linearGradient3688-464-309"
       id="radialGradient7791"
       gradientUnits="userSpaceOnUse"
       gradientTransform="matrix(6.4121086,0,0,2,-53.037984,-1128.3622)"
       cx="4.9929786"
       cy="43.5"
       fx="4.9929786"
       fy="43.5"
       r="2.5" />
    <radialGradient
       inkscape:collect="always"
       xlink:href="#linearGradient3688-166-749"
       id="radialGradient7794"
       gradientUnits="userSpaceOnUse"
       gradientTransform="matrix(6.4121086,0,0,2,74.96201,954.36222)"
       cx="4.9929786"
       cy="43.5"
       fx="4.9929786"
       fy="43.5"
       r="2.5" />
    <linearGradient
       inkscape:collect="always"
       xlink:href="#linearGradient3924"
       id="linearGradient8332"
       gradientUnits="userSpaceOnUse"
       gradientTransform="matrix(2.1484769,0,0,2.1494197,-53.84864,933.94246)"
       x1="44.000027"
       y1="19.933975"
       x2="44.000027"
       y2="39.933975" />
    <radialGradient
       inkscape:collect="always"
       xlink:href="#linearGradient18375"
       id="radialGradient8335"
       gradientUnits="userSpaceOnUse"
       gradientTransform="matrix(-1.746571e-7,4.7406513,-3.046557,-1.123133e-7,79.789501,817.24102)"
       cx="33.575909"
       cy="22.495005"
       fx="33.575909"
       fy="22.495005"
       r="11.879165" />
    <linearGradient
       inkscape:collect="always"
       xlink:href="#linearGradient18393"
       id="linearGradient8337"
       gradientUnits="userSpaceOnUse"
       x1="46"
       y1="18"
       x2="46"
       y2="41.999996"
       gradientTransform="matrix(2.0106045,0,0,2.0112491,-49.060955,938.19897)" />
    <linearGradient
       inkscape:collect="always"
       xlink:href="#linearGradient3688-166-749"
       id="linearGradient8340"
       gradientUnits="userSpaceOnUse"
       gradientTransform="matrix(1.9206264,0,0,1.9212894,-46.360527,941.29341)"
       x1="34.124973"
       y1="42.931026"
       x2="34.124973"
       y2="16.931026" />
    <linearGradient
       inkscape:collect="always"
       xlink:href="#linearGradient3688-166-749"
       id="linearGradient8343"
       gradientUnits="userSpaceOnUse"
       gradientTransform="matrix(1.7998049,0,0,1.8003922,-42.912231,945.62838)"
       x1="34.124973"
       y1="42.931026"
       x2="34.124973"
       y2="16.931026" />
    <linearGradient
       inkscape:collect="always"
       xlink:href="#linearGradient3688-166-749"
       id="linearGradient8346"
       gradientUnits="userSpaceOnUse"
       gradientTransform="matrix(1.7405727,0,0,1.7412667,-40.869182,947.39659)"
       x1="34.124973"
       y1="42.931026"
       x2="34.124973"
       y2="16.931026" />
    <linearGradient
       inkscape:collect="always"
       xlink:href="#linearGradient3688-166-749"
       id="linearGradient8355"
       gradientUnits="userSpaceOnUse"
       gradientTransform="matrix(1.7405727,0,0,1.7412667,-40.869182,947.39659)"
       x1="34.124973"
       y1="42.931026"
       x2="34.124973"
       y2="16.931026" />
    <linearGradient
       inkscape:collect="always"
       xlink:href="#linearGradient3688-166-749"
       id="linearGradient8357"
       gradientUnits="userSpaceOnUse"
       gradientTransform="matrix(1.7998049,0,0,1.8003922,-42.912231,945.62838)"
       x1="34.124973"
       y1="42.931026"
       x2="34.124973"
       y2="16.931026" />
    <linearGradient
       inkscape:collect="always"
       xlink:href="#linearGradient3688-166-749"
       id="linearGradient8359"
       gradientUnits="userSpaceOnUse"
       gradientTransform="matrix(1.9206264,0,0,1.9212894,-46.360527,941.29341)"
       x1="34.124973"
       y1="42.931026"
       x2="34.124973"
       y2="16.931026" />
    <radialGradient
       inkscape:collect="always"
       xlink:href="#linearGradient18375"
       id="radialGradient8361"
       gradientUnits="userSpaceOnUse"
       gradientTransform="matrix(-1.746571e-7,4.7406513,-3.046557,-1.123133e-7,79.789501,817.24102)"
       cx="35.207165"
       cy="22.940353"
       fx="33.194881"
       fy="17.51687"
       r="11.879165" />
    <linearGradient
       inkscape:collect="always"
       xlink:href="#linearGradient18393"
       id="linearGradient8363"
       gradientUnits="userSpaceOnUse"
       gradientTransform="matrix(2.0106045,0,0,2.0112491,-49.060955,938.19897)"
       x1="45.738163"
       y1="18.576885"
       x2="45.738163"
       y2="41.448246" />
    <linearGradient
       inkscape:collect="always"
       xlink:href="#linearGradient3924"
       id="linearGradient8365"
       gradientUnits="userSpaceOnUse"
       gradientTransform="matrix(2.1484769,0,0,2.1494197,-53.84864,933.94246)"
       x1="44.000027"
       y1="19.933975"
       x2="44.000027"
       y2="39.933975" />
    <radialGradient
       inkscape:collect="always"
       xlink:href="#linearGradient18375-4"
       id="radialGradient8361-8"
       gradientUnits="userSpaceOnUse"
       gradientTransform="matrix(-1.746571e-7,4.7406513,-3.046557,-1.123133e-7,79.789501,817.24102)"
       cx="35.207165"
       cy="22.940353"
       fx="33.194881"
       fy="17.51687"
       r="11.879165" />
    <linearGradient
       id="linearGradient18375-4">
      <stop
         style="stop-color:#90dbec;stop-opacity:1;"
         offset="0"
         id="stop18377-1" />
      <stop
         id="stop18387-4"
         offset="0.35714287"
         style="stop-color:#55c1ec;stop-opacity:1;" />
      <stop
         id="stop18385-5"
         offset="0.60714287"
         style="stop-color:#3689e6;stop-opacity:1;" />
      <stop
         style="stop-color:#2b63a0;stop-opacity:1;"
         offset="1"
         id="stop18379-1" />
    </linearGradient>
    <linearGradient
       inkscape:collect="always"
       xlink:href="#linearGradient18393-9"
       id="linearGradient8363-4"
       gradientUnits="userSpaceOnUse"
       gradientTransform="matrix(2.0106045,0,0,2.0112491,-49.060955,938.19897)"
       x1="45.738163"
       y1="18.576885"
       x2="45.738163"
       y2="41.448246" />
    <linearGradient
       id="linearGradient18393-9">
      <stop
         style="stop-color:#599ec9;stop-opacity:1;"
         offset="0"
         id="stop18395-1" />
      <stop
         style="stop-color:#185f9a;stop-opacity:1;"
         offset="1"
         id="stop18397-8" />
    </linearGradient>
    <radialGradient
       r="11.879165"
       fy="17.51687"
       fx="33.194881"
       cy="22.940353"
       cx="35.207165"
       gradientTransform="matrix(0,0.21653083,-0.13915251,0,6.557914,1023.9749)"
       gradientUnits="userSpaceOnUse"
       id="radialGradient3929"
       xlink:href="#linearGradient18375-4"
       inkscape:collect="always" />
    <linearGradient
       y2="41.448246"
       x2="45.738163"
       y1="18.576885"
       x1="45.738163"
       gradientTransform="matrix(0.09183503,0,0,0.09186447,0.672625,1029.4997)"
       gradientUnits="userSpaceOnUse"
       id="linearGradient3931"
       xlink:href="#linearGradient18393-9"
       inkscape:collect="always" />
    <radialGradient
       r="11.879165"
       fy="17.51687"
       fx="33.194881"
       cy="22.940353"
       cx="35.207165"
       gradientTransform="matrix(-3.9222812e-8,1.0646099,-0.68416647,-2.5222241e-8,37.243071,909.83295)"
       gradientUnits="userSpaceOnUse"
       id="radialGradient3929-1"
       xlink:href="#linearGradient18375-4-9"
       inkscape:collect="always" />
    <linearGradient
       id="linearGradient18375-4-9">
      <stop
         style="stop-color:#ffdbec;stop-opacity:1;"
         offset="0"
         id="stop18377-1-2" />
      <stop
         id="stop18387-4-1"
         offset="0.35714287"
         style="stop-color:#55c1ec;stop-opacity:1;" />
      <stop
         id="stop18385-5-6"
         offset="0.60714287"
         style="stop-color:#3689e6;stop-opacity:1;" />
      <stop
         style="stop-color:#2b63a0;stop-opacity:1;"
         offset="1"
         id="stop18379-1-7" />
    </linearGradient>
    <linearGradient
       y2="41.448246"
       x2="45.738163"
       y1="18.576885"
       x1="45.738163"
       gradientTransform="matrix(0.45152221,0,0,0.45166697,8.3070727,936.99652)"
       gradientUnits="userSpaceOnUse"
       id="linearGradient3931-4"
       xlink:href="#linearGradient18393-9-0"
       inkscape:collect="always" />
    <linearGradient
       id="linearGradient18393-9-0">
      <stop
         style="stop-color:#ffffff;stop-opacity:1;"
         offset="0"
         id="stop18395-1-8" />
      <stop
         id="stop5876"
         offset="0.5"
         style="stop-color:#0e97ee;stop-opacity:1;" />
      <stop
         style="stop-color:#074871;stop-opacity:1;"
         offset="1"
         id="stop18397-8-4" />
    </linearGradient>
    <radialGradient
       inkscape:collect="always"
       xlink:href="#linearGradient18375-4"
       id="radialGradient4022"
       gradientUnits="userSpaceOnUse"
       gradientTransform="matrix(0,0.21653083,-0.13915251,0,6.557914,1028.0427)"
       cx="35.207165"
       cy="22.940353"
       fx="33.194881"
       fy="17.51687"
       r="11.879165" />
    <linearGradient
       inkscape:collect="always"
       xlink:href="#linearGradient18393-9"
       id="linearGradient4024"
       gradientUnits="userSpaceOnUse"
       gradientTransform="matrix(0.09183503,0,0,0.09186447,0.672625,1033.5675)"
       x1="45.738163"
       y1="18.576885"
       x2="45.738163"
       y2="41.448246" />
    <radialGradient
       inkscape:collect="always"
       xlink:href="#linearGradient18375-4"
       id="radialGradient4028"
       gradientUnits="userSpaceOnUse"
       gradientTransform="matrix(0,0.21653083,-0.13915251,0,6.557914,1040.6529)"
       cx="35.207165"
       cy="22.940353"
       fx="33.194881"
       fy="17.51687"
       r="11.879165" />
    <linearGradient
       inkscape:collect="always"
       xlink:href="#linearGradient18393-9"
       id="linearGradient4030"
       gradientUnits="userSpaceOnUse"
       gradientTransform="matrix(0.09183503,0,0,0.09186447,0.672625,1046.1777)"
       x1="45.738163"
       y1="18.576885"
       x2="45.738163"
       y2="41.448246" />
    <linearGradient
       inkscape:collect="always"
       xlink:href="#linearGradient18375-4"
       id="linearGradient6202"
       x1="7.875"
       y1="38.697365"
       x2="55.59375"
       y2="38.697365"
       gradientUnits="userSpaceOnUse" />
    <linearGradient
       inkscape:collect="always"
       xlink:href="#linearGradient18375-4"
       id="linearGradient6204"
       gradientUnits="userSpaceOnUse"
       x1="27.750006"
       y1="16.916304"
       x2="27.750006"
       y2="54.037865"
       gradientTransform="matrix(0.78310253,0,0,0.78310253,1.7080675,10.873486)" />
    <linearGradient
       inkscape:collect="always"
       xlink:href="#linearGradient6206"
       id="linearGradient6218"
       x1="940.54749"
       y1="-64"
       x2="1042.3622"
       y2="-64"
       gradientUnits="userSpaceOnUse"
       gradientTransform="matrix(0.20338983,0,0,0.20338983,838.92409,1.016949)" />
  </defs>
  <sodipodi:namedview
     id="base"
     pagecolor="#ffffff"
     bordercolor="#666666"
     borderopacity="1.0"
     inkscape:pageopacity="0.0"
     inkscape:pageshadow="2"
     inkscape:zoom="22.111089"
     inkscape:cx="16.003891"
     inkscape:cy="15.503796"
     inkscape:document-units="px"
     inkscape:current-layer="layer1"
     showgrid="false"
     inkscape:window-width="1371"
     inkscape:window-height="931"
     inkscape:window-x="437"
     inkscape:window-y="139"
     inkscape:window-maximized="0">
    <inkscape:grid
       type="xygrid"
       id="grid7756"
       empspacing="12"
       visible="true"
       enabled="true"
       snapvisiblegridlinesonly="true" />
  </sodipodi:namedview>
  <metadata
     id="metadata7569">
    <rdf:RDF>
      <cc:Work
         rdf:about="">
        <dc:format>image/svg+xml</dc:format>
        <dc:type
           rdf:resource="http://purl.org/dc/dcmitype/StillImage" />
        <dc:title>enote icon</dc:title>
        <cc:license
           rdf:resource="http://creativecommons.org/licenses/by/3.0/" />
        <dc:date>01/14/2014</dc:date>
        <dc:creator>
          <cc:Agent>
            <dc:title>Nikos Vasilakis</dc:title>
          </cc:Agent>
        </dc:creator>
        <dc:subject>
          <rdf:Bag>
            <rdf:li>enote</rdf:li>
            <rdf:li>icon</rdf:li>
            <rdf:li>note taking</rdf:li>
            <rdf:li>reminders</rdf:li>
          </rdf:Bag>
        </dc:subject>
        <dc:rights>
          <cc:Agent>
            <dc:title>Nikos Vasilakis</dc:title>
          </cc:Agent>
        </dc:rights>
      </cc:Work>
      <cc:License
         rdf:about="http://creativecommons.org/licenses/by/3.0/">
        <cc:permits
           rdf:resource="http://creativecommons.org/ns#Reproduction" />
        <cc:permits
           rdf:resource="http://creativecommons.org/ns#Distribution" />
        <cc:requires
           rdf:resource="http://creativecommons.org/ns#Notice" />
        <cc:requires
           rdf:resource="http://creativecommons.org/ns#Attribution" />
        <cc:permits
           rdf:resource="http://creativecommons.org/ns#DerivativeWorks" />
      </cc:License>
    </rdf:RDF>
  </metadata>
  <g
     inkscape:label="Layer 1"
     inkscape:groupmode="layer"
     id="layer1"
     transform="translate(0,-1028.3622)"
     style="display:inline">
    <g
       id="g7796"
       transform="matrix(0.20338983,0,0,0.20338983,-1.016949,838.92409)">
      <rect
         width="16"
         height="10"
         x="107"
         y="1036.3622"
         id="rect2801"
         style="opacity:0.4;fill:url(#radialGradient7794);fill-opacity:1;stroke:none" />
      <rect
         width="16"
         height="10"
         x="-21"
         y="-1046.3622"
         transform="scale(-1,-1)"
         id="rect3696"
         style="opacity:0.4;fill:url(#radialGradient7791);fill-opacity:1;stroke:none" />
      <rect
         width="86"
         height="10"
         x="21"
         y="1036.3622"
         id="rect3700"
         style="opacity:0.4;fill:url(#linearGradient7788);fill-opacity:1;stroke:none" />
    </g>
    <g
       id="g8348"
       transform="matrix(0.20338983,0,0,0.20338983,7.952462,837.25639)">
      <path
         sodipodi:nodetypes="ccccccccc"
         style="opacity:0.03999999;fill:none;stroke:url(#linearGradient8355);stroke-width:1;stroke-linecap:round;stroke-linejoin:bevel;stroke-miterlimit:0;stroke-opacity:1;stroke-dasharray:none;stroke-dashoffset:0"
         d="M 32.146618,972.84239 14.481464,1003.7119 0.25213459,995.56921 -6.3604727,1007.0981 c -0.6756764,0.9281 0.603646,2.8845 1.2993198,3.2507 l 22.2297879,13.0891 c 1.607447,0.7136 3.744467,0.025 4.636044,-1.3342 l 23.915319,-41.55498 z"
         id="path18415"
         inkscape:connector-curvature="0" />
      <path
         inkscape:connector-curvature="0"
         id="path18413"
         d="M 32.709552,973.48232 14.791386,1004.8476 0.54199027,996.84625 -5.0493947,1006.577 c -0.6986698,0.9596 -0.503036,2.4458 0.2163119,2.8244 l 22.0830658,12.8732 c 1.538328,1.0447 3.60011,-0.074 4.005012,-1.1695 l 23.265002,-40.52121 z"
         style="opacity:0.07999998;fill:none;stroke:url(#linearGradient8357);stroke-width:0.99999994;stroke-linecap:round;stroke-linejoin:bevel;stroke-miterlimit:0;stroke-opacity:1;stroke-dasharray:none;stroke-dashoffset:0"
         sodipodi:nodetypes="ccccccccc" />
      <path
         sodipodi:nodetypes="ccccccccc"
         style="opacity:0.16000001;fill:none;stroke:url(#linearGradient8359);stroke-width:1;stroke-linecap:round;stroke-linejoin:bevel;stroke-miterlimit:0;stroke-opacity:1;stroke-dasharray:none;stroke-dashoffset:0"
         d="m 33.076658,974.85342 -17.985637,31.24988 -14.1064917,-7.98513 -5.2332754,9.05693 c -0.7455718,1.024 -0.024603,1.556 0.7430347,1.9601 l 20.9618774,12.1367 c 1.701319,1.0081 2.313327,0.6102 3.213661,-1.0503 l 22.650011,-39.44359 z"
         id="path18407"
         inkscape:connector-curvature="0" />
      <path
         inkscape:connector-curvature="0"
         id="rect17386"
         d="m 33.472758,975.97308 -18.095441,31.35232 -13.9298759,-8.045 -5.0265112,8.7089 13.9298761,8.045 8.706173,5.0281 5.026511,-8.7089 18.095441,-31.35233 -8.706173,-5.02809 z"
         style="fill:url(#radialGradient8361);fill-opacity:1;fill-rule:nonzero;stroke:url(#linearGradient8363);stroke-width:0.99999994;stroke-linecap:butt;stroke-linejoin:round;stroke-miterlimit:0;stroke-opacity:1;stroke-dasharray:none;stroke-dashoffset:0" />
      <path
         sodipodi:nodetypes="ccccccc"
         style="opacity:0.5;fill:none;stroke:url(#linearGradient8365);stroke-width:0.99999994;stroke-linecap:butt;stroke-linejoin:round;stroke-miterlimit:0;stroke-opacity:1;stroke-dasharray:none;stroke-dashoffset:0"
         d="m 33.931024,977.34784 -18.036292,31.40606 -13.9850866,-8.1977 -4.2227153,6.9843 20.9669919,12.1219 22.159008,-38.39042 z"
         id="path18401"
         inkscape:connector-curvature="0" />
    </g>
    <rect
       style="fill:url(#linearGradient6218);fill-opacity:1;stroke:none"
       id="rect6994"
       width="20.745764"
       height="20.745764"
       x="1030.1842"
       y="-22.372883"
       rx="0.50847453"
       ry="0.50847453"
       transform="matrix(0,1,-1,0,0,0)" />
    <rect
       style="fill:none;stroke:url(#linearGradient7004);stroke-width:0.20338985"
       id="rect7002"
       width="20.542374"
       height="20.542374"
       x="1030.286"
       y="-22.271185"
       rx="0.40677971"
       ry="0.40677971"
       transform="matrix(0,1,-1,0,0,0)" />
    <rect
       transform="matrix(0,-1,-1,0,0,0)"
       ry="0.61016947"
       rx="0.61016947"
       y="-22.474571"
       x="-1051.0316"
       height="20.949152"
       width="20.949152"
       id="rect6998"
       style="fill:none;stroke:url(#linearGradient7095);stroke-width:0.20338985" />
    <g
       id="g8367"
       style="opacity:0.6"
       transform="matrix(0.20338983,0,0,0.20338983,-1.016949,838.92409)">
      <rect
         y="940.36218"
         x="33"
         height="102"
         width="1"
         id="rect15708"
         style="opacity:0.12000002;fill:#da4d45;fill-opacity:1;fill-rule:nonzero;stroke:none" />
      <rect
         y="960.36218"
         x="13"
         height="1"
         width="102"
         id="rect15710"
         style="opacity:0.5;fill:#b9b9b9;fill-opacity:1;fill-rule:nonzero;stroke:none" />
      <rect
         style="opacity:0.5;fill:#b9b9b9;fill-opacity:1;fill-rule:nonzero;stroke:none"
         id="rect15712"
         width="102"
         height="1"
         x="13"
         y="981.36218" />
      <rect
         y="1002.3622"
         x="13"
         height="1"
         width="102"
         id="rect16848"
         style="opacity:0.5;fill:#b9b9b9;fill-opacity:1;fill-rule:nonzero;stroke:none" />
      <rect
         style="opacity:0.5;fill:#b9b9b9;fill-opacity:1;fill-rule:nonzero;stroke:none"
         id="rect7153"
         width="102"
         height="1"
         x="13"
         y="1023.3622" />
      <rect
         style="opacity:0.12000002;fill:#da4d45;fill-opacity:1;fill-rule:nonzero;stroke:none"
         id="rect5610"
         width="1"
         height="102"
         x="31"
         y="940.36218" />
    </g>
    <text
       sodipodi:linespacing="125%"
       id="text5616"
       y="1036.9269"
       x="7.1837645"
       style="font-size:2.03389812px;font-style:normal;font-variant:normal;font-weight:normal;font-stretch:normal;line-height:125%;letter-spacing:0px;word-spacing:0px;fill:#000000;fill-opacity:0.18039216;stroke:none;font-family:Jenna Sue;-inkscape-font-specification:Jenna Sue"
       xml:space="preserve"><tspan
         y="1036.9269"
         x="7.1837645"
         id="tspan5618"
         sodipodi:role="line">create the application icon</tspan></text>
    <text
       sodipodi:linespacing="125%"
       id="text6239"
       y="1041.2651"
       x="6.370204"
       style="font-size:2.03389812px;font-style:normal;font-variant:normal;font-weight:normal;font-stretch:normal;line-height:125%;letter-spacing:0px;word-spacing:0px;fill:#000000;fill-opacity:0.18039216;stroke:none;font-family:Jenna Sue;-inkscape-font-specification:Jenna Sue"
       xml:space="preserve"><tspan
         y="1041.2651"
         x="6.370204"
         id="tspan6241"
         sodipodi:role="line">enote, for real!</tspan></text>
    <path
       inkscape:connector-curvature="0"
       id="rect17386-9"
       d="m 4.4423798,1031.225 -0.826515,1.432 -0.636252,-0.3675 -0.229587,0.3978 0.6362512,0.3675 0.3976575,0.2296 0.2295878,-0.3977 0.826515,-1.4321 -0.3976575,-0.2296 z"
       style="fill:url(#radialGradient3929);fill-opacity:1;fill-rule:nonzero;stroke:url(#linearGradient3931);stroke-width:0.04567533;stroke-linecap:butt;stroke-linejoin:round;stroke-miterlimit:0;stroke-opacity:1;stroke-dasharray:none;stroke-dashoffset:0" />
    <path
       style="fill:url(#radialGradient4022);fill-opacity:1;fill-rule:nonzero;stroke:url(#linearGradient4024);stroke-width:0.04567533;stroke-linecap:butt;stroke-linejoin:round;stroke-miterlimit:0;stroke-opacity:1;stroke-dasharray:none;stroke-dashoffset:0"
       d="m 4.4423798,1035.2928 -0.826515,1.432 -0.636252,-0.3675 -0.229587,0.3978 0.6362512,0.3675 0.3976575,0.2297 0.2295878,-0.3978 0.826515,-1.4321 -0.3976575,-0.2296 z"
       id="path4020"
       inkscape:connector-curvature="0" />
    <path
       inkscape:connector-curvature="0"
       id="path4026"
       d="m 4.4423798,1047.903 -0.826515,1.432 -0.636252,-0.3675 -0.229587,0.3978 0.6362512,0.3674 0.3976575,0.2298 0.2295878,-0.3978 0.826515,-1.4321 -0.3976575,-0.2296 z"
       style="fill:url(#radialGradient4028);fill-opacity:1;fill-rule:nonzero;stroke:url(#linearGradient4030);stroke-width:0.04567533;stroke-linecap:butt;stroke-linejoin:round;stroke-miterlimit:0;stroke-opacity:1;stroke-dasharray:none;stroke-dashoffset:0" />
    <text
       xml:space="preserve"
       style="font-size:2.03389812px;font-style:normal;font-variant:normal;font-weight:normal;font-stretch:normal;line-height:125%;letter-spacing:0px;word-spacing:0px;fill:#000000;fill-opacity:0.18039216;stroke:none;font-family:Jenna Sue;-inkscape-font-specification:Jenna Sue"
       x="6.370204"
       y="1032.8591"
       id="text5612"
       sodipodi:linespacing="125%"><tspan
         sodipodi:role="line"
         id="tspan5614"
         x="6.370204"
         y="1032.8591">don't forget to create enote</tspan></text>
    <text
       xml:space="preserve"
       style="font-size:2.03389812px;font-style:normal;font-variant:normal;font-weight:normal;font-stretch:normal;line-height:125%;letter-spacing:0px;word-spacing:0px;fill:#000000;fill-opacity:0.18039216;stroke:none;font-family:Jenna Sue;-inkscape-font-specification:Jenna Sue"
       x="6.370204"
       y="1049.4006"
       id="text5620"
       sodipodi:linespacing="125%"><tspan
         sodipodi:role="line"
         id="tspan5622"
         x="6.370204"
         y="1049.4006">have breakfast at Milliways!</tspan></text>
    <g
       transform="matrix(0.06638333,0,0,0.06638333,1.7130983,1037.8629)"
       id="g3877"
       style="fill:url(#linearGradient6202);fill-opacity:1;stroke:none">
      <path
         inkscape:connector-curvature="0"
         id="path3873"
         d="m 24.687233,30.666734 c -5.038477,0 -9.179644,3.914524 -9.666422,8.932263 -0.100328,-0.0038 -0.192261,-0.02447 -0.293664,-0.02447 -3.782503,0 -6.852147,2.726367 -6.852147,6.069045 0,3.321091 3.029942,6.009886 6.778731,6.044573 0.02436,2.25e-4 0.04899,0 0.07342,0 l 26.160519,0 c 2.419203,0 4.356008,-1.660841 4.356008,-3.719737 0,-1.785037 -1.46007,-3.258825 -3.426074,-3.62185 0.0054,-0.100203 0.02447,-0.192136 0.02447,-0.293663 0,-3.108103 -2.559689,-5.62855 -5.726437,-5.62855 -0.660784,0 -1.293645,0.116271 -1.88434,0.318136 -0.85005,-4.596751 -4.798492,-8.075745 -9.544062,-8.075745 z"
         style="fill:url(#linearGradient6204);fill-opacity:1;stroke:#0c80c8;stroke-opacity:1" />
    </g>
    <text
       sodipodi:linespacing="125%"
       id="text5628"
       y="1032.0457"
       x="19.38715"
       style="font-size:2.03389812px;font-style:normal;font-variant:normal;font-weight:normal;font-stretch:normal;line-height:125%;letter-spacing:0px;word-spacing:0px;fill:#000000;fill-opacity:0.18039216;stroke:none;font-family:Jenna Sue;-inkscape-font-specification:Jenna Sue"
       xml:space="preserve"><tspan
         y="1032.0457"
         x="19.38715"
         id="tspan5630"
         sodipodi:role="line">,</tspan></text>
    <text
       xml:space="preserve"
       style="font-size:2.03389812px;font-style:normal;font-variant:normal;font-weight:normal;font-stretch:normal;line-height:125%;letter-spacing:0px;word-spacing:0px;fill:#000000;fill-opacity:0.18039216;stroke:none;font-family:Jenna Sue;-inkscape-font-specification:Jenna Sue"
       x="6.370204"
       y="1045.3328"
       id="text6243"
       sodipodi:linespacing="125%"><tspan
         sodipodi:role="line"
         id="tspan6245"
         x="6.370204"
         y="1045.3328">well..            ..more work on icon?</tspan></text>
    <path
       style="fill:#ffeeaa;fill-opacity:1;stroke:#0c80c8;stroke-width:0.40677971;stroke-linejoin:round;stroke-miterlimit:4;stroke-opacity:1;stroke-dasharray:none;stroke-dashoffset:0"
       id="path6268"
       d="m 1.6473308,1043.285 c 0.7135905,-0.029 1.4014965,-0.2525 2.079411,-0.4574 1.2248325,-0.402 2.3889692,-0.9693 3.4089442,-1.7636 0.233884,-0.1821 0.449844,-0.3862 0.674766,-0.5793 0.825451,-0.7828 1.516186,-1.6913 2.110716,-2.6585 0.353056,-0.5744 0.45881,-0.7961 0.770495,-1.3847 0.373763,-0.7897 0.737379,-1.6077 0.881418,-2.4764 0.01295,-0.078 0.01859,-0.1572 0.02791,-0.2358 -8.25e-4,-0.058 0.01396,-0.2017 -0.03643,-0.2628 -0.116219,-0.1405 -0.608179,0.185 -0.684687,0.2282 0.09584,0.2628 0.02717,0.022 -0.473111,0.489 -0.627208,0.5863 -1.166523,1.2093 -1.640728,1.9273 -0.16298,0.2468 -0.30405,0.5073 -0.456075,0.761 -0.121166,0.2517 -0.255366,0.4975 -0.363495,0.7551 -0.343851,0.8191 -0.549102,1.7145 -0.535544,2.6058 0.0022,0.1446 0.02309,0.2881 0.03463,0.4323 0.04756,0.2473 0.05073,0.3416 0.141372,0.5623 0.03125,0.076 0.08706,0.1948 0.17078,0.2376 0.08381,0.043 0.150087,-0.01 0.227629,-0.031 -0.09724,0.048 -0.212774,0.2191 -0.291721,0.1446 -0.07435,-0.071 0.15609,-0.1322 0.229512,-0.2033 0.08693,-0.084 0.170294,-0.172 0.251133,-0.2622 0.25974,-0.2893 0.491049,-0.6022 0.723057,-0.9136 0.248186,-0.3374 0.371704,-0.5148 0.8511,-0.6426 0.04455,-0.011 0.05254,0.078 0.0635,0.1228 0.02285,0.093 0.0057,0.3353 0.0025,0.417 -0.007,0.2268 -0.03553,0.4532 -0.03307,0.6803 5e-4,0.048 0.0046,0.1617 0.02722,0.2166 0.0047,0.011 0.0173,0.017 0.02596,0.027 0.02993,-0.01 0.04315,-0.047 0.07547,-0.049 0.05602,-0.01 0.08238,0.063 0.102635,0.1022 0.03679,0.088 0.04847,0.1829 0.09435,0.2666 0.04625,0.062 0.09366,0.1254 0.147483,0.1817 0.03026,0.019 0.05854,0.04 0.09469,0.047 0.102952,0.02 0.234606,-0.01 0.336879,-0.024 0.189737,-0.034 0.331935,-0.044 0.51492,0.022 0.219324,0.1049 0.416783,0.2513 0.622742,0.38 0.297927,0.2009 0.610855,0.3777 0.917323,0.5649 0.171462,0.1047 0.34065,0.213 0.511984,0.318 0.07181,0.044 0.142937,0.09 0.21543,0.1326 0.0085,0.01 0.249056,0.1461 0.284029,0.1511 0.01387,0 0.03552,-0.041 0.02256,-0.035 -0.616568,0.2526 -0.404235,0.4045 -0.666746,0.093 -0.46371,-0.5265 -0.935133,-1.047 -1.376511,-1.5926 -0.154059,-0.1905 -0.310311,-0.3795 -0.452979,-0.5787 -0.149542,-0.2087 -0.281932,-0.4291 -0.422898,-0.6438 -0.250377,-0.4711 -0.488598,-0.8563 -0.633094,-1.3753 -0.13343,-0.4791 -0.16508,-0.9476 -0.08715,-1.4391 0.09686,-0.611 0.225131,-0.7564 0.50184,-1.2968 0.156399,-0.1878 0.296924,-0.39 0.469197,-0.5634 0.358475,-0.3607 0.757464,-0.6333 1.197603,-0.8826 0.316637,-0.1794 0.638031,-0.3511 0.967221,-0.5063 0.341996,-0.1612 0.66141,-0.2423 1.019006,-0.3475 0.244807,-0.034 0.635881,-0.1917 0.848281,0.04 0.21454,0.2341 0.14332,0.7219 0.13153,0.9977 -0.104047,0.7748 -0.271946,1.5389 -0.414319,2.3071 -0.09435,0.5089 -0.09743,0.5495 -0.174723,1.0417 -0.03526,0.2592 -0.0653,0.4606 -0.09153,0.7158 -0.0082,0.08 -0.02645,0.2388 -0.01397,0.3322 0.0094,0.07 0.01489,0.052 0.03953,0.026 0.0096,-0.01 0.01601,-0.023 0.02876,-0.026 0.04545,-0.011 0.0721,0.037 0.08163,0.07 0.0308,0.1114 -0.02531,0.2785 -0.05114,0.3817 -0.115776,0.4471 -0.294066,0.8744 -0.425931,1.3162 -0.148575,0.094 -0.01043,0.1204 0.01742,0.1008 0.03015,-0.022 0.116135,-0.087 0.08106,-0.076 -0.113925,0.038 -0.205872,0.1752 -0.324402,0.1563 -0.08544,-0.014 0.126983,-0.1176 0.188948,-0.178 0.06827,-0.067 0.13446,-0.1352 0.201686,-0.2027 0.318289,-0.3538 0.515149,-0.582 1.019747,-0.7338 0.06213,-0.019 0.09226,0.1413 0.121746,0.2472 0.03796,0.1797 0.02701,0.365 0.06174,0.5451 0.01226,0.064 0.03199,0.152 0.07842,0.1307 0.02714,-0.013 0.03626,-0.047 0.0544,-0.071 -0.48534,0.2181 -0.454751,0.2898 -0.291636,0.02 0.03233,-0.053 0.06212,-0.1082 0.09221,-0.1629 0.02387,-0.043 0.047,-0.087 0.06968,-0.1313 0.0095,-0.018 0.0083,-0.047 0.0268,-0.056 0.16947,-0.083 0.349467,-0.143 0.524194,-0.2145 -0.266674,0.4531 -0.438619,0.9511 -0.583637,1.4539 -0.03238,0.1316 -0.08001,0.3065 -0.09838,0.4446 -0.0068,0.051 -0.03609,0.1863 0.04094,0.2268 0.07477,0.039 0.284615,-0.028 0.32654,-0.037 0.30675,-0.1109 0.330471,-0.1049 0.636105,-0.2873 0.0063,-0.01 -0.02042,-0.012 -0.0147,-0.016 0.13306,-0.1079 0.27847,-0.1997 0.412638,-0.3061 0.253295,-0.2009 0.446117,-0.3844 0.682425,-0.6007 0.32229,-0.3088 0.610957,-0.5933 1.074022,-0.6975 0.0398,-0.01 0.034,0.075 0.04185,0.1149 0.0091,0.046 0.0057,0.095 0.0085,0.1421 0.0013,0.146 -0.02264,0.2905 -0.03247,0.4357 -1.88e-4,0.01 -0.01,0.107 0.0092,0.1275 0.0046,0.01 0.0093,-0.01 0.01397,-0.015 0.09468,-0.2016 0.01331,-0.01 -0.438813,0.2145 -0.01937,0.01 0.02824,-0.032 0.04132,-0.05 0.03085,-0.04 0.05741,-0.082 0.0907,-0.1205 0.387471,-0.3666 0.43928,-0.3168 0.775808,-0.3501 0.109897,-0.02 0.220843,-0.032 0.330567,-0.054 0,0 -0.461045,0.3477 -0.461045,0.3477 l 0,0 c -0.112149,0.019 -0.22454,0.036 -0.336933,0.053 -0.05588,0.01 -0.11521,0.01 -0.169266,0.023 -0.01117,0.01 -0.04246,0.02 -0.03238,0.013 0.412623,-0.2464 0.63849,-0.3615 0.437021,-0.2581 -0.0356,0.029 -0.0364,0.026 -0.06602,0.064 -0.01205,0.016 -0.02282,0.032 -0.03377,0.049 -0.01247,0.019 -0.01798,0.044 -0.03652,0.057 -0.508513,0.3494 -0.331362,0.3422 -0.592962,0.3387 -0.01282,-0.013 -0.03059,-0.022 -0.03849,-0.037 -0.01855,-0.038 -0.0046,-0.1217 -9.75e-4,-0.1527 0.01759,-0.1418 0.04307,-0.2829 0.03888,-0.4266 -0.0035,-0.041 -0.0044,-0.083 -0.01065,-0.1246 -0.03783,-0.2495 -0.258536,0.1057 0.422406,-0.3465 0.04123,-0.027 -0.08733,0.047 -0.127219,0.077 -0.120919,0.089 -0.355108,0.3025 -0.452239,0.3888 -0.222007,0.1999 -0.467396,0.4259 -0.699259,0.6124 -0.131664,0.1059 -0.262921,0.2133 -0.403945,0.3063 -0.267235,0.1764 -0.542727,0.3402 -0.819443,0.5014 -0.333492,0.1942 -0.346962,0.1835 -0.680937,0.3032 -0.118809,0.02 -0.274023,0.084 -0.389952,-0.01 -0.0837,-0.065 -0.05194,-0.1946 -0.03792,-0.273 0.02099,-0.1176 0.08859,-0.3523 0.117573,-0.4582 0.143997,-0.4858 0.30501,-0.9687 0.521609,-1.4276 0.181243,-0.09 0.357133,-0.1924 0.543742,-0.271 0.02378,-0.01 -0.03317,0.04 -0.047,0.062 -0.03866,0.061 -0.137327,0.244 -0.168244,0.2993 -0.02959,0.053 -0.04375,0.1188 -0.08984,0.1581 -0.178183,0.1523 -0.381781,0.2721 -0.572675,0.4082 -0.0332,0.01 -0.06733,0.026 -0.09967,0.017 -0.06689,-0.019 -0.07295,-0.1398 -0.0784,-0.1807 -0.02361,-0.1775 -0.01864,-0.3586 -0.06137,-0.5337 -0.01397,-0.042 -0.02138,-0.087 -0.04189,-0.1259 -0.101205,-0.1936 -0.523122,0.2479 0.354534,-0.3078 0.04444,-0.028 -0.08951,0.056 -0.129497,0.09 -0.103767,0.089 -0.25608,0.2621 -0.343527,0.3576 -0.06485,0.067 -0.129481,0.1342 -0.194563,0.201 -0.05774,0.059 -0.106938,0.1284 -0.173902,0.177 -0.201971,0.1465 -0.41349,0.2801 -0.62919,0.4055 -0.04463,0.025 -0.169112,0.081 -0.184547,-0.026 -0.0058,-0.041 0.01873,-0.08 0.0281,-0.1192 0.150052,-0.4341 0.328002,-0.8601 0.425154,-1.3109 0.03089,-0.144 0.03535,-0.1353 0.04373,-0.2646 0.0013,-0.023 0.0061,-0.073 -0.0057,-0.075 -0.02671,-0.01 -0.05154,0.029 -0.0802,0.01 -0.01601,-0.013 -0.03818,-0.019 -0.04804,-0.037 -0.02692,-0.048 -0.0022,-0.1753 0.0022,-0.2064 0.04816,-0.3213 0.123959,-0.6381 0.171267,-0.9596 0.100719,-0.55 0.208575,-1.0985 0.312866,-1.6478 0.07366,-0.388 0.149036,-0.7815 0.202867,-1.1729 0.02344,-0.1704 0.03845,-0.3417 0.05769,-0.5125 0.0013,-0.245 0.04469,-0.7166 -0.147562,-0.923 -0.191906,-0.2058 -0.550779,-0.07 -0.772125,-0.045 -0.650539,0.1814 -0.263801,0.06 -0.973826,0.3223 -0.08127,0.031 -0.168615,0.046 -0.244607,0.088 -0.437011,0.2394 -0.845488,0.5172 -1.200565,0.8698 -0.170705,0.1696 -0.310239,0.3678 -0.46536,0.5517 -0.280355,0.533 -0.409851,0.6778 -0.513498,1.2826 -0.08409,0.4905 -0.05834,0.9469 0.07141,1.4274 0.143446,0.5312 0.368301,0.8887 0.623701,1.3704 0.142841,0.2121 0.277071,0.4303 0.428524,0.6365 0.144942,0.1971 0.301884,0.3855 0.459871,0.5724 0.458202,0.5422 0.960455,1.0443 1.480377,1.5268 0.290753,0.2717 0.23667,0.1231 -0.267871,0.5552 -0.009,0.01 -0.02068,-0.011 -0.03068,-0.017 -0.03458,-0.022 -0.06891,-0.044 -0.103033,-0.067 -0.05237,-0.034 -0.104295,-0.07 -0.156461,-0.1046 -0.06877,-0.046 -0.137571,-0.092 -0.206357,-0.1376 -0.07472,-0.047 -0.437724,-0.2771 -0.507668,-0.319 -0.312112,-0.1872 -0.632688,-0.3604 -0.944976,-0.5473 -0.05265,-0.029 -0.105918,-0.058 -0.15795,-0.088 -0.157512,-0.092 -0.304424,-0.2064 -0.478047,-0.2682 -0.168791,-0.048 -0.325404,-0.034 -0.496885,-0.01 -0.162101,0.02 -0.33677,0.052 -0.471917,-0.062 -0.05648,-0.062 -0.112671,-0.1245 -0.160833,-0.1926 -0.04244,-0.086 -0.04751,-0.1823 -0.08968,-0.2684 -0.0058,-0.01 -0.0095,-0.022 -0.01745,-0.031 -0.0041,-0.01 -0.01079,-0.01 -0.01685,-0.01 -0.0081,0 -0.01507,0.01 -0.02274,0.01 -0.0461,0.015 -0.07848,0.016 -0.117181,-0.019 -0.0099,-0.017 -0.02438,-0.034 -0.0298,-0.054 -0.01586,-0.059 -0.01118,-0.1922 -0.009,-0.2396 0.01064,-0.2276 0.04053,-0.4542 0.04105,-0.6824 -6.5e-4,-0.1079 0.0057,-0.2662 -0.01741,-0.3783 -0.0044,-0.022 -0.04516,-0.046 -0.02847,-0.06 0.122829,-0.1062 0.262753,-0.1931 0.407061,-0.2676 0.145221,-0.075 -0.656049,0.5003 -0.329628,0.3629 -0.234976,0.3088 -0.465188,0.623 -0.718265,0.9174 -0.04908,0.057 -0.362282,0.4066 -0.445209,0.4638 -0.211477,0.1458 -0.440687,0.2642 -0.66103,0.3962 -0.04999,0.01 -0.09932,0.029 -0.149954,0.026 -0.162541,-0.011 -0.231591,-0.1914 -0.271482,-0.3189 -0.07492,-0.2397 -0.07237,-0.3309 -0.105222,-0.5949 -0.0046,-0.1494 -0.01747,-0.299 -0.01367,-0.4486 0.02311,-0.9089 0.238888,-1.8186 0.595596,-2.6533 0.111214,-0.2602 0.248379,-0.5086 0.372569,-0.7629 0.152469,-0.255 0.29496,-0.5161 0.457409,-0.765 0.310521,-0.4753 0.681218,-0.9604 1.060976,-1.3837 0.164164,-0.183 0.340347,-0.3549 0.516463,-0.5265 0.149366,-0.1454 0.29403,-0.2976 0.45968,-0.4242 0.261994,-0.2001 0.546517,-0.3692 0.819776,-0.5537 0.164443,-0.091 0.475513,-0.3136 0.691707,-0.249 0.16273,0.049 0.119881,0.2519 0.111677,0.3702 -0.01555,0.083 -0.02794,0.1668 -0.04664,0.2492 -0.201081,0.8853 -0.58283,1.7208 -0.976072,2.5339 -0.315356,0.586 -0.431361,0.821 -0.783454,1.394 -0.597377,0.9723 -1.28981,1.8854 -2.118318,2.6737 -0.223968,0.194 -0.438675,0.3993 -0.671902,0.582 -0.557941,0.4374 -1.20042,0.8157 -1.813181,1.1597 -0.7278712,0.4084 -1.4963047,0.741 -2.2874205,1.0056 -0.725025,0.2283 -1.457145,0.4704 -2.2181597,0.5423 0,0 0.4788325,-0.3479 0.4788325,-0.3479 z"
       inkscape:connector-curvature="0" />
    <path
       style="fill:#ffeeaa;fill-opacity:1;stroke:#0c80c8;stroke-width:0.40677971;stroke-linejoin:round;stroke-miterlimit:4;stroke-opacity:1;stroke-dasharray:none;stroke-dashoffset:0"
       id="path6270"
       d="m 17.817392,1039.2111 c 0.08059,0 0.161218,0 0.24183,0 0,0 -0.473607,0.3441 -0.473607,0.3441 l 0,0 c -0.08268,0 -0.165372,0 -0.248025,0 0,0 0.479802,-0.3486 0.479802,-0.3486 z"
       inkscape:connector-curvature="0" />
    <path
       style="fill:#ffeeaa;fill-opacity:1;stroke:#0c80c8;stroke-width:0.40677971;stroke-linejoin:round;stroke-miterlimit:4;stroke-opacity:1;stroke-dasharray:none;stroke-dashoffset:0"
       id="path6272"
       d="m 16.734746,1038.827 c 0.115269,-0.053 0.230772,-0.1027 0.339321,-0.1684 0,0 -0.449925,0.3641 -0.449925,0.3641 l 0,0 c -0.114987,0.062 -0.234904,0.1135 -0.350929,0.1735 0,0 0.461533,-0.3691 0.461533,-0.3691 z"
       inkscape:connector-curvature="0" />
    <path
       style="fill:#ffeeaa;fill-opacity:1;stroke:#0c80c8;stroke-width:0.40677971;stroke-linejoin:round;stroke-miterlimit:4;stroke-opacity:1;stroke-dasharray:none;stroke-dashoffset:0"
       id="path6274"
       d="m 8.842274,1046.9799 c 0.522416,-0.383 1.130457,-0.6216 1.72161,-0.8733 1.107641,-0.4257 2.24237,-0.7842 3.392221,-1.0779 0.26882,-0.068 0.539702,-0.1289 0.809555,-0.1934 1.166928,-0.2646 2.344403,-0.4787 3.524325,-0.676 0.305238,-0.037 0.61053,-0.1196 0.9201,-0.098 0.04088,0.01 0.08164,0.01 0.1225,0.015 0,0 -0.481723,0.3409 -0.481723,0.3409 l 0,0 c -0.03871,-0.01 -0.07741,-0.011 -0.116295,-0.016 -0.284886,-0.023 -0.568618,0.035 -0.851082,0.063 -1.150357,0.1566 -2.295315,0.3546 -3.428442,0.6082 -0.269298,0.064 -0.539843,0.1242 -0.807895,0.1938 -1.176786,0.3056 -2.3375,0.6836 -3.463682,1.1414 -0.278052,0.1236 -0.492381,0.2159 -0.762037,0.3451 -0.07925,0.038 -0.30522,0.1718 -0.235702,0.1181 0.105837,-0.082 0.230375,-0.1361 0.346011,-0.2033 0.04888,-0.028 -0.162691,0.095 -0.142625,0.092 0,0 -0.546839,0.2207 -0.546839,0.2207 z"
       inkscape:connector-curvature="0" />
  </g>
</svg>
