<?xml version="1.0" encoding="UTF-8" standalone="no"?>
<!-- Created with Inkscape (http://www.inkscape.org/) -->

<svg
   xmlns:osb="http://www.openswatchbook.org/uri/2009/osb"
   xmlns:dc="http://purl.org/dc/elements/1.1/"
   xmlns:cc="http://creativecommons.org/ns#"
   xmlns:rdf="http://www.w3.org/1999/02/22-rdf-syntax-ns#"
   xmlns:svg="http://www.w3.org/2000/svg"
   xmlns="http://www.w3.org/2000/svg"
   xmlns:xlink="http://www.w3.org/1999/xlink"
   xmlns:sodipodi="http://sodipodi.sourceforge.net/DTD/sodipodi-0.dtd"
   xmlns:inkscape="http://www.inkscape.org/namespaces/inkscape"
   width="128"
   height="128"
   id="svg7564"
   version="1.1"
   inkscape:version="0.48.3.1 r9886"
   sodipodi:docname="enote.svg">
  <title
     id="title5651">enote icon</title>
  <defs
     id="defs7566">
    <linearGradient
       id="linearGradient6206">
      <stop
         offset="0"
         style="stop-color:#fefdf6;stop-opacity:1;"
         id="stop6208" />
      <stop
         offset="1"
         style="stop-color:#f8e384;stop-opacity:1;"
         id="stop6210" />
    </linearGradient>
    <linearGradient
       id="linearGradient5604"
       osb:paint="solid">
      <stop
         style="stop-color:#ff80c8;stop-opacity:1;"
         offset="0"
         id="stop5606" />
    </linearGradient>
    <linearGradient
       id="linearGradient5578"
       osb:paint="gradient">
      <stop
         style="stop-color:#0c80c8;stop-opacity:1;"
         offset="0"
         id="stop5580" />
      <stop
         style="stop-color:#0c80c8;stop-opacity:0;"
         offset="1"
         id="stop5582" />
    </linearGradient>
    <linearGradient
       id="linearGradient5570"
       osb:paint="solid">
      <stop
         style="stop-color:#ff80c8;stop-opacity:1;"
         offset="0"
         id="stop5572" />
    </linearGradient>
    <linearGradient
       id="linearGradient4040">
      <stop
         style="stop-color:#0c80c8;stop-opacity:1;"
         offset="0"
         id="stop4042" />
      <stop
         style="stop-color:#0c80c8;stop-opacity:0;"
         offset="1"
         id="stop4044" />
    </linearGradient>
    <linearGradient
       id="linearGradient3894">
      <stop
         id="stop3896"
         offset="0"
         style="stop-color:#0c80c8;stop-opacity:1" />
      <stop
         id="stop3898"
         offset="1"
         style="stop-color:#185f9a;stop-opacity:1;" />
    </linearGradient>
    <linearGradient
       inkscape:collect="always"
       xlink:href="#linearGradient3688-166-749"
       id="linearGradient18443"
       gradientUnits="userSpaceOnUse"
       gradientTransform="translate(-0.12497443,0.06897341)"
       x1="34.124973"
       y1="42.931026"
       x2="34.124973"
       y2="16.931026" />
    <linearGradient
       id="linearGradient3688-166-749">
      <stop
         id="stop2883"
         style="stop-color:#181818;stop-opacity:1"
         offset="0" />
      <stop
         id="stop2885"
         style="stop-color:#181818;stop-opacity:0"
         offset="1" />
    </linearGradient>
    <linearGradient
       inkscape:collect="always"
       xlink:href="#linearGradient3688-166-749"
       id="linearGradient18440"
       gradientUnits="userSpaceOnUse"
       gradientTransform="translate(-0.12497443,0.06897341)"
       x1="34.124973"
       y1="42.931026"
       x2="34.124973"
       y2="16.931026" />
    <linearGradient
       id="linearGradient7476">
      <stop
         id="stop7478"
         style="stop-color:#181818;stop-opacity:1"
         offset="0" />
      <stop
         id="stop7480"
         style="stop-color:#181818;stop-opacity:0"
         offset="1" />
    </linearGradient>
    <linearGradient
       inkscape:collect="always"
       xlink:href="#linearGradient3688-166-749"
       id="linearGradient18437"
       gradientUnits="userSpaceOnUse"
       gradientTransform="translate(-0.12497443,0.06897341)"
       x1="34.124973"
       y1="42.931026"
       x2="34.124973"
       y2="16.931026" />
    <linearGradient
       id="linearGradient7483">
      <stop
         id="stop7485"
         style="stop-color:#181818;stop-opacity:1"
         offset="0" />
      <stop
         id="stop7487"
         style="stop-color:#181818;stop-opacity:0"
         offset="1" />
    </linearGradient>
    <radialGradient
       inkscape:collect="always"
       xlink:href="#linearGradient18375"
       id="radialGradient18432"
       gradientUnits="userSpaceOnUse"
       gradientTransform="matrix(-8.6867956e-8,2.3570682,-1.5152443,-5.5842562e-8,64.085431,-60.140705)"
       cx="33.575909"
       cy="22.495005"
       fx="33.575909"
       fy="22.495005"
       r="11.879165" />
    <linearGradient
       id="linearGradient18375">
      <stop
         style="stop-color:#90dbec;stop-opacity:1;"
         offset="0"
         id="stop18377" />
      <stop
         id="stop18387"
         offset="0.35714287"
         style="stop-color:#55c1ec;stop-opacity:1;" />
      <stop
         id="stop18385"
         offset="0.60714287"
         style="stop-color:#3689e6;stop-opacity:1;" />
      <stop
         style="stop-color:#2b63a0;stop-opacity:1;"
         offset="1"
         id="stop18379" />
    </linearGradient>
    <linearGradient
       inkscape:collect="always"
       xlink:href="#linearGradient18393"
       id="linearGradient18434"
       gradientUnits="userSpaceOnUse"
       x1="46"
       y1="18"
       x2="46"
       y2="41.999996" />
    <linearGradient
       id="linearGradient18393">
      <stop
         style="stop-color:#599ec9;stop-opacity:1;"
         offset="0"
         id="stop18395" />
      <stop
         style="stop-color:#185f9a;stop-opacity:1;"
         offset="1"
         id="stop18397" />
    </linearGradient>
    <linearGradient
       inkscape:collect="always"
       xlink:href="#linearGradient3924"
       id="linearGradient18429"
       gradientUnits="userSpaceOnUse"
       gradientTransform="translate(-2.523e-5,0.06602467)"
       x1="44.000027"
       y1="19.933975"
       x2="44.000027"
       y2="39.933975" />
    <linearGradient
       id="linearGradient3924">
      <stop
         id="stop3926"
         style="stop-color:#ffffff;stop-opacity:1"
         offset="0" />
      <stop
         id="stop3928"
         style="stop-color:#ffffff;stop-opacity:0.23529412"
         offset="0.10000001" />
      <stop
         id="stop3930"
         style="stop-color:#ffffff;stop-opacity:0.15686275"
         offset="0.94999999" />
      <stop
         id="stop3932"
         style="stop-color:#ffffff;stop-opacity:0.39215687"
         offset="1" />
    </linearGradient>
    <linearGradient
       inkscape:collect="always"
       xlink:href="#linearGradient3104-6"
       id="linearGradient7095"
       gradientUnits="userSpaceOnUse"
       gradientTransform="matrix(1.926359,0,0,2.4288876,-1047.0262,18.58217)"
       x1="0.50847417"
       y1="-34"
       x2="59.491524"
       y2="-34" />
    <linearGradient
       id="linearGradient3104-6">
      <stop
         offset="0"
         style="stop-color:#000000;stop-opacity:0.31782946"
         id="stop3106-3" />
      <stop
         offset="1"
         style="stop-color:#000000;stop-opacity:0.24031007"
         id="stop3108-9" />
    </linearGradient>
    <linearGradient
       inkscape:collect="always"
       xlink:href="#linearGradient3977-4-9"
       id="linearGradient7004"
       gradientUnits="userSpaceOnUse"
       gradientTransform="matrix(1.8889541,0,0,2.3817246,932.56656,16.978633)"
       x1="1.5087713"
       y1="-34"
       x2="58.491226"
       y2="-34" />
    <linearGradient
       id="linearGradient3977-4-9">
      <stop
         id="stop3979-7-0"
         style="stop-color:#ffffff;stop-opacity:1"
         offset="0" />
      <stop
         id="stop3981-6-9"
         style="stop-color:#ffffff;stop-opacity:0.23529412"
         offset="0.01785714" />
      <stop
         id="stop3983-5-2"
         style="stop-color:#ffffff;stop-opacity:0.15686275"
         offset="0.98245609" />
      <stop
         id="stop3985-6-8"
         style="stop-color:#ffffff;stop-opacity:0.39215687"
         offset="1" />
    </linearGradient>
    <linearGradient
       id="linearGradient3600-9-3">
      <stop
         id="stop3602-3-0"
         style="stop-color:#f4f4f4;stop-opacity:1"
         offset="0" />
      <stop
         id="stop3604-7-1"
         style="stop-color:#dbdbdb;stop-opacity:1"
         offset="1" />
    </linearGradient>
    <linearGradient
       id="linearGradient7520">
      <stop
         id="stop7522"
         style="stop-color:#181818;stop-opacity:1"
         offset="0" />
      <stop
         id="stop7524"
         style="stop-color:#181818;stop-opacity:0"
         offset="1" />
    </linearGradient>
    <linearGradient
       id="linearGradient3688-464-309">
      <stop
         id="stop2889"
         style="stop-color:#181818;stop-opacity:1"
         offset="0" />
      <stop
         id="stop2891"
         style="stop-color:#181818;stop-opacity:0"
         offset="1" />
    </linearGradient>
    <linearGradient
       inkscape:collect="always"
       xlink:href="#linearGradient3702-501-757"
       id="linearGradient7118"
       gradientUnits="userSpaceOnUse"
       gradientTransform="matrix(1.5714287,0,0,0.7142857,-5.7142845,28.428574)"
       x1="25.058096"
       y1="47.027729"
       x2="25.058096"
       y2="39.999443" />
    <linearGradient
       id="linearGradient3702-501-757">
      <stop
         id="stop2895"
         style="stop-color:#181818;stop-opacity:0"
         offset="0" />
      <stop
         id="stop2897"
         style="stop-color:#181818;stop-opacity:1"
         offset="0.5" />
      <stop
         id="stop2899"
         style="stop-color:#181818;stop-opacity:0"
         offset="1" />
    </linearGradient>
    <linearGradient
       inkscape:collect="always"
       xlink:href="#linearGradient3702-501-757"
       id="linearGradient7788"
       gradientUnits="userSpaceOnUse"
       gradientTransform="matrix(3.0714288,0,0,1.4285713,-9.7142831,979.21942)"
       x1="25.058096"
       y1="47.027729"
       x2="25.058096"
       y2="39.999443" />
    <radialGradient
       inkscape:collect="always"
       xlink:href="#linearGradient3688-464-309"
       id="radialGradient7791"
       gradientUnits="userSpaceOnUse"
       gradientTransform="matrix(6.4121086,0,0,2,-53.037984,-1128.3622)"
       cx="4.9929786"
       cy="43.5"
       fx="4.9929786"
       fy="43.5"
       r="2.5" />
    <radialGradient
       inkscape:collect="always"
       xlink:href="#linearGradient3688-166-749"
       id="radialGradient7794"
       gradientUnits="userSpaceOnUse"
       gradientTransform="matrix(6.4121086,0,0,2,74.96201,954.36222)"
       cx="4.9929786"
       cy="43.5"
       fx="4.9929786"
       fy="43.5"
       r="2.5" />
    <linearGradient
       inkscape:collect="always"
       xlink:href="#linearGradient3924"
       id="linearGradient8332"
       gradientUnits="userSpaceOnUse"
       gradientTransform="matrix(2.1484769,0,0,2.1494197,-53.84864,933.94246)"
       x1="44.000027"
       y1="19.933975"
       x2="44.000027"
       y2="39.933975" />
    <radialGradient
       inkscape:collect="always"
       xlink:href="#linearGradient18375"
       id="radialGradient8335"
       gradientUnits="userSpaceOnUse"
       gradientTransform="matrix(-1.746571e-7,4.7406513,-3.046557,-1.123133e-7,79.789501,817.24102)"
       cx="33.575909"
       cy="22.495005"
       fx="33.575909"
       fy="22.495005"
       r="11.879165" />
    <linearGradient
       inkscape:collect="always"
       xlink:href="#linearGradient18393"
       id="linearGradient8337"
       gradientUnits="userSpaceOnUse"
       x1="46"
       y1="18"
       x2="46"
       y2="41.999996"
       gradientTransform="matrix(2.0106045,0,0,2.0112491,-49.060955,938.19897)" />
    <linearGradient
       inkscape:collect="always"
       xlink:href="#linearGradient3688-166-749"
       id="linearGradient8340"
       gradientUnits="userSpaceOnUse"
       gradientTransform="matrix(1.9206264,0,0,1.9212894,-46.360527,941.29341)"
       x1="34.124973"
       y1="42.931026"
       x2="34.124973"
       y2="16.931026" />
    <linearGradient
       inkscape:collect="always"
       xlink:href="#linearGradient3688-166-749"
       id="linearGradient8343"
       gradientUnits="userSpaceOnUse"
       gradientTransform="matrix(1.7998049,0,0,1.8003922,-42.912231,945.62838)"
       x1="34.124973"
       y1="42.931026"
       x2="34.124973"
       y2="16.931026" />
    <linearGradient
       inkscape:collect="always"
       xlink:href="#linearGradient3688-166-749"
       id="linearGradient8346"
       gradientUnits="userSpaceOnUse"
       gradientTransform="matrix(1.7405727,0,0,1.7412667,-40.869182,947.39659)"
       x1="34.124973"
       y1="42.931026"
       x2="34.124973"
       y2="16.931026" />
    <linearGradient
       inkscape:collect="always"
       xlink:href="#linearGradient3688-166-749"
       id="linearGradient8355"
       gradientUnits="userSpaceOnUse"
       gradientTransform="matrix(1.7405727,0,0,1.7412667,-40.869182,947.39659)"
       x1="34.124973"
       y1="42.931026"
       x2="34.124973"
       y2="16.931026" />
    <linearGradient
       inkscape:collect="always"
       xlink:href="#linearGradient3688-166-749"
       id="linearGradient8357"
       gradientUnits="userSpaceOnUse"
       gradientTransform="matrix(1.7998049,0,0,1.8003922,-42.912231,945.62838)"
       x1="34.124973"
       y1="42.931026"
       x2="34.124973"
       y2="16.931026" />
    <linearGradient
       inkscape:collect="always"
       xlink:href="#linearGradient3688-166-749"
       id="linearGradient8359"
       gradientUnits="userSpaceOnUse"
       gradientTransform="matrix(1.9206264,0,0,1.9212894,-46.360527,941.29341)"
       x1="34.124973"
       y1="42.931026"
       x2="34.124973"
       y2="16.931026" />
    <radialGradient
       inkscape:collect="always"
       xlink:href="#linearGradient18375"
       id="radialGradient8361"
       gradientUnits="userSpaceOnUse"
       gradientTransform="matrix(-1.746571e-7,4.7406513,-3.046557,-1.123133e-7,79.789501,817.24102)"
       cx="35.207165"
       cy="22.940353"
       fx="33.194881"
       fy="17.51687"
       r="11.879165" />
    <linearGradient
       inkscape:collect="always"
       xlink:href="#linearGradient18393"
       id="linearGradient8363"
       gradientUnits="userSpaceOnUse"
       gradientTransform="matrix(2.0106045,0,0,2.0112491,-49.060955,938.19897)"
       x1="45.738163"
       y1="18.576885"
       x2="45.738163"
       y2="41.448246" />
    <linearGradient
       inkscape:collect="always"
       xlink:href="#linearGradient3924"
       id="linearGradient8365"
       gradientUnits="userSpaceOnUse"
       gradientTransform="matrix(2.1484769,0,0,2.1494197,-53.84864,933.94246)"
       x1="44.000027"
       y1="19.933975"
       x2="44.000027"
       y2="39.933975" />
    <radialGradient
       inkscape:collect="always"
       xlink:href="#linearGradient18375-4"
       id="radialGradient8361-8"
       gradientUnits="userSpaceOnUse"
       gradientTransform="matrix(-1.746571e-7,4.7406513,-3.046557,-1.123133e-7,79.789501,817.24102)"
       cx="35.207165"
       cy="22.940353"
       fx="33.194881"
       fy="17.51687"
       r="11.879165" />
    <linearGradient
       id="linearGradient18375-4">
      <stop
         style="stop-color:#90dbec;stop-opacity:1;"
         offset="0"
         id="stop18377-1" />
      <stop
         id="stop18387-4"
         offset="0.35714287"
         style="stop-color:#55c1ec;stop-opacity:1;" />
      <stop
         id="stop18385-5"
         offset="0.60714287"
         style="stop-color:#3689e6;stop-opacity:1;" />
      <stop
         style="stop-color:#2b63a0;stop-opacity:1;"
         offset="1"
         id="stop18379-1" />
    </linearGradient>
    <linearGradient
       inkscape:collect="always"
       xlink:href="#linearGradient18393-9"
       id="linearGradient8363-4"
       gradientUnits="userSpaceOnUse"
       gradientTransform="matrix(2.0106045,0,0,2.0112491,-49.060955,938.19897)"
       x1="45.738163"
       y1="18.576885"
       x2="45.738163"
       y2="41.448246" />
    <linearGradient
       id="linearGradient18393-9">
      <stop
         style="stop-color:#599ec9;stop-opacity:1;"
         offset="0"
         id="stop18395-1" />
      <stop
         style="stop-color:#185f9a;stop-opacity:1;"
         offset="1"
         id="stop18397-8" />
    </linearGradient>
    <radialGradient
       r="11.879165"
       fy="17.51687"
       fx="33.194881"
       cy="22.940353"
       cx="35.207165"
       gradientTransform="matrix(-4.2546783e-8,1.1548311,-0.74214675,-2.7359723e-8,34.975536,900.79668)"
       gradientUnits="userSpaceOnUse"
       id="radialGradient3929"
       xlink:href="#linearGradient18375-4"
       inkscape:collect="always" />
    <linearGradient
       y2="41.448246"
       x2="45.738163"
       y1="18.576885"
       x1="45.738163"
       gradientTransform="matrix(0.48978687,0,0,0.48994385,3.587332,930.26224)"
       gradientUnits="userSpaceOnUse"
       id="linearGradient3931"
       xlink:href="#linearGradient18393-9"
       inkscape:collect="always" />
    <radialGradient
       r="11.879165"
       fy="17.51687"
       fx="33.194881"
       cy="22.940353"
       cx="35.207165"
       gradientTransform="matrix(-3.9222812e-8,1.0646099,-0.68416647,-2.5222241e-8,37.243071,909.83295)"
       gradientUnits="userSpaceOnUse"
       id="radialGradient3929-1"
       xlink:href="#linearGradient18375-4-9"
       inkscape:collect="always" />
    <linearGradient
       id="linearGradient18375-4-9">
      <stop
         style="stop-color:#ffdbec;stop-opacity:1;"
         offset="0"
         id="stop18377-1-2" />
      <stop
         id="stop18387-4-1"
         offset="0.35714287"
         style="stop-color:#55c1ec;stop-opacity:1;" />
      <stop
         id="stop18385-5-6"
         offset="0.60714287"
         style="stop-color:#3689e6;stop-opacity:1;" />
      <stop
         style="stop-color:#2b63a0;stop-opacity:1;"
         offset="1"
         id="stop18379-1-7" />
    </linearGradient>
    <linearGradient
       y2="41.448246"
       x2="45.738163"
       y1="18.576885"
       x1="45.738163"
       gradientTransform="matrix(0.45152221,0,0,0.45166697,8.3070727,936.99652)"
       gradientUnits="userSpaceOnUse"
       id="linearGradient3931-4"
       xlink:href="#linearGradient18393-9-0"
       inkscape:collect="always" />
    <linearGradient
       id="linearGradient18393-9-0">
      <stop
         style="stop-color:#ffffff;stop-opacity:1;"
         offset="0"
         id="stop18395-1-8" />
      <stop
         id="stop5876"
         offset="0.5"
         style="stop-color:#0e97ee;stop-opacity:1;" />
      <stop
         style="stop-color:#074871;stop-opacity:1;"
         offset="1"
         id="stop18397-8-4" />
    </linearGradient>
    <radialGradient
       inkscape:collect="always"
       xlink:href="#linearGradient18375-4"
       id="radialGradient4022"
       gradientUnits="userSpaceOnUse"
       gradientTransform="matrix(-4.2546783e-8,1.1548311,-0.74214675,-2.7359723e-8,34.975536,922.49158)"
       cx="35.207165"
       cy="22.940353"
       fx="33.194881"
       fy="17.51687"
       r="11.879165" />
    <linearGradient
       inkscape:collect="always"
       xlink:href="#linearGradient18393-9"
       id="linearGradient4024"
       gradientUnits="userSpaceOnUse"
       gradientTransform="matrix(0.48978687,0,0,0.48994385,3.587332,951.95718)"
       x1="45.738163"
       y1="18.576885"
       x2="45.738163"
       y2="41.448246" />
    <radialGradient
       inkscape:collect="always"
       xlink:href="#linearGradient18375-4"
       id="radialGradient4028"
       gradientUnits="userSpaceOnUse"
       gradientTransform="matrix(-4.2546783e-8,1.1548311,-0.74214675,-2.7359723e-8,34.975536,989.74598)"
       cx="35.207165"
       cy="22.940353"
       fx="33.194881"
       fy="17.51687"
       r="11.879165" />
    <linearGradient
       inkscape:collect="always"
       xlink:href="#linearGradient18393-9"
       id="linearGradient4030"
       gradientUnits="userSpaceOnUse"
       gradientTransform="matrix(0.48978687,0,0,0.48994385,3.587332,1019.2116)"
       x1="45.738163"
       y1="18.576885"
       x2="45.738163"
       y2="41.448246" />
    <linearGradient
       inkscape:collect="always"
       xlink:href="#linearGradient18375-4"
       id="linearGradient6202"
       x1="7.875"
       y1="38.697365"
       x2="55.59375"
       y2="38.697365"
       gradientUnits="userSpaceOnUse" />
    <linearGradient
       inkscape:collect="always"
       xlink:href="#linearGradient18375-4"
       id="linearGradient6204"
       gradientUnits="userSpaceOnUse"
       x1="27.750006"
       y1="16.916304"
       x2="27.750006"
       y2="54.037865"
       gradientTransform="matrix(0.78310253,0,0,0.78310253,1.7080675,10.873486)" />
    <linearGradient
       inkscape:collect="always"
       xlink:href="#linearGradient6206"
       id="linearGradient6218"
       x1="940.54749"
       y1="-64"
       x2="1042.3622"
       y2="-64"
       gradientUnits="userSpaceOnUse"
       gradientTransform="matrix(1.0847458,0,0,1.0847458,-86.14095,5.423731)" />
  </defs>
  <sodipodi:namedview
     id="base"
     pagecolor="#ffffff"
     bordercolor="#666666"
     borderopacity="1.0"
     inkscape:pageopacity="0.0"
     inkscape:pageshadow="2"
     inkscape:zoom="5.1503421"
     inkscape:cx="64"
     inkscape:cy="61.500013"
     inkscape:document-units="px"
     inkscape:current-layer="layer1"
     showgrid="false"
     inkscape:window-width="1371"
     inkscape:window-height="931"
     inkscape:window-x="437"
     inkscape:window-y="139"
     inkscape:window-maximized="0">
    <inkscape:grid
       type="xygrid"
       id="grid7756"
       empspacing="12"
       visible="true"
       enabled="true"
       snapvisiblegridlinesonly="true" />
  </sodipodi:namedview>
  <metadata
     id="metadata7569">
    <rdf:RDF>
      <cc:Work
         rdf:about="">
        <dc:format>image/svg+xml</dc:format>
        <dc:type
           rdf:resource="http://purl.org/dc/dcmitype/StillImage" />
        <dc:title>enote icon</dc:title>
        <cc:license
           rdf:resource="http://creativecommons.org/licenses/by/3.0/" />
        <dc:date>01/14/2014</dc:date>
        <dc:creator>
          <cc:Agent>
            <dc:title>Nikos Vasilakis</dc:title>
          </cc:Agent>
        </dc:creator>
        <dc:subject>
          <rdf:Bag>
            <rdf:li>enote</rdf:li>
            <rdf:li>icon</rdf:li>
            <rdf:li>note taking</rdf:li>
            <rdf:li>reminders</rdf:li>
          </rdf:Bag>
        </dc:subject>
        <dc:rights>
          <cc:Agent>
            <dc:title>Nikos Vasilakis</dc:title>
          </cc:Agent>
        </dc:rights>
      </cc:Work>
      <cc:License
         rdf:about="http://creativecommons.org/licenses/by/3.0/">
        <cc:permits
           rdf:resource="http://creativecommons.org/ns#Reproduction" />
        <cc:permits
           rdf:resource="http://creativecommons.org/ns#Distribution" />
        <cc:requires
           rdf:resource="http://creativecommons.org/ns#Notice" />
        <cc:requires
           rdf:resource="http://creativecommons.org/ns#Attribution" />
        <cc:permits
           rdf:resource="http://creativecommons.org/ns#DerivativeWorks" />
      </cc:License>
    </rdf:RDF>
  </metadata>
  <g
     inkscape:label="Layer 1"
     inkscape:groupmode="layer"
     id="layer1"
     transform="translate(0,-924.36218)"
     style="display:inline">
    <g
       id="g7796"
       transform="matrix(1.0847458,0,0,1.0847458,-5.423731,-86.14095)">
      <rect
         width="16"
         height="10"
         x="107"
         y="1036.3622"
         id="rect2801"
         style="opacity:0.4;fill:url(#radialGradient7794);fill-opacity:1;stroke:none" />
      <rect
         width="16"
         height="10"
         x="-21"
         y="-1046.3622"
         transform="scale(-1,-1)"
         id="rect3696"
         style="opacity:0.4;fill:url(#radialGradient7791);fill-opacity:1;stroke:none" />
      <rect
         width="86"
         height="10"
         x="21"
         y="1036.3622"
         id="rect3700"
         style="opacity:0.4;fill:url(#linearGradient7788);fill-opacity:1;stroke:none" />
    </g>
    <g
       id="g8348"
       transform="matrix(1.0847458,0,0,1.0847458,42.413127,-95.03537)">
      <path
         sodipodi:nodetypes="ccccccccc"
         style="opacity:0.03999999;fill:none;stroke:url(#linearGradient8355);stroke-width:1;stroke-linecap:round;stroke-linejoin:bevel;stroke-miterlimit:0;stroke-opacity:1;stroke-dasharray:none;stroke-dashoffset:0"
         d="M 32.146618,972.84239 14.481464,1003.7119 0.25213459,995.56921 -6.3604727,1007.0981 c -0.6756764,0.9281 0.603646,2.8845 1.2993198,3.2507 l 22.2297879,13.0891 c 1.607447,0.7136 3.744467,0.025 4.636044,-1.3342 l 23.915319,-41.55498 z"
         id="path18415"
         inkscape:connector-curvature="0" />
      <path
         inkscape:connector-curvature="0"
         id="path18413"
         d="M 32.709552,973.48232 14.791386,1004.8476 0.54199027,996.84625 -5.0493947,1006.577 c -0.6986698,0.9596 -0.503036,2.4458 0.2163119,2.8244 l 22.0830658,12.8732 c 1.538328,1.0447 3.60011,-0.074 4.005012,-1.1695 l 23.265002,-40.52121 z"
         style="opacity:0.07999998;fill:none;stroke:url(#linearGradient8357);stroke-width:0.99999994;stroke-linecap:round;stroke-linejoin:bevel;stroke-miterlimit:0;stroke-opacity:1;stroke-dasharray:none;stroke-dashoffset:0"
         sodipodi:nodetypes="ccccccccc" />
      <path
         sodipodi:nodetypes="ccccccccc"
         style="opacity:0.16000001;fill:none;stroke:url(#linearGradient8359);stroke-width:1;stroke-linecap:round;stroke-linejoin:bevel;stroke-miterlimit:0;stroke-opacity:1;stroke-dasharray:none;stroke-dashoffset:0"
         d="m 33.076658,974.85342 -17.985637,31.24988 -14.1064917,-7.98513 -5.2332754,9.05693 c -0.7455718,1.024 -0.024603,1.556 0.7430347,1.9601 l 20.9618774,12.1367 c 1.701319,1.0081 2.313327,0.6102 3.213661,-1.0503 l 22.650011,-39.44359 z"
         id="path18407"
         inkscape:connector-curvature="0" />
      <path
         inkscape:connector-curvature="0"
         id="rect17386"
         d="m 33.472758,975.97308 -18.095441,31.35232 -13.9298759,-8.045 -5.0265112,8.7089 13.9298761,8.045 8.706173,5.0281 5.026511,-8.7089 18.095441,-31.35233 -8.706173,-5.02809 z"
         style="fill:url(#radialGradient8361);fill-opacity:1;fill-rule:nonzero;stroke:url(#linearGradient8363);stroke-width:0.99999994;stroke-linecap:butt;stroke-linejoin:round;stroke-miterlimit:0;stroke-opacity:1;stroke-dasharray:none;stroke-dashoffset:0" />
      <path
         sodipodi:nodetypes="ccccccc"
         style="opacity:0.5;fill:none;stroke:url(#linearGradient8365);stroke-width:0.99999994;stroke-linecap:butt;stroke-linejoin:round;stroke-miterlimit:0;stroke-opacity:1;stroke-dasharray:none;stroke-dashoffset:0"
         d="m 33.931024,977.34784 -18.036292,31.40606 -13.9850866,-8.1977 -4.2227153,6.9843 20.9669919,12.1219 22.159008,-38.39042 z"
         id="path18401"
         inkscape:connector-curvature="0" />
    </g>
    <rect
       style="fill:url(#linearGradient6218);fill-opacity:1;stroke:none"
       id="rect6994"
       width="110.64407"
       height="110.64407"
       x="933.91309"
       y="-119.32204"
       rx="2.7118642"
       ry="2.7118642"
       transform="matrix(0,1,-1,0,0,0)" />
    <rect
       style="fill:none;stroke:url(#linearGradient7004);stroke-width:1.08474588"
       id="rect7002"
       width="109.55933"
       height="109.55933"
       x="934.45544"
       y="-118.77965"
       rx="2.1694918"
       ry="2.1694918"
       transform="matrix(0,1,-1,0,0,0)" />
    <rect
       transform="matrix(0,-1,-1,0,0,0)"
       ry="3.2542372"
       rx="3.2542372"
       y="-119.86438"
       x="-1045.0995"
       height="111.72881"
       width="111.72881"
       id="rect6998"
       style="fill:none;stroke:url(#linearGradient7095);stroke-width:1.08474588" />
    <g
       id="g8367"
       style="opacity:0.6"
       transform="matrix(1.0847458,0,0,1.0847458,-5.423731,-86.14095)">
      <rect
         y="940.36218"
         x="33"
         height="102"
         width="1"
         id="rect15708"
         style="opacity:0.12000002;fill:#da4d45;fill-opacity:1;fill-rule:nonzero;stroke:none" />
      <rect
         y="960.36218"
         x="13"
         height="1"
         width="102"
         id="rect15710"
         style="opacity:0.5;fill:#b9b9b9;fill-opacity:1;fill-rule:nonzero;stroke:none" />
      <rect
         style="opacity:0.5;fill:#b9b9b9;fill-opacity:1;fill-rule:nonzero;stroke:none"
         id="rect15712"
         width="102"
         height="1"
         x="13"
         y="981.36218" />
      <rect
         y="1002.3622"
         x="13"
         height="1"
         width="102"
         id="rect16848"
         style="opacity:0.5;fill:#b9b9b9;fill-opacity:1;fill-rule:nonzero;stroke:none" />
      <rect
         style="opacity:0.5;fill:#b9b9b9;fill-opacity:1;fill-rule:nonzero;stroke:none"
         id="rect7153"
         width="102"
         height="1"
         x="13"
         y="1023.3622" />
      <rect
         style="opacity:0.12000002;fill:#da4d45;fill-opacity:1;fill-rule:nonzero;stroke:none"
         id="rect5610"
         width="1"
         height="102"
         x="31"
         y="940.36218" />
    </g>
    <text
       sodipodi:linespacing="125%"
       id="text5616"
       y="969.87402"
       x="38.3134"
       style="font-size:10.84745693px;font-style:normal;font-variant:normal;font-weight:normal;font-stretch:normal;line-height:125%;letter-spacing:0px;word-spacing:0px;fill:#000000;fill-opacity:0.18039216;stroke:none;font-family:Jenna Sue;-inkscape-font-specification:Jenna Sue"
       xml:space="preserve"><tspan
         y="969.87402"
         x="38.3134"
         id="tspan5618"
         sodipodi:role="line">create the application icon</tspan></text>
    <text
       sodipodi:linespacing="125%"
       id="text6239"
       y="993.01086"
       x="33.974411"
       style="font-size:10.84745693px;font-style:normal;font-variant:normal;font-weight:normal;font-stretch:normal;line-height:125%;letter-spacing:0px;word-spacing:0px;fill:#000000;fill-opacity:0.18039216;stroke:none;font-family:Jenna Sue;-inkscape-font-specification:Jenna Sue"
       xml:space="preserve"><tspan
         y="993.01086"
         x="33.974411"
         id="tspan6241"
         sodipodi:role="line">enote, for real!</tspan></text>
    <path
       inkscape:connector-curvature="0"
       id="rect17386-9"
       d="m 23.692692,939.46383 -4.408082,7.63754 -3.393342,-1.95988 -1.224468,2.12158 3.393343,1.95994 2.120839,1.2246 1.224466,-2.12128 4.40808,-7.63764 -2.120836,-1.22486 z"
       style="fill:url(#radialGradient3929);fill-opacity:1;fill-rule:nonzero;stroke:url(#linearGradient3931);stroke-width:0.24360177;stroke-linecap:butt;stroke-linejoin:round;stroke-miterlimit:0;stroke-opacity:1;stroke-dasharray:none;stroke-dashoffset:0" />
    <path
       style="fill:url(#radialGradient4022);fill-opacity:1;fill-rule:nonzero;stroke:url(#linearGradient4024);stroke-width:0.24360177;stroke-linecap:butt;stroke-linejoin:round;stroke-miterlimit:0;stroke-opacity:1;stroke-dasharray:none;stroke-dashoffset:0"
       d="m 23.692692,961.15881 -4.408082,7.6372 -3.393342,-1.9596 -1.224468,2.1214 3.393343,1.96 2.120839,1.2248 1.224466,-2.1216 4.40808,-7.6376 -2.120836,-1.2246 z"
       id="path4020"
       inkscape:connector-curvature="0" />
    <path
       inkscape:connector-curvature="0"
       id="path4026"
       d="m 23.692692,1028.413 -4.408082,7.6374 -3.393342,-1.9598 -1.224468,2.1216 3.393343,1.9596 2.120839,1.225 1.224466,-2.1216 4.40808,-7.6373 -2.120836,-1.2248 z"
       style="fill:url(#radialGradient4028);fill-opacity:1;fill-rule:nonzero;stroke:url(#linearGradient4030);stroke-width:0.24360177;stroke-linecap:butt;stroke-linejoin:round;stroke-miterlimit:0;stroke-opacity:1;stroke-dasharray:none;stroke-dashoffset:0" />
    <text
       xml:space="preserve"
       style="font-size:10.84745693px;font-style:normal;font-variant:normal;font-weight:normal;font-stretch:normal;line-height:125%;letter-spacing:0px;word-spacing:0px;fill:#000000;fill-opacity:0.18039216;stroke:none;font-family:Jenna Sue;-inkscape-font-specification:Jenna Sue"
       x="33.974411"
       y="948.17932"
       id="text5612"
       sodipodi:linespacing="125%"><tspan
         sodipodi:role="line"
         id="tspan5614"
         x="33.974411"
         y="948.17932">don't forget to create enote</tspan></text>
    <text
       xml:space="preserve"
       style="font-size:10.84745693px;font-style:normal;font-variant:normal;font-weight:normal;font-stretch:normal;line-height:125%;letter-spacing:0px;word-spacing:0px;fill:#000000;fill-opacity:0.18039216;stroke:none;font-family:Jenna Sue;-inkscape-font-specification:Jenna Sue"
       x="33.974411"
       y="1036.401"
       id="text5620"
       sodipodi:linespacing="125%"><tspan
         sodipodi:role="line"
         id="tspan5622"
         x="33.974411"
         y="1036.401">have breakfast at Milliways!</tspan></text>
    <g
       transform="matrix(0.35404447,0,0,0.35404447,9.136523,974.86621)"
       id="g3877"
       style="fill:url(#linearGradient6202);fill-opacity:1;stroke:none">
      <path
         inkscape:connector-curvature="0"
         id="path3873"
         d="m 24.687233,30.666734 c -5.038477,0 -9.179644,3.914524 -9.666422,8.932263 -0.100328,-0.0038 -0.192261,-0.02447 -0.293664,-0.02447 -3.782503,0 -6.852147,2.726367 -6.852147,6.069045 0,3.321091 3.029942,6.009886 6.778731,6.044573 0.02436,2.25e-4 0.04899,0 0.07342,0 l 26.160519,0 c 2.419203,0 4.356008,-1.660841 4.356008,-3.719737 0,-1.785037 -1.46007,-3.258825 -3.426074,-3.62185 0.0054,-0.100203 0.02447,-0.192136 0.02447,-0.293663 0,-3.108103 -2.559689,-5.62855 -5.726437,-5.62855 -0.660784,0 -1.293645,0.116271 -1.88434,0.318136 -0.85005,-4.596751 -4.798492,-8.075745 -9.544062,-8.075745 z"
         style="fill:url(#linearGradient6204);fill-opacity:1;stroke:#0c80c8;stroke-opacity:1" />
    </g>
    <text
       sodipodi:linespacing="125%"
       id="text5628"
       y="943.84033"
       x="103.39813"
       style="font-size:10.84745693px;font-style:normal;font-variant:normal;font-weight:normal;font-stretch:normal;line-height:125%;letter-spacing:0px;word-spacing:0px;fill:#000000;fill-opacity:0.18039216;stroke:none;font-family:Jenna Sue;-inkscape-font-specification:Jenna Sue"
       xml:space="preserve"><tspan
         y="943.84033"
         x="103.39813"
         id="tspan5630"
         sodipodi:role="line">,</tspan></text>
    <text
       xml:space="preserve"
       style="font-size:10.84745693px;font-style:normal;font-variant:normal;font-weight:normal;font-stretch:normal;line-height:125%;letter-spacing:0px;word-spacing:0px;fill:#000000;fill-opacity:0.18039216;stroke:none;font-family:Jenna Sue;-inkscape-font-specification:Jenna Sue"
       x="33.974411"
       y="1014.7056"
       id="text6243"
       sodipodi:linespacing="125%"><tspan
         sodipodi:role="line"
         id="tspan6245"
         x="33.974411"
         y="1014.7056">well..            ..more work on icon?</tspan></text>
    <path
       style="fill:#ffeeaa;fill-opacity:1;stroke:#0c80c8;stroke-width:2.16949177;stroke-linejoin:round;stroke-miterlimit:4;stroke-opacity:1;stroke-dasharray:none;stroke-dashoffset:0"
       id="path6268"
       d="m 8.785763,1003.784 c 3.805815,-0.1559 7.474648,-1.3465 11.090192,-2.4392 6.532441,-2.14462 12.741167,-5.16982 18.181037,-9.40642 1.247378,-0.971 2.399166,-2.0594 3.598751,-3.0894 4.402402,-4.1754 8.086324,-9.0202 11.257152,-14.17877 1.882966,-3.0634 2.446988,-4.2462 4.10931,-7.3852 1.993398,-4.2116 3.932682,-8.5746 4.700894,-13.2074 0.06906,-0.4164 0.09918,-0.8384 0.14882,-1.2574 -0.0046,-0.311 0.07442,-1.0762 -0.19428,-1.4014 -0.619834,-0.7494 -3.243624,0.9864 -3.651668,1.2166 0.511136,1.4016 0.14494,0.116 -2.523258,2.6078 -3.345112,3.1274 -6.221452,6.45 -8.750552,10.2792 -0.86922,1.316 -1.621596,2.7056 -2.432394,4.0586 -0.646218,1.3424 -1.361954,2.6534 -1.938646,4.0272 -1.833865,4.36857 -2.928539,9.14437 -2.856229,13.89797 0.0118,0.7706 0.12316,1.5366 0.18472,2.3052 0.253636,1.3194 0.270568,1.8222 0.753984,2.9992 0.166661,0.406 0.464307,1.039 0.910821,1.2672 0.447006,0.228 0.80047,-0.024 1.214028,-0.164 -0.518618,0.2572 -1.134798,1.1688 -1.555852,0.7714 -0.396512,-0.3738 0.832482,-0.7052 1.224068,-1.0844 0.463606,-0.449 0.908234,-0.9178 1.339376,-1.3982 1.385282,-1.5432 2.618924,-3.2118 3.8563,-4.8728 1.323662,-1.7994 1.982426,-2.7456 4.539202,-3.4274 0.237598,-0.062 0.28021,0.4166 0.33863,0.6554 0.12184,0.498 0.0304,1.7882 0.0136,2.2238 -0.03734,1.2096 -0.1895,2.4166 -0.17634,3.6284 0.0028,0.2564 0.0243,0.8622 0.14514,1.1546 0.02544,0.06 0.09226,0.094 0.13844,0.144 0.15966,-0.038 0.230144,-0.2544 0.402484,-0.2624 0.298764,-0.024 0.439342,0.337 0.547388,0.5448 0.19618,0.4672 0.258496,0.9756 0.503184,1.422 0.246672,0.3338 0.499502,0.6688 0.786576,0.9694 0.16142,0.1 0.312208,0.2112 0.50502,0.2496 0.549076,0.106 1.251232,-0.05 1.796688,-0.128 1.011928,-0.182 1.770318,-0.2372 2.746236,0.118 1.169728,0.5594 2.222844,1.3398 3.321294,2.0264 1.588944,1.0714 3.257898,2.0146 4.892394,3.0126 0.914457,0.55822 1.816797,1.13622 2.730577,1.69582 0.38298,0.2358 0.76233,0.4778 1.14896,0.7076 0.0455,0.028 1.3283,0.7788 1.51482,0.8058 0.074,0 0.18944,-0.2184 0.12032,-0.188 -3.28836,1.3466 -2.15592,2.157 -3.55598,0.4948 -2.473117,-2.808 -4.987369,-5.58362 -7.341387,-8.49362 -0.82165,-1.0158 -1.654994,-2.024 -2.415892,-3.0862 -0.797556,-1.1132 -1.503636,-2.289 -2.255454,-3.4338 -1.335344,-2.5124 -2.605854,-4.5668 -3.376502,-7.3348 -0.711624,-2.5556 -0.880426,-5.05397 -0.464794,-7.67557 0.51657,-3.258 1.200698,-4.0338 2.676478,-6.916 0.834128,-1.0012 1.583596,-2.08 2.502386,-3.0046 1.911864,-1.9238 4.03981,-3.3776 6.387214,-4.7072 1.688734,-0.9566 3.402831,-1.8728 5.158511,-2.7004 1.82398,-0.8596 3.52752,-1.2922 5.4347,-1.8532 1.30564,-0.18 3.39137,-1.0226 4.52417,0.214 1.14421,1.2488 0.76437,3.8508 0.70149,5.3214 -0.55492,4.132 -1.45038,8.2072 -2.2097,12.3042 -0.50318,2.7148 -0.51964,2.931 -0.93186,5.55577 -0.18806,1.3824 -0.34824,2.457 -0.48818,3.8176 -0.0437,0.4246 -0.14104,1.2736 -0.0745,1.7722 0.05,0.3744 0.0794,0.2766 0.21086,0.14 0.0512,-0.048 0.0854,-0.126 0.15338,-0.14 0.24239,-0.06 0.3845,0.194 0.43534,0.378 0.1643,0.594 -0.13498,1.4852 -0.27271,2.0354 -0.61747,2.3842 -1.56835,4.6636 -2.27163,7.0202 -0.7924,0.5022 -0.0556,0.6418 0.0929,0.537 0.1608,-0.116 0.61939,-0.4654 0.43234,-0.4032 -0.6076,0.2026 -1.09798,0.9346 -1.73014,0.8336 -0.45566,-0.072 0.67724,-0.627 1.00772,-0.949 0.36407,-0.3548 0.71712,-0.721 1.07566,-1.081 1.69754,-1.8872 2.74746,-3.1038 5.43865,-3.9138 0.33138,-0.098 0.49203,0.7536 0.64931,1.3186 0.20245,0.9584 0.14406,1.9464 0.32928,2.907 0.0654,0.3404 0.1706,0.8106 0.41822,0.697 0.14474,-0.066 0.19338,-0.2528 0.29016,-0.3794 -2.58848,1.163 -2.42534,1.5454 -1.55539,0.11 0.17244,-0.2846 0.33129,-0.577 0.4918,-0.8688 0.1273,-0.2304 0.25067,-0.4644 0.37165,-0.6996 0.0505,-0.096 0.044,-0.25 0.1429,-0.2988 0.90384,-0.4436 1.86382,-0.7622 2.7957,-1.1436 -1.42226,2.4162 -2.3393,5.0726 -3.11273,7.7542 -0.1727,0.7014 -0.42673,1.6346 -0.52471,2.3714 -0.0361,0.2706 -0.19248,0.99322 0.21831,1.20942 0.39875,0.209 1.51795,-0.146 1.74155,-0.196 1.636,-0.59142 1.76251,-0.55922 3.39256,-1.53202 0.0335,-0.024 -0.1089,-0.064 -0.0784,-0.086 0.70965,-0.5752 1.48517,-1.0648 2.20073,-1.6324 1.35091,-1.0716 2.37929,-2.0502 3.6396,-3.204 1.71888,-1.647 3.25844,-3.164 5.72812,-3.7198 0.21225,-0.048 0.1813,0.3998 0.22319,0.6132 0.0487,0.248 0.0305,0.505 0.0456,0.7576 0.007,0.7786 -0.12078,1.549 -0.17316,2.3238 -10e-4,0.024 -0.0533,0.5706 0.0491,0.6802 0.0249,0.028 0.0495,-0.054 0.0745,-0.08 0.50497,-1.0752 0.071,-0.042 -2.34033,1.1436 -0.10332,0.052 0.15058,-0.174 0.2204,-0.266 0.16454,-0.214 0.3062,-0.4368 0.48375,-0.6424 2.06651,-1.9554 2.34282,-1.69 4.13764,-1.8672 0.58612,-0.11 1.17783,-0.174 1.76302,-0.2878 0,0 -2.4589,1.8542 -2.4589,1.8542 l 0,0 c -0.59813,0.1 -1.19755,0.192 -1.79698,0.2828 -0.29799,0.03 -0.61445,0.036 -0.90275,0.126 -0.0596,0.024 -0.22644,0.106 -0.1727,0.072 2.20066,-1.314 3.40528,-1.9278 2.33078,-1.3764 -0.1899,0.154 -0.1941,0.138 -0.35211,0.346 -0.0643,0.084 -0.1217,0.172 -0.18012,0.2594 -0.0665,0.1 -0.0959,0.2346 -0.19478,0.3026 -2.71207,1.8628 -1.76726,1.8248 -3.16246,1.806 -0.0684,-0.066 -0.16314,-0.114 -0.20527,-0.198 -0.0989,-0.2006 -0.0249,-0.6492 -0.005,-0.8146 0.0938,-0.7558 0.2297,-1.5086 0.20736,-2.275 -0.0186,-0.221 -0.0235,-0.4446 -0.0568,-0.6644 -0.20177,-1.3308 -1.37886,0.5634 2.25283,-1.848 0.21991,-0.144 -0.46574,0.2518 -0.6785,0.4082 -0.6449,0.4734 -1.89391,1.614 -2.41194,2.074 -1.18404,1.0658 -2.49278,2.2714 -3.72938,3.2658 -0.70221,0.5652 -1.40225,1.1376 -2.15438,1.6338 -1.42525,0.941 -2.89454,1.8148 -4.37036,2.67422 -1.77862,1.0356 -1.85046,0.9784 -3.63166,1.6166 -0.63365,0.11 -1.46146,0.4483 -2.07975,-0.032 -0.44641,-0.3472 -0.27701,-1.0374 -0.20224,-1.4554 0.11194,-0.62702 0.47246,-1.87902 0.62706,-2.44402 0.76798,-2.5908 1.62672,-5.1666 2.78191,-7.6136 0.96663,-0.4822 1.90471,-1.0264 2.89996,-1.4458 0.12682,-0.054 -0.17688,0.2112 -0.25069,0.3286 -0.20619,0.3246 -0.73241,1.3012 -0.8973,1.5962 -0.1578,0.2822 -0.23331,0.6336 -0.47912,0.8434 -0.95031,0.8122 -2.03617,1.4512 -3.05427,2.1766 -0.1771,0.03 -0.35911,0.138 -0.53156,0.092 -0.35673,-0.104 -0.3891,-0.7456 -0.41814,-0.964 -0.12592,-0.9466 -0.0994,-1.9126 -0.32727,-2.8464 -0.0745,-0.2232 -0.11402,-0.4622 -0.22342,-0.6712 -0.53976,-1.0328 -2.78998,1.322 1.89085,-1.6416 0.237,-0.15 -0.47736,0.2984 -0.69065,0.4808 -0.55342,0.4728 -1.36576,1.398 -1.83214,1.9076 -0.34588,0.3572 -0.69057,0.7156 -1.03767,1.0714 -0.30794,0.3162 -0.57034,0.6852 -0.92748,0.9442 -1.07718,0.7816 -2.20528,1.4938 -3.35568,2.1626 -0.23805,0.136 -0.90193,0.4302 -0.98425,-0.138 -0.0311,-0.2162 0.0999,-0.424 0.14984,-0.6362 0.80028,-2.3152 1.74934,-4.587 2.26749,-6.991 0.16478,-0.768 0.18852,-0.7218 0.23321,-1.411 0.007,-0.124 0.0323,-0.3934 -0.0305,-0.4004 -0.14244,-0.022 -0.27489,0.158 -0.42772,0.044 -0.0854,-0.066 -0.20363,-0.102 -0.25622,-0.196 -0.1436,-0.2552 -0.0118,-0.935 0.0118,-1.1008 0.25684,-1.7134 0.66111,-3.4034 0.91342,-5.118 0.53717,-2.93357 1.1124,-5.85877 1.66862,-8.78817 0.39282,-2.0694 0.79486,-4.168 1.08196,-6.2558 0.12498,-0.9082 0.20503,-1.8224 0.3077,-2.7332 0.007,-1.3066 0.23834,-3.822 -0.787,-4.9222 -1.0235,-1.0982 -2.93749,-0.373 -4.118,-0.2392 -3.46954,0.9672 -1.40694,0.3198 -5.19374,1.7188 -0.43346,0.162 -0.89928,0.247 -1.304571,0.4688 -2.330728,1.2768 -4.509266,2.7582 -6.403014,4.6388 -0.910424,0.9042 -1.65461,1.9616 -2.481916,2.9422 -1.495228,2.843 -2.185874,3.615 -2.73866,6.8404 -0.448464,2.6166 -0.311162,5.05037 0.380824,7.61277 0.765042,2.8332 1.964272,4.74 3.326402,7.3088 0.761822,1.1316 1.477714,2.2954 2.285466,3.3948 0.773018,1.0516 1.610046,2.056 2.452646,3.053 2.443739,2.892 5.122423,5.5694 7.895343,8.14262 1.55068,1.4492 1.26224,0.6569 -1.42865,2.9614 -0.0479,0.042 -0.1103,-0.06 -0.16364,-0.092 -0.18442,-0.1181 -0.36752,-0.2345 -0.54951,-0.3545 -0.27934,-0.1839 -0.55624,-0.3718 -0.83446,-0.5576 -0.3668,-0.2448 -0.73371,-0.4894 -1.10057,-0.7341 -0.398467,-0.2518 -2.334531,-1.4777 -2.707561,-1.7015 -1.664598,-0.9982 -3.374338,-1.92202 -5.039872,-2.91882 -0.2808,-0.156 -0.5649,-0.3076 -0.842404,-0.47 -0.84006,-0.4918 -1.623592,-1.1006 -2.549584,-1.43 -0.900216,-0.2564 -1.735486,-0.18 -2.65005,-0.022 -0.86454,0.108 -1.796106,0.2756 -2.516894,-0.3328 -0.301248,-0.3276 -0.600912,-0.6642 -0.85777,-1.0272 -0.226374,-0.456 -0.253358,-0.9722 -0.478302,-1.431 -0.03104,-0.054 -0.05078,-0.118 -0.0931,-0.164 -0.02184,-0.022 -0.05758,-0.038 -0.0899,-0.038 -0.0431,0 -0.08038,0.034 -0.12128,0.044 -0.245896,0.08 -0.41855,0.086 -0.624968,-0.1 -0.05298,-0.094 -0.13004,-0.182 -0.15892,-0.2878 -0.08458,-0.3098 -0.05966,-1.0246 -0.04786,-1.2776 0.05678,-1.214 0.216166,-2.4228 0.218902,-3.6396 -0.0034,-0.5756 0.03058,-1.42 -0.09284,-2.0176 -0.0238,-0.116 -0.240864,-0.242 -0.15184,-0.319 0.655088,-0.5664 1.401354,-1.03 2.170998,-1.4272 0.774506,-0.3994 -3.498928,2.6678 -1.758022,1.9354 -1.253202,1.6468 -2.480998,3.3224 -3.830744,4.8928 -0.26175,0.3046 -1.932172,2.1684 -2.374446,2.4734 -1.12788,0.778 -2.350334,1.409 -3.525499,2.1132 -0.26658,0.048 -0.529714,0.156 -0.799748,0.138 -0.866886,-0.056 -1.235152,-1.0212 -1.447904,-1.7012 -0.39962,-1.278 -0.38599,-1.7648 -0.561184,-3.1724 -0.0243,-0.7974 -0.09316,-1.595 -0.0729,-2.3928 0.12322,-4.8474 1.274072,-9.6992 3.176514,-14.15077 0.593143,-1.3882 1.324689,-2.7126 1.987035,-4.069 0.81317,-1.3598 1.57312,-2.7528 2.439516,-4.0796 1.656116,-2.5356 3.633162,-5.1224 5.65854,-7.38 0.87554,-0.9758 1.815184,-1.893 2.754472,-2.808 0.796612,-0.7756 1.56816,-1.587 2.451622,-2.2622 1.397306,-1.0678 2.91476,-1.969 4.37214,-2.9532 0.877032,-0.4856 2.536072,-1.6724 3.689104,-1.3278 0.867896,0.259 0.639364,1.343 0.59561,1.9744 -0.08292,0.4428 -0.149,0.8894 -0.248782,1.3288 -1.072434,4.7218 -3.108426,9.1772 -5.20572,13.514 -1.681894,3.1254 -2.300592,4.3788 -4.17842,7.4348 -3.186012,5.18517 -6.878988,10.05537 -11.297698,14.25977 -1.194494,1.0346 -2.3396,2.1294 -3.583477,3.1042 -2.975684,2.3326 -6.402242,4.3504 -9.670298,6.1844 -3.881978,2.1784 -7.98029,3.95242 -12.199575,5.36362 -3.866802,1.2172 -7.771442,2.509 -11.830185,2.8922 0,0 2.553773,-1.8554 2.553773,-1.8554 z"
       inkscape:connector-curvature="0" />
    <path
       style="fill:#ffeeaa;fill-opacity:1;stroke:#0c80c8;stroke-width:2.16949177;stroke-linejoin:round;stroke-miterlimit:4;stroke-opacity:1;stroke-dasharray:none;stroke-dashoffset:0"
       id="path6270"
       d="m 95.02609,982.05618 c 0.42979,0 0.85983,0 1.28976,0 0,0 -2.5259,1.8354 -2.5259,1.8354 l 0,0 c -0.44095,-4e-4 -0.88199,-2e-4 -1.3228,0 0,0 2.55894,-1.8592 2.55894,-1.8592 z"
       inkscape:connector-curvature="0" />
    <path
       style="fill:#ffeeaa;fill-opacity:1;stroke:#0c80c8;stroke-width:2.16949177;stroke-linejoin:round;stroke-miterlimit:4;stroke-opacity:1;stroke-dasharray:none;stroke-dashoffset:0"
       id="path6272"
       d="m 89.25198,980.00798 c 0.61477,-0.2808 1.23078,-0.5476 1.80971,-0.8982 0,0 -2.3996,1.9416 -2.3996,1.9416 l 0,0 c -0.61326,0.331 -1.25282,0.6058 -1.87162,0.9258 0,0 2.46151,-1.9692 2.46151,-1.9692 z"
       inkscape:connector-curvature="0" />
    <path
       style="fill:#ffeeaa;fill-opacity:1;stroke:#0c80c8;stroke-width:2.16949177;stroke-linejoin:round;stroke-miterlimit:4;stroke-opacity:1;stroke-dasharray:none;stroke-dashoffset:0"
       id="path6274"
       d="m 47.158795,1023.4902 c 2.786214,-2.0426 6.029106,-3.3152 9.181922,-4.6576 5.907416,-2.271 11.959303,-4.183 18.091843,-5.749 1.43371,-0.3658 2.87841,-0.6874 4.31763,-1.0314 6.22361,-1.4109 12.50348,-2.5532 18.7964,-3.6054 1.62793,-0.198 3.25616,-0.6376 4.9072,-0.5224 0.21806,0.024 0.4354,0.054 0.65333,0.08 0,0 -2.56919,1.8179 -2.56919,1.8179 l 0,0 c -0.20642,-0.028 -0.41284,-0.06 -0.62024,-0.082 -1.51939,-0.1241 -3.03263,0.186 -4.5391,0.3347 -6.13524,0.8347 -12.24168,1.8909 -18.28503,3.2437 -1.43625,0.3444 -2.87916,0.6622 -4.30877,1.0335 -6.276193,1.6295 -12.466669,3.6455 -18.472971,6.0875 -1.482948,0.6589 -2.626032,1.1512 -4.0642,1.8402 -0.422648,0.2026 -1.62784,0.9164 -1.257076,0.6298 0.564464,-0.4364 1.228666,-0.7258 1.845392,-1.0842 0.260726,-0.1522 -0.867688,0.5062 -0.760668,0.49 0,0 -2.916472,1.1771 -2.916472,1.1771 z"
       inkscape:connector-curvature="0" />
  </g>
</svg>
