<?xml version="1.0" encoding="UTF-8" standalone="no"?>
<!-- Created with Inkscape (http://www.inkscape.org/) -->

<svg
   xmlns:osb="http://www.openswatchbook.org/uri/2009/osb"
   xmlns:dc="http://purl.org/dc/elements/1.1/"
   xmlns:cc="http://creativecommons.org/ns#"
   xmlns:rdf="http://www.w3.org/1999/02/22-rdf-syntax-ns#"
   xmlns:svg="http://www.w3.org/2000/svg"
   xmlns="http://www.w3.org/2000/svg"
   xmlns:xlink="http://www.w3.org/1999/xlink"
   xmlns:sodipodi="http://sodipodi.sourceforge.net/DTD/sodipodi-0.dtd"
   xmlns:inkscape="http://www.inkscape.org/namespaces/inkscape"
   width="16"
   height="16"
   id="svg7564"
   version="1.1"
   inkscape:version="0.48.3.1 r9886"
   sodipodi:docname="enote.svg">
  <title
     id="title5651">enote icon</title>
  <defs
     id="defs7566">
    <linearGradient
       id="linearGradient6206">
      <stop
         offset="0"
         style="stop-color:#fefdf6;stop-opacity:1;"
         id="stop6208" />
      <stop
         offset="1"
         style="stop-color:#f8e384;stop-opacity:1;"
         id="stop6210" />
    </linearGradient>
    <linearGradient
       id="linearGradient5604"
       osb:paint="solid">
      <stop
         style="stop-color:#ff80c8;stop-opacity:1;"
         offset="0"
         id="stop5606" />
    </linearGradient>
    <linearGradient
       id="linearGradient5578"
       osb:paint="gradient">
      <stop
         style="stop-color:#0c80c8;stop-opacity:1;"
         offset="0"
         id="stop5580" />
      <stop
         style="stop-color:#0c80c8;stop-opacity:0;"
         offset="1"
         id="stop5582" />
    </linearGradient>
    <linearGradient
       id="linearGradient5570"
       osb:paint="solid">
      <stop
         style="stop-color:#ff80c8;stop-opacity:1;"
         offset="0"
         id="stop5572" />
    </linearGradient>
    <linearGradient
       id="linearGradient4040">
      <stop
         style="stop-color:#0c80c8;stop-opacity:1;"
         offset="0"
         id="stop4042" />
      <stop
         style="stop-color:#0c80c8;stop-opacity:0;"
         offset="1"
         id="stop4044" />
    </linearGradient>
    <linearGradient
       id="linearGradient3894">
      <stop
         id="stop3896"
         offset="0"
         style="stop-color:#0c80c8;stop-opacity:1" />
      <stop
         id="stop3898"
         offset="1"
         style="stop-color:#185f9a;stop-opacity:1;" />
    </linearGradient>
    <linearGradient
       inkscape:collect="always"
       xlink:href="#linearGradient3688-166-749"
       id="linearGradient18443"
       gradientUnits="userSpaceOnUse"
       gradientTransform="translate(-0.12497443,0.06897341)"
       x1="34.124973"
       y1="42.931026"
       x2="34.124973"
       y2="16.931026" />
    <linearGradient
       id="linearGradient3688-166-749">
      <stop
         id="stop2883"
         style="stop-color:#181818;stop-opacity:1"
         offset="0" />
      <stop
         id="stop2885"
         style="stop-color:#181818;stop-opacity:0"
         offset="1" />
    </linearGradient>
    <linearGradient
       inkscape:collect="always"
       xlink:href="#linearGradient3688-166-749"
       id="linearGradient18440"
       gradientUnits="userSpaceOnUse"
       gradientTransform="translate(-0.12497443,0.06897341)"
       x1="34.124973"
       y1="42.931026"
       x2="34.124973"
       y2="16.931026" />
    <linearGradient
       id="linearGradient7476">
      <stop
         id="stop7478"
         style="stop-color:#181818;stop-opacity:1"
         offset="0" />
      <stop
         id="stop7480"
         style="stop-color:#181818;stop-opacity:0"
         offset="1" />
    </linearGradient>
    <linearGradient
       inkscape:collect="always"
       xlink:href="#linearGradient3688-166-749"
       id="linearGradient18437"
       gradientUnits="userSpaceOnUse"
       gradientTransform="translate(-0.12497443,0.06897341)"
       x1="34.124973"
       y1="42.931026"
       x2="34.124973"
       y2="16.931026" />
    <linearGradient
       id="linearGradient7483">
      <stop
         id="stop7485"
         style="stop-color:#181818;stop-opacity:1"
         offset="0" />
      <stop
         id="stop7487"
         style="stop-color:#181818;stop-opacity:0"
         offset="1" />
    </linearGradient>
    <radialGradient
       inkscape:collect="always"
       xlink:href="#linearGradient18375"
       id="radialGradient18432"
       gradientUnits="userSpaceOnUse"
       gradientTransform="matrix(-8.6867956e-8,2.3570682,-1.5152443,-5.5842562e-8,64.085431,-60.140705)"
       cx="33.575909"
       cy="22.495005"
       fx="33.575909"
       fy="22.495005"
       r="11.879165" />
    <linearGradient
       id="linearGradient18375">
      <stop
         style="stop-color:#90dbec;stop-opacity:1;"
         offset="0"
         id="stop18377" />
      <stop
         id="stop18387"
         offset="0.35714287"
         style="stop-color:#55c1ec;stop-opacity:1;" />
      <stop
         id="stop18385"
         offset="0.60714287"
         style="stop-color:#3689e6;stop-opacity:1;" />
      <stop
         style="stop-color:#2b63a0;stop-opacity:1;"
         offset="1"
         id="stop18379" />
    </linearGradient>
    <linearGradient
       inkscape:collect="always"
       xlink:href="#linearGradient18393"
       id="linearGradient18434"
       gradientUnits="userSpaceOnUse"
       x1="46"
       y1="18"
       x2="46"
       y2="41.999996" />
    <linearGradient
       id="linearGradient18393">
      <stop
         style="stop-color:#599ec9;stop-opacity:1;"
         offset="0"
         id="stop18395" />
      <stop
         style="stop-color:#185f9a;stop-opacity:1;"
         offset="1"
         id="stop18397" />
    </linearGradient>
    <linearGradient
       inkscape:collect="always"
       xlink:href="#linearGradient3924"
       id="linearGradient18429"
       gradientUnits="userSpaceOnUse"
       gradientTransform="translate(-2.523e-5,0.06602467)"
       x1="44.000027"
       y1="19.933975"
       x2="44.000027"
       y2="39.933975" />
    <linearGradient
       id="linearGradient3924">
      <stop
         id="stop3926"
         style="stop-color:#ffffff;stop-opacity:1"
         offset="0" />
      <stop
         id="stop3928"
         style="stop-color:#ffffff;stop-opacity:0.23529412"
         offset="0.10000001" />
      <stop
         id="stop3930"
         style="stop-color:#ffffff;stop-opacity:0.15686275"
         offset="0.94999999" />
      <stop
         id="stop3932"
         style="stop-color:#ffffff;stop-opacity:0.39215687"
         offset="1" />
    </linearGradient>
    <linearGradient
       inkscape:collect="always"
       xlink:href="#linearGradient3104-6"
       id="linearGradient7095"
       gradientUnits="userSpaceOnUse"
       gradientTransform="matrix(0.24079487,0,0,0.30361095,-1051.8827,2.322771)"
       x1="0.50847417"
       y1="-34"
       x2="59.491524"
       y2="-34" />
    <linearGradient
       id="linearGradient3104-6">
      <stop
         offset="0"
         style="stop-color:#000000;stop-opacity:0.31782946"
         id="stop3106-3" />
      <stop
         offset="1"
         style="stop-color:#000000;stop-opacity:0.24031007"
         id="stop3108-9" />
    </linearGradient>
    <linearGradient
       inkscape:collect="always"
       xlink:href="#linearGradient3977-4-9"
       id="linearGradient7004"
       gradientUnits="userSpaceOnUse"
       gradientTransform="matrix(0.23611926,0,0,0.29771557,1037.5753,2.1223287)"
       x1="1.5087713"
       y1="-34"
       x2="58.491226"
       y2="-34" />
    <linearGradient
       id="linearGradient3977-4-9">
      <stop
         id="stop3979-7-0"
         style="stop-color:#ffffff;stop-opacity:1"
         offset="0" />
      <stop
         id="stop3981-6-9"
         style="stop-color:#ffffff;stop-opacity:0.23529412"
         offset="0.01785714" />
      <stop
         id="stop3983-5-2"
         style="stop-color:#ffffff;stop-opacity:0.15686275"
         offset="0.98245609" />
      <stop
         id="stop3985-6-8"
         style="stop-color:#ffffff;stop-opacity:0.39215687"
         offset="1" />
    </linearGradient>
    <linearGradient
       id="linearGradient3600-9-3">
      <stop
         id="stop3602-3-0"
         style="stop-color:#f4f4f4;stop-opacity:1"
         offset="0" />
      <stop
         id="stop3604-7-1"
         style="stop-color:#dbdbdb;stop-opacity:1"
         offset="1" />
    </linearGradient>
    <linearGradient
       id="linearGradient7520">
      <stop
         id="stop7522"
         style="stop-color:#181818;stop-opacity:1"
         offset="0" />
      <stop
         id="stop7524"
         style="stop-color:#181818;stop-opacity:0"
         offset="1" />
    </linearGradient>
    <linearGradient
       id="linearGradient3688-464-309">
      <stop
         id="stop2889"
         style="stop-color:#181818;stop-opacity:1"
         offset="0" />
      <stop
         id="stop2891"
         style="stop-color:#181818;stop-opacity:0"
         offset="1" />
    </linearGradient>
    <linearGradient
       inkscape:collect="always"
       xlink:href="#linearGradient3702-501-757"
       id="linearGradient7118"
       gradientUnits="userSpaceOnUse"
       gradientTransform="matrix(1.5714287,0,0,0.7142857,-5.7142845,28.428574)"
       x1="25.058096"
       y1="47.027729"
       x2="25.058096"
       y2="39.999443" />
    <linearGradient
       id="linearGradient3702-501-757">
      <stop
         id="stop2895"
         style="stop-color:#181818;stop-opacity:0"
         offset="0" />
      <stop
         id="stop2897"
         style="stop-color:#181818;stop-opacity:1"
         offset="0.5" />
      <stop
         id="stop2899"
         style="stop-color:#181818;stop-opacity:0"
         offset="1" />
    </linearGradient>
    <linearGradient
       inkscape:collect="always"
       xlink:href="#linearGradient3702-501-757"
       id="linearGradient7788"
       gradientUnits="userSpaceOnUse"
       gradientTransform="matrix(3.0714288,0,0,1.4285713,-9.7142831,979.21942)"
       x1="25.058096"
       y1="47.027729"
       x2="25.058096"
       y2="39.999443" />
    <radialGradient
       inkscape:collect="always"
       xlink:href="#linearGradient3688-464-309"
       id="radialGradient7791"
       gradientUnits="userSpaceOnUse"
       gradientTransform="matrix(6.4121086,0,0,2,-53.037984,-1128.3622)"
       cx="4.9929786"
       cy="43.5"
       fx="4.9929786"
       fy="43.5"
       r="2.5" />
    <radialGradient
       inkscape:collect="always"
       xlink:href="#linearGradient3688-166-749"
       id="radialGradient7794"
       gradientUnits="userSpaceOnUse"
       gradientTransform="matrix(6.4121086,0,0,2,74.96201,954.36222)"
       cx="4.9929786"
       cy="43.5"
       fx="4.9929786"
       fy="43.5"
       r="2.5" />
    <linearGradient
       inkscape:collect="always"
       xlink:href="#linearGradient3924"
       id="linearGradient8332"
       gradientUnits="userSpaceOnUse"
       gradientTransform="matrix(2.1484769,0,0,2.1494197,-53.84864,933.94246)"
       x1="44.000027"
       y1="19.933975"
       x2="44.000027"
       y2="39.933975" />
    <radialGradient
       inkscape:collect="always"
       xlink:href="#linearGradient18375"
       id="radialGradient8335"
       gradientUnits="userSpaceOnUse"
       gradientTransform="matrix(-1.746571e-7,4.7406513,-3.046557,-1.123133e-7,79.789501,817.24102)"
       cx="33.575909"
       cy="22.495005"
       fx="33.575909"
       fy="22.495005"
       r="11.879165" />
    <linearGradient
       inkscape:collect="always"
       xlink:href="#linearGradient18393"
       id="linearGradient8337"
       gradientUnits="userSpaceOnUse"
       x1="46"
       y1="18"
       x2="46"
       y2="41.999996"
       gradientTransform="matrix(2.0106045,0,0,2.0112491,-49.060955,938.19897)" />
    <linearGradient
       inkscape:collect="always"
       xlink:href="#linearGradient3688-166-749"
       id="linearGradient8340"
       gradientUnits="userSpaceOnUse"
       gradientTransform="matrix(1.9206264,0,0,1.9212894,-46.360527,941.29341)"
       x1="34.124973"
       y1="42.931026"
       x2="34.124973"
       y2="16.931026" />
    <linearGradient
       inkscape:collect="always"
       xlink:href="#linearGradient3688-166-749"
       id="linearGradient8343"
       gradientUnits="userSpaceOnUse"
       gradientTransform="matrix(1.7998049,0,0,1.8003922,-42.912231,945.62838)"
       x1="34.124973"
       y1="42.931026"
       x2="34.124973"
       y2="16.931026" />
    <linearGradient
       inkscape:collect="always"
       xlink:href="#linearGradient3688-166-749"
       id="linearGradient8346"
       gradientUnits="userSpaceOnUse"
       gradientTransform="matrix(1.7405727,0,0,1.7412667,-40.869182,947.39659)"
       x1="34.124973"
       y1="42.931026"
       x2="34.124973"
       y2="16.931026" />
    <linearGradient
       inkscape:collect="always"
       xlink:href="#linearGradient3688-166-749"
       id="linearGradient8355"
       gradientUnits="userSpaceOnUse"
       gradientTransform="matrix(1.7405727,0,0,1.7412667,-40.869182,947.39659)"
       x1="34.124973"
       y1="42.931026"
       x2="34.124973"
       y2="16.931026" />
    <linearGradient
       inkscape:collect="always"
       xlink:href="#linearGradient3688-166-749"
       id="linearGradient8357"
       gradientUnits="userSpaceOnUse"
       gradientTransform="matrix(1.7998049,0,0,1.8003922,-42.912231,945.62838)"
       x1="34.124973"
       y1="42.931026"
       x2="34.124973"
       y2="16.931026" />
    <linearGradient
       inkscape:collect="always"
       xlink:href="#linearGradient3688-166-749"
       id="linearGradient8359"
       gradientUnits="userSpaceOnUse"
       gradientTransform="matrix(1.9206264,0,0,1.9212894,-46.360527,941.29341)"
       x1="34.124973"
       y1="42.931026"
       x2="34.124973"
       y2="16.931026" />
    <radialGradient
       inkscape:collect="always"
       xlink:href="#linearGradient18375"
       id="radialGradient8361"
       gradientUnits="userSpaceOnUse"
       gradientTransform="matrix(-1.746571e-7,4.7406513,-3.046557,-1.123133e-7,79.789501,817.24102)"
       cx="35.207165"
       cy="22.940353"
       fx="33.194881"
       fy="17.51687"
       r="11.879165" />
    <linearGradient
       inkscape:collect="always"
       xlink:href="#linearGradient18393"
       id="linearGradient8363"
       gradientUnits="userSpaceOnUse"
       gradientTransform="matrix(2.0106045,0,0,2.0112491,-49.060955,938.19897)"
       x1="45.738163"
       y1="18.576885"
       x2="45.738163"
       y2="41.448246" />
    <linearGradient
       inkscape:collect="always"
       xlink:href="#linearGradient3924"
       id="linearGradient8365"
       gradientUnits="userSpaceOnUse"
       gradientTransform="matrix(2.1484769,0,0,2.1494197,-53.84864,933.94246)"
       x1="44.000027"
       y1="19.933975"
       x2="44.000027"
       y2="39.933975" />
    <radialGradient
       inkscape:collect="always"
       xlink:href="#linearGradient18375-4"
       id="radialGradient8361-8"
       gradientUnits="userSpaceOnUse"
       gradientTransform="matrix(-1.746571e-7,4.7406513,-3.046557,-1.123133e-7,79.789501,817.24102)"
       cx="35.207165"
       cy="22.940353"
       fx="33.194881"
       fy="17.51687"
       r="11.879165" />
    <linearGradient
       id="linearGradient18375-4">
      <stop
         style="stop-color:#90dbec;stop-opacity:1;"
         offset="0"
         id="stop18377-1" />
      <stop
         id="stop18387-4"
         offset="0.35714287"
         style="stop-color:#55c1ec;stop-opacity:1;" />
      <stop
         id="stop18385-5"
         offset="0.60714287"
         style="stop-color:#3689e6;stop-opacity:1;" />
      <stop
         style="stop-color:#2b63a0;stop-opacity:1;"
         offset="1"
         id="stop18379-1" />
    </linearGradient>
    <linearGradient
       inkscape:collect="always"
       xlink:href="#linearGradient18393-9"
       id="linearGradient8363-4"
       gradientUnits="userSpaceOnUse"
       gradientTransform="matrix(2.0106045,0,0,2.0112491,-49.060955,938.19897)"
       x1="45.738163"
       y1="18.576885"
       x2="45.738163"
       y2="41.448246" />
    <linearGradient
       id="linearGradient18393-9">
      <stop
         style="stop-color:#599ec9;stop-opacity:1;"
         offset="0"
         id="stop18395-1" />
      <stop
         style="stop-color:#185f9a;stop-opacity:1;"
         offset="1"
         id="stop18397-8" />
    </linearGradient>
    <radialGradient
       r="11.879165"
       fy="17.51687"
       fx="33.194881"
       cy="22.940353"
       cx="35.207165"
       gradientTransform="matrix(0,0.14435389,-0.09276834,0,4.3719427,1033.604)"
       gradientUnits="userSpaceOnUse"
       id="radialGradient3929"
       xlink:href="#linearGradient18375-4"
       inkscape:collect="always" />
    <linearGradient
       y2="41.448246"
       x2="45.738163"
       y1="18.576885"
       x1="45.738163"
       gradientTransform="matrix(0.06122335,0,0,0.06124298,0.4484167,1037.2872)"
       gradientUnits="userSpaceOnUse"
       id="linearGradient3931"
       xlink:href="#linearGradient18393-9"
       inkscape:collect="always" />
    <radialGradient
       r="11.879165"
       fy="17.51687"
       fx="33.194881"
       cy="22.940353"
       cx="35.207165"
       gradientTransform="matrix(-3.9222812e-8,1.0646099,-0.68416647,-2.5222241e-8,37.243071,909.83295)"
       gradientUnits="userSpaceOnUse"
       id="radialGradient3929-1"
       xlink:href="#linearGradient18375-4-9"
       inkscape:collect="always" />
    <linearGradient
       id="linearGradient18375-4-9">
      <stop
         style="stop-color:#ffdbec;stop-opacity:1;"
         offset="0"
         id="stop18377-1-2" />
      <stop
         id="stop18387-4-1"
         offset="0.35714287"
         style="stop-color:#55c1ec;stop-opacity:1;" />
      <stop
         id="stop18385-5-6"
         offset="0.60714287"
         style="stop-color:#3689e6;stop-opacity:1;" />
      <stop
         style="stop-color:#2b63a0;stop-opacity:1;"
         offset="1"
         id="stop18379-1-7" />
    </linearGradient>
    <linearGradient
       y2="41.448246"
       x2="45.738163"
       y1="18.576885"
       x1="45.738163"
       gradientTransform="matrix(0.45152221,0,0,0.45166697,8.3070727,936.99652)"
       gradientUnits="userSpaceOnUse"
       id="linearGradient3931-4"
       xlink:href="#linearGradient18393-9-0"
       inkscape:collect="always" />
    <linearGradient
       id="linearGradient18393-9-0">
      <stop
         style="stop-color:#ffffff;stop-opacity:1;"
         offset="0"
         id="stop18395-1-8" />
      <stop
         id="stop5876"
         offset="0.5"
         style="stop-color:#0e97ee;stop-opacity:1;" />
      <stop
         style="stop-color:#074871;stop-opacity:1;"
         offset="1"
         id="stop18397-8-4" />
    </linearGradient>
    <radialGradient
       inkscape:collect="always"
       xlink:href="#linearGradient18375-4"
       id="radialGradient4022"
       gradientUnits="userSpaceOnUse"
       gradientTransform="matrix(0,0.14435389,-0.09276834,0,4.3719427,1036.3159)"
       cx="35.207165"
       cy="22.940353"
       fx="33.194881"
       fy="17.51687"
       r="11.879165" />
    <linearGradient
       inkscape:collect="always"
       xlink:href="#linearGradient18393-9"
       id="linearGradient4024"
       gradientUnits="userSpaceOnUse"
       gradientTransform="matrix(0.06122335,0,0,0.06124298,0.4484167,1039.9991)"
       x1="45.738163"
       y1="18.576885"
       x2="45.738163"
       y2="41.448246" />
    <radialGradient
       inkscape:collect="always"
       xlink:href="#linearGradient18375-4"
       id="radialGradient4028"
       gradientUnits="userSpaceOnUse"
       gradientTransform="matrix(0,0.14435389,-0.09276834,0,4.3719427,1044.7227)"
       cx="35.207165"
       cy="22.940353"
       fx="33.194881"
       fy="17.51687"
       r="11.879165" />
    <linearGradient
       inkscape:collect="always"
       xlink:href="#linearGradient18393-9"
       id="linearGradient4030"
       gradientUnits="userSpaceOnUse"
       gradientTransform="matrix(0.06122335,0,0,0.06124298,0.4484167,1048.4059)"
       x1="45.738163"
       y1="18.576885"
       x2="45.738163"
       y2="41.448246" />
    <linearGradient
       inkscape:collect="always"
       xlink:href="#linearGradient18375-4"
       id="linearGradient6202"
       x1="7.875"
       y1="38.697365"
       x2="55.59375"
       y2="38.697365"
       gradientUnits="userSpaceOnUse" />
    <linearGradient
       inkscape:collect="always"
       xlink:href="#linearGradient18375-4"
       id="linearGradient6204"
       gradientUnits="userSpaceOnUse"
       x1="27.750006"
       y1="16.916304"
       x2="27.750006"
       y2="54.037865"
       gradientTransform="matrix(0.78310253,0,0,0.78310253,1.7080675,10.873486)" />
    <linearGradient
       inkscape:collect="always"
       xlink:href="#linearGradient6206"
       id="linearGradient6218"
       x1="940.54749"
       y1="-64"
       x2="1042.3622"
       y2="-64"
       gradientUnits="userSpaceOnUse"
       gradientTransform="matrix(0.13559322,0,0,0.13559322,910.23677,0.677966)" />
  </defs>
  <sodipodi:namedview
     id="base"
     pagecolor="#ffffff"
     bordercolor="#666666"
     borderopacity="1.0"
     inkscape:pageopacity="0.0"
     inkscape:pageshadow="2"
     inkscape:zoom="22.111089"
     inkscape:cx="16.003891"
     inkscape:cy="15.503796"
     inkscape:document-units="px"
     inkscape:current-layer="layer1"
     showgrid="false"
     inkscape:window-width="1371"
     inkscape:window-height="931"
     inkscape:window-x="437"
     inkscape:window-y="139"
     inkscape:window-maximized="0">
    <inkscape:grid
       type="xygrid"
       id="grid7756"
       empspacing="12"
       visible="true"
       enabled="true"
       snapvisiblegridlinesonly="true" />
  </sodipodi:namedview>
  <metadata
     id="metadata7569">
    <rdf:RDF>
      <cc:Work
         rdf:about="">
        <dc:format>image/svg+xml</dc:format>
        <dc:type
           rdf:resource="http://purl.org/dc/dcmitype/StillImage" />
        <dc:title>enote icon</dc:title>
        <cc:license
           rdf:resource="http://creativecommons.org/licenses/by/3.0/" />
        <dc:date>01/14/2014</dc:date>
        <dc:creator>
          <cc:Agent>
            <dc:title>Nikos Vasilakis</dc:title>
          </cc:Agent>
        </dc:creator>
        <dc:subject>
          <rdf:Bag>
            <rdf:li>enote</rdf:li>
            <rdf:li>icon</rdf:li>
            <rdf:li>note taking</rdf:li>
            <rdf:li>reminders</rdf:li>
          </rdf:Bag>
        </dc:subject>
        <dc:rights>
          <cc:Agent>
            <dc:title>Nikos Vasilakis</dc:title>
          </cc:Agent>
        </dc:rights>
      </cc:Work>
      <cc:License
         rdf:about="http://creativecommons.org/licenses/by/3.0/">
        <cc:permits
           rdf:resource="http://creativecommons.org/ns#Reproduction" />
        <cc:permits
           rdf:resource="http://creativecommons.org/ns#Distribution" />
        <cc:requires
           rdf:resource="http://creativecommons.org/ns#Notice" />
        <cc:requires
           rdf:resource="http://creativecommons.org/ns#Attribution" />
        <cc:permits
           rdf:resource="http://creativecommons.org/ns#DerivativeWorks" />
      </cc:License>
    </rdf:RDF>
  </metadata>
  <g
     inkscape:label="Layer 1"
     inkscape:groupmode="layer"
     id="layer1"
     transform="translate(0,-1036.3622)"
     style="display:inline">
    <g
       id="g7796"
       transform="matrix(0.13559322,0,0,0.13559322,-0.677966,910.23677)">
      <rect
         width="16"
         height="10"
         x="107"
         y="1036.3622"
         id="rect2801"
         style="opacity:0.4;fill:url(#radialGradient7794);fill-opacity:1;stroke:none" />
      <rect
         width="16"
         height="10"
         x="-21"
         y="-1046.3622"
         transform="scale(-1,-1)"
         id="rect3696"
         style="opacity:0.4;fill:url(#radialGradient7791);fill-opacity:1;stroke:none" />
      <rect
         width="86"
         height="10"
         x="21"
         y="1036.3622"
         id="rect3700"
         style="opacity:0.4;fill:url(#linearGradient7788);fill-opacity:1;stroke:none" />
    </g>
    <g
       id="g8348"
       transform="matrix(0.13559322,0,0,0.13559322,5.3016414,909.12497)">
      <path
         sodipodi:nodetypes="ccccccccc"
         style="opacity:0.03999999;fill:none;stroke:url(#linearGradient8355);stroke-width:1;stroke-linecap:round;stroke-linejoin:bevel;stroke-miterlimit:0;stroke-opacity:1;stroke-dasharray:none;stroke-dashoffset:0"
         d="M 32.146618,972.84239 14.481464,1003.7119 0.25213459,995.56921 -6.3604727,1007.0981 c -0.6756764,0.9281 0.603646,2.8845 1.2993198,3.2507 l 22.2297879,13.0891 c 1.607447,0.7136 3.744467,0.025 4.636044,-1.3342 l 23.915319,-41.55498 z"
         id="path18415"
         inkscape:connector-curvature="0" />
      <path
         inkscape:connector-curvature="0"
         id="path18413"
         d="M 32.709552,973.48232 14.791386,1004.8476 0.54199027,996.84625 -5.0493947,1006.577 c -0.6986698,0.9596 -0.503036,2.4458 0.2163119,2.8244 l 22.0830658,12.8732 c 1.538328,1.0447 3.60011,-0.074 4.005012,-1.1695 l 23.265002,-40.52121 z"
         style="opacity:0.07999998;fill:none;stroke:url(#linearGradient8357);stroke-width:0.99999994;stroke-linecap:round;stroke-linejoin:bevel;stroke-miterlimit:0;stroke-opacity:1;stroke-dasharray:none;stroke-dashoffset:0"
         sodipodi:nodetypes="ccccccccc" />
      <path
         sodipodi:nodetypes="ccccccccc"
         style="opacity:0.16000001;fill:none;stroke:url(#linearGradient8359);stroke-width:1;stroke-linecap:round;stroke-linejoin:bevel;stroke-miterlimit:0;stroke-opacity:1;stroke-dasharray:none;stroke-dashoffset:0"
         d="m 33.076658,974.85342 -17.985637,31.24988 -14.1064917,-7.98513 -5.2332754,9.05693 c -0.7455718,1.024 -0.024603,1.556 0.7430347,1.9601 l 20.9618774,12.1367 c 1.701319,1.0081 2.313327,0.6102 3.213661,-1.0503 l 22.650011,-39.44359 z"
         id="path18407"
         inkscape:connector-curvature="0" />
      <path
         inkscape:connector-curvature="0"
         id="rect17386"
         d="m 33.472758,975.97308 -18.095441,31.35232 -13.9298759,-8.045 -5.0265112,8.7089 13.9298761,8.045 8.706173,5.0281 5.026511,-8.7089 18.095441,-31.35233 -8.706173,-5.02809 z"
         style="fill:url(#radialGradient8361);fill-opacity:1;fill-rule:nonzero;stroke:url(#linearGradient8363);stroke-width:0.99999994;stroke-linecap:butt;stroke-linejoin:round;stroke-miterlimit:0;stroke-opacity:1;stroke-dasharray:none;stroke-dashoffset:0" />
      <path
         sodipodi:nodetypes="ccccccc"
         style="opacity:0.5;fill:none;stroke:url(#linearGradient8365);stroke-width:0.99999994;stroke-linecap:butt;stroke-linejoin:round;stroke-miterlimit:0;stroke-opacity:1;stroke-dasharray:none;stroke-dashoffset:0"
         d="m 33.931024,977.34784 -18.036292,31.40606 -13.9850866,-8.1977 -4.2227153,6.9843 20.9669919,12.1219 22.159008,-38.39042 z"
         id="path18401"
         inkscape:connector-curvature="0" />
    </g>
    <rect
       style="fill:url(#linearGradient6218);fill-opacity:1;stroke:none"
       id="rect6994"
       width="13.830509"
       height="13.830509"
       x="1037.7435"
       y="-14.915255"
       rx="0.33898303"
       ry="0.33898303"
       transform="matrix(0,1,-1,0,0,0)" />
    <rect
       style="fill:none;stroke:url(#linearGradient7004);stroke-width:0.13559324"
       id="rect7002"
       width="13.694916"
       height="13.694916"
       x="1037.8114"
       y="-14.847456"
       rx="0.27118647"
       ry="0.27118647"
       transform="matrix(0,1,-1,0,0,0)" />
    <rect
       transform="matrix(0,-1,-1,0,0,0)"
       ry="0.40677965"
       rx="0.40677965"
       y="-14.983047"
       x="-1051.6418"
       height="13.966102"
       width="13.966102"
       id="rect6998"
       style="fill:none;stroke:url(#linearGradient7095);stroke-width:0.13559324" />
    <g
       id="g8367"
       style="opacity:0.6"
       transform="matrix(0.13559322,0,0,0.13559322,-0.677966,910.23677)">
      <rect
         y="940.36218"
         x="33"
         height="102"
         width="1"
         id="rect15708"
         style="opacity:0.12000002;fill:#da4d45;fill-opacity:1;fill-rule:nonzero;stroke:none" />
      <rect
         y="960.36218"
         x="13"
         height="1"
         width="102"
         id="rect15710"
         style="opacity:0.5;fill:#b9b9b9;fill-opacity:1;fill-rule:nonzero;stroke:none" />
      <rect
         style="opacity:0.5;fill:#b9b9b9;fill-opacity:1;fill-rule:nonzero;stroke:none"
         id="rect15712"
         width="102"
         height="1"
         x="13"
         y="981.36218" />
      <rect
         y="1002.3622"
         x="13"
         height="1"
         width="102"
         id="rect16848"
         style="opacity:0.5;fill:#b9b9b9;fill-opacity:1;fill-rule:nonzero;stroke:none" />
      <rect
         style="opacity:0.5;fill:#b9b9b9;fill-opacity:1;fill-rule:nonzero;stroke:none"
         id="rect7153"
         width="102"
         height="1"
         x="13"
         y="1023.3622" />
      <rect
         style="opacity:0.12000002;fill:#da4d45;fill-opacity:1;fill-rule:nonzero;stroke:none"
         id="rect5610"
         width="1"
         height="102"
         x="31"
         y="940.36218" />
    </g>
    <text
       sodipodi:linespacing="125%"
       id="text5616"
       y="1042.2386"
       x="4.789176"
       style="font-size:1.35593212px;font-style:normal;font-variant:normal;font-weight:normal;font-stretch:normal;line-height:125%;letter-spacing:0px;word-spacing:0px;fill:#000000;fill-opacity:0.18039216;stroke:none;font-family:Jenna Sue;-inkscape-font-specification:Jenna Sue"
       xml:space="preserve"><tspan
         y="1042.2386"
         x="4.789176"
         id="tspan5618"
         sodipodi:role="line">create the application icon</tspan></text>
    <text
       sodipodi:linespacing="125%"
       id="text6239"
       y="1045.1309"
       x="4.2468023"
       style="font-size:1.35593212px;font-style:normal;font-variant:normal;font-weight:normal;font-stretch:normal;line-height:125%;letter-spacing:0px;word-spacing:0px;fill:#000000;fill-opacity:0.18039216;stroke:none;font-family:Jenna Sue;-inkscape-font-specification:Jenna Sue"
       xml:space="preserve"><tspan
         y="1045.1309"
         x="4.2468023"
         id="tspan6241"
         sodipodi:role="line">enote, for real!</tspan></text>
    <path
       inkscape:connector-curvature="0"
       id="rect17386-9"
       d="m 2.9615866,1038.4374 -0.55101,0.9546 -0.424168,-0.245 -0.153058,0.2652 0.4241674,0.245 0.265105,0.1531 0.1530586,-0.2651 0.55101,-0.9548 -0.265105,-0.153 z"
       style="fill:url(#radialGradient3929);fill-opacity:1;fill-rule:nonzero;stroke:url(#linearGradient3931);stroke-width:0.03045022;stroke-linecap:butt;stroke-linejoin:round;stroke-miterlimit:0;stroke-opacity:1;stroke-dasharray:none;stroke-dashoffset:0" />
    <path
       style="fill:url(#radialGradient4022);fill-opacity:1;fill-rule:nonzero;stroke:url(#linearGradient4024);stroke-width:0.03045022;stroke-linecap:butt;stroke-linejoin:round;stroke-miterlimit:0;stroke-opacity:1;stroke-dasharray:none;stroke-dashoffset:0"
       d="m 2.9615866,1041.1492 -0.55101,0.9547 -0.424168,-0.245 -0.153058,0.2652 0.4241674,0.245 0.265105,0.1531 0.1530586,-0.2652 0.55101,-0.9547 -0.265105,-0.1531 z"
       id="path4020"
       inkscape:connector-curvature="0" />
    <path
       inkscape:connector-curvature="0"
       id="path4026"
       d="m 2.9615866,1049.556 -0.55101,0.9547 -0.424168,-0.245 -0.153058,0.2652 0.4241674,0.2449 0.265105,0.1532 0.1530586,-0.2652 0.55101,-0.9547 -0.265105,-0.1531 z"
       style="fill:url(#radialGradient4028);fill-opacity:1;fill-rule:nonzero;stroke:url(#linearGradient4030);stroke-width:0.03045022;stroke-linecap:butt;stroke-linejoin:round;stroke-miterlimit:0;stroke-opacity:1;stroke-dasharray:none;stroke-dashoffset:0" />
    <text
       xml:space="preserve"
       style="font-size:1.35593212px;font-style:normal;font-variant:normal;font-weight:normal;font-stretch:normal;line-height:125%;letter-spacing:0px;word-spacing:0px;fill:#000000;fill-opacity:0.18039216;stroke:none;font-family:Jenna Sue;-inkscape-font-specification:Jenna Sue"
       x="4.2468023"
       y="1039.5269"
       id="text5612"
       sodipodi:linespacing="125%"><tspan
         sodipodi:role="line"
         id="tspan5614"
         x="4.2468023"
         y="1039.5269">don't forget to create enote</tspan></text>
    <text
       xml:space="preserve"
       style="font-size:1.35593212px;font-style:normal;font-variant:normal;font-weight:normal;font-stretch:normal;line-height:125%;letter-spacing:0px;word-spacing:0px;fill:#000000;fill-opacity:0.18039216;stroke:none;font-family:Jenna Sue;-inkscape-font-specification:Jenna Sue"
       x="4.2468023"
       y="1050.5544"
       id="text5620"
       sodipodi:linespacing="125%"><tspan
         sodipodi:role="line"
         id="tspan5622"
         x="4.2468023"
         y="1050.5544">have breakfast at Milliways!</tspan></text>
    <g
       transform="matrix(0.04425555,0,0,0.04425555,1.1420656,1042.8626)"
       id="g3877"
       style="fill:url(#linearGradient6202);fill-opacity:1;stroke:none">
      <path
         inkscape:connector-curvature="0"
         id="path3873"
         d="m 24.687233,30.666734 c -5.038477,0 -9.179644,3.914524 -9.666422,8.932263 -0.100328,-0.0038 -0.192261,-0.02447 -0.293664,-0.02447 -3.782503,0 -6.852147,2.726367 -6.852147,6.069045 0,3.321091 3.029942,6.009886 6.778731,6.044573 0.02436,2.25e-4 0.04899,0 0.07342,0 l 26.160519,0 c 2.419203,0 4.356008,-1.660841 4.356008,-3.719737 0,-1.785037 -1.46007,-3.258825 -3.426074,-3.62185 0.0054,-0.100203 0.02447,-0.192136 0.02447,-0.293663 0,-3.108103 -2.559689,-5.62855 -5.726437,-5.62855 -0.660784,0 -1.293645,0.116271 -1.88434,0.318136 -0.85005,-4.596751 -4.798492,-8.075745 -9.544062,-8.075745 z"
         style="fill:url(#linearGradient6204);fill-opacity:1;stroke:#0c80c8;stroke-opacity:1" />
    </g>
    <text
       sodipodi:linespacing="125%"
       id="text5628"
       y="1038.9845"
       x="12.924767"
       style="font-size:1.35593212px;font-style:normal;font-variant:normal;font-weight:normal;font-stretch:normal;line-height:125%;letter-spacing:0px;word-spacing:0px;fill:#000000;fill-opacity:0.18039216;stroke:none;font-family:Jenna Sue;-inkscape-font-specification:Jenna Sue"
       xml:space="preserve"><tspan
         y="1038.9845"
         x="12.924767"
         id="tspan5630"
         sodipodi:role="line">,</tspan></text>
    <text
       xml:space="preserve"
       style="font-size:1.35593212px;font-style:normal;font-variant:normal;font-weight:normal;font-stretch:normal;line-height:125%;letter-spacing:0px;word-spacing:0px;fill:#000000;fill-opacity:0.18039216;stroke:none;font-family:Jenna Sue;-inkscape-font-specification:Jenna Sue"
       x="4.2468023"
       y="1047.8425"
       id="text6243"
       sodipodi:linespacing="125%"><tspan
         sodipodi:role="line"
         id="tspan6245"
         x="4.2468023"
         y="1047.8425">well..            ..more work on icon?</tspan></text>
    <path
       style="fill:#ffeeaa;fill-opacity:1;stroke:#0c80c8;stroke-width:0.27118647;stroke-linejoin:round;stroke-miterlimit:4;stroke-opacity:1;stroke-dasharray:none;stroke-dashoffset:0"
       id="path6268"
       d="m 1.0982206,1046.4774 c 0.475727,-0.019 0.934331,-0.1684 1.386274,-0.305 0.816555,-0.268 1.5926461,-0.6462 2.2726294,-1.1757 0.1559227,-0.1214 0.299896,-0.2575 0.449844,-0.3862 0.5503007,-0.5219 1.010791,-1.1275 1.407144,-1.7723 0.235371,-0.383 0.305873,-0.5308 0.513663,-0.9232 0.249176,-0.5264 0.491586,-1.0718 0.587612,-1.6509 0.0086,-0.052 0.01239,-0.1048 0.01861,-0.1572 -5.5e-4,-0.039 0.0093,-0.1345 -0.02429,-0.1752 -0.07748,-0.094 -0.405452,0.1233 -0.456458,0.1521 0.06389,0.1752 0.01811,0.015 -0.315407,0.326 -0.418139,0.3909 -0.777682,0.8062 -1.0938186,1.2849 -0.1086534,0.1645 -0.2027,0.3382 -0.30405,0.5073 -0.080777,0.1678 -0.170244,0.3317 -0.24233,0.5034 -0.229234,0.5461 -0.366068,1.143 -0.3570294,1.7372 0.00147,0.096 0.015393,0.1921 0.023087,0.2882 0.031707,0.1649 0.03382,0.2278 0.094248,0.3749 0.020833,0.051 0.05804,0.1299 0.1138533,0.1584 0.055873,0.029 0.100058,-0.01 0.1517527,-0.021 -0.064827,0.032 -0.1418493,0.1461 -0.1944807,0.096 -0.049567,-0.047 0.10406,-0.088 0.153008,-0.1355 0.057953,-0.056 0.1135294,-0.1147 0.167422,-0.1748 0.17316,-0.1929 0.327366,-0.4015 0.482038,-0.6091 0.1654567,-0.2249 0.2478027,-0.3432 0.5673997,-0.4284 0.0297,-0.01 0.03503,0.052 0.04233,0.082 0.01523,0.062 0.0038,0.2235 0.0017,0.278 -0.0047,0.1512 -0.02369,0.3021 -0.02205,0.4535 3.34e-4,0.032 0.0031,0.1078 0.01815,0.1444 0.0031,0.01 0.01153,0.011 0.01731,0.018 0.01995,-0.01 0.02877,-0.031 0.05031,-0.033 0.03735,-0.01 0.05492,0.042 0.06842,0.068 0.02453,0.059 0.03231,0.1219 0.0629,0.1777 0.03083,0.041 0.06244,0.084 0.09832,0.1212 0.02017,0.013 0.03903,0.027 0.06313,0.031 0.06864,0.013 0.156404,-0.01 0.224586,-0.016 0.126491,-0.023 0.22129,-0.029 0.34328,0.015 0.146216,0.07 0.277855,0.1675 0.415161,0.2533 0.198618,0.1339 0.407237,0.2518 0.611549,0.3766 0.114308,0.07 0.2271,0.142 0.341323,0.212 0.04787,0.029 0.09529,0.06 0.14362,0.088 0.0057,0.01 0.166037,0.097 0.189352,0.1007 0.0092,0 0.02368,-0.027 0.01504,-0.023 -0.411045,0.1684 -0.26949,0.2697 -0.444497,0.062 -0.30914,-0.351 -0.623422,-0.698 -0.917674,-1.0617 -0.102706,-0.127 -0.206874,-0.253 -0.301986,-0.3858 -0.0997,-0.1392 -0.187955,-0.2861 -0.281932,-0.4292 -0.166918,-0.3141 -0.325732,-0.5709 -0.422063,-0.9169 -0.08895,-0.3194 -0.110053,-0.6317 -0.0581,-0.9594 0.06457,-0.4073 0.150088,-0.5043 0.33456,-0.8645 0.104266,-0.1252 0.19795,-0.26 0.312798,-0.3756 0.238984,-0.2405 0.504976,-0.4222 0.798402,-0.5884 0.211092,-0.1196 0.425354,-0.2341 0.644814,-0.3376 0.227998,-0.1074 0.44094,-0.1615 0.679338,-0.2316 0.163204,-0.023 0.42392,-0.1278 0.56552,0.027 0.143027,0.1561 0.09555,0.4813 0.08769,0.6652 -0.06936,0.5165 -0.181297,1.0259 -0.276213,1.538 -0.0629,0.3393 -0.06495,0.3664 -0.116482,0.6945 -0.02351,0.1728 -0.04353,0.3071 -0.06102,0.4772 -0.0055,0.053 -0.01763,0.1592 -0.0093,0.2215 0.0063,0.047 0.0099,0.035 0.02635,0.017 0.0064,-0.01 0.01067,-0.015 0.01917,-0.017 0.0303,-0.01 0.04807,0.025 0.05442,0.047 0.02053,0.074 -0.01687,0.1857 -0.03409,0.2545 -0.07718,0.2981 -0.196044,0.5829 -0.283954,0.8775 -0.09905,0.063 -0.007,0.08 0.01161,0.067 0.0201,-0.015 0.07742,-0.058 0.05404,-0.051 -0.07595,0.025 -0.137248,0.1168 -0.216268,0.1042 -0.05696,-0.01 0.08465,-0.078 0.125965,-0.1187 0.04551,-0.045 0.08964,-0.09 0.134457,-0.1351 0.212193,-0.2359 0.343433,-0.388 0.679832,-0.4892 0.04142,-0.013 0.06151,0.094 0.08116,0.1648 0.02531,0.1198 0.01801,0.2433 0.04116,0.3634 0.0082,0.043 0.02133,0.1013 0.05228,0.087 0.01809,-0.01 0.02417,-0.031 0.03627,-0.047 -0.32356,0.1454 -0.303167,0.1932 -0.194424,0.013 0.02155,-0.035 0.04141,-0.072 0.06147,-0.1086 0.01591,-0.029 0.03133,-0.058 0.04645,-0.087 0.0063,-0.012 0.0055,-0.031 0.01787,-0.037 0.11298,-0.055 0.232978,-0.095 0.349462,-0.143 -0.177782,0.302 -0.292412,0.634 -0.389091,0.9692 -0.02159,0.088 -0.05334,0.2044 -0.06559,0.2964 -0.0045,0.034 -0.02406,0.1242 0.02729,0.1512 0.04985,0.026 0.189743,-0.019 0.217693,-0.025 0.2045,-0.074 0.220314,-0.07 0.42407,-0.1916 0.0042,-0.01 -0.01361,-0.01 -0.0098,-0.011 0.08871,-0.072 0.185647,-0.1332 0.275092,-0.2041 0.168863,-0.1339 0.297411,-0.2563 0.45495,-0.4005 0.21486,-0.2058 0.407305,-0.3955 0.716015,-0.465 0.02653,-0.01 0.02267,0.05 0.0279,0.077 0.0061,0.031 0.0038,0.063 0.0057,0.095 8.67e-4,0.097 -0.01509,0.1936 -0.02165,0.2904 -1.26e-4,0.01 -0.0067,0.071 0.0061,0.085 0.0031,0.01 0.0062,-0.01 0.0093,-0.01 0.06312,-0.1344 0.0089,-0.01 -0.292542,0.143 -0.01291,0.01 0.01883,-0.021 0.02755,-0.033 0.02057,-0.027 0.03827,-0.055 0.06047,-0.08 0.258314,-0.2444 0.292853,-0.2112 0.517205,-0.2334 0.07326,-0.013 0.147229,-0.021 0.220378,-0.036 0,0 -0.307363,0.2318 -0.307363,0.2318 l 0,0 c -0.07477,0.013 -0.149694,0.024 -0.224622,0.035 -0.03725,0.01 -0.07681,0.01 -0.112844,0.015 -0.0074,0.01 -0.02831,0.013 -0.02159,0.01 0.275082,-0.1643 0.42566,-0.241 0.291347,-0.1721 -0.02373,0.019 -0.02427,0.017 -0.04401,0.043 -0.008,0.011 -0.01521,0.021 -0.02251,0.033 -0.0083,0.013 -0.01199,0.029 -0.02435,0.038 -0.339009,0.2329 -0.220908,0.2281 -0.395308,0.2258 -0.0085,-0.01 -0.02039,-0.015 -0.02566,-0.025 -0.01237,-0.025 -0.0031,-0.081 -6.5e-4,-0.1018 0.01173,-0.094 0.02871,-0.1886 0.02592,-0.2844 -0.0023,-0.027 -0.0029,-0.055 -0.0071,-0.083 -0.02522,-0.1663 -0.172357,0.07 0.281604,-0.231 0.02749,-0.018 -0.05822,0.031 -0.08481,0.051 -0.08061,0.059 -0.236738,0.2016 -0.301492,0.2592 -0.148005,0.1332 -0.311598,0.2839 -0.466173,0.4082 -0.08778,0.071 -0.175281,0.1422 -0.269297,0.2042 -0.178156,0.1176 -0.361818,0.2268 -0.546295,0.3343 -0.222328,0.1295 -0.231308,0.1223 -0.453958,0.2021 -0.07921,0.013 -0.182682,0.056 -0.259968,-0.01 -0.0558,-0.043 -0.03463,-0.1298 -0.02528,-0.182 0.01399,-0.078 0.05906,-0.2349 0.07838,-0.3055 0.096,-0.3239 0.20334,-0.6458 0.347739,-0.9517 0.120829,-0.06 0.238089,-0.1283 0.362495,-0.1807 0.01585,-0.01 -0.02211,0.027 -0.03133,0.041 -0.02577,0.041 -0.09155,0.1627 -0.112163,0.1996 -0.01973,0.035 -0.02917,0.079 -0.05989,0.1054 -0.118789,0.1015 -0.254521,0.1814 -0.381784,0.2721 -0.02213,0.01 -0.04489,0.017 -0.06645,0.011 -0.04459,-0.013 -0.04863,-0.093 -0.05227,-0.1204 -0.01574,-0.1184 -0.01243,-0.2391 -0.04091,-0.3558 -0.0093,-0.028 -0.01425,-0.058 -0.02793,-0.084 -0.06747,-0.129 -0.348748,0.1653 0.236356,-0.2052 0.02963,-0.019 -0.05967,0.037 -0.08633,0.06 -0.06918,0.059 -0.17072,0.1748 -0.229018,0.2384 -0.04323,0.045 -0.08632,0.089 -0.129709,0.134 -0.03849,0.039 -0.07129,0.086 -0.115935,0.118 -0.134647,0.098 -0.27566,0.1868 -0.41946,0.2704 -0.02975,0.017 -0.112741,0.054 -0.123031,-0.017 -0.0039,-0.027 0.01249,-0.053 0.01873,-0.079 0.100035,-0.2894 0.218668,-0.5734 0.283436,-0.874 0.02059,-0.096 0.02357,-0.09 0.02915,-0.1764 8.66e-4,-0.015 0.0041,-0.049 -0.0038,-0.05 -0.01781,-0.01 -0.03436,0.019 -0.05347,0.01 -0.01067,-0.01 -0.02545,-0.013 -0.03203,-0.025 -0.01795,-0.032 -0.0015,-0.1168 0.0015,-0.1376 0.03211,-0.2142 0.08264,-0.4254 0.114178,-0.6397 0.06715,-0.3667 0.13905,-0.7323 0.208577,-1.0985 0.04911,-0.2587 0.09936,-0.521 0.135245,-0.782 0.01563,-0.1136 0.02563,-0.2278 0.03846,-0.3416 8.67e-4,-0.1634 0.02979,-0.4778 -0.09837,-0.6154 -0.127937,-0.1372 -0.367186,-0.047 -0.51475,-0.03 -0.433692,0.121 -0.175867,0.04 -0.649217,0.2149 -0.05418,0.021 -0.11241,0.031 -0.163071,0.059 -0.291341,0.1596 -0.563659,0.3448 -0.800377,0.5798 -0.113803,0.1131 -0.206826,0.2452 -0.31024,0.3678 -0.186903,0.3554 -0.273234,0.4519 -0.342332,0.8551 -0.05606,0.327 -0.03889,0.6313 0.04761,0.9516 0.09563,0.3541 0.245534,0.5925 0.4158,0.9136 0.09523,0.1414 0.184714,0.2869 0.285683,0.4243 0.09663,0.1314 0.201256,0.257 0.306581,0.3816 0.305468,0.3615 0.640303,0.6962 0.986918,1.0179 0.193835,0.1811 0.15778,0.082 -0.178581,0.3701 -0.006,0.01 -0.01379,-0.01 -0.02045,-0.011 -0.02305,-0.015 -0.04594,-0.029 -0.06869,-0.045 -0.03491,-0.023 -0.06953,-0.047 -0.104307,-0.07 -0.04585,-0.031 -0.09171,-0.061 -0.137572,-0.092 -0.04981,-0.031 -0.291816,-0.1848 -0.338445,-0.2127 -0.208075,-0.1248 -0.421792,-0.2403 -0.629984,-0.3649 -0.0351,-0.019 -0.07061,-0.039 -0.1053,-0.059 -0.105008,-0.061 -0.202949,-0.1376 -0.318698,-0.1788 -0.112527,-0.032 -0.216936,-0.023 -0.331257,-0.01 -0.108067,0.013 -0.224513,0.035 -0.314611,-0.041 -0.03765,-0.041 -0.07511,-0.083 -0.107222,-0.1284 -0.02829,-0.057 -0.03167,-0.1216 -0.05979,-0.179 -0.0039,-0.01 -0.0063,-0.015 -0.01163,-0.021 -0.0027,-0.01 -0.0072,-0.01 -0.01123,-0.01 -0.0054,0 -0.01005,0.01 -0.01516,0.01 -0.03073,0.01 -0.05232,0.011 -0.07812,-0.013 -0.0066,-0.011 -0.01625,-0.023 -0.01987,-0.036 -0.01057,-0.039 -0.0075,-0.1281 -0.006,-0.1597 0.0071,-0.1518 0.02702,-0.3028 0.02737,-0.455 -4.33e-4,-0.072 0.0038,-0.1774 -0.01161,-0.2522 -0.0029,-0.015 -0.03011,-0.031 -0.01898,-0.04 0.08189,-0.071 0.175169,-0.1287 0.271374,-0.1784 0.09681,-0.05 -0.437366,0.3336 -0.219752,0.242 -0.15665,0.2058 -0.3101247,0.4153 -0.4788427,0.6116 -0.03272,0.038 -0.2415213,0.271 -0.296806,0.3092 -0.1409846,0.097 -0.2937913,0.1761 -0.4406866,0.2641 -0.033327,0.01 -0.066213,0.019 -0.099969,0.017 -0.1083606,-0.01 -0.154394,-0.1276 -0.180988,-0.2126 -0.049947,-0.1598 -0.048247,-0.2206 -0.070148,-0.3966 -0.00307,-0.1 -0.011647,-0.1993 -0.00911,-0.299 0.015407,-0.606 0.1592587,-1.2124 0.397064,-1.7689 0.074143,-0.1735 0.165586,-0.3391 0.2483793,-0.5086 0.101646,-0.17 0.19664,-0.3441 0.3049394,-0.51 0.207014,-0.3169 0.4541456,-0.6403 0.7073176,-0.9225 0.109442,-0.122 0.226898,-0.2366 0.344308,-0.351 0.09958,-0.097 0.19602,-0.1984 0.306454,-0.2828 0.174662,-0.1334 0.364344,-0.2461 0.546517,-0.3691 0.109629,-0.061 0.317009,-0.2091 0.461138,-0.166 0.108487,0.033 0.07992,0.1679 0.07445,0.2468 -0.01037,0.055 -0.01863,0.1112 -0.03109,0.1661 -0.134054,0.5902 -0.388553,1.1472 -0.650715,1.6893 -0.210237,0.3907 -0.287574,0.5473 -0.522302,0.9293 -0.398252,0.6482 -0.8598736,1.257 -1.4122123,1.7825 -0.149312,0.1293 -0.29245,0.2662 -0.4479347,0.388 -0.3719606,0.2916 -0.80028,0.5438 -1.2087873,0.7731 -0.4852475,0.2723 -0.9975365,0.494 -1.524947,0.6704 -0.48335,0.1522 -0.97143,0.3136 -1.4787731,0.3616 0,0 0.3192216,-0.232 0.3192216,-0.232 z"
       inkscape:connector-curvature="0" />
    <path
       style="fill:#ffeeaa;fill-opacity:1;stroke:#0c80c8;stroke-width:0.27118647;stroke-linejoin:round;stroke-miterlimit:4;stroke-opacity:1;stroke-dasharray:none;stroke-dashoffset:0"
       id="path6270"
       d="m 11.878261,1043.7614 c 0.05373,0 0.107479,0 0.16122,0 0,0 -0.315738,0.2294 -0.315738,0.2294 l 0,0 c -0.05512,0 -0.110248,0 -0.16535,0 0,0 0.319868,-0.2324 0.319868,-0.2324 z"
       inkscape:connector-curvature="0" />
    <path
       style="fill:#ffeeaa;fill-opacity:1;stroke:#0c80c8;stroke-width:0.27118647;stroke-linejoin:round;stroke-miterlimit:4;stroke-opacity:1;stroke-dasharray:none;stroke-dashoffset:0"
       id="path6272"
       d="m 11.156497,1043.5054 c 0.07685,-0.035 0.153848,-0.069 0.226214,-0.1123 0,0 -0.29995,0.2427 -0.29995,0.2427 l 0,0 c -0.07666,0.041 -0.156602,0.076 -0.233952,0.1157 0,0 0.307688,-0.2461 0.307688,-0.2461 z"
       inkscape:connector-curvature="0" />
    <path
       style="fill:#ffeeaa;fill-opacity:1;stroke:#0c80c8;stroke-width:0.27118647;stroke-linejoin:round;stroke-miterlimit:4;stroke-opacity:1;stroke-dasharray:none;stroke-dashoffset:0"
       id="path6274"
       d="m 5.8948494,1048.9406 c 0.3482776,-0.2553 0.7536376,-0.4144 1.1477396,-0.5822 0.738428,-0.2838 1.494914,-0.5228 2.261481,-0.7186 0.179213,-0.045 0.359801,-0.086 0.539703,-0.1289 0.777952,-0.1764 1.562936,-0.3191 2.34955,-0.4507 0.203492,-0.025 0.40702,-0.08 0.6134,-0.065 0.02725,0.01 0.05443,0.01 0.08167,0.01 0,0 -0.321149,0.2273 -0.321149,0.2273 l 0,0 c -0.02581,-0.01 -0.05161,-0.01 -0.07753,-0.011 -0.189924,-0.015 -0.379078,0.023 -0.567388,0.042 -0.766904,0.1044 -1.53021,0.2364 -2.285628,0.4055 -0.179532,0.043 -0.359895,0.083 -0.538596,0.1292 -0.784524,0.2037 -1.558334,0.4557 -2.309122,0.7609 -0.185368,0.082 -0.328254,0.1439 -0.508024,0.2301 -0.05283,0.025 -0.20348,0.1145 -0.157135,0.079 0.07056,-0.055 0.153583,-0.091 0.230674,-0.1355 0.03259,-0.019 -0.108461,0.063 -0.09508,0.061 0,0 -0.3645596,0.1471 -0.3645596,0.1471 z"
       inkscape:connector-curvature="0" />
  </g>
</svg>
