<?xml version="1.0" encoding="UTF-8" standalone="no"?>
<!-- Created with Inkscape (http://www.inkscape.org/) -->

<svg
   xmlns:osb="http://www.openswatchbook.org/uri/2009/osb"
   xmlns:dc="http://purl.org/dc/elements/1.1/"
   xmlns:cc="http://creativecommons.org/ns#"
   xmlns:rdf="http://www.w3.org/1999/02/22-rdf-syntax-ns#"
   xmlns:svg="http://www.w3.org/2000/svg"
   xmlns="http://www.w3.org/2000/svg"
   xmlns:xlink="http://www.w3.org/1999/xlink"
   xmlns:sodipodi="http://sodipodi.sourceforge.net/DTD/sodipodi-0.dtd"
   xmlns:inkscape="http://www.inkscape.org/namespaces/inkscape"
   width="192"
   height="192"
   id="svg7564"
   version="1.1"
   inkscape:version="0.48.3.1 r9886"
   sodipodi:docname="enote.svg">
  <title
     id="title5651">enote icon</title>
  <defs
     id="defs7566">
    <linearGradient
       id="linearGradient6206">
      <stop
         offset="0"
         style="stop-color:#fefdf6;stop-opacity:1;"
         id="stop6208" />
      <stop
         offset="1"
         style="stop-color:#f8e384;stop-opacity:1;"
         id="stop6210" />
    </linearGradient>
    <linearGradient
       id="linearGradient5604"
       osb:paint="solid">
      <stop
         style="stop-color:#ff80c8;stop-opacity:1;"
         offset="0"
         id="stop5606" />
    </linearGradient>
    <linearGradient
       id="linearGradient5578"
       osb:paint="gradient">
      <stop
         style="stop-color:#0c80c8;stop-opacity:1;"
         offset="0"
         id="stop5580" />
      <stop
         style="stop-color:#0c80c8;stop-opacity:0;"
         offset="1"
         id="stop5582" />
    </linearGradient>
    <linearGradient
       id="linearGradient5570"
       osb:paint="solid">
      <stop
         style="stop-color:#ff80c8;stop-opacity:1;"
         offset="0"
         id="stop5572" />
    </linearGradient>
    <linearGradient
       id="linearGradient4040">
      <stop
         style="stop-color:#0c80c8;stop-opacity:1;"
         offset="0"
         id="stop4042" />
      <stop
         style="stop-color:#0c80c8;stop-opacity:0;"
         offset="1"
         id="stop4044" />
    </linearGradient>
    <linearGradient
       id="linearGradient3894">
      <stop
         id="stop3896"
         offset="0"
         style="stop-color:#0c80c8;stop-opacity:1" />
      <stop
         id="stop3898"
         offset="1"
         style="stop-color:#185f9a;stop-opacity:1;" />
    </linearGradient>
    <linearGradient
       inkscape:collect="always"
       xlink:href="#linearGradient3688-166-749"
       id="linearGradient18443"
       gradientUnits="userSpaceOnUse"
       gradientTransform="translate(-0.12497443,0.06897341)"
       x1="34.124973"
       y1="42.931026"
       x2="34.124973"
       y2="16.931026" />
    <linearGradient
       id="linearGradient3688-166-749">
      <stop
         id="stop2883"
         style="stop-color:#181818;stop-opacity:1"
         offset="0" />
      <stop
         id="stop2885"
         style="stop-color:#181818;stop-opacity:0"
         offset="1" />
    </linearGradient>
    <linearGradient
       inkscape:collect="always"
       xlink:href="#linearGradient3688-166-749"
       id="linearGradient18440"
       gradientUnits="userSpaceOnUse"
       gradientTransform="translate(-0.12497443,0.06897341)"
       x1="34.124973"
       y1="42.931026"
       x2="34.124973"
       y2="16.931026" />
    <linearGradient
       id="linearGradient7476">
      <stop
         id="stop7478"
         style="stop-color:#181818;stop-opacity:1"
         offset="0" />
      <stop
         id="stop7480"
         style="stop-color:#181818;stop-opacity:0"
         offset="1" />
    </linearGradient>
    <linearGradient
       inkscape:collect="always"
       xlink:href="#linearGradient3688-166-749"
       id="linearGradient18437"
       gradientUnits="userSpaceOnUse"
       gradientTransform="translate(-0.12497443,0.06897341)"
       x1="34.124973"
       y1="42.931026"
       x2="34.124973"
       y2="16.931026" />
    <linearGradient
       id="linearGradient7483">
      <stop
         id="stop7485"
         style="stop-color:#181818;stop-opacity:1"
         offset="0" />
      <stop
         id="stop7487"
         style="stop-color:#181818;stop-opacity:0"
         offset="1" />
    </linearGradient>
    <radialGradient
       inkscape:collect="always"
       xlink:href="#linearGradient18375"
       id="radialGradient18432"
       gradientUnits="userSpaceOnUse"
       gradientTransform="matrix(-8.6867956e-8,2.3570682,-1.5152443,-5.5842562e-8,64.085431,-60.140705)"
       cx="33.575909"
       cy="22.495005"
       fx="33.575909"
       fy="22.495005"
       r="11.879165" />
    <linearGradient
       id="linearGradient18375">
      <stop
         style="stop-color:#90dbec;stop-opacity:1;"
         offset="0"
         id="stop18377" />
      <stop
         id="stop18387"
         offset="0.35714287"
         style="stop-color:#55c1ec;stop-opacity:1;" />
      <stop
         id="stop18385"
         offset="0.60714287"
         style="stop-color:#3689e6;stop-opacity:1;" />
      <stop
         style="stop-color:#2b63a0;stop-opacity:1;"
         offset="1"
         id="stop18379" />
    </linearGradient>
    <linearGradient
       inkscape:collect="always"
       xlink:href="#linearGradient18393"
       id="linearGradient18434"
       gradientUnits="userSpaceOnUse"
       x1="46"
       y1="18"
       x2="46"
       y2="41.999996" />
    <linearGradient
       id="linearGradient18393">
      <stop
         style="stop-color:#599ec9;stop-opacity:1;"
         offset="0"
         id="stop18395" />
      <stop
         style="stop-color:#185f9a;stop-opacity:1;"
         offset="1"
         id="stop18397" />
    </linearGradient>
    <linearGradient
       inkscape:collect="always"
       xlink:href="#linearGradient3924"
       id="linearGradient18429"
       gradientUnits="userSpaceOnUse"
       gradientTransform="translate(-2.523e-5,0.06602467)"
       x1="44.000027"
       y1="19.933975"
       x2="44.000027"
       y2="39.933975" />
    <linearGradient
       id="linearGradient3924">
      <stop
         id="stop3926"
         style="stop-color:#ffffff;stop-opacity:1"
         offset="0" />
      <stop
         id="stop3928"
         style="stop-color:#ffffff;stop-opacity:0.23529412"
         offset="0.10000001" />
      <stop
         id="stop3930"
         style="stop-color:#ffffff;stop-opacity:0.15686275"
         offset="0.94999999" />
      <stop
         id="stop3932"
         style="stop-color:#ffffff;stop-opacity:0.39215687"
         offset="1" />
    </linearGradient>
    <linearGradient
       inkscape:collect="always"
       xlink:href="#linearGradient3104-6"
       id="linearGradient7095"
       gradientUnits="userSpaceOnUse"
       gradientTransform="matrix(2.8895385,0,0,3.6433314,-1043.1082,27.87325)"
       x1="0.50847417"
       y1="-34"
       x2="59.491524"
       y2="-34" />
    <linearGradient
       id="linearGradient3104-6">
      <stop
         offset="0"
         style="stop-color:#000000;stop-opacity:0.31782946"
         id="stop3106-3" />
      <stop
         offset="1"
         style="stop-color:#000000;stop-opacity:0.24031007"
         id="stop3108-9" />
    </linearGradient>
    <linearGradient
       inkscape:collect="always"
       xlink:href="#linearGradient3977-4-9"
       id="linearGradient7004"
       gradientUnits="userSpaceOnUse"
       gradientTransform="matrix(2.8334311,0,0,3.5725869,871.41877,25.467944)"
       x1="1.5087713"
       y1="-34"
       x2="58.491226"
       y2="-34" />
    <linearGradient
       id="linearGradient3977-4-9">
      <stop
         id="stop3979-7-0"
         style="stop-color:#ffffff;stop-opacity:1"
         offset="0" />
      <stop
         id="stop3981-6-9"
         style="stop-color:#ffffff;stop-opacity:0.23529412"
         offset="0.01785714" />
      <stop
         id="stop3983-5-2"
         style="stop-color:#ffffff;stop-opacity:0.15686275"
         offset="0.98245609" />
      <stop
         id="stop3985-6-8"
         style="stop-color:#ffffff;stop-opacity:0.39215687"
         offset="1" />
    </linearGradient>
    <linearGradient
       id="linearGradient3600-9-3">
      <stop
         id="stop3602-3-0"
         style="stop-color:#f4f4f4;stop-opacity:1"
         offset="0" />
      <stop
         id="stop3604-7-1"
         style="stop-color:#dbdbdb;stop-opacity:1"
         offset="1" />
    </linearGradient>
    <linearGradient
       id="linearGradient7520">
      <stop
         id="stop7522"
         style="stop-color:#181818;stop-opacity:1"
         offset="0" />
      <stop
         id="stop7524"
         style="stop-color:#181818;stop-opacity:0"
         offset="1" />
    </linearGradient>
    <linearGradient
       id="linearGradient3688-464-309">
      <stop
         id="stop2889"
         style="stop-color:#181818;stop-opacity:1"
         offset="0" />
      <stop
         id="stop2891"
         style="stop-color:#181818;stop-opacity:0"
         offset="1" />
    </linearGradient>
    <linearGradient
       inkscape:collect="always"
       xlink:href="#linearGradient3702-501-757"
       id="linearGradient7118"
       gradientUnits="userSpaceOnUse"
       gradientTransform="matrix(1.5714287,0,0,0.7142857,-5.7142845,28.428574)"
       x1="25.058096"
       y1="47.027729"
       x2="25.058096"
       y2="39.999443" />
    <linearGradient
       id="linearGradient3702-501-757">
      <stop
         id="stop2895"
         style="stop-color:#181818;stop-opacity:0"
         offset="0" />
      <stop
         id="stop2897"
         style="stop-color:#181818;stop-opacity:1"
         offset="0.5" />
      <stop
         id="stop2899"
         style="stop-color:#181818;stop-opacity:0"
         offset="1" />
    </linearGradient>
    <linearGradient
       inkscape:collect="always"
       xlink:href="#linearGradient3702-501-757"
       id="linearGradient7788"
       gradientUnits="userSpaceOnUse"
       gradientTransform="matrix(3.0714288,0,0,1.4285713,-9.7142831,979.21942)"
       x1="25.058096"
       y1="47.027729"
       x2="25.058096"
       y2="39.999443" />
    <radialGradient
       inkscape:collect="always"
       xlink:href="#linearGradient3688-464-309"
       id="radialGradient7791"
       gradientUnits="userSpaceOnUse"
       gradientTransform="matrix(6.4121086,0,0,2,-53.037984,-1128.3622)"
       cx="4.9929786"
       cy="43.5"
       fx="4.9929786"
       fy="43.5"
       r="2.5" />
    <radialGradient
       inkscape:collect="always"
       xlink:href="#linearGradient3688-166-749"
       id="radialGradient7794"
       gradientUnits="userSpaceOnUse"
       gradientTransform="matrix(6.4121086,0,0,2,74.96201,954.36222)"
       cx="4.9929786"
       cy="43.5"
       fx="4.9929786"
       fy="43.5"
       r="2.5" />
    <linearGradient
       inkscape:collect="always"
       xlink:href="#linearGradient3924"
       id="linearGradient8332"
       gradientUnits="userSpaceOnUse"
       gradientTransform="matrix(2.1484769,0,0,2.1494197,-53.84864,933.94246)"
       x1="44.000027"
       y1="19.933975"
       x2="44.000027"
       y2="39.933975" />
    <radialGradient
       inkscape:collect="always"
       xlink:href="#linearGradient18375"
       id="radialGradient8335"
       gradientUnits="userSpaceOnUse"
       gradientTransform="matrix(-1.746571e-7,4.7406513,-3.046557,-1.123133e-7,79.789501,817.24102)"
       cx="33.575909"
       cy="22.495005"
       fx="33.575909"
       fy="22.495005"
       r="11.879165" />
    <linearGradient
       inkscape:collect="always"
       xlink:href="#linearGradient18393"
       id="linearGradient8337"
       gradientUnits="userSpaceOnUse"
       x1="46"
       y1="18"
       x2="46"
       y2="41.999996"
       gradientTransform="matrix(2.0106045,0,0,2.0112491,-49.060955,938.19897)" />
    <linearGradient
       inkscape:collect="always"
       xlink:href="#linearGradient3688-166-749"
       id="linearGradient8340"
       gradientUnits="userSpaceOnUse"
       gradientTransform="matrix(1.9206264,0,0,1.9212894,-46.360527,941.29341)"
       x1="34.124973"
       y1="42.931026"
       x2="34.124973"
       y2="16.931026" />
    <linearGradient
       inkscape:collect="always"
       xlink:href="#linearGradient3688-166-749"
       id="linearGradient8343"
       gradientUnits="userSpaceOnUse"
       gradientTransform="matrix(1.7998049,0,0,1.8003922,-42.912231,945.62838)"
       x1="34.124973"
       y1="42.931026"
       x2="34.124973"
       y2="16.931026" />
    <linearGradient
       inkscape:collect="always"
       xlink:href="#linearGradient3688-166-749"
       id="linearGradient8346"
       gradientUnits="userSpaceOnUse"
       gradientTransform="matrix(1.7405727,0,0,1.7412667,-40.869182,947.39659)"
       x1="34.124973"
       y1="42.931026"
       x2="34.124973"
       y2="16.931026" />
    <linearGradient
       inkscape:collect="always"
       xlink:href="#linearGradient3688-166-749"
       id="linearGradient8355"
       gradientUnits="userSpaceOnUse"
       gradientTransform="matrix(1.7405727,0,0,1.7412667,-40.869182,947.39659)"
       x1="34.124973"
       y1="42.931026"
       x2="34.124973"
       y2="16.931026" />
    <linearGradient
       inkscape:collect="always"
       xlink:href="#linearGradient3688-166-749"
       id="linearGradient8357"
       gradientUnits="userSpaceOnUse"
       gradientTransform="matrix(1.7998049,0,0,1.8003922,-42.912231,945.62838)"
       x1="34.124973"
       y1="42.931026"
       x2="34.124973"
       y2="16.931026" />
    <linearGradient
       inkscape:collect="always"
       xlink:href="#linearGradient3688-166-749"
       id="linearGradient8359"
       gradientUnits="userSpaceOnUse"
       gradientTransform="matrix(1.9206264,0,0,1.9212894,-46.360527,941.29341)"
       x1="34.124973"
       y1="42.931026"
       x2="34.124973"
       y2="16.931026" />
    <radialGradient
       inkscape:collect="always"
       xlink:href="#linearGradient18375"
       id="radialGradient8361"
       gradientUnits="userSpaceOnUse"
       gradientTransform="matrix(-1.746571e-7,4.7406513,-3.046557,-1.123133e-7,79.789501,817.24102)"
       cx="35.207165"
       cy="22.940353"
       fx="33.194881"
       fy="17.51687"
       r="11.879165" />
    <linearGradient
       inkscape:collect="always"
       xlink:href="#linearGradient18393"
       id="linearGradient8363"
       gradientUnits="userSpaceOnUse"
       gradientTransform="matrix(2.0106045,0,0,2.0112491,-49.060955,938.19897)"
       x1="45.738163"
       y1="18.576885"
       x2="45.738163"
       y2="41.448246" />
    <linearGradient
       inkscape:collect="always"
       xlink:href="#linearGradient3924"
       id="linearGradient8365"
       gradientUnits="userSpaceOnUse"
       gradientTransform="matrix(2.1484769,0,0,2.1494197,-53.84864,933.94246)"
       x1="44.000027"
       y1="19.933975"
       x2="44.000027"
       y2="39.933975" />
    <radialGradient
       inkscape:collect="always"
       xlink:href="#linearGradient18375-4"
       id="radialGradient8361-8"
       gradientUnits="userSpaceOnUse"
       gradientTransform="matrix(-1.746571e-7,4.7406513,-3.046557,-1.123133e-7,79.789501,817.24102)"
       cx="35.207165"
       cy="22.940353"
       fx="33.194881"
       fy="17.51687"
       r="11.879165" />
    <linearGradient
       id="linearGradient18375-4">
      <stop
         style="stop-color:#90dbec;stop-opacity:1;"
         offset="0"
         id="stop18377-1" />
      <stop
         id="stop18387-4"
         offset="0.35714287"
         style="stop-color:#55c1ec;stop-opacity:1;" />
      <stop
         id="stop18385-5"
         offset="0.60714287"
         style="stop-color:#3689e6;stop-opacity:1;" />
      <stop
         style="stop-color:#2b63a0;stop-opacity:1;"
         offset="1"
         id="stop18379-1" />
    </linearGradient>
    <linearGradient
       inkscape:collect="always"
       xlink:href="#linearGradient18393-9"
       id="linearGradient8363-4"
       gradientUnits="userSpaceOnUse"
       gradientTransform="matrix(2.0106045,0,0,2.0112491,-49.060955,938.19897)"
       x1="45.738163"
       y1="18.576885"
       x2="45.738163"
       y2="41.448246" />
    <linearGradient
       id="linearGradient18393-9">
      <stop
         style="stop-color:#599ec9;stop-opacity:1;"
         offset="0"
         id="stop18395-1" />
      <stop
         style="stop-color:#185f9a;stop-opacity:1;"
         offset="1"
         id="stop18397-8" />
    </linearGradient>
    <radialGradient
       r="11.879165"
       fy="17.51687"
       fx="33.194881"
       cy="22.940353"
       cx="35.207165"
       gradientTransform="matrix(-6.3820173e-8,1.7322466,-1.1132201,-4.1039583e-8,52.463307,823.76395)"
       gradientUnits="userSpaceOnUse"
       id="radialGradient3929"
       xlink:href="#linearGradient18375-4"
       inkscape:collect="always" />
    <linearGradient
       y2="41.448246"
       x2="45.738163"
       y1="18.576885"
       x1="45.738163"
       gradientTransform="matrix(0.73468029,0,0,0.73491576,5.381003,867.96229)"
       gradientUnits="userSpaceOnUse"
       id="linearGradient3931"
       xlink:href="#linearGradient18393-9"
       inkscape:collect="always" />
    <radialGradient
       r="11.879165"
       fy="17.51687"
       fx="33.194881"
       cy="22.940353"
       cx="35.207165"
       gradientTransform="matrix(-3.9222812e-8,1.0646099,-0.68416647,-2.5222241e-8,37.243071,909.83295)"
       gradientUnits="userSpaceOnUse"
       id="radialGradient3929-1"
       xlink:href="#linearGradient18375-4-9"
       inkscape:collect="always" />
    <linearGradient
       id="linearGradient18375-4-9">
      <stop
         style="stop-color:#ffdbec;stop-opacity:1;"
         offset="0"
         id="stop18377-1-2" />
      <stop
         id="stop18387-4-1"
         offset="0.35714287"
         style="stop-color:#55c1ec;stop-opacity:1;" />
      <stop
         id="stop18385-5-6"
         offset="0.60714287"
         style="stop-color:#3689e6;stop-opacity:1;" />
      <stop
         style="stop-color:#2b63a0;stop-opacity:1;"
         offset="1"
         id="stop18379-1-7" />
    </linearGradient>
    <linearGradient
       y2="41.448246"
       x2="45.738163"
       y1="18.576885"
       x1="45.738163"
       gradientTransform="matrix(0.45152221,0,0,0.45166697,8.3070727,936.99652)"
       gradientUnits="userSpaceOnUse"
       id="linearGradient3931-4"
       xlink:href="#linearGradient18393-9-0"
       inkscape:collect="always" />
    <linearGradient
       id="linearGradient18393-9-0">
      <stop
         style="stop-color:#ffffff;stop-opacity:1;"
         offset="0"
         id="stop18395-1-8" />
      <stop
         id="stop5876"
         offset="0.5"
         style="stop-color:#0e97ee;stop-opacity:1;" />
      <stop
         style="stop-color:#074871;stop-opacity:1;"
         offset="1"
         id="stop18397-8-4" />
    </linearGradient>
    <radialGradient
       inkscape:collect="always"
       xlink:href="#linearGradient18375-4"
       id="radialGradient4022"
       gradientUnits="userSpaceOnUse"
       gradientTransform="matrix(-6.3820173e-8,1.7322466,-1.1132201,-4.1039583e-8,52.463307,856.3063)"
       cx="35.207165"
       cy="22.940353"
       fx="33.194881"
       fy="17.51687"
       r="11.879165" />
    <linearGradient
       inkscape:collect="always"
       xlink:href="#linearGradient18393-9"
       id="linearGradient4024"
       gradientUnits="userSpaceOnUse"
       gradientTransform="matrix(0.73468029,0,0,0.73491576,5.381003,900.5047)"
       x1="45.738163"
       y1="18.576885"
       x2="45.738163"
       y2="41.448246" />
    <radialGradient
       inkscape:collect="always"
       xlink:href="#linearGradient18375-4"
       id="radialGradient4028"
       gradientUnits="userSpaceOnUse"
       gradientTransform="matrix(-6.3820173e-8,1.7322466,-1.1132201,-4.1039583e-8,52.463307,957.1879)"
       cx="35.207165"
       cy="22.940353"
       fx="33.194881"
       fy="17.51687"
       r="11.879165" />
    <linearGradient
       inkscape:collect="always"
       xlink:href="#linearGradient18393-9"
       id="linearGradient4030"
       gradientUnits="userSpaceOnUse"
       gradientTransform="matrix(0.73468029,0,0,0.73491576,5.381003,1001.3863)"
       x1="45.738163"
       y1="18.576885"
       x2="45.738163"
       y2="41.448246" />
    <linearGradient
       inkscape:collect="always"
       xlink:href="#linearGradient18375-4"
       id="linearGradient6202"
       x1="7.875"
       y1="38.697365"
       x2="55.59375"
       y2="38.697365"
       gradientUnits="userSpaceOnUse" />
    <linearGradient
       inkscape:collect="always"
       xlink:href="#linearGradient18375-4"
       id="linearGradient6204"
       gradientUnits="userSpaceOnUse"
       x1="27.750006"
       y1="16.916304"
       x2="27.750006"
       y2="54.037865"
       gradientTransform="matrix(0.78310253,0,0,0.78310253,1.7080675,10.873486)" />
    <linearGradient
       inkscape:collect="always"
       xlink:href="#linearGradient6206"
       id="linearGradient6218"
       x1="940.54749"
       y1="-64"
       x2="1042.3622"
       y2="-64"
       gradientUnits="userSpaceOnUse"
       gradientTransform="matrix(1.6271186,0,0,1.6271186,-656.64246,8.135593)" />
  </defs>
  <sodipodi:namedview
     id="base"
     pagecolor="#ffffff"
     bordercolor="#666666"
     borderopacity="1.0"
     inkscape:pageopacity="0.0"
     inkscape:pageshadow="2"
     inkscape:zoom="1"
     inkscape:cx="32"
     inkscape:cy="31.500005"
     inkscape:document-units="px"
     inkscape:current-layer="layer1"
     showgrid="false"
     inkscape:window-width="1371"
     inkscape:window-height="931"
     inkscape:window-x="437"
     inkscape:window-y="139"
     inkscape:window-maximized="0">
    <inkscape:grid
       type="xygrid"
       id="grid7756"
       empspacing="12"
       visible="true"
       enabled="true"
       snapvisiblegridlinesonly="true" />
  </sodipodi:namedview>
  <metadata
     id="metadata7569">
    <rdf:RDF>
      <cc:Work
         rdf:about="">
        <dc:format>image/svg+xml</dc:format>
        <dc:type
           rdf:resource="http://purl.org/dc/dcmitype/StillImage" />
        <dc:title>enote icon</dc:title>
        <cc:license
           rdf:resource="http://creativecommons.org/licenses/by/3.0/" />
        <dc:date>01/14/2014</dc:date>
        <dc:creator>
          <cc:Agent>
            <dc:title>Nikos Vasilakis</dc:title>
          </cc:Agent>
        </dc:creator>
        <dc:subject>
          <rdf:Bag>
            <rdf:li>enote</rdf:li>
            <rdf:li>icon</rdf:li>
            <rdf:li>note taking</rdf:li>
            <rdf:li>reminders</rdf:li>
          </rdf:Bag>
        </dc:subject>
        <dc:rights>
          <cc:Agent>
            <dc:title>Nikos Vasilakis</dc:title>
          </cc:Agent>
        </dc:rights>
      </cc:Work>
      <cc:License
         rdf:about="http://creativecommons.org/licenses/by/3.0/">
        <cc:permits
           rdf:resource="http://creativecommons.org/ns#Reproduction" />
        <cc:permits
           rdf:resource="http://creativecommons.org/ns#Distribution" />
        <cc:requires
           rdf:resource="http://creativecommons.org/ns#Notice" />
        <cc:requires
           rdf:resource="http://creativecommons.org/ns#Attribution" />
        <cc:permits
           rdf:resource="http://creativecommons.org/ns#DerivativeWorks" />
      </cc:License>
    </rdf:RDF>
  </metadata>
  <g
     inkscape:label="Layer 1"
     inkscape:groupmode="layer"
     id="layer1"
     transform="translate(0,-860.36218)"
     style="display:inline">
    <g
       id="g7796"
       transform="matrix(1.6271186,0,0,1.6271186,-8.135593,-656.64246)">
      <rect
         width="16"
         height="10"
         x="107"
         y="1036.3622"
         id="rect2801"
         style="opacity:0.4;fill:url(#radialGradient7794);fill-opacity:1;stroke:none" />
      <rect
         width="16"
         height="10"
         x="-21"
         y="-1046.3622"
         transform="scale(-1,-1)"
         id="rect3696"
         style="opacity:0.4;fill:url(#radialGradient7791);fill-opacity:1;stroke:none" />
      <rect
         width="86"
         height="10"
         x="21"
         y="1036.3622"
         id="rect3700"
         style="opacity:0.4;fill:url(#linearGradient7788);fill-opacity:1;stroke:none" />
    </g>
    <g
       id="g8348"
       transform="matrix(1.6271186,0,0,1.6271186,63.619692,-669.98409)">
      <path
         sodipodi:nodetypes="ccccccccc"
         style="opacity:0.03999999;fill:none;stroke:url(#linearGradient8355);stroke-width:1;stroke-linecap:round;stroke-linejoin:bevel;stroke-miterlimit:0;stroke-opacity:1;stroke-dasharray:none;stroke-dashoffset:0"
         d="M 32.146618,972.84239 14.481464,1003.7119 0.25213459,995.56921 -6.3604727,1007.0981 c -0.6756764,0.9281 0.603646,2.8845 1.2993198,3.2507 l 22.2297879,13.0891 c 1.607447,0.7136 3.744467,0.025 4.636044,-1.3342 l 23.915319,-41.55498 z"
         id="path18415"
         inkscape:connector-curvature="0" />
      <path
         inkscape:connector-curvature="0"
         id="path18413"
         d="M 32.709552,973.48232 14.791386,1004.8476 0.54199027,996.84625 -5.0493947,1006.577 c -0.6986698,0.9596 -0.503036,2.4458 0.2163119,2.8244 l 22.0830658,12.8732 c 1.538328,1.0447 3.60011,-0.074 4.005012,-1.1695 l 23.265002,-40.52121 z"
         style="opacity:0.07999998;fill:none;stroke:url(#linearGradient8357);stroke-width:0.99999994;stroke-linecap:round;stroke-linejoin:bevel;stroke-miterlimit:0;stroke-opacity:1;stroke-dasharray:none;stroke-dashoffset:0"
         sodipodi:nodetypes="ccccccccc" />
      <path
         sodipodi:nodetypes="ccccccccc"
         style="opacity:0.16000001;fill:none;stroke:url(#linearGradient8359);stroke-width:1;stroke-linecap:round;stroke-linejoin:bevel;stroke-miterlimit:0;stroke-opacity:1;stroke-dasharray:none;stroke-dashoffset:0"
         d="m 33.076658,974.85342 -17.985637,31.24988 -14.1064917,-7.98513 -5.2332754,9.05693 c -0.7455718,1.024 -0.024603,1.556 0.7430347,1.9601 l 20.9618774,12.1367 c 1.701319,1.0081 2.313327,0.6102 3.213661,-1.0503 l 22.650011,-39.44359 z"
         id="path18407"
         inkscape:connector-curvature="0" />
      <path
         inkscape:connector-curvature="0"
         id="rect17386"
         d="m 33.472758,975.97308 -18.095441,31.35232 -13.9298759,-8.045 -5.0265112,8.7089 13.9298761,8.045 8.706173,5.0281 5.026511,-8.7089 18.095441,-31.35233 -8.706173,-5.02809 z"
         style="fill:url(#radialGradient8361);fill-opacity:1;fill-rule:nonzero;stroke:url(#linearGradient8363);stroke-width:0.99999994;stroke-linecap:butt;stroke-linejoin:round;stroke-miterlimit:0;stroke-opacity:1;stroke-dasharray:none;stroke-dashoffset:0" />
      <path
         sodipodi:nodetypes="ccccccc"
         style="opacity:0.5;fill:none;stroke:url(#linearGradient8365);stroke-width:0.99999994;stroke-linecap:butt;stroke-linejoin:round;stroke-miterlimit:0;stroke-opacity:1;stroke-dasharray:none;stroke-dashoffset:0"
         d="m 33.931024,977.34784 -18.036292,31.40606 -13.9850866,-8.1977 -4.2227153,6.9843 20.9669919,12.1219 22.159008,-38.39042 z"
         id="path18401"
         inkscape:connector-curvature="0" />
    </g>
    <rect
       style="fill:url(#linearGradient6218);fill-opacity:1;stroke:none"
       id="rect6994"
       width="165.96609"
       height="165.96609"
       x="873.43854"
       y="-178.98306"
       rx="4.0677962"
       ry="4.0677962"
       transform="matrix(0,1,-1,0,0,0)" />
    <rect
       style="fill:none;stroke:url(#linearGradient7004);stroke-width:1.62711871"
       id="rect7002"
       width="164.33899"
       height="164.33899"
       x="874.25208"
       y="-178.16948"
       rx="3.2542374"
       ry="3.2542374"
       transform="matrix(0,1,-1,0,0,0)" />
    <rect
       transform="matrix(0,-1,-1,0,0,0)"
       ry="4.8813558"
       rx="4.8813558"
       y="-179.79657"
       x="-1040.2181"
       height="167.5932"
       width="167.5932"
       id="rect6998"
       style="fill:none;stroke:url(#linearGradient7095);stroke-width:1.62711883" />
    <g
       id="g8367"
       style="opacity:0.6"
       transform="matrix(1.6271186,0,0,1.6271186,-8.135593,-656.64246)">
      <rect
         y="940.36218"
         x="33"
         height="102"
         width="1"
         id="rect15708"
         style="opacity:0.12000002;fill:#da4d45;fill-opacity:1;fill-rule:nonzero;stroke:none" />
      <rect
         y="960.36218"
         x="13"
         height="1"
         width="102"
         id="rect15710"
         style="opacity:0.5;fill:#b9b9b9;fill-opacity:1;fill-rule:nonzero;stroke:none" />
      <rect
         style="opacity:0.5;fill:#b9b9b9;fill-opacity:1;fill-rule:nonzero;stroke:none"
         id="rect15712"
         width="102"
         height="1"
         x="13"
         y="981.36218" />
      <rect
         y="1002.3622"
         x="13"
         height="1"
         width="102"
         id="rect16848"
         style="opacity:0.5;fill:#b9b9b9;fill-opacity:1;fill-rule:nonzero;stroke:none" />
      <rect
         style="opacity:0.5;fill:#b9b9b9;fill-opacity:1;fill-rule:nonzero;stroke:none"
         id="rect7153"
         width="102"
         height="1"
         x="13"
         y="1023.3622" />
      <rect
         style="opacity:0.12000002;fill:#da4d45;fill-opacity:1;fill-rule:nonzero;stroke:none"
         id="rect5610"
         width="1"
         height="102"
         x="31"
         y="940.36218" />
    </g>
    <text
       sodipodi:linespacing="125%"
       id="text5616"
       y="927.37994"
       x="57.470108"
       style="font-size:16.27118492px;font-style:normal;font-variant:normal;font-weight:normal;font-stretch:normal;line-height:125%;letter-spacing:0px;word-spacing:0px;fill:#000000;fill-opacity:0.18039216;stroke:none;font-family:Jenna Sue;-inkscape-font-specification:Jenna Sue"
       xml:space="preserve"><tspan
         y="927.37994"
         x="57.470108"
         id="tspan5618"
         sodipodi:role="line">create the application icon</tspan></text>
    <text
       sodipodi:linespacing="125%"
       id="text6239"
       y="962.08521"
       x="50.961624"
       style="font-size:16.27118492px;font-style:normal;font-variant:normal;font-weight:normal;font-stretch:normal;line-height:125%;letter-spacing:0px;word-spacing:0px;fill:#000000;fill-opacity:0.18039216;stroke:none;font-family:Jenna Sue;-inkscape-font-specification:Jenna Sue"
       xml:space="preserve"><tspan
         y="962.08521"
         x="50.961624"
         id="tspan6241"
         sodipodi:role="line">enote, for real!</tspan></text>
    <path
       inkscape:connector-curvature="0"
       id="rect17386-9"
       d="m 35.539041,881.76468 -6.612123,11.45631 -5.090013,-2.93982 -1.836702,3.18237 5.090015,2.93991 3.181258,1.8369 1.836699,-3.18192 6.61212,-11.45646 -3.181254,-1.83729 z"
       style="fill:url(#radialGradient3929);fill-opacity:1;fill-rule:nonzero;stroke:url(#linearGradient3931);stroke-width:0.36540264;stroke-linecap:butt;stroke-linejoin:round;stroke-miterlimit:0;stroke-opacity:1;stroke-dasharray:none;stroke-dashoffset:0" />
    <path
       style="fill:url(#radialGradient4022);fill-opacity:1;fill-rule:nonzero;stroke:url(#linearGradient4024);stroke-width:0.36540264;stroke-linecap:butt;stroke-linejoin:round;stroke-miterlimit:0;stroke-opacity:1;stroke-dasharray:none;stroke-dashoffset:0"
       d="m 35.539041,914.30715 -6.612123,11.4558 -5.090013,-2.9394 -1.836702,3.1821 5.090015,2.94 3.181258,1.8372 1.836699,-3.1824 6.61212,-11.4564 -3.181254,-1.8369 z"
       id="path4020"
       inkscape:connector-curvature="0" />
    <path
       inkscape:connector-curvature="0"
       id="path4026"
       d="m 35.539041,1015.1885 -6.612123,11.4561 -5.090013,-2.9397 -1.836702,3.1824 5.090015,2.9394 3.181258,1.8375 1.836699,-3.1824 6.61212,-11.4561 -3.181254,-1.8372 z"
       style="fill:url(#radialGradient4028);fill-opacity:1;fill-rule:nonzero;stroke:url(#linearGradient4030);stroke-width:0.36540264;stroke-linecap:butt;stroke-linejoin:round;stroke-miterlimit:0;stroke-opacity:1;stroke-dasharray:none;stroke-dashoffset:0" />
    <text
       xml:space="preserve"
       style="font-size:16.27118492px;font-style:normal;font-variant:normal;font-weight:normal;font-stretch:normal;line-height:125%;letter-spacing:0px;word-spacing:0px;fill:#000000;fill-opacity:0.18039216;stroke:none;font-family:Jenna Sue;-inkscape-font-specification:Jenna Sue"
       x="50.961624"
       y="894.83789"
       id="text5612"
       sodipodi:linespacing="125%"><tspan
         sodipodi:role="line"
         id="tspan5614"
         x="50.961624"
         y="894.83789">don't forget to create enote</tspan></text>
    <text
       xml:space="preserve"
       style="font-size:16.27118492px;font-style:normal;font-variant:normal;font-weight:normal;font-stretch:normal;line-height:125%;letter-spacing:0px;word-spacing:0px;fill:#000000;fill-opacity:0.18039216;stroke:none;font-family:Jenna Sue;-inkscape-font-specification:Jenna Sue"
       x="50.961624"
       y="1027.1704"
       id="text5620"
       sodipodi:linespacing="125%"><tspan
         sodipodi:role="line"
         id="tspan5622"
         x="50.961624"
         y="1027.1704">have breakfast at Milliways!</tspan></text>
    <g
       transform="matrix(0.53106669,0,0,0.53106669,13.704788,934.86825)"
       id="g3877"
       style="fill:url(#linearGradient6202);fill-opacity:1;stroke:none">
      <path
         inkscape:connector-curvature="0"
         id="path3873"
         d="m 24.687233,30.666734 c -5.038477,0 -9.179644,3.914524 -9.666422,8.932263 -0.100328,-0.0038 -0.192261,-0.02447 -0.293664,-0.02447 -3.782503,0 -6.852147,2.726367 -6.852147,6.069045 0,3.321091 3.029942,6.009886 6.778731,6.044573 0.02436,2.25e-4 0.04899,0 0.07342,0 l 26.160519,0 c 2.419203,0 4.356008,-1.660841 4.356008,-3.719737 0,-1.785037 -1.46007,-3.258825 -3.426074,-3.62185 0.0054,-0.100203 0.02447,-0.192136 0.02447,-0.293663 0,-3.108103 -2.559689,-5.62855 -5.726437,-5.62855 -0.660784,0 -1.293645,0.116271 -1.88434,0.318136 -0.85005,-4.596751 -4.798492,-8.075745 -9.544062,-8.075745 z"
         style="fill:url(#linearGradient6204);fill-opacity:1;stroke:#0c80c8;stroke-opacity:1" />
    </g>
    <text
       sodipodi:linespacing="125%"
       id="text5628"
       y="888.32941"
       x="155.0972"
       style="font-size:16.27118492px;font-style:normal;font-variant:normal;font-weight:normal;font-stretch:normal;line-height:125%;letter-spacing:0px;word-spacing:0px;fill:#000000;fill-opacity:0.18039216;stroke:none;font-family:Jenna Sue;-inkscape-font-specification:Jenna Sue"
       xml:space="preserve"><tspan
         y="888.32941"
         x="155.0972"
         id="tspan5630"
         sodipodi:role="line">,</tspan></text>
    <text
       xml:space="preserve"
       style="font-size:16.27118492px;font-style:normal;font-variant:normal;font-weight:normal;font-stretch:normal;line-height:125%;letter-spacing:0px;word-spacing:0px;fill:#000000;fill-opacity:0.18039216;stroke:none;font-family:Jenna Sue;-inkscape-font-specification:Jenna Sue"
       x="50.961624"
       y="994.62738"
       id="text6243"
       sodipodi:linespacing="125%"><tspan
         sodipodi:role="line"
         id="tspan6245"
         x="50.961624"
         y="994.62738">well..            ..more work on icon?</tspan></text>
    <path
       style="fill:#ffeeaa;fill-opacity:1;stroke:#0c80c8;stroke-width:3.25423741;stroke-linejoin:round;stroke-miterlimit:4;stroke-opacity:1;stroke-dasharray:none;stroke-dashoffset:0"
       id="path6268"
       d="m 13.178648,978.245 c 5.708722,-0.234 11.211972,-2.0199 16.635288,-3.6589 9.798661,-3.2169 19.11175,-7.7547 27.271555,-14.1096 1.871067,-1.4565 3.598749,-3.0891 5.398125,-4.6341 6.603603,-6.2631 12.129486,-13.5303 16.885728,-21.26815 2.824449,-4.5951 3.670482,-6.3693 6.163965,-11.0778 2.990097,-6.3174 5.899023,-12.8619 7.051341,-19.8111 0.10359,-0.6246 0.14877,-1.2576 0.22323,-1.8861 -0.0069,-0.4665 0.11163,-1.6143 -0.29142,-2.1021 -0.929751,-1.1241 -4.865436,1.4796 -5.477502,1.8249 0.766704,2.1024 0.21741,0.174 -3.784887,3.9117 -5.017668,4.6911 -9.332178,9.675 -13.125828,15.4188 -1.30383,1.974 -2.432394,4.0584 -3.648591,6.0879 -0.969327,2.0136 -2.042931,3.9801 -2.907969,6.0408 -2.750796,6.55285 -4.392807,13.71655 -4.284342,20.84695 0.0177,1.1559 0.18474,2.3049 0.27708,3.4578 0.380454,1.9791 0.405852,2.7333 1.130976,4.4988 0.24999,0.609 0.696459,1.5585 1.36623,1.9008 0.670509,0.342 1.200705,-0.036 1.821042,-0.246 -0.777927,0.3858 -1.702197,1.7532 -2.333778,1.1571 -0.594768,-0.5607 1.248723,-1.0578 1.836102,-1.6266 0.695409,-0.6735 1.362351,-1.3767 2.009064,-2.0973 2.077923,-2.3148 3.928386,-4.8177 5.78445,-7.3092 1.985493,-2.6991 2.973639,-4.1184 6.808803,-5.1411 0.356397,-0.093 0.420315,0.6249 0.507945,0.9831 0.18276,0.747 0.0456,2.6823 0.0204,3.3357 -0.05601,1.8144 -0.28425,3.6249 -0.26451,5.4426 0.0042,0.3846 0.03645,1.2933 0.21771,1.7319 0.03816,0.09 0.13839,0.141 0.20766,0.216 0.23949,-0.057 0.345216,-0.3816 0.603726,-0.3936 0.448146,-0.036 0.659013,0.5055 0.821082,0.8172 0.29427,0.7008 0.387744,1.4634 0.754776,2.133 0.370008,0.5007 0.749253,1.0032 1.179864,1.4541 0.24213,0.15 0.468312,0.3168 0.75753,0.3744 0.823614,0.159 1.876848,-0.075 2.695032,-0.192 1.517892,-0.273 2.655477,-0.3558 4.119354,0.177 1.754592,0.8391 3.334266,2.0097 4.981941,3.0396 2.383416,1.6071 4.886847,3.0219 7.33859,4.5189 1.37168,0.8373 2.72519,1.7043 4.09586,2.5437 0.57448,0.3537 1.1435,0.7167 1.72344,1.0614 0.0683,0.042 1.99245,1.1683 2.27223,1.2088 0.111,0 0.28416,-0.3276 0.18048,-0.282 -4.93253,2.0199 -3.23388,3.2355 -5.33396,0.7422 -3.70968,-4.2121 -7.481057,-8.3755 -11.012084,-12.7405 -1.232475,-1.5237 -2.482491,-3.036 -3.623838,-4.6293 -1.196334,-1.6698 -2.255454,-3.4335 -3.383181,-5.1507 -2.003016,-3.7686 -3.908781,-6.8502 -5.064753,-11.0022 -1.067436,-3.8334 -1.320639,-7.58095 -0.697191,-11.51335 0.774855,-4.887 1.801047,-6.0507 4.014717,-10.374 1.251192,-1.5018 2.375394,-3.12 3.753579,-4.5069 2.867796,-2.8857 6.059715,-5.0664 9.580821,-7.0608 2.5331,-1.4349 5.10425,-2.8092 7.73777,-4.0506 2.73596,-1.2894 5.29128,-1.9383 8.15204,-2.7798 1.95847,-0.27 5.08706,-1.5339 6.78626,0.321 1.71631,1.8732 1.14655,5.7762 1.05223,7.9821 -0.83237,6.198 -2.17557,12.3108 -3.31455,18.4563 -0.75477,4.0722 -0.77945,4.3965 -1.39779,8.33365 -0.28209,2.0736 -0.52235,3.6855 -0.73226,5.7264 -0.0656,0.6369 -0.21156,1.9104 -0.11172,2.6583 0.075,0.5616 0.11904,0.4149 0.31629,0.21 0.0768,-0.072 0.1281,-0.189 0.23007,-0.21 0.36358,-0.09 0.57674,0.291 0.65301,0.567 0.24645,0.891 -0.20247,2.2278 -0.40907,3.0531 -0.92621,3.5763 -2.35252,6.9954 -3.40744,10.5303 -1.18861,0.7533 -0.0834,0.9627 0.13929,0.8055 0.2412,-0.174 0.92908,-0.6981 0.64851,-0.6048 -0.91141,0.3039 -1.64697,1.4019 -2.59521,1.2504 -0.68349,-0.108 1.01585,-0.9405 1.51157,-1.4235 0.54611,-0.5322 1.07568,-1.0815 1.61349,-1.6215 2.54631,-2.8308 4.12119,-4.6557 8.15798,-5.8707 0.49707,-0.147 0.73804,1.1304 0.97396,1.9779 0.30368,1.4376 0.21609,2.9196 0.49393,4.3605 0.0981,0.5106 0.2559,1.2159 0.62732,1.0455 0.21711,-0.099 0.29007,-0.3792 0.43524,-0.5691 -3.88272,1.7445 -3.63801,2.3181 -2.33308,0.165 0.25866,-0.4269 0.49693,-0.8655 0.7377,-1.3032 0.19095,-0.3456 0.37601,-0.6966 0.55747,-1.0494 0.0757,-0.144 0.066,-0.375 0.21435,-0.4482 1.35576,-0.6654 2.79573,-1.1433 4.19356,-1.7154 -2.1334,3.6243 -3.50896,7.6089 -4.6691,11.6313 -0.25905,1.0521 -0.64009,2.4519 -0.78706,3.5571 -0.0541,0.4059 -0.28872,1.4898 0.32746,1.8141 0.59813,0.3135 2.27692,-0.219 2.61232,-0.294 2.454,-0.8871 2.64377,-0.8388 5.08884,-2.298 0.0503,-0.036 -0.16335,-0.096 -0.11766,-0.129 1.06448,-0.8628 2.22776,-1.5972 3.3011,-2.4486 2.02637,-1.6074 3.56894,-3.0753 5.4594,-4.806 2.57832,-2.4705 4.88766,-4.746 8.59218,-5.5797 0.31837,-0.072 0.27195,0.5997 0.33478,0.9198 0.073,0.372 0.0457,0.7575 0.0684,1.1364 0.0105,1.1679 -0.18117,2.3235 -0.25974,3.4857 -0.002,0.036 -0.0799,0.8559 0.0737,1.0203 0.0374,0.042 0.0743,-0.081 0.11172,-0.12 0.75745,-1.6128 0.10647,-0.063 -3.51049,1.7154 -0.15498,0.078 0.22587,-0.261 0.3306,-0.399 0.24681,-0.321 0.4593,-0.6552 0.72562,-0.9636 3.09976,-2.9331 3.51423,-2.535 6.20646,-2.8008 0.87918,-0.165 1.76674,-0.261 2.64453,-0.4317 0,0 -3.68835,2.7813 -3.68835,2.7813 l 0,0 c -0.8972,0.15 -1.79632,0.288 -2.69547,0.4242 -0.44698,0.045 -0.92168,0.054 -1.35413,0.189 -0.0894,0.036 -0.33966,0.159 -0.25905,0.108 3.301,-1.971 5.10793,-2.8917 3.49618,-2.0646 -0.28485,0.231 -0.29115,0.207 -0.52817,0.519 -0.0964,0.126 -0.18255,0.258 -0.27018,0.3891 -0.0998,0.15 -0.14385,0.3519 -0.29217,0.4539 -4.0681,2.7942 -2.65089,2.7372 -4.74369,2.709 -0.10263,-0.099 -0.24471,-0.171 -0.30791,-0.297 -0.14835,-0.3009 -0.0374,-0.9738 -0.007,-1.2219 0.1407,-1.1337 0.34455,-2.2629 0.31104,-3.4125 -0.0279,-0.3315 -0.0353,-0.6669 -0.0852,-0.9966 -0.30265,-1.9962 -2.06829,0.8451 3.37924,-2.772 0.32987,-0.216 -0.6986,0.3777 -1.01774,0.6123 -0.96736,0.7101 -2.84087,2.421 -3.61791,3.111 -1.77607,1.5987 -3.73918,3.4071 -5.59407,4.8987 -1.05332,0.8478 -2.10338,1.7064 -3.23158,2.4507 -2.13787,1.4115 -4.34181,2.7222 -6.55554,4.0113 -2.66792,1.5534 -2.77569,1.4676 -5.44749,2.4249 -0.95047,0.165 -2.19219,0.6724 -3.11962,-0.048 -0.66962,-0.5208 -0.41552,-1.5561 -0.30336,-2.1831 0.16791,-0.9405 0.70869,-2.8185 0.94059,-3.666 1.15197,-3.8862 2.44008,-7.7499 4.17286,-11.4204 1.44995,-0.7233 2.85707,-1.5396 4.34995,-2.1687 0.19023,-0.081 -0.26532,0.3168 -0.37604,0.4929 -0.30928,0.4869 -1.09862,1.9518 -1.34595,2.3943 -0.2367,0.4233 -0.34997,0.9504 -0.71868,1.2651 -1.42547,1.2183 -3.05426,2.1768 -4.5814,3.2649 -0.26565,0.045 -0.53867,0.207 -0.79735,0.138 -0.53509,-0.156 -0.58365,-1.1184 -0.62721,-1.446 -0.18888,-1.4199 -0.14907,-2.8689 -0.4909,-4.2696 -0.11172,-0.3348 -0.17103,-0.6933 -0.33513,-1.0068 -0.80964,-1.5492 -4.18497,1.983 2.83627,-2.4624 0.35551,-0.225 -0.71603,0.4476 -1.03597,0.7212 -0.83013,0.7092 -2.04864,2.097 -2.74821,2.8614 -0.51882,0.5358 -1.03586,1.0734 -1.5565,1.6071 -0.46192,0.4743 -0.85552,1.0278 -1.39123,1.4163 -1.61577,1.1724 -3.30791,2.2407 -5.03351,3.2439 -0.35708,0.204 -1.3529,0.6453 -1.47638,-0.207 -0.0467,-0.3243 0.14982,-0.636 0.22476,-0.9543 1.20042,-3.4728 2.62401,-6.8805 3.40123,-10.4865 0.24717,-1.152 0.28278,-1.0827 0.34982,-2.1165 0.0105,-0.186 0.0485,-0.5901 -0.0457,-0.6006 -0.21366,-0.033 -0.41234,0.237 -0.64159,0.066 -0.12813,-0.099 -0.30544,-0.153 -0.38432,-0.294 -0.2154,-0.3828 -0.0177,-1.4025 0.0177,-1.6512 0.38526,-2.5701 0.99166,-5.1051 1.37012,-7.677 0.80576,-4.40035 1.66861,-8.78815 2.50294,-13.18225 0.58923,-3.1041 1.19229,-6.252 1.62293,-9.3837 0.18747,-1.3623 0.30755,-2.7336 0.46156,-4.0998 0.0105,-1.9599 0.35751,-5.733 -1.18051,-7.3833 -1.53524,-1.6473 -4.40623,-0.5595 -6.177,-0.3588 -5.2043,1.4508 -2.11041,0.4797 -7.79061,2.5782 -0.65019,0.243 -1.34891,0.3705 -1.95685,0.7032 -3.496092,1.9152 -6.763899,4.1373 -9.604521,6.9582 -1.365636,1.3563 -2.481915,2.9424 -3.722874,4.4133 -2.242842,4.2645 -3.278811,5.4225 -4.10799,10.2606 -0.672696,3.9249 -0.466743,7.57555 0.571236,11.41915 1.147563,4.2498 2.946408,7.11 4.989603,10.9632 1.142733,1.6974 2.216571,3.4431 3.428199,5.0922 1.159527,1.5774 2.415069,3.084 3.678969,4.5795 3.665608,4.338 7.683638,8.3541 11.843018,12.2139 2.32601,2.1739 1.89335,0.9853 -2.14298,4.4422 -0.0718,0.063 -0.16545,-0.09 -0.24546,-0.138 -0.27663,-0.177 -0.55128,-0.3516 -0.82427,-0.5316 -0.419,-0.276 -0.83435,-0.5577 -1.25169,-0.8364 -0.55019,-0.3672 -1.10056,-0.7341 -1.65085,-1.1013 -0.5977,-0.3777 -3.501795,-2.2165 -4.06134,-2.5522 -2.496897,-1.4973 -5.061507,-2.883 -7.559808,-4.3782 -0.4212,-0.234 -0.84735,-0.4614 -1.263606,-0.705 -1.26009,-0.7377 -2.435388,-1.6509 -3.824376,-2.145 -1.350324,-0.3846 -2.603229,-0.27 -3.975075,-0.033 -1.29681,0.162 -2.694159,0.4134 -3.775341,-0.4992 -0.451872,-0.4914 -0.901368,-0.9963 -1.286655,-1.5408 -0.339561,-0.684 -0.380037,-1.4583 -0.717453,-2.1465 -0.04656,-0.081 -0.07617,-0.177 -0.13965,-0.246 -0.03276,-0.033 -0.08637,-0.057 -0.13485,-0.057 -0.06465,0 -0.12057,0.051 -0.18192,0.066 -0.368844,0.12 -0.627825,0.129 -0.937452,-0.15 -0.07947,-0.141 -0.19506,-0.273 -0.23838,-0.4317 -0.12687,-0.4647 -0.08949,-1.5369 -0.07179,-1.9164 0.08517,-1.821 0.324249,-3.6342 0.328353,-5.4594 -0.0051,-0.8634 0.04587,-2.13 -0.13926,-3.0264 -0.0357,-0.174 -0.361296,-0.363 -0.22776,-0.4785 0.982632,-0.8496 2.102031,-1.545 3.256497,-2.1408 1.161759,-0.5991 -5.248392,4.0017 -2.637033,2.9031 -1.879803,2.4702 -3.721497,4.9836 -5.746116,7.3392 -0.392625,0.4569 -2.898258,3.2526 -3.561669,3.7101 -1.69182,1.167 -3.525501,2.1135 -5.288247,3.1698 -0.39987,0.072 -0.794571,0.234 -1.199622,0.207 -1.300329,-0.084 -1.852728,-1.5318 -2.171856,-2.5518 -0.59943,-1.917 -0.578985,-2.6472 -0.841776,-4.7586 -0.03645,-1.1961 -0.13974,-2.3925 -0.10935,-3.5892 0.18483,-7.2711 1.911108,-14.5488 4.764771,-21.22615 0.889713,-2.0823 1.987032,-4.0689 2.980551,-6.1035 1.219755,-2.0397 2.35968,-4.1292 3.659274,-6.1194 2.484174,-3.8034 5.449743,-7.6836 8.48781,-11.07 1.31331,-1.4637 2.722776,-2.8395 4.131708,-4.212 1.194918,-1.1634 2.35224,-2.3805 3.677433,-3.3933 2.095959,-1.6017 4.37214,-2.9535 6.55821,-4.4298 1.315548,-0.7284 3.804108,-2.5086 5.533656,-1.9917 1.301844,0.3885 0.959046,2.0145 0.893415,2.9616 -0.12438,0.6642 -0.2235,1.3341 -0.373173,1.9932 -1.608651,7.0827 -4.662639,13.7658 -7.80858,20.271 -2.522841,4.6881 -3.450888,6.5682 -6.26763,11.1522 -4.779018,7.77775 -10.318482,15.08305 -16.946547,21.38965 -1.791741,1.5519 -3.5094,3.1941 -5.375214,4.6563 -4.463526,3.4989 -9.603363,6.5256 -14.505447,9.2766 -5.822967,3.2676 -11.970435,5.9286 -18.299363,8.0455 -5.800202,1.8258 -11.657162,3.7635 -17.745276,4.3383 0,0 3.830659,-2.7831 3.830659,-2.7831 z"
       inkscape:connector-curvature="0" />
    <path
       style="fill:#ffeeaa;fill-opacity:1;stroke:#0c80c8;stroke-width:3.25423741;stroke-linejoin:round;stroke-miterlimit:4;stroke-opacity:1;stroke-dasharray:none;stroke-dashoffset:0"
       id="path6270"
       d="m 142.53913,945.6532 c 0.64469,0 1.28975,0 1.93465,0 0,0 -3.78885,2.7531 -3.78885,2.7531 l 0,0 c -0.66143,-6e-4 -1.32299,-3e-4 -1.9842,0 0,0 3.8384,-2.7888 3.8384,-2.7888 z"
       inkscape:connector-curvature="0" />
    <path
       style="fill:#ffeeaa;fill-opacity:1;stroke:#0c80c8;stroke-width:3.25423741;stroke-linejoin:round;stroke-miterlimit:4;stroke-opacity:1;stroke-dasharray:none;stroke-dashoffset:0"
       id="path6272"
       d="m 133.87797,942.5809 c 0.92216,-0.4212 1.84617,-0.8214 2.71456,-1.3473 0,0 -3.5994,2.9124 -3.5994,2.9124 l 0,0 c -0.91989,0.4965 -1.87922,0.9087 -2.80742,1.3887 0,0 3.69226,-2.9538 3.69226,-2.9538 z"
       inkscape:connector-curvature="0" />
    <path
       style="fill:#ffeeaa;fill-opacity:1;stroke:#0c80c8;stroke-width:3.25423741;stroke-linejoin:round;stroke-miterlimit:4;stroke-opacity:1;stroke-dasharray:none;stroke-dashoffset:0"
       id="path6274"
       d="m 70.738194,1007.8043 c 4.179321,-3.0639 9.043659,-4.9728 13.772883,-6.9864 8.861124,-3.4065 17.938953,-6.2745 27.137763,-8.6235 2.15057,-0.5487 4.31762,-1.0311 6.47644,-1.5471 9.33542,-2.1165 18.75522,-3.8298 28.19461,-5.4081 2.44189,-0.297 4.88423,-0.9564 7.36079,-0.7836 0.32709,0.036 0.65311,0.081 0.98,0.12 0,0 -3.85379,2.7267 -3.85379,2.7267 l 0,0 c -0.30963,-0.042 -0.61925,-0.09 -0.93036,-0.123 -2.27908,-0.186 -4.54894,0.279 -6.80864,0.5022 -9.20287,1.2522 -18.36253,2.8365 -27.42755,4.8657 -2.15438,0.5166 -4.31874,0.9933 -6.46315,1.5501 -9.414293,2.4444 -18.700007,5.4684 -27.70946,9.1314 -2.224422,0.9882 -3.939048,1.7268 -6.0963,2.7603 -0.633972,0.3039 -2.44176,1.3746 -1.885614,0.9447 0.846696,-0.6546 1.842999,-1.0887 2.768088,-1.6266 0.391089,-0.228 -1.301532,0.7593 -1.141002,0.735 0,0 -4.374708,1.7658 -4.374708,1.7658 z"
       inkscape:connector-curvature="0" />
  </g>
</svg>
