<?xml version="1.0" encoding="UTF-8" standalone="no"?>
<!-- Created with Inkscape (http://www.inkscape.org/) -->

<svg
   xmlns:osb="http://www.openswatchbook.org/uri/2009/osb"
   xmlns:dc="http://purl.org/dc/elements/1.1/"
   xmlns:cc="http://creativecommons.org/ns#"
   xmlns:rdf="http://www.w3.org/1999/02/22-rdf-syntax-ns#"
   xmlns:svg="http://www.w3.org/2000/svg"
   xmlns="http://www.w3.org/2000/svg"
   xmlns:xlink="http://www.w3.org/1999/xlink"
   xmlns:sodipodi="http://sodipodi.sourceforge.net/DTD/sodipodi-0.dtd"
   xmlns:inkscape="http://www.inkscape.org/namespaces/inkscape"
   width="32"
   height="32"
   id="svg7564"
   version="1.1"
   inkscape:version="0.48.3.1 r9886"
   sodipodi:docname="enote.svg">
  <title
     id="title5651">enote icon</title>
  <defs
     id="defs7566">
    <linearGradient
       id="linearGradient6206">
      <stop
         offset="0"
         style="stop-color:#fefdf6;stop-opacity:1;"
         id="stop6208" />
      <stop
         offset="1"
         style="stop-color:#f8e384;stop-opacity:1;"
         id="stop6210" />
    </linearGradient>
    <linearGradient
       id="linearGradient5604"
       osb:paint="solid">
      <stop
         style="stop-color:#ff80c8;stop-opacity:1;"
         offset="0"
         id="stop5606" />
    </linearGradient>
    <linearGradient
       id="linearGradient5578"
       osb:paint="gradient">
      <stop
         style="stop-color:#0c80c8;stop-opacity:1;"
         offset="0"
         id="stop5580" />
      <stop
         style="stop-color:#0c80c8;stop-opacity:0;"
         offset="1"
         id="stop5582" />
    </linearGradient>
    <linearGradient
       id="linearGradient5570"
       osb:paint="solid">
      <stop
         style="stop-color:#ff80c8;stop-opacity:1;"
         offset="0"
         id="stop5572" />
    </linearGradient>
    <linearGradient
       id="linearGradient4040">
      <stop
         style="stop-color:#0c80c8;stop-opacity:1;"
         offset="0"
         id="stop4042" />
      <stop
         style="stop-color:#0c80c8;stop-opacity:0;"
         offset="1"
         id="stop4044" />
    </linearGradient>
    <linearGradient
       id="linearGradient3894">
      <stop
         id="stop3896"
         offset="0"
         style="stop-color:#0c80c8;stop-opacity:1" />
      <stop
         id="stop3898"
         offset="1"
         style="stop-color:#185f9a;stop-opacity:1;" />
    </linearGradient>
    <linearGradient
       inkscape:collect="always"
       xlink:href="#linearGradient3688-166-749"
       id="linearGradient18443"
       gradientUnits="userSpaceOnUse"
       gradientTransform="translate(-0.12497443,0.06897341)"
       x1="34.124973"
       y1="42.931026"
       x2="34.124973"
       y2="16.931026" />
    <linearGradient
       id="linearGradient3688-166-749">
      <stop
         id="stop2883"
         style="stop-color:#181818;stop-opacity:1"
         offset="0" />
      <stop
         id="stop2885"
         style="stop-color:#181818;stop-opacity:0"
         offset="1" />
    </linearGradient>
    <linearGradient
       inkscape:collect="always"
       xlink:href="#linearGradient3688-166-749"
       id="linearGradient18440"
       gradientUnits="userSpaceOnUse"
       gradientTransform="translate(-0.12497443,0.06897341)"
       x1="34.124973"
       y1="42.931026"
       x2="34.124973"
       y2="16.931026" />
    <linearGradient
       id="linearGradient7476">
      <stop
         id="stop7478"
         style="stop-color:#181818;stop-opacity:1"
         offset="0" />
      <stop
         id="stop7480"
         style="stop-color:#181818;stop-opacity:0"
         offset="1" />
    </linearGradient>
    <linearGradient
       inkscape:collect="always"
       xlink:href="#linearGradient3688-166-749"
       id="linearGradient18437"
       gradientUnits="userSpaceOnUse"
       gradientTransform="translate(-0.12497443,0.06897341)"
       x1="34.124973"
       y1="42.931026"
       x2="34.124973"
       y2="16.931026" />
    <linearGradient
       id="linearGradient7483">
      <stop
         id="stop7485"
         style="stop-color:#181818;stop-opacity:1"
         offset="0" />
      <stop
         id="stop7487"
         style="stop-color:#181818;stop-opacity:0"
         offset="1" />
    </linearGradient>
    <radialGradient
       inkscape:collect="always"
       xlink:href="#linearGradient18375"
       id="radialGradient18432"
       gradientUnits="userSpaceOnUse"
       gradientTransform="matrix(-8.6867956e-8,2.3570682,-1.5152443,-5.5842562e-8,64.085431,-60.140705)"
       cx="33.575909"
       cy="22.495005"
       fx="33.575909"
       fy="22.495005"
       r="11.879165" />
    <linearGradient
       id="linearGradient18375">
      <stop
         style="stop-color:#90dbec;stop-opacity:1;"
         offset="0"
         id="stop18377" />
      <stop
         id="stop18387"
         offset="0.35714287"
         style="stop-color:#55c1ec;stop-opacity:1;" />
      <stop
         id="stop18385"
         offset="0.60714287"
         style="stop-color:#3689e6;stop-opacity:1;" />
      <stop
         style="stop-color:#2b63a0;stop-opacity:1;"
         offset="1"
         id="stop18379" />
    </linearGradient>
    <linearGradient
       inkscape:collect="always"
       xlink:href="#linearGradient18393"
       id="linearGradient18434"
       gradientUnits="userSpaceOnUse"
       x1="46"
       y1="18"
       x2="46"
       y2="41.999996" />
    <linearGradient
       id="linearGradient18393">
      <stop
         style="stop-color:#599ec9;stop-opacity:1;"
         offset="0"
         id="stop18395" />
      <stop
         style="stop-color:#185f9a;stop-opacity:1;"
         offset="1"
         id="stop18397" />
    </linearGradient>
    <linearGradient
       inkscape:collect="always"
       xlink:href="#linearGradient3924"
       id="linearGradient18429"
       gradientUnits="userSpaceOnUse"
       gradientTransform="translate(-2.523e-5,0.06602467)"
       x1="44.000027"
       y1="19.933975"
       x2="44.000027"
       y2="39.933975" />
    <linearGradient
       id="linearGradient3924">
      <stop
         id="stop3926"
         style="stop-color:#ffffff;stop-opacity:1"
         offset="0" />
      <stop
         id="stop3928"
         style="stop-color:#ffffff;stop-opacity:0.23529412"
         offset="0.10000001" />
      <stop
         id="stop3930"
         style="stop-color:#ffffff;stop-opacity:0.15686275"
         offset="0.94999999" />
      <stop
         id="stop3932"
         style="stop-color:#ffffff;stop-opacity:0.39215687"
         offset="1" />
    </linearGradient>
    <linearGradient
       inkscape:collect="always"
       xlink:href="#linearGradient3104-6"
       id="linearGradient7095"
       gradientUnits="userSpaceOnUse"
       gradientTransform="matrix(0.48158974,0,0,0.60722189,-1050.9032,4.645542)"
       x1="0.50847417"
       y1="-34"
       x2="59.491524"
       y2="-34" />
    <linearGradient
       id="linearGradient3104-6">
      <stop
         offset="0"
         style="stop-color:#000000;stop-opacity:0.31782946"
         id="stop3106-3" />
      <stop
         offset="1"
         style="stop-color:#000000;stop-opacity:0.24031007"
         id="stop3108-9" />
    </linearGradient>
    <linearGradient
       inkscape:collect="always"
       xlink:href="#linearGradient3977-4-9"
       id="linearGradient7004"
       gradientUnits="userSpaceOnUse"
       gradientTransform="matrix(0.47223852,0,0,0.59543114,1022.2883,4.2446574)"
       x1="1.5087713"
       y1="-34"
       x2="58.491226"
       y2="-34" />
    <linearGradient
       id="linearGradient3977-4-9">
      <stop
         id="stop3979-7-0"
         style="stop-color:#ffffff;stop-opacity:1"
         offset="0" />
      <stop
         id="stop3981-6-9"
         style="stop-color:#ffffff;stop-opacity:0.23529412"
         offset="0.01785714" />
      <stop
         id="stop3983-5-2"
         style="stop-color:#ffffff;stop-opacity:0.15686275"
         offset="0.98245609" />
      <stop
         id="stop3985-6-8"
         style="stop-color:#ffffff;stop-opacity:0.39215687"
         offset="1" />
    </linearGradient>
    <linearGradient
       id="linearGradient3600-9-3">
      <stop
         id="stop3602-3-0"
         style="stop-color:#f4f4f4;stop-opacity:1"
         offset="0" />
      <stop
         id="stop3604-7-1"
         style="stop-color:#dbdbdb;stop-opacity:1"
         offset="1" />
    </linearGradient>
    <linearGradient
       id="linearGradient7520">
      <stop
         id="stop7522"
         style="stop-color:#181818;stop-opacity:1"
         offset="0" />
      <stop
         id="stop7524"
         style="stop-color:#181818;stop-opacity:0"
         offset="1" />
    </linearGradient>
    <linearGradient
       id="linearGradient3688-464-309">
      <stop
         id="stop2889"
         style="stop-color:#181818;stop-opacity:1"
         offset="0" />
      <stop
         id="stop2891"
         style="stop-color:#181818;stop-opacity:0"
         offset="1" />
    </linearGradient>
    <linearGradient
       inkscape:collect="always"
       xlink:href="#linearGradient3702-501-757"
       id="linearGradient7118"
       gradientUnits="userSpaceOnUse"
       gradientTransform="matrix(1.5714287,0,0,0.7142857,-5.7142845,28.428574)"
       x1="25.058096"
       y1="47.027729"
       x2="25.058096"
       y2="39.999443" />
    <linearGradient
       id="linearGradient3702-501-757">
      <stop
         id="stop2895"
         style="stop-color:#181818;stop-opacity:0"
         offset="0" />
      <stop
         id="stop2897"
         style="stop-color:#181818;stop-opacity:1"
         offset="0.5" />
      <stop
         id="stop2899"
         style="stop-color:#181818;stop-opacity:0"
         offset="1" />
    </linearGradient>
    <linearGradient
       inkscape:collect="always"
       xlink:href="#linearGradient3702-501-757"
       id="linearGradient7788"
       gradientUnits="userSpaceOnUse"
       gradientTransform="matrix(3.0714288,0,0,1.4285713,-9.7142831,979.21942)"
       x1="25.058096"
       y1="47.027729"
       x2="25.058096"
       y2="39.999443" />
    <radialGradient
       inkscape:collect="always"
       xlink:href="#linearGradient3688-464-309"
       id="radialGradient7791"
       gradientUnits="userSpaceOnUse"
       gradientTransform="matrix(6.4121086,0,0,2,-53.037984,-1128.3622)"
       cx="4.9929786"
       cy="43.5"
       fx="4.9929786"
       fy="43.5"
       r="2.5" />
    <radialGradient
       inkscape:collect="always"
       xlink:href="#linearGradient3688-166-749"
       id="radialGradient7794"
       gradientUnits="userSpaceOnUse"
       gradientTransform="matrix(6.4121086,0,0,2,74.96201,954.36222)"
       cx="4.9929786"
       cy="43.5"
       fx="4.9929786"
       fy="43.5"
       r="2.5" />
    <linearGradient
       inkscape:collect="always"
       xlink:href="#linearGradient3924"
       id="linearGradient8332"
       gradientUnits="userSpaceOnUse"
       gradientTransform="matrix(2.1484769,0,0,2.1494197,-53.84864,933.94246)"
       x1="44.000027"
       y1="19.933975"
       x2="44.000027"
       y2="39.933975" />
    <radialGradient
       inkscape:collect="always"
       xlink:href="#linearGradient18375"
       id="radialGradient8335"
       gradientUnits="userSpaceOnUse"
       gradientTransform="matrix(-1.746571e-7,4.7406513,-3.046557,-1.123133e-7,79.789501,817.24102)"
       cx="33.575909"
       cy="22.495005"
       fx="33.575909"
       fy="22.495005"
       r="11.879165" />
    <linearGradient
       inkscape:collect="always"
       xlink:href="#linearGradient18393"
       id="linearGradient8337"
       gradientUnits="userSpaceOnUse"
       x1="46"
       y1="18"
       x2="46"
       y2="41.999996"
       gradientTransform="matrix(2.0106045,0,0,2.0112491,-49.060955,938.19897)" />
    <linearGradient
       inkscape:collect="always"
       xlink:href="#linearGradient3688-166-749"
       id="linearGradient8340"
       gradientUnits="userSpaceOnUse"
       gradientTransform="matrix(1.9206264,0,0,1.9212894,-46.360527,941.29341)"
       x1="34.124973"
       y1="42.931026"
       x2="34.124973"
       y2="16.931026" />
    <linearGradient
       inkscape:collect="always"
       xlink:href="#linearGradient3688-166-749"
       id="linearGradient8343"
       gradientUnits="userSpaceOnUse"
       gradientTransform="matrix(1.7998049,0,0,1.8003922,-42.912231,945.62838)"
       x1="34.124973"
       y1="42.931026"
       x2="34.124973"
       y2="16.931026" />
    <linearGradient
       inkscape:collect="always"
       xlink:href="#linearGradient3688-166-749"
       id="linearGradient8346"
       gradientUnits="userSpaceOnUse"
       gradientTransform="matrix(1.7405727,0,0,1.7412667,-40.869182,947.39659)"
       x1="34.124973"
       y1="42.931026"
       x2="34.124973"
       y2="16.931026" />
    <linearGradient
       inkscape:collect="always"
       xlink:href="#linearGradient3688-166-749"
       id="linearGradient8355"
       gradientUnits="userSpaceOnUse"
       gradientTransform="matrix(1.7405727,0,0,1.7412667,-40.869182,947.39659)"
       x1="34.124973"
       y1="42.931026"
       x2="34.124973"
       y2="16.931026" />
    <linearGradient
       inkscape:collect="always"
       xlink:href="#linearGradient3688-166-749"
       id="linearGradient8357"
       gradientUnits="userSpaceOnUse"
       gradientTransform="matrix(1.7998049,0,0,1.8003922,-42.912231,945.62838)"
       x1="34.124973"
       y1="42.931026"
       x2="34.124973"
       y2="16.931026" />
    <linearGradient
       inkscape:collect="always"
       xlink:href="#linearGradient3688-166-749"
       id="linearGradient8359"
       gradientUnits="userSpaceOnUse"
       gradientTransform="matrix(1.9206264,0,0,1.9212894,-46.360527,941.29341)"
       x1="34.124973"
       y1="42.931026"
       x2="34.124973"
       y2="16.931026" />
    <radialGradient
       inkscape:collect="always"
       xlink:href="#linearGradient18375"
       id="radialGradient8361"
       gradientUnits="userSpaceOnUse"
       gradientTransform="matrix(-1.746571e-7,4.7406513,-3.046557,-1.123133e-7,79.789501,817.24102)"
       cx="35.207165"
       cy="22.940353"
       fx="33.194881"
       fy="17.51687"
       r="11.879165" />
    <linearGradient
       inkscape:collect="always"
       xlink:href="#linearGradient18393"
       id="linearGradient8363"
       gradientUnits="userSpaceOnUse"
       gradientTransform="matrix(2.0106045,0,0,2.0112491,-49.060955,938.19897)"
       x1="45.738163"
       y1="18.576885"
       x2="45.738163"
       y2="41.448246" />
    <linearGradient
       inkscape:collect="always"
       xlink:href="#linearGradient3924"
       id="linearGradient8365"
       gradientUnits="userSpaceOnUse"
       gradientTransform="matrix(2.1484769,0,0,2.1494197,-53.84864,933.94246)"
       x1="44.000027"
       y1="19.933975"
       x2="44.000027"
       y2="39.933975" />
    <radialGradient
       inkscape:collect="always"
       xlink:href="#linearGradient18375-4"
       id="radialGradient8361-8"
       gradientUnits="userSpaceOnUse"
       gradientTransform="matrix(-1.746571e-7,4.7406513,-3.046557,-1.123133e-7,79.789501,817.24102)"
       cx="35.207165"
       cy="22.940353"
       fx="33.194881"
       fy="17.51687"
       r="11.879165" />
    <linearGradient
       id="linearGradient18375-4">
      <stop
         style="stop-color:#90dbec;stop-opacity:1;"
         offset="0"
         id="stop18377-1" />
      <stop
         id="stop18387-4"
         offset="0.35714287"
         style="stop-color:#55c1ec;stop-opacity:1;" />
      <stop
         id="stop18385-5"
         offset="0.60714287"
         style="stop-color:#3689e6;stop-opacity:1;" />
      <stop
         style="stop-color:#2b63a0;stop-opacity:1;"
         offset="1"
         id="stop18379-1" />
    </linearGradient>
    <linearGradient
       inkscape:collect="always"
       xlink:href="#linearGradient18393-9"
       id="linearGradient8363-4"
       gradientUnits="userSpaceOnUse"
       gradientTransform="matrix(2.0106045,0,0,2.0112491,-49.060955,938.19897)"
       x1="45.738163"
       y1="18.576885"
       x2="45.738163"
       y2="41.448246" />
    <linearGradient
       id="linearGradient18393-9">
      <stop
         style="stop-color:#599ec9;stop-opacity:1;"
         offset="0"
         id="stop18395-1" />
      <stop
         style="stop-color:#185f9a;stop-opacity:1;"
         offset="1"
         id="stop18397-8" />
    </linearGradient>
    <radialGradient
       r="11.879165"
       fy="17.51687"
       fx="33.194881"
       cy="22.940353"
       cx="35.207165"
       gradientTransform="matrix(-1.0636695e-8,0.28870777,-0.18553668,0,8.743885,1014.3458)"
       gradientUnits="userSpaceOnUse"
       id="radialGradient3929"
       xlink:href="#linearGradient18375-4"
       inkscape:collect="always" />
    <linearGradient
       y2="41.448246"
       x2="45.738163"
       y1="18.576885"
       x1="45.738163"
       gradientTransform="matrix(0.12244671,0,0,0.12248596,0.8968333,1021.7122)"
       gradientUnits="userSpaceOnUse"
       id="linearGradient3931"
       xlink:href="#linearGradient18393-9"
       inkscape:collect="always" />
    <radialGradient
       r="11.879165"
       fy="17.51687"
       fx="33.194881"
       cy="22.940353"
       cx="35.207165"
       gradientTransform="matrix(-3.9222812e-8,1.0646099,-0.68416647,-2.5222241e-8,37.243071,909.83295)"
       gradientUnits="userSpaceOnUse"
       id="radialGradient3929-1"
       xlink:href="#linearGradient18375-4-9"
       inkscape:collect="always" />
    <linearGradient
       id="linearGradient18375-4-9">
      <stop
         style="stop-color:#ffdbec;stop-opacity:1;"
         offset="0"
         id="stop18377-1-2" />
      <stop
         id="stop18387-4-1"
         offset="0.35714287"
         style="stop-color:#55c1ec;stop-opacity:1;" />
      <stop
         id="stop18385-5-6"
         offset="0.60714287"
         style="stop-color:#3689e6;stop-opacity:1;" />
      <stop
         style="stop-color:#2b63a0;stop-opacity:1;"
         offset="1"
         id="stop18379-1-7" />
    </linearGradient>
    <linearGradient
       y2="41.448246"
       x2="45.738163"
       y1="18.576885"
       x1="45.738163"
       gradientTransform="matrix(0.45152221,0,0,0.45166697,8.3070727,936.99652)"
       gradientUnits="userSpaceOnUse"
       id="linearGradient3931-4"
       xlink:href="#linearGradient18393-9-0"
       inkscape:collect="always" />
    <linearGradient
       id="linearGradient18393-9-0">
      <stop
         style="stop-color:#ffffff;stop-opacity:1;"
         offset="0"
         id="stop18395-1-8" />
      <stop
         id="stop5876"
         offset="0.5"
         style="stop-color:#0e97ee;stop-opacity:1;" />
      <stop
         style="stop-color:#074871;stop-opacity:1;"
         offset="1"
         id="stop18397-8-4" />
    </linearGradient>
    <radialGradient
       inkscape:collect="always"
       xlink:href="#linearGradient18375-4"
       id="radialGradient4022"
       gradientUnits="userSpaceOnUse"
       gradientTransform="matrix(-1.0636695e-8,0.28870777,-0.18553668,0,8.743885,1019.7695)"
       cx="35.207165"
       cy="22.940353"
       fx="33.194881"
       fy="17.51687"
       r="11.879165" />
    <linearGradient
       inkscape:collect="always"
       xlink:href="#linearGradient18393-9"
       id="linearGradient4024"
       gradientUnits="userSpaceOnUse"
       gradientTransform="matrix(0.12244671,0,0,0.12248596,0.8968333,1027.1359)"
       x1="45.738163"
       y1="18.576885"
       x2="45.738163"
       y2="41.448246" />
    <radialGradient
       inkscape:collect="always"
       xlink:href="#linearGradient18375-4"
       id="radialGradient4028"
       gradientUnits="userSpaceOnUse"
       gradientTransform="matrix(-1.0636695e-8,0.28870777,-0.18553668,0,8.743885,1036.5831)"
       cx="35.207165"
       cy="22.940353"
       fx="33.194881"
       fy="17.51687"
       r="11.879165" />
    <linearGradient
       inkscape:collect="always"
       xlink:href="#linearGradient18393-9"
       id="linearGradient4030"
       gradientUnits="userSpaceOnUse"
       gradientTransform="matrix(0.12244671,0,0,0.12248596,0.8968333,1043.9495)"
       x1="45.738163"
       y1="18.576885"
       x2="45.738163"
       y2="41.448246" />
    <linearGradient
       inkscape:collect="always"
       xlink:href="#linearGradient18375-4"
       id="linearGradient6202"
       x1="7.875"
       y1="38.697365"
       x2="55.59375"
       y2="38.697365"
       gradientUnits="userSpaceOnUse" />
    <linearGradient
       inkscape:collect="always"
       xlink:href="#linearGradient18375-4"
       id="linearGradient6204"
       gradientUnits="userSpaceOnUse"
       x1="27.750006"
       y1="16.916304"
       x2="27.750006"
       y2="54.037865"
       gradientTransform="matrix(0.78310253,0,0,0.78310253,1.7080675,10.873486)" />
    <linearGradient
       inkscape:collect="always"
       xlink:href="#linearGradient6206"
       id="linearGradient6218"
       x1="940.54749"
       y1="-64"
       x2="1042.3622"
       y2="-64"
       gradientUnits="userSpaceOnUse"
       gradientTransform="matrix(0.27118644,0,0,0.27118644,767.6114,1.355932)" />
  </defs>
  <sodipodi:namedview
     id="base"
     pagecolor="#ffffff"
     bordercolor="#666666"
     borderopacity="1.0"
     inkscape:pageopacity="0.0"
     inkscape:pageshadow="2"
     inkscape:zoom="13.743576"
     inkscape:cx="24"
     inkscape:cy="23.50003"
     inkscape:document-units="px"
     inkscape:current-layer="layer1"
     showgrid="false"
     inkscape:window-width="1371"
     inkscape:window-height="931"
     inkscape:window-x="437"
     inkscape:window-y="139"
     inkscape:window-maximized="0">
    <inkscape:grid
       type="xygrid"
       id="grid7756"
       empspacing="12"
       visible="true"
       enabled="true"
       snapvisiblegridlinesonly="true" />
  </sodipodi:namedview>
  <metadata
     id="metadata7569">
    <rdf:RDF>
      <cc:Work
         rdf:about="">
        <dc:format>image/svg+xml</dc:format>
        <dc:type
           rdf:resource="http://purl.org/dc/dcmitype/StillImage" />
        <dc:title>enote icon</dc:title>
        <cc:license
           rdf:resource="http://creativecommons.org/licenses/by/3.0/" />
        <dc:date>01/14/2014</dc:date>
        <dc:creator>
          <cc:Agent>
            <dc:title>Nikos Vasilakis</dc:title>
          </cc:Agent>
        </dc:creator>
        <dc:subject>
          <rdf:Bag>
            <rdf:li>enote</rdf:li>
            <rdf:li>icon</rdf:li>
            <rdf:li>note taking</rdf:li>
            <rdf:li>reminders</rdf:li>
          </rdf:Bag>
        </dc:subject>
        <dc:rights>
          <cc:Agent>
            <dc:title>Nikos Vasilakis</dc:title>
          </cc:Agent>
        </dc:rights>
      </cc:Work>
      <cc:License
         rdf:about="http://creativecommons.org/licenses/by/3.0/">
        <cc:permits
           rdf:resource="http://creativecommons.org/ns#Reproduction" />
        <cc:permits
           rdf:resource="http://creativecommons.org/ns#Distribution" />
        <cc:requires
           rdf:resource="http://creativecommons.org/ns#Notice" />
        <cc:requires
           rdf:resource="http://creativecommons.org/ns#Attribution" />
        <cc:permits
           rdf:resource="http://creativecommons.org/ns#DerivativeWorks" />
      </cc:License>
    </rdf:RDF>
  </metadata>
  <g
     inkscape:label="Layer 1"
     inkscape:groupmode="layer"
     id="layer1"
     transform="translate(0,-1020.3622)"
     style="display:inline">
    <g
       id="g7796"
       transform="matrix(0.27118644,0,0,0.27118644,-1.355932,767.6114)">
      <rect
         width="16"
         height="10"
         x="107"
         y="1036.3622"
         id="rect2801"
         style="opacity:0.4;fill:url(#radialGradient7794);fill-opacity:1;stroke:none" />
      <rect
         width="16"
         height="10"
         x="-21"
         y="-1046.3622"
         transform="scale(-1,-1)"
         id="rect3696"
         style="opacity:0.4;fill:url(#radialGradient7791);fill-opacity:1;stroke:none" />
      <rect
         width="86"
         height="10"
         x="21"
         y="1036.3622"
         id="rect3700"
         style="opacity:0.4;fill:url(#linearGradient7788);fill-opacity:1;stroke:none" />
    </g>
    <g
       id="g8348"
       transform="matrix(0.27118644,0,0,0.27118644,10.603282,765.38779)">
      <path
         sodipodi:nodetypes="ccccccccc"
         style="opacity:0.03999999;fill:none;stroke:url(#linearGradient8355);stroke-width:1;stroke-linecap:round;stroke-linejoin:bevel;stroke-miterlimit:0;stroke-opacity:1;stroke-dasharray:none;stroke-dashoffset:0"
         d="M 32.146618,972.84239 14.481464,1003.7119 0.25213459,995.56921 -6.3604727,1007.0981 c -0.6756764,0.9281 0.603646,2.8845 1.2993198,3.2507 l 22.2297879,13.0891 c 1.607447,0.7136 3.744467,0.025 4.636044,-1.3342 l 23.915319,-41.55498 z"
         id="path18415"
         inkscape:connector-curvature="0" />
      <path
         inkscape:connector-curvature="0"
         id="path18413"
         d="M 32.709552,973.48232 14.791386,1004.8476 0.54199027,996.84625 -5.0493947,1006.577 c -0.6986698,0.9596 -0.503036,2.4458 0.2163119,2.8244 l 22.0830658,12.8732 c 1.538328,1.0447 3.60011,-0.074 4.005012,-1.1695 l 23.265002,-40.52121 z"
         style="opacity:0.07999998;fill:none;stroke:url(#linearGradient8357);stroke-width:0.99999994;stroke-linecap:round;stroke-linejoin:bevel;stroke-miterlimit:0;stroke-opacity:1;stroke-dasharray:none;stroke-dashoffset:0"
         sodipodi:nodetypes="ccccccccc" />
      <path
         sodipodi:nodetypes="ccccccccc"
         style="opacity:0.16000001;fill:none;stroke:url(#linearGradient8359);stroke-width:1;stroke-linecap:round;stroke-linejoin:bevel;stroke-miterlimit:0;stroke-opacity:1;stroke-dasharray:none;stroke-dashoffset:0"
         d="m 33.076658,974.85342 -17.985637,31.24988 -14.1064917,-7.98513 -5.2332754,9.05693 c -0.7455718,1.024 -0.024603,1.556 0.7430347,1.9601 l 20.9618774,12.1367 c 1.701319,1.0081 2.313327,0.6102 3.213661,-1.0503 l 22.650011,-39.44359 z"
         id="path18407"
         inkscape:connector-curvature="0" />
      <path
         inkscape:connector-curvature="0"
         id="rect17386"
         d="m 33.472758,975.97308 -18.095441,31.35232 -13.9298759,-8.045 -5.0265112,8.7089 13.9298761,8.045 8.706173,5.0281 5.026511,-8.7089 18.095441,-31.35233 -8.706173,-5.02809 z"
         style="fill:url(#radialGradient8361);fill-opacity:1;fill-rule:nonzero;stroke:url(#linearGradient8363);stroke-width:0.99999994;stroke-linecap:butt;stroke-linejoin:round;stroke-miterlimit:0;stroke-opacity:1;stroke-dasharray:none;stroke-dashoffset:0" />
      <path
         sodipodi:nodetypes="ccccccc"
         style="opacity:0.5;fill:none;stroke:url(#linearGradient8365);stroke-width:0.99999994;stroke-linecap:butt;stroke-linejoin:round;stroke-miterlimit:0;stroke-opacity:1;stroke-dasharray:none;stroke-dashoffset:0"
         d="m 33.931024,977.34784 -18.036292,31.40606 -13.9850866,-8.1977 -4.2227153,6.9843 20.9669919,12.1219 22.159008,-38.39042 z"
         id="path18401"
         inkscape:connector-curvature="0" />
    </g>
    <rect
       style="fill:url(#linearGradient6218);fill-opacity:1;stroke:none"
       id="rect6994"
       width="27.661018"
       height="27.661018"
       x="1022.6249"
       y="-29.830509"
       rx="0.67796606"
       ry="0.67796606"
       transform="matrix(0,1,-1,0,0,0)" />
    <rect
       style="fill:none;stroke:url(#linearGradient7004);stroke-width:0.27118647"
       id="rect7002"
       width="27.389832"
       height="27.389832"
       x="1022.7606"
       y="-29.694912"
       rx="0.54237294"
       ry="0.54237294"
       transform="matrix(0,1,-1,0,0,0)" />
    <rect
       transform="matrix(0,-1,-1,0,0,0)"
       ry="0.81355929"
       rx="0.81355929"
       y="-29.966095"
       x="-1050.4215"
       height="27.932203"
       width="27.932203"
       id="rect6998"
       style="fill:none;stroke:url(#linearGradient7095);stroke-width:0.27118647" />
    <g
       id="g8367"
       style="opacity:0.6"
       transform="matrix(0.27118644,0,0,0.27118644,-1.355932,767.6114)">
      <rect
         y="940.36218"
         x="33"
         height="102"
         width="1"
         id="rect15708"
         style="opacity:0.12000002;fill:#da4d45;fill-opacity:1;fill-rule:nonzero;stroke:none" />
      <rect
         y="960.36218"
         x="13"
         height="1"
         width="102"
         id="rect15710"
         style="opacity:0.5;fill:#b9b9b9;fill-opacity:1;fill-rule:nonzero;stroke:none" />
      <rect
         style="opacity:0.5;fill:#b9b9b9;fill-opacity:1;fill-rule:nonzero;stroke:none"
         id="rect15712"
         width="102"
         height="1"
         x="13"
         y="981.36218" />
      <rect
         y="1002.3622"
         x="13"
         height="1"
         width="102"
         id="rect16848"
         style="opacity:0.5;fill:#b9b9b9;fill-opacity:1;fill-rule:nonzero;stroke:none" />
      <rect
         style="opacity:0.5;fill:#b9b9b9;fill-opacity:1;fill-rule:nonzero;stroke:none"
         id="rect7153"
         width="102"
         height="1"
         x="13"
         y="1023.3622" />
      <rect
         style="opacity:0.12000002;fill:#da4d45;fill-opacity:1;fill-rule:nonzero;stroke:none"
         id="rect5610"
         width="1"
         height="102"
         x="31"
         y="940.36218" />
    </g>
    <text
       sodipodi:linespacing="125%"
       id="text5616"
       y="1031.6151"
       x="9.578352"
       style="font-size:2.71186423px;font-style:normal;font-variant:normal;font-weight:normal;font-stretch:normal;line-height:125%;letter-spacing:0px;word-spacing:0px;fill:#000000;fill-opacity:0.18039216;stroke:none;font-family:Jenna Sue;-inkscape-font-specification:Jenna Sue"
       xml:space="preserve"><tspan
         y="1031.6151"
         x="9.578352"
         id="tspan5618"
         sodipodi:role="line">create the application icon</tspan></text>
    <text
       sodipodi:linespacing="125%"
       id="text6239"
       y="1037.3994"
       x="8.4936047"
       style="font-size:2.71186423px;font-style:normal;font-variant:normal;font-weight:normal;font-stretch:normal;line-height:125%;letter-spacing:0px;word-spacing:0px;fill:#000000;fill-opacity:0.18039216;stroke:none;font-family:Jenna Sue;-inkscape-font-specification:Jenna Sue"
       xml:space="preserve"><tspan
         y="1037.3994"
         x="8.4936047"
         id="tspan6241"
         sodipodi:role="line">enote, for real!</tspan></text>
    <path
       inkscape:connector-curvature="0"
       id="rect17386-9"
       d="m 5.923173,1024.0126 -1.10202,1.9094 -0.848336,-0.49 -0.306116,0.5304 0.848335,0.49 0.53021,0.3061 0.306117,-0.5303 1.10202,-1.9094 -0.53021,-0.3062 z"
       style="fill:url(#radialGradient3929);fill-opacity:1;fill-rule:nonzero;stroke:url(#linearGradient3931);stroke-width:0.06090044;stroke-linecap:butt;stroke-linejoin:round;stroke-miterlimit:0;stroke-opacity:1;stroke-dasharray:none;stroke-dashoffset:0" />
    <path
       style="fill:url(#radialGradient4022);fill-opacity:1;fill-rule:nonzero;stroke:url(#linearGradient4024);stroke-width:0.06090044;stroke-linecap:butt;stroke-linejoin:round;stroke-miterlimit:0;stroke-opacity:1;stroke-dasharray:none;stroke-dashoffset:0"
       d="m 5.923173,1029.4363 -1.10202,1.9094 -0.848336,-0.49 -0.306116,0.5304 0.848335,0.49 0.53021,0.3062 0.306117,-0.5304 1.10202,-1.9094 -0.53021,-0.3062 z"
       id="path4020"
       inkscape:connector-curvature="0" />
    <path
       inkscape:connector-curvature="0"
       id="path4026"
       d="m 5.923173,1046.2499 -1.10202,1.9094 -0.848336,-0.49 -0.306116,0.5304 0.848335,0.4899 0.53021,0.3063 0.306117,-0.5304 1.10202,-1.9094 -0.53021,-0.3062 z"
       style="fill:url(#radialGradient4028);fill-opacity:1;fill-rule:nonzero;stroke:url(#linearGradient4030);stroke-width:0.06090044;stroke-linecap:butt;stroke-linejoin:round;stroke-miterlimit:0;stroke-opacity:1;stroke-dasharray:none;stroke-dashoffset:0" />
    <text
       xml:space="preserve"
       style="font-size:2.71186423px;font-style:normal;font-variant:normal;font-weight:normal;font-stretch:normal;line-height:125%;letter-spacing:0px;word-spacing:0px;fill:#000000;fill-opacity:0.18039216;stroke:none;font-family:Jenna Sue;-inkscape-font-specification:Jenna Sue"
       x="8.4936047"
       y="1026.1915"
       id="text5612"
       sodipodi:linespacing="125%"><tspan
         sodipodi:role="line"
         id="tspan5614"
         x="8.4936047"
         y="1026.1915">don't forget to create enote</tspan></text>
    <text
       xml:space="preserve"
       style="font-size:2.71186423px;font-style:normal;font-variant:normal;font-weight:normal;font-stretch:normal;line-height:125%;letter-spacing:0px;word-spacing:0px;fill:#000000;fill-opacity:0.18039216;stroke:none;font-family:Jenna Sue;-inkscape-font-specification:Jenna Sue"
       x="8.4936047"
       y="1048.2468"
       id="text5620"
       sodipodi:linespacing="125%"><tspan
         sodipodi:role="line"
         id="tspan5622"
         x="8.4936047"
         y="1048.2468">have breakfast at Milliways!</tspan></text>
    <g
       transform="matrix(0.08851111,0,0,0.08851111,2.284131,1032.8632)"
       id="g3877"
       style="fill:url(#linearGradient6202);fill-opacity:1;stroke:none">
      <path
         inkscape:connector-curvature="0"
         id="path3873"
         d="m 24.687233,30.666734 c -5.038477,0 -9.179644,3.914524 -9.666422,8.932263 -0.100328,-0.0038 -0.192261,-0.02447 -0.293664,-0.02447 -3.782503,0 -6.852147,2.726367 -6.852147,6.069045 0,3.321091 3.029942,6.009886 6.778731,6.044573 0.02436,2.25e-4 0.04899,0 0.07342,0 l 26.160519,0 c 2.419203,0 4.356008,-1.660841 4.356008,-3.719737 0,-1.785037 -1.46007,-3.258825 -3.426074,-3.62185 0.0054,-0.100203 0.02447,-0.192136 0.02447,-0.293663 0,-3.108103 -2.559689,-5.62855 -5.726437,-5.62855 -0.660784,0 -1.293645,0.116271 -1.88434,0.318136 -0.85005,-4.596751 -4.798492,-8.075745 -9.544062,-8.075745 z"
         style="fill:url(#linearGradient6204);fill-opacity:1;stroke:#0c80c8;stroke-opacity:1" />
    </g>
    <text
       sodipodi:linespacing="125%"
       id="text5628"
       y="1025.1068"
       x="25.849533"
       style="font-size:2.71186423px;font-style:normal;font-variant:normal;font-weight:normal;font-stretch:normal;line-height:125%;letter-spacing:0px;word-spacing:0px;fill:#000000;fill-opacity:0.18039216;stroke:none;font-family:Jenna Sue;-inkscape-font-specification:Jenna Sue"
       xml:space="preserve"><tspan
         y="1025.1068"
         x="25.849533"
         id="tspan5630"
         sodipodi:role="line">,</tspan></text>
    <text
       xml:space="preserve"
       style="font-size:2.71186423px;font-style:normal;font-variant:normal;font-weight:normal;font-stretch:normal;line-height:125%;letter-spacing:0px;word-spacing:0px;fill:#000000;fill-opacity:0.18039216;stroke:none;font-family:Jenna Sue;-inkscape-font-specification:Jenna Sue"
       x="8.4936047"
       y="1042.823"
       id="text6243"
       sodipodi:linespacing="125%"><tspan
         sodipodi:role="line"
         id="tspan6245"
         x="8.4936047"
         y="1042.823">well..            ..more work on icon?</tspan></text>
    <path
       style="fill:#ffeeaa;fill-opacity:1;stroke:#0c80c8;stroke-width:0.54237294;stroke-linejoin:round;stroke-miterlimit:4;stroke-opacity:1;stroke-dasharray:none;stroke-dashoffset:0"
       id="path6268"
       d="m 2.196441,1040.0926 c 0.951454,-0.039 1.868662,-0.3366 2.772548,-0.6098 1.63311,-0.5361 3.185292,-1.2924 4.545259,-2.3515 0.311845,-0.2428 0.599792,-0.5149 0.899688,-0.7724 1.100601,-1.0438 2.021581,-2.2551 2.814288,-3.5447 0.470741,-0.7659 0.611747,-1.0615 1.027327,-1.8463 0.49835,-1.0529 0.983171,-2.1436 1.175224,-3.3018 0.01727,-0.1042 0.02479,-0.2096 0.03721,-0.3144 -0.0011,-0.078 0.01861,-0.269 -0.04857,-0.3504 -0.154959,-0.1873 -0.810906,0.2466 -0.912917,0.3042 0.127784,0.3504 0.03623,0.029 -0.630814,0.652 -0.836278,0.7818 -1.555364,1.6124 -2.187638,2.5698 -0.217306,0.329 -0.4054,0.6764 -0.608099,1.0146 -0.161555,0.3356 -0.340489,0.6634 -0.484661,1.0068 -0.458467,1.0922 -0.732135,2.2861 -0.714058,3.4745 0.0029,0.1927 0.03079,0.3841 0.04618,0.5763 0.06341,0.3298 0.06764,0.4555 0.188496,0.7498 0.04167,0.1015 0.116077,0.2597 0.227706,0.3168 0.111751,0.057 0.200117,-0.01 0.303506,-0.041 -0.129654,0.064 -0.283699,0.2922 -0.388962,0.1929 -0.09913,-0.094 0.20812,-0.1763 0.306016,-0.2711 0.115902,-0.1122 0.227059,-0.2294 0.334844,-0.3496 0.346321,-0.3858 0.654732,-0.8029 0.964076,-1.2182 0.330915,-0.4498 0.495606,-0.6864 1.1348,-0.8568 0.0594,-0.015 0.07005,0.1042 0.08466,0.1638 0.03046,0.1246 0.0076,0.4471 0.0034,0.556 -0.0093,0.3024 -0.04737,0.6042 -0.04409,0.9071 6.67e-4,0.064 0.0061,0.2155 0.03629,0.2887 0.0063,0.015 0.02307,0.023 0.03461,0.036 0.03991,-0.01 0.05753,-0.063 0.100621,-0.065 0.07469,-0.01 0.109835,0.084 0.136847,0.1362 0.04905,0.1168 0.06463,0.2439 0.125796,0.3555 0.06167,0.083 0.124875,0.1672 0.196644,0.2423 0.04035,0.025 0.07805,0.053 0.126255,0.063 0.137269,0.027 0.312808,-0.013 0.449172,-0.032 0.252982,-0.045 0.442579,-0.059 0.686559,0.029 0.292432,0.1399 0.555711,0.335 0.830323,0.5066 0.397236,0.2679 0.814474,0.5037 1.223098,0.7532 0.228615,0.1396 0.4542,0.284 0.682645,0.424 0.09575,0.059 0.190583,0.1194 0.28724,0.1768 0.01137,0.01 0.332075,0.1948 0.378705,0.2015 0.0185,0 0.04736,-0.055 0.03008,-0.047 -0.82209,0.3367 -0.53898,0.5393 -0.888995,0.1238 -0.618279,-0.702 -1.246843,-1.396 -1.835347,-2.1234 -0.205412,-0.254 -0.413748,-0.506 -0.603973,-0.7716 -0.199389,-0.2783 -0.375909,-0.5722 -0.563863,-0.8584 -0.333836,-0.6282 -0.651464,-1.1418 -0.844126,-1.8338 -0.177906,-0.6388 -0.220106,-1.2634 -0.116198,-1.9188 0.129142,-0.8146 0.300174,-1.0085 0.669119,-1.729 0.208532,-0.2504 0.395899,-0.52 0.625597,-0.7512 0.477966,-0.481 1.009952,-0.8444 1.596803,-1.1768 0.422183,-0.2392 0.850708,-0.4682 1.289628,-0.6751 0.455995,-0.2149 0.88188,-0.3231 1.358675,-0.4633 0.32641,-0.045 0.847842,-0.2556 1.131042,0.053 0.286053,0.3122 0.191093,0.9626 0.175373,1.3303 -0.13873,1.033 -0.362595,2.0518 -0.552425,3.0761 -0.125795,0.6786 -0.12991,0.7327 -0.232965,1.3889 -0.04701,0.3456 -0.08706,0.6142 -0.122045,0.9544 -0.01093,0.1061 -0.03526,0.3184 -0.01863,0.443 0.0125,0.094 0.01985,0.069 0.05271,0.035 0.0128,-0.012 0.02135,-0.031 0.03835,-0.035 0.0606,-0.015 0.09613,0.049 0.108835,0.094 0.04107,0.1485 -0.03375,0.3713 -0.06818,0.5089 -0.154367,0.5961 -0.392087,1.1659 -0.567907,1.755 -0.1981,0.1256 -0.0139,0.1605 0.02323,0.1343 0.0402,-0.029 0.154847,-0.1164 0.108085,-0.1008 -0.1519,0.051 -0.274495,0.2336 -0.432535,0.2084 -0.113915,-0.018 0.16931,-0.1568 0.25193,-0.2373 0.09102,-0.089 0.17928,-0.1802 0.268915,-0.2702 0.424385,-0.4718 0.686865,-0.776 1.359662,-0.9785 0.08284,-0.025 0.123008,0.1884 0.162328,0.3297 0.05061,0.2396 0.03601,0.4866 0.08232,0.7267 0.01635,0.085 0.04265,0.2027 0.104555,0.1743 0.03619,-0.017 0.04835,-0.063 0.07254,-0.095 -0.64712,0.2908 -0.606335,0.3864 -0.388848,0.027 0.04311,-0.071 0.08282,-0.1443 0.12295,-0.2172 0.03183,-0.057 0.06267,-0.1162 0.09291,-0.175 0.01263,-0.024 0.011,-0.063 0.03573,-0.075 0.22596,-0.111 0.465955,-0.1906 0.698925,-0.286 -0.355565,0.6041 -0.584825,1.2682 -0.778183,1.9386 -0.04317,0.1754 -0.106682,0.4086 -0.131177,0.5928 -0.009,0.068 -0.04812,0.2484 0.05458,0.3024 0.09969,0.052 0.379487,-0.037 0.435387,-0.049 0.409,-0.1479 0.440628,-0.1398 0.84814,-0.383 0.0084,-0.01 -0.02723,-0.016 -0.0196,-0.021 0.177413,-0.1438 0.371293,-0.2662 0.550183,-0.4081 0.337727,-0.2679 0.594823,-0.5125 0.9099,-0.801 0.42972,-0.4117 0.81461,-0.791 1.43203,-0.9299 0.05306,-0.012 0.04533,0.1 0.0558,0.1532 0.01217,0.062 0.0076,0.1263 0.0114,0.1894 0.0017,0.1947 -0.03019,0.3873 -0.04329,0.581 -2.5e-4,0.01 -0.01333,0.1426 0.01227,0.17 0.0062,0.01 0.01237,-0.013 0.01863,-0.02 0.126242,-0.2688 0.01775,-0.011 -0.585083,0.286 -0.02583,0.013 0.03765,-0.043 0.0551,-0.067 0.04113,-0.053 0.07655,-0.1092 0.120937,-0.1606 0.516628,-0.4889 0.585706,-0.4225 1.03441,-0.4668 0.14653,-0.027 0.294458,-0.043 0.440756,-0.072 0,0 -0.614726,0.4635 -0.614726,0.4635 l 0,0 c -0.149532,0.025 -0.299387,0.048 -0.449244,0.071 -0.0745,0.01 -0.153613,0.01 -0.225688,0.031 -0.0149,0.01 -0.05661,0.027 -0.04317,0.018 0.550165,-0.3285 0.85132,-0.4819 0.582695,-0.3441 -0.04747,0.039 -0.04853,0.035 -0.08803,0.086 -0.01607,0.021 -0.03043,0.043 -0.04503,0.065 -0.01663,0.025 -0.02397,0.059 -0.04869,0.076 -0.678018,0.4658 -0.441816,0.4562 -0.790616,0.4516 -0.0171,-0.017 -0.04079,-0.029 -0.05132,-0.049 -0.02473,-0.05 -0.0062,-0.1623 -0.0013,-0.2036 0.02345,-0.189 0.05743,-0.3772 0.05184,-0.5688 -0.0047,-0.055 -0.0059,-0.1112 -0.0142,-0.1661 -0.05044,-0.3327 -0.344715,0.1409 0.563207,-0.462 0.05498,-0.036 -0.116435,0.063 -0.169625,0.1021 -0.161225,0.1183 -0.473477,0.4034 -0.602985,0.5184 -0.29601,0.2665 -0.623195,0.5679 -0.932345,0.8165 -0.175552,0.1413 -0.350562,0.2844 -0.538594,0.4085 -0.356313,0.2352 -0.723636,0.4536 -1.09259,0.6685 -0.444656,0.2589 -0.462616,0.2446 -0.907916,0.4042 -0.158412,0.027 -0.365364,0.1121 -0.519937,-0.01 -0.111603,-0.087 -0.06925,-0.2594 -0.05056,-0.3639 0.02799,-0.1568 0.118115,-0.4698 0.156765,-0.611 0.191995,-0.6477 0.40668,-1.2916 0.695478,-1.9034 0.241657,-0.1206 0.476177,-0.2566 0.72499,-0.3614 0.03171,-0.013 -0.04422,0.053 -0.06267,0.082 -0.05155,0.081 -0.183102,0.3253 -0.224325,0.3991 -0.03945,0.071 -0.05833,0.1584 -0.11978,0.2108 -0.237577,0.203 -0.509042,0.3628 -0.763567,0.5442 -0.04427,0.01 -0.08978,0.035 -0.13289,0.023 -0.08918,-0.026 -0.09727,-0.1864 -0.104535,-0.241 -0.03148,-0.2366 -0.02485,-0.4781 -0.08182,-0.7116 -0.01863,-0.056 -0.02851,-0.1155 -0.05585,-0.1678 -0.13494,-0.2582 -0.697496,0.3305 0.472712,-0.4104 0.05925,-0.037 -0.11934,0.075 -0.172662,0.1202 -0.138356,0.1182 -0.34144,0.3495 -0.458036,0.4769 -0.08647,0.089 -0.172642,0.1789 -0.259417,0.2679 -0.07699,0.079 -0.142585,0.1713 -0.23187,0.236 -0.269295,0.1954 -0.55132,0.3735 -0.83892,0.5407 -0.05951,0.034 -0.225482,0.1075 -0.246062,-0.035 -0.0078,-0.054 0.02497,-0.106 0.03746,-0.159 0.200069,-0.5788 0.437335,-1.1468 0.566872,-1.7478 0.04119,-0.192 0.04713,-0.1804 0.0583,-0.3528 0.0017,-0.031 0.0081,-0.098 -0.0076,-0.1 -0.03561,-0.01 -0.06872,0.039 -0.10693,0.011 -0.02135,-0.017 -0.05091,-0.025 -0.06405,-0.049 -0.0359,-0.064 -0.0029,-0.2338 0.0029,-0.2752 0.06421,-0.4284 0.165278,-0.8509 0.228355,-1.2795 0.134293,-0.7334 0.2781,-1.4647 0.417155,-2.1971 0.09821,-0.5173 0.198715,-1.042 0.27049,-1.5639 0.03125,-0.2271 0.05126,-0.4556 0.07692,-0.6833 0.0017,-0.3267 0.05959,-0.9555 -0.19675,-1.2306 -0.255875,-0.2745 -0.734372,-0.093 -1.0295,-0.06 -0.867385,0.2418 -0.351735,0.08 -1.298435,0.4297 -0.108364,0.041 -0.22482,0.062 -0.326142,0.1172 -0.582682,0.3192 -1.127317,0.6896 -1.600754,1.1597 -0.227606,0.2261 -0.413652,0.4904 -0.620479,0.7356 -0.373807,0.7107 -0.546468,0.9037 -0.684665,1.7101 -0.112116,0.6541 -0.07779,1.2626 0.09521,1.9032 0.191261,0.7083 0.491068,1.185 0.831601,1.8272 0.190455,0.2829 0.369428,0.5738 0.571366,0.8487 0.193255,0.2628 0.402512,0.514 0.613161,0.7632 0.610936,0.723 1.280606,1.3924 1.973836,2.0357 0.38767,0.3623 0.31556,0.1642 -0.357162,0.7403 -0.01197,0.011 -0.02757,-0.015 -0.04091,-0.023 -0.04611,-0.029 -0.09188,-0.059 -0.137377,-0.089 -0.06983,-0.046 -0.13906,-0.093 -0.208615,-0.1394 -0.0917,-0.061 -0.183428,-0.1224 -0.275143,-0.1835 -0.09962,-0.063 -0.583632,-0.3695 -0.67689,-0.4254 -0.41615,-0.2496 -0.843584,-0.4805 -1.259968,-0.7297 -0.0702,-0.039 -0.141225,-0.077 -0.210601,-0.1175 -0.210015,-0.123 -0.405898,-0.2752 -0.637396,-0.3575 -0.225054,-0.064 -0.433871,-0.045 -0.662513,-0.01 -0.216134,0.027 -0.449026,0.069 -0.629223,-0.083 -0.07531,-0.082 -0.150228,-0.166 -0.214443,-0.2568 -0.05659,-0.114 -0.06334,-0.243 -0.119575,-0.3578 -0.0078,-0.013 -0.01269,-0.029 -0.02327,-0.041 -0.0055,-0.01 -0.01439,-0.01 -0.02247,-0.01 -0.01077,0 -0.02009,0.01 -0.03032,0.011 -0.06147,0.02 -0.104637,0.021 -0.156242,-0.025 -0.01325,-0.023 -0.03251,-0.045 -0.03973,-0.072 -0.02115,-0.078 -0.01491,-0.2562 -0.01197,-0.3194 0.01419,-0.3035 0.05404,-0.6057 0.05473,-0.9099 -8.67e-4,-0.1439 0.0076,-0.355 -0.02321,-0.5044 -0.0059,-0.029 -0.06021,-0.061 -0.03796,-0.08 0.163772,-0.1416 0.350338,-0.2575 0.542749,-0.3568 0.193627,-0.1 -0.874732,0.667 -0.439505,0.4839 -0.313301,0.4117 -0.62025,0.8306 -0.957686,1.2232 -0.06544,0.076 -0.483043,0.5421 -0.593612,0.6183 -0.28197,0.1945 -0.587583,0.3523 -0.881374,0.5283 -0.06665,0.012 -0.132429,0.039 -0.199938,0.035 -0.216721,-0.014 -0.308788,-0.2553 -0.361976,-0.4253 -0.0999,-0.3195 -0.0965,-0.4412 -0.140296,-0.7931 -0.0061,-0.1993 -0.02329,-0.3987 -0.01823,-0.5982 0.03081,-1.2119 0.318518,-2.4248 0.794128,-3.5377 0.148286,-0.347 0.331172,-0.6782 0.496759,-1.0172 0.203292,-0.34 0.39328,-0.6882 0.609879,-1.02 0.414028,-0.6338 0.90829,-1.2806 1.414634,-1.845 0.218886,-0.2439 0.453796,-0.4732 0.688618,-0.702 0.199154,-0.1938 0.39204,-0.3967 0.612906,-0.5655 0.349326,-0.2669 0.72869,-0.4923 1.093035,-0.7383 0.219258,-0.1214 0.634018,-0.4181 0.922276,-0.332 0.216974,0.065 0.159841,0.3358 0.148903,0.4936 -0.02073,0.1108 -0.03725,0.2224 -0.06219,0.3322 -0.268108,1.1805 -0.777106,2.2944 -1.301429,3.3786 -0.420474,0.7813 -0.575148,1.0946 -1.044605,1.8586 -0.796503,1.2964 -1.719747,2.5139 -2.824424,3.565 -0.298624,0.2586 -0.5849,0.5324 -0.89587,0.776 -0.743921,0.5832 -1.60056,1.0876 -2.417574,1.5462 -0.970495,0.5446 -1.995073,0.988 -3.049894,1.3408 -0.9667,0.3044 -1.94286,0.6273 -2.9575463,0.7231 0,0 0.6384433,-0.4639 0.6384433,-0.4639 z"
       inkscape:connector-curvature="0" />
    <path
       style="fill:#ffeeaa;fill-opacity:1;stroke:#0c80c8;stroke-width:0.54237294;stroke-linejoin:round;stroke-miterlimit:4;stroke-opacity:1;stroke-dasharray:none;stroke-dashoffset:0"
       id="path6270"
       d="m 23.756522,1034.6607 c 0.107448,0 0.214958,0 0.32244,0 0,0 -0.631475,0.4588 -0.631475,0.4588 l 0,0 c -0.110237,0 -0.220497,0 -0.3307,0 0,0 0.639735,-0.4648 0.639735,-0.4648 z"
       inkscape:connector-curvature="0" />
    <path
       style="fill:#ffeeaa;fill-opacity:1;stroke:#0c80c8;stroke-width:0.54237294;stroke-linejoin:round;stroke-miterlimit:4;stroke-opacity:1;stroke-dasharray:none;stroke-dashoffset:0"
       id="path6272"
       d="m 22.312995,1034.1486 c 0.153692,-0.07 0.307695,-0.1369 0.452428,-0.2245 0,0 -0.5999,0.4854 -0.5999,0.4854 l 0,0 c -0.153316,0.083 -0.313206,0.1514 -0.467906,0.2314 0,0 0.615378,-0.4922 0.615378,-0.4922 z"
       inkscape:connector-curvature="0" />
    <path
       style="fill:#ffeeaa;fill-opacity:1;stroke:#0c80c8;stroke-width:0.54237294;stroke-linejoin:round;stroke-miterlimit:4;stroke-opacity:1;stroke-dasharray:none;stroke-dashoffset:0"
       id="path6274"
       d="m 11.789699,1045.0192 c 0.696554,-0.5107 1.507276,-0.8288 2.29548,-1.1644 1.476854,-0.5677 2.989826,-1.0457 4.522961,-1.4373 0.358427,-0.091 0.719603,-0.1718 1.079407,-0.2578 1.555903,-0.3528 3.12587,-0.6383 4.6991,-0.9014 0.406983,-0.049 0.81404,-0.1594 1.2268,-0.1306 0.05451,0.01 0.10885,0.013 0.163333,0.02 0,0 -0.642298,0.4545 -0.642298,0.4545 l 0,0 c -0.05161,-0.01 -0.10321,-0.015 -0.15506,-0.021 -0.379847,-0.031 -0.758157,0.047 -1.134775,0.084 -1.53381,0.2087 -3.06042,0.4727 -4.571257,0.8109 -0.359063,0.086 -0.71979,0.1656 -1.077193,0.2584 -1.569048,0.4074 -3.116666,0.9114 -4.618242,1.5219 -0.370737,0.1647 -0.656508,0.2878 -1.01605,0.4601 -0.105662,0.051 -0.40696,0.2291 -0.314269,0.1574 0.141116,-0.1091 0.307167,-0.1814 0.461348,-0.271 0.06518,-0.038 -0.216922,0.1265 -0.190167,0.1225 0,0 -0.729118,0.2943 -0.729118,0.2943 z"
       inkscape:connector-curvature="0" />
  </g>
</svg>
