<?xml version="1.0" encoding="UTF-8" standalone="no"?>
<!-- Created with Inkscape (http://www.inkscape.org/) -->

<svg
   xmlns:osb="http://www.openswatchbook.org/uri/2009/osb"
   xmlns:dc="http://purl.org/dc/elements/1.1/"
   xmlns:cc="http://creativecommons.org/ns#"
   xmlns:rdf="http://www.w3.org/1999/02/22-rdf-syntax-ns#"
   xmlns:svg="http://www.w3.org/2000/svg"
   xmlns="http://www.w3.org/2000/svg"
   xmlns:xlink="http://www.w3.org/1999/xlink"
   xmlns:sodipodi="http://sodipodi.sourceforge.net/DTD/sodipodi-0.dtd"
   xmlns:inkscape="http://www.inkscape.org/namespaces/inkscape"
   width="14"
   height="14"
   id="svg7564"
   version="1.1"
   inkscape:version="0.48.3.1 r9886"
   sodipodi:docname="enote.svg">
  <title
     id="title5651">enote icon</title>
  <defs
     id="defs7566">
    <linearGradient
       id="linearGradient6206">
      <stop
         offset="0"
         style="stop-color:#fefdf6;stop-opacity:1;"
         id="stop6208" />
      <stop
         offset="1"
         style="stop-color:#f8e384;stop-opacity:1;"
         id="stop6210" />
    </linearGradient>
    <linearGradient
       id="linearGradient5604"
       osb:paint="solid">
      <stop
         style="stop-color:#ff80c8;stop-opacity:1;"
         offset="0"
         id="stop5606" />
    </linearGradient>
    <linearGradient
       id="linearGradient5578"
       osb:paint="gradient">
      <stop
         style="stop-color:#0c80c8;stop-opacity:1;"
         offset="0"
         id="stop5580" />
      <stop
         style="stop-color:#0c80c8;stop-opacity:0;"
         offset="1"
         id="stop5582" />
    </linearGradient>
    <linearGradient
       id="linearGradient5570"
       osb:paint="solid">
      <stop
         style="stop-color:#ff80c8;stop-opacity:1;"
         offset="0"
         id="stop5572" />
    </linearGradient>
    <linearGradient
       id="linearGradient4040">
      <stop
         style="stop-color:#0c80c8;stop-opacity:1;"
         offset="0"
         id="stop4042" />
      <stop
         style="stop-color:#0c80c8;stop-opacity:0;"
         offset="1"
         id="stop4044" />
    </linearGradient>
    <linearGradient
       id="linearGradient3894">
      <stop
         id="stop3896"
         offset="0"
         style="stop-color:#0c80c8;stop-opacity:1" />
      <stop
         id="stop3898"
         offset="1"
         style="stop-color:#185f9a;stop-opacity:1;" />
    </linearGradient>
    <linearGradient
       inkscape:collect="always"
       xlink:href="#linearGradient3688-166-749"
       id="linearGradient18443"
       gradientUnits="userSpaceOnUse"
       gradientTransform="translate(-0.12497443,0.06897341)"
       x1="34.124973"
       y1="42.931026"
       x2="34.124973"
       y2="16.931026" />
    <linearGradient
       id="linearGradient3688-166-749">
      <stop
         id="stop2883"
         style="stop-color:#181818;stop-opacity:1"
         offset="0" />
      <stop
         id="stop2885"
         style="stop-color:#181818;stop-opacity:0"
         offset="1" />
    </linearGradient>
    <linearGradient
       inkscape:collect="always"
       xlink:href="#linearGradient3688-166-749"
       id="linearGradient18440"
       gradientUnits="userSpaceOnUse"
       gradientTransform="translate(-0.12497443,0.06897341)"
       x1="34.124973"
       y1="42.931026"
       x2="34.124973"
       y2="16.931026" />
    <linearGradient
       id="linearGradient7476">
      <stop
         id="stop7478"
         style="stop-color:#181818;stop-opacity:1"
         offset="0" />
      <stop
         id="stop7480"
         style="stop-color:#181818;stop-opacity:0"
         offset="1" />
    </linearGradient>
    <linearGradient
       inkscape:collect="always"
       xlink:href="#linearGradient3688-166-749"
       id="linearGradient18437"
       gradientUnits="userSpaceOnUse"
       gradientTransform="translate(-0.12497443,0.06897341)"
       x1="34.124973"
       y1="42.931026"
       x2="34.124973"
       y2="16.931026" />
    <linearGradient
       id="linearGradient7483">
      <stop
         id="stop7485"
         style="stop-color:#181818;stop-opacity:1"
         offset="0" />
      <stop
         id="stop7487"
         style="stop-color:#181818;stop-opacity:0"
         offset="1" />
    </linearGradient>
    <radialGradient
       inkscape:collect="always"
       xlink:href="#linearGradient18375"
       id="radialGradient18432"
       gradientUnits="userSpaceOnUse"
       gradientTransform="matrix(-8.6867956e-8,2.3570682,-1.5152443,-5.5842562e-8,64.085431,-60.140705)"
       cx="33.575909"
       cy="22.495005"
       fx="33.575909"
       fy="22.495005"
       r="11.879165" />
    <linearGradient
       id="linearGradient18375">
      <stop
         style="stop-color:#90dbec;stop-opacity:1;"
         offset="0"
         id="stop18377" />
      <stop
         id="stop18387"
         offset="0.35714287"
         style="stop-color:#55c1ec;stop-opacity:1;" />
      <stop
         id="stop18385"
         offset="0.60714287"
         style="stop-color:#3689e6;stop-opacity:1;" />
      <stop
         style="stop-color:#2b63a0;stop-opacity:1;"
         offset="1"
         id="stop18379" />
    </linearGradient>
    <linearGradient
       inkscape:collect="always"
       xlink:href="#linearGradient18393"
       id="linearGradient18434"
       gradientUnits="userSpaceOnUse"
       x1="46"
       y1="18"
       x2="46"
       y2="41.999996" />
    <linearGradient
       id="linearGradient18393">
      <stop
         style="stop-color:#599ec9;stop-opacity:1;"
         offset="0"
         id="stop18395" />
      <stop
         style="stop-color:#185f9a;stop-opacity:1;"
         offset="1"
         id="stop18397" />
    </linearGradient>
    <linearGradient
       inkscape:collect="always"
       xlink:href="#linearGradient3924"
       id="linearGradient18429"
       gradientUnits="userSpaceOnUse"
       gradientTransform="translate(-2.523e-5,0.06602467)"
       x1="44.000027"
       y1="19.933975"
       x2="44.000027"
       y2="39.933975" />
    <linearGradient
       id="linearGradient3924">
      <stop
         id="stop3926"
         style="stop-color:#ffffff;stop-opacity:1"
         offset="0" />
      <stop
         id="stop3928"
         style="stop-color:#ffffff;stop-opacity:0.23529412"
         offset="0.10000001" />
      <stop
         id="stop3930"
         style="stop-color:#ffffff;stop-opacity:0.15686275"
         offset="0.94999999" />
      <stop
         id="stop3932"
         style="stop-color:#ffffff;stop-opacity:0.39215687"
         offset="1" />
    </linearGradient>
    <linearGradient
       inkscape:collect="always"
       xlink:href="#linearGradient3104-6"
       id="linearGradient7095"
       gradientUnits="userSpaceOnUse"
       gradientTransform="matrix(0.21069551,0,0,0.26565958,-1051.7091,1.9986651)"
       x1="0.50847417"
       y1="-34"
       x2="59.491524"
       y2="-34" />
    <linearGradient
       id="linearGradient3104-6">
      <stop
         offset="0"
         style="stop-color:#000000;stop-opacity:0.31782946"
         id="stop3106-3" />
      <stop
         offset="1"
         style="stop-color:#000000;stop-opacity:0.24031007"
         id="stop3108-9" />
    </linearGradient>
    <linearGradient
       inkscape:collect="always"
       xlink:href="#linearGradient3977-4-9"
       id="linearGradient7004"
       gradientUnits="userSpaceOnUse"
       gradientTransform="matrix(0.20660435,0,0,0.26050112,1039.1902,1.8232781)"
       x1="1.5087713"
       y1="-34"
       x2="58.491226"
       y2="-34" />
    <linearGradient
       id="linearGradient3977-4-9">
      <stop
         id="stop3979-7-0"
         style="stop-color:#ffffff;stop-opacity:1"
         offset="0" />
      <stop
         id="stop3981-6-9"
         style="stop-color:#ffffff;stop-opacity:0.23529412"
         offset="0.01785714" />
      <stop
         id="stop3983-5-2"
         style="stop-color:#ffffff;stop-opacity:0.15686275"
         offset="0.98245609" />
      <stop
         id="stop3985-6-8"
         style="stop-color:#ffffff;stop-opacity:0.39215687"
         offset="1" />
    </linearGradient>
    <linearGradient
       id="linearGradient3600-9-3">
      <stop
         id="stop3602-3-0"
         style="stop-color:#f4f4f4;stop-opacity:1"
         offset="0" />
      <stop
         id="stop3604-7-1"
         style="stop-color:#dbdbdb;stop-opacity:1"
         offset="1" />
    </linearGradient>
    <linearGradient
       id="linearGradient7520">
      <stop
         id="stop7522"
         style="stop-color:#181818;stop-opacity:1"
         offset="0" />
      <stop
         id="stop7524"
         style="stop-color:#181818;stop-opacity:0"
         offset="1" />
    </linearGradient>
    <linearGradient
       id="linearGradient3688-464-309">
      <stop
         id="stop2889"
         style="stop-color:#181818;stop-opacity:1"
         offset="0" />
      <stop
         id="stop2891"
         style="stop-color:#181818;stop-opacity:0"
         offset="1" />
    </linearGradient>
    <linearGradient
       inkscape:collect="always"
       xlink:href="#linearGradient3702-501-757"
       id="linearGradient7118"
       gradientUnits="userSpaceOnUse"
       gradientTransform="matrix(1.5714287,0,0,0.7142857,-5.7142845,28.428574)"
       x1="25.058096"
       y1="47.027729"
       x2="25.058096"
       y2="39.999443" />
    <linearGradient
       id="linearGradient3702-501-757">
      <stop
         id="stop2895"
         style="stop-color:#181818;stop-opacity:0"
         offset="0" />
      <stop
         id="stop2897"
         style="stop-color:#181818;stop-opacity:1"
         offset="0.5" />
      <stop
         id="stop2899"
         style="stop-color:#181818;stop-opacity:0"
         offset="1" />
    </linearGradient>
    <linearGradient
       inkscape:collect="always"
       xlink:href="#linearGradient3702-501-757"
       id="linearGradient7788"
       gradientUnits="userSpaceOnUse"
       gradientTransform="matrix(3.0714288,0,0,1.4285713,-9.7142831,979.21942)"
       x1="25.058096"
       y1="47.027729"
       x2="25.058096"
       y2="39.999443" />
    <radialGradient
       inkscape:collect="always"
       xlink:href="#linearGradient3688-464-309"
       id="radialGradient7791"
       gradientUnits="userSpaceOnUse"
       gradientTransform="matrix(6.4121086,0,0,2,-53.037984,-1128.3622)"
       cx="4.9929786"
       cy="43.5"
       fx="4.9929786"
       fy="43.5"
       r="2.5" />
    <radialGradient
       inkscape:collect="always"
       xlink:href="#linearGradient3688-166-749"
       id="radialGradient7794"
       gradientUnits="userSpaceOnUse"
       gradientTransform="matrix(6.4121086,0,0,2,74.96201,954.36222)"
       cx="4.9929786"
       cy="43.5"
       fx="4.9929786"
       fy="43.5"
       r="2.5" />
    <linearGradient
       inkscape:collect="always"
       xlink:href="#linearGradient3924"
       id="linearGradient8332"
       gradientUnits="userSpaceOnUse"
       gradientTransform="matrix(2.1484769,0,0,2.1494197,-53.84864,933.94246)"
       x1="44.000027"
       y1="19.933975"
       x2="44.000027"
       y2="39.933975" />
    <radialGradient
       inkscape:collect="always"
       xlink:href="#linearGradient18375"
       id="radialGradient8335"
       gradientUnits="userSpaceOnUse"
       gradientTransform="matrix(-1.746571e-7,4.7406513,-3.046557,-1.123133e-7,79.789501,817.24102)"
       cx="33.575909"
       cy="22.495005"
       fx="33.575909"
       fy="22.495005"
       r="11.879165" />
    <linearGradient
       inkscape:collect="always"
       xlink:href="#linearGradient18393"
       id="linearGradient8337"
       gradientUnits="userSpaceOnUse"
       x1="46"
       y1="18"
       x2="46"
       y2="41.999996"
       gradientTransform="matrix(2.0106045,0,0,2.0112491,-49.060955,938.19897)" />
    <linearGradient
       inkscape:collect="always"
       xlink:href="#linearGradient3688-166-749"
       id="linearGradient8340"
       gradientUnits="userSpaceOnUse"
       gradientTransform="matrix(1.9206264,0,0,1.9212894,-46.360527,941.29341)"
       x1="34.124973"
       y1="42.931026"
       x2="34.124973"
       y2="16.931026" />
    <linearGradient
       inkscape:collect="always"
       xlink:href="#linearGradient3688-166-749"
       id="linearGradient8343"
       gradientUnits="userSpaceOnUse"
       gradientTransform="matrix(1.7998049,0,0,1.8003922,-42.912231,945.62838)"
       x1="34.124973"
       y1="42.931026"
       x2="34.124973"
       y2="16.931026" />
    <linearGradient
       inkscape:collect="always"
       xlink:href="#linearGradient3688-166-749"
       id="linearGradient8346"
       gradientUnits="userSpaceOnUse"
       gradientTransform="matrix(1.7405727,0,0,1.7412667,-40.869182,947.39659)"
       x1="34.124973"
       y1="42.931026"
       x2="34.124973"
       y2="16.931026" />
    <linearGradient
       inkscape:collect="always"
       xlink:href="#linearGradient3688-166-749"
       id="linearGradient8355"
       gradientUnits="userSpaceOnUse"
       gradientTransform="matrix(1.7405727,0,0,1.7412667,-40.869182,947.39659)"
       x1="34.124973"
       y1="42.931026"
       x2="34.124973"
       y2="16.931026" />
    <linearGradient
       inkscape:collect="always"
       xlink:href="#linearGradient3688-166-749"
       id="linearGradient8357"
       gradientUnits="userSpaceOnUse"
       gradientTransform="matrix(1.7998049,0,0,1.8003922,-42.912231,945.62838)"
       x1="34.124973"
       y1="42.931026"
       x2="34.124973"
       y2="16.931026" />
    <linearGradient
       inkscape:collect="always"
       xlink:href="#linearGradient3688-166-749"
       id="linearGradient8359"
       gradientUnits="userSpaceOnUse"
       gradientTransform="matrix(1.9206264,0,0,1.9212894,-46.360527,941.29341)"
       x1="34.124973"
       y1="42.931026"
       x2="34.124973"
       y2="16.931026" />
    <radialGradient
       inkscape:collect="always"
       xlink:href="#linearGradient18375"
       id="radialGradient8361"
       gradientUnits="userSpaceOnUse"
       gradientTransform="matrix(-1.746571e-7,4.7406513,-3.046557,-1.123133e-7,79.789501,817.24102)"
       cx="35.207165"
       cy="22.940353"
       fx="33.194881"
       fy="17.51687"
       r="11.879165" />
    <linearGradient
       inkscape:collect="always"
       xlink:href="#linearGradient18393"
       id="linearGradient8363"
       gradientUnits="userSpaceOnUse"
       gradientTransform="matrix(2.0106045,0,0,2.0112491,-49.060955,938.19897)"
       x1="45.738163"
       y1="18.576885"
       x2="45.738163"
       y2="41.448246" />
    <linearGradient
       inkscape:collect="always"
       xlink:href="#linearGradient3924"
       id="linearGradient8365"
       gradientUnits="userSpaceOnUse"
       gradientTransform="matrix(2.1484769,0,0,2.1494197,-53.84864,933.94246)"
       x1="44.000027"
       y1="19.933975"
       x2="44.000027"
       y2="39.933975" />
    <radialGradient
       inkscape:collect="always"
       xlink:href="#linearGradient18375-4"
       id="radialGradient8361-8"
       gradientUnits="userSpaceOnUse"
       gradientTransform="matrix(-1.746571e-7,4.7406513,-3.046557,-1.123133e-7,79.789501,817.24102)"
       cx="35.207165"
       cy="22.940353"
       fx="33.194881"
       fy="17.51687"
       r="11.879165" />
    <linearGradient
       id="linearGradient18375-4">
      <stop
         style="stop-color:#90dbec;stop-opacity:1;"
         offset="0"
         id="stop18377-1" />
      <stop
         id="stop18387-4"
         offset="0.35714287"
         style="stop-color:#55c1ec;stop-opacity:1;" />
      <stop
         id="stop18385-5"
         offset="0.60714287"
         style="stop-color:#3689e6;stop-opacity:1;" />
      <stop
         style="stop-color:#2b63a0;stop-opacity:1;"
         offset="1"
         id="stop18379-1" />
    </linearGradient>
    <linearGradient
       inkscape:collect="always"
       xlink:href="#linearGradient18393-9"
       id="linearGradient8363-4"
       gradientUnits="userSpaceOnUse"
       gradientTransform="matrix(2.0106045,0,0,2.0112491,-49.060955,938.19897)"
       x1="45.738163"
       y1="18.576885"
       x2="45.738163"
       y2="41.448246" />
    <linearGradient
       id="linearGradient18393-9">
      <stop
         style="stop-color:#599ec9;stop-opacity:1;"
         offset="0"
         id="stop18395-1" />
      <stop
         style="stop-color:#185f9a;stop-opacity:1;"
         offset="1"
         id="stop18397-8" />
    </linearGradient>
    <radialGradient
       r="11.879165"
       fy="17.51687"
       fx="33.194881"
       cy="22.940353"
       cx="35.207165"
       gradientTransform="matrix(0,0.12630965,-0.0811723,0,3.8592094,1035.7153)"
       gradientUnits="userSpaceOnUse"
       id="radialGradient3929"
       xlink:href="#linearGradient18375-4"
       inkscape:collect="always" />
    <linearGradient
       y2="41.448246"
       x2="45.738163"
       y1="18.576885"
       x1="45.738163"
       gradientTransform="matrix(0.05357043,0,0,0.05358761,0.42612425,1038.9381)"
       gradientUnits="userSpaceOnUse"
       id="linearGradient3931"
       xlink:href="#linearGradient18393-9"
       inkscape:collect="always" />
    <radialGradient
       r="11.879165"
       fy="17.51687"
       fx="33.194881"
       cy="22.940353"
       cx="35.207165"
       gradientTransform="matrix(-3.9222812e-8,1.0646099,-0.68416647,-2.5222241e-8,37.243071,909.83295)"
       gradientUnits="userSpaceOnUse"
       id="radialGradient3929-1"
       xlink:href="#linearGradient18375-4-9"
       inkscape:collect="always" />
    <linearGradient
       id="linearGradient18375-4-9">
      <stop
         style="stop-color:#ffdbec;stop-opacity:1;"
         offset="0"
         id="stop18377-1-2" />
      <stop
         id="stop18387-4-1"
         offset="0.35714287"
         style="stop-color:#55c1ec;stop-opacity:1;" />
      <stop
         id="stop18385-5-6"
         offset="0.60714287"
         style="stop-color:#3689e6;stop-opacity:1;" />
      <stop
         style="stop-color:#2b63a0;stop-opacity:1;"
         offset="1"
         id="stop18379-1-7" />
    </linearGradient>
    <linearGradient
       y2="41.448246"
       x2="45.738163"
       y1="18.576885"
       x1="45.738163"
       gradientTransform="matrix(0.45152221,0,0,0.45166697,8.3070727,936.99652)"
       gradientUnits="userSpaceOnUse"
       id="linearGradient3931-4"
       xlink:href="#linearGradient18393-9-0"
       inkscape:collect="always" />
    <linearGradient
       id="linearGradient18393-9-0">
      <stop
         style="stop-color:#ffffff;stop-opacity:1;"
         offset="0"
         id="stop18395-1-8" />
      <stop
         id="stop5876"
         offset="0.5"
         style="stop-color:#0e97ee;stop-opacity:1;" />
      <stop
         style="stop-color:#074871;stop-opacity:1;"
         offset="1"
         id="stop18397-8-4" />
    </linearGradient>
    <radialGradient
       inkscape:collect="always"
       xlink:href="#linearGradient18375-4"
       id="radialGradient4022"
       gradientUnits="userSpaceOnUse"
       gradientTransform="matrix(0,0.12630965,-0.0811723,0,3.8592094,1038.0882)"
       cx="35.207165"
       cy="22.940353"
       fx="33.194881"
       fy="17.51687"
       r="11.879165" />
    <linearGradient
       inkscape:collect="always"
       xlink:href="#linearGradient18393-9"
       id="linearGradient4024"
       gradientUnits="userSpaceOnUse"
       gradientTransform="matrix(0.05357043,0,0,0.05358761,0.42612425,1041.311)"
       x1="45.738163"
       y1="18.576885"
       x2="45.738163"
       y2="41.448246" />
    <radialGradient
       inkscape:collect="always"
       xlink:href="#linearGradient18375-4"
       id="radialGradient4028"
       gradientUnits="userSpaceOnUse"
       gradientTransform="matrix(0,0.12630965,-0.0811723,0,3.8592094,1045.4441)"
       cx="35.207165"
       cy="22.940353"
       fx="33.194881"
       fy="17.51687"
       r="11.879165" />
    <linearGradient
       inkscape:collect="always"
       xlink:href="#linearGradient18393-9"
       id="linearGradient4030"
       gradientUnits="userSpaceOnUse"
       gradientTransform="matrix(0.05357043,0,0,0.05358761,0.42612425,1048.6669)"
       x1="45.738163"
       y1="18.576885"
       x2="45.738163"
       y2="41.448246" />
    <linearGradient
       inkscape:collect="always"
       xlink:href="#linearGradient18375-4"
       id="linearGradient6202"
       x1="7.875"
       y1="38.697365"
       x2="55.59375"
       y2="38.697365"
       gradientUnits="userSpaceOnUse" />
    <linearGradient
       inkscape:collect="always"
       xlink:href="#linearGradient18375-4"
       id="linearGradient6204"
       gradientUnits="userSpaceOnUse"
       x1="27.750006"
       y1="16.916304"
       x2="27.750006"
       y2="54.037865"
       gradientTransform="matrix(0.78310253,0,0,0.78310253,1.7080675,10.873486)" />
    <linearGradient
       inkscape:collect="always"
       xlink:href="#linearGradient6206"
       id="linearGradient6218"
       x1="940.54749"
       y1="-64"
       x2="1042.3622"
       y2="-64"
       gradientUnits="userSpaceOnUse"
       gradientTransform="matrix(0.11864407,0,0,0.11864407,927.7696,0.55946076)" />
  </defs>
  <sodipodi:namedview
     id="base"
     pagecolor="#ffffff"
     bordercolor="#666666"
     borderopacity="1.0"
     inkscape:pageopacity="0.0"
     inkscape:pageshadow="2"
     inkscape:zoom="43.986531"
     inkscape:cx="7.0323312"
     inkscape:cy="7.500075"
     inkscape:document-units="px"
     inkscape:current-layer="layer1"
     showgrid="false"
     inkscape:window-width="1371"
     inkscape:window-height="931"
     inkscape:window-x="462"
     inkscape:window-y="91"
     inkscape:window-maximized="0">
    <inkscape:grid
       type="xygrid"
       id="grid7756"
       empspacing="12"
       visible="true"
       enabled="true"
       snapvisiblegridlinesonly="true" />
  </sodipodi:namedview>
  <metadata
     id="metadata7569">
    <rdf:RDF>
      <cc:Work
         rdf:about="">
        <dc:format>image/svg+xml</dc:format>
        <dc:type
           rdf:resource="http://purl.org/dc/dcmitype/StillImage" />
        <dc:title>enote icon</dc:title>
        <cc:license
           rdf:resource="http://creativecommons.org/licenses/by/3.0/" />
        <dc:date>01/14/2014</dc:date>
        <dc:creator>
          <cc:Agent>
            <dc:title>Nikos Vasilakis</dc:title>
          </cc:Agent>
        </dc:creator>
        <dc:subject>
          <rdf:Bag>
            <rdf:li>enote</rdf:li>
            <rdf:li>icon</rdf:li>
            <rdf:li>note taking</rdf:li>
            <rdf:li>reminders</rdf:li>
          </rdf:Bag>
        </dc:subject>
        <dc:rights>
          <cc:Agent>
            <dc:title>Nikos Vasilakis</dc:title>
          </cc:Agent>
        </dc:rights>
      </cc:Work>
      <cc:License
         rdf:about="http://creativecommons.org/licenses/by/3.0/">
        <cc:permits
           rdf:resource="http://creativecommons.org/ns#Reproduction" />
        <cc:permits
           rdf:resource="http://creativecommons.org/ns#Distribution" />
        <cc:requires
           rdf:resource="http://creativecommons.org/ns#Notice" />
        <cc:requires
           rdf:resource="http://creativecommons.org/ns#Attribution" />
        <cc:permits
           rdf:resource="http://creativecommons.org/ns#DerivativeWorks" />
      </cc:License>
    </rdf:RDF>
  </metadata>
  <g
     inkscape:label="Layer 1"
     inkscape:groupmode="layer"
     id="layer1"
     transform="translate(0,-1038.3622)"
     style="display:inline">
    <g
       id="g7796"
       transform="matrix(0.11864407,0,0,0.11864407,-0.55946076,927.7696)">
      <rect
         width="16"
         height="10"
         x="107"
         y="1036.3622"
         id="rect2801"
         style="opacity:0.4;fill:url(#radialGradient7794);fill-opacity:1;stroke:none" />
      <rect
         width="16"
         height="10"
         x="-21"
         y="-1046.3622"
         transform="scale(-1,-1)"
         id="rect3696"
         style="opacity:0.4;fill:url(#radialGradient7791);fill-opacity:1;stroke:none" />
      <rect
         width="86"
         height="10"
         x="21"
         y="1036.3622"
         id="rect3700"
         style="opacity:0.4;fill:url(#linearGradient7788);fill-opacity:1;stroke:none" />
    </g>
    <g
       id="g8348"
       transform="matrix(0.11864407,0,0,0.11864407,4.6726957,926.79678)">
      <path
         sodipodi:nodetypes="ccccccccc"
         style="opacity:0.03999999;fill:none;stroke:url(#linearGradient8355);stroke-width:1;stroke-linecap:round;stroke-linejoin:bevel;stroke-miterlimit:0;stroke-opacity:1;stroke-dasharray:none;stroke-dashoffset:0"
         d="M 32.146618,972.84239 14.481464,1003.7119 0.25213459,995.56921 -6.3604727,1007.0981 c -0.6756764,0.9281 0.603646,2.8845 1.2993198,3.2507 l 22.2297879,13.0891 c 1.607447,0.7136 3.744467,0.025 4.636044,-1.3342 l 23.915319,-41.55498 z"
         id="path18415"
         inkscape:connector-curvature="0" />
      <path
         inkscape:connector-curvature="0"
         id="path18413"
         d="M 32.709552,973.48232 14.791386,1004.8476 0.54199027,996.84625 -5.0493947,1006.577 c -0.6986698,0.9596 -0.503036,2.4458 0.2163119,2.8244 l 22.0830658,12.8732 c 1.538328,1.0447 3.60011,-0.074 4.005012,-1.1695 l 23.265002,-40.52121 z"
         style="opacity:0.07999998;fill:none;stroke:url(#linearGradient8357);stroke-width:0.99999994;stroke-linecap:round;stroke-linejoin:bevel;stroke-miterlimit:0;stroke-opacity:1;stroke-dasharray:none;stroke-dashoffset:0"
         sodipodi:nodetypes="ccccccccc" />
      <path
         sodipodi:nodetypes="ccccccccc"
         style="opacity:0.16000001;fill:none;stroke:url(#linearGradient8359);stroke-width:1;stroke-linecap:round;stroke-linejoin:bevel;stroke-miterlimit:0;stroke-opacity:1;stroke-dasharray:none;stroke-dashoffset:0"
         d="m 33.076658,974.85342 -17.985637,31.24988 -14.1064917,-7.98513 -5.2332754,9.05693 c -0.7455718,1.024 -0.024603,1.556 0.7430347,1.9601 l 20.9618774,12.1367 c 1.701319,1.0081 2.313327,0.6102 3.213661,-1.0503 l 22.650011,-39.44359 z"
         id="path18407"
         inkscape:connector-curvature="0" />
      <path
         inkscape:connector-curvature="0"
         id="rect17386"
         d="m 33.472758,975.97308 -18.095441,31.35232 -13.9298759,-8.045 -5.0265112,8.7089 13.9298761,8.045 8.706173,5.0281 5.026511,-8.7089 18.095441,-31.35233 -8.706173,-5.02809 z"
         style="fill:url(#radialGradient8361);fill-opacity:1;fill-rule:nonzero;stroke:url(#linearGradient8363);stroke-width:0.99999994;stroke-linecap:butt;stroke-linejoin:round;stroke-miterlimit:0;stroke-opacity:1;stroke-dasharray:none;stroke-dashoffset:0" />
      <path
         sodipodi:nodetypes="ccccccc"
         style="opacity:0.5;fill:none;stroke:url(#linearGradient8365);stroke-width:0.99999994;stroke-linecap:butt;stroke-linejoin:round;stroke-miterlimit:0;stroke-opacity:1;stroke-dasharray:none;stroke-dashoffset:0"
         d="m 33.931024,977.34784 -18.036292,31.40606 -13.9850866,-8.1977 -4.2227153,6.9843 20.9669919,12.1219 22.159008,-38.39042 z"
         id="path18401"
         inkscape:connector-curvature="0" />
    </g>
    <rect
       style="fill:url(#linearGradient6218);fill-opacity:1;stroke:none"
       id="rect6994"
       width="12.101696"
       height="12.101696"
       x="1039.3372"
       y="-13.084609"
       rx="0.29661015"
       ry="0.29661015"
       transform="matrix(0,1,-1,0,0,0)" />
    <rect
       style="fill:none;stroke:url(#linearGradient7004);stroke-width:0.11864408"
       id="rect7002"
       width="11.983051"
       height="11.983051"
       x="1039.3966"
       y="-13.025285"
       rx="0.23728816"
       ry="0.23728816"
       transform="matrix(0,1,-1,0,0,0)" />
    <rect
       transform="matrix(0,-1,-1,0,0,0)"
       ry="0.35593221"
       rx="0.35593221"
       y="-13.143925"
       x="-1051.4983"
       height="12.220339"
       width="12.220339"
       id="rect6998"
       style="fill:none;stroke:url(#linearGradient7095);stroke-width:0.11864408" />
    <g
       id="g8367"
       style="opacity:0.6"
       transform="matrix(0.11864407,0,0,0.11864407,-0.55946076,927.7696)">
      <rect
         y="940.36218"
         x="33"
         height="102"
         width="1"
         id="rect15708"
         style="opacity:0.12000002;fill:#da4d45;fill-opacity:1;fill-rule:nonzero;stroke:none" />
      <rect
         y="960.36218"
         x="13"
         height="1"
         width="102"
         id="rect15710"
         style="opacity:0.5;fill:#b9b9b9;fill-opacity:1;fill-rule:nonzero;stroke:none" />
      <rect
         style="opacity:0.5;fill:#b9b9b9;fill-opacity:1;fill-rule:nonzero;stroke:none"
         id="rect15712"
         width="102"
         height="1"
         x="13"
         y="981.36218" />
      <rect
         y="1002.3622"
         x="13"
         height="1"
         width="102"
         id="rect16848"
         style="opacity:0.5;fill:#b9b9b9;fill-opacity:1;fill-rule:nonzero;stroke:none" />
      <rect
         style="opacity:0.5;fill:#b9b9b9;fill-opacity:1;fill-rule:nonzero;stroke:none"
         id="rect7153"
         width="102"
         height="1"
         x="13"
         y="1023.3622" />
      <rect
         style="opacity:0.12000002;fill:#da4d45;fill-opacity:1;fill-rule:nonzero;stroke:none"
         id="rect5610"
         width="1"
         height="102"
         x="31"
         y="940.36218" />
    </g>
    <text
       sodipodi:linespacing="125%"
       id="text5616"
       y="1043.2704"
       x="4.2242904"
       style="font-size:1.18644059px;font-style:normal;font-variant:normal;font-weight:normal;font-stretch:normal;line-height:125%;letter-spacing:0px;word-spacing:0px;fill:#000000;fill-opacity:0.18039216;stroke:none;font-family:Jenna Sue;-inkscape-font-specification:Jenna Sue"
       xml:space="preserve"><tspan
         y="1043.2704"
         x="4.2242904"
         id="tspan5618"
         sodipodi:role="line">create the application icon</tspan></text>
    <text
       sodipodi:linespacing="125%"
       id="text6239"
       y="1045.8011"
       x="3.749711"
       style="font-size:1.18644059px;font-style:normal;font-variant:normal;font-weight:normal;font-stretch:normal;line-height:125%;letter-spacing:0px;word-spacing:0px;fill:#000000;fill-opacity:0.18039216;stroke:none;font-family:Jenna Sue;-inkscape-font-specification:Jenna Sue"
       xml:space="preserve"><tspan
         y="1045.8011"
         x="3.749711"
         id="tspan6241"
         sodipodi:role="line">enote, for real!</tspan></text>
    <path
       inkscape:connector-curvature="0"
       id="rect17386-9"
       d="m 2.6251478,1039.9445 -0.4821338,0.8353 -0.3711469,-0.2144 -0.1339257,0.232 0.3711464,0.2144 0.2319668,0.134 0.1339263,-0.232 0.4821337,-0.8354 -0.2319668,-0.1339 z"
       style="fill:url(#radialGradient3929);fill-opacity:1;fill-rule:nonzero;stroke:url(#linearGradient3931);stroke-width:0.02664394;stroke-linecap:butt;stroke-linejoin:round;stroke-miterlimit:0;stroke-opacity:1;stroke-dasharray:none;stroke-dashoffset:0" />
    <path
       style="fill:url(#radialGradient4022);fill-opacity:1;fill-rule:nonzero;stroke:url(#linearGradient4024);stroke-width:0.02664394;stroke-linecap:butt;stroke-linejoin:round;stroke-miterlimit:0;stroke-opacity:1;stroke-dasharray:none;stroke-dashoffset:0"
       d="m 2.6251478,1042.3173 -0.4821338,0.8354 -0.3711469,-0.2144 -0.1339257,0.2321 0.3711464,0.2143 0.2319668,0.134 0.1339263,-0.2321 0.4821337,-0.8353 -0.2319668,-0.134 z"
       id="path4020"
       inkscape:connector-curvature="0" />
    <path
       inkscape:connector-curvature="0"
       id="path4026"
       d="m 2.6251478,1049.6733 -0.4821338,0.8353 -0.3711469,-0.2143 -0.1339257,0.232 0.3711464,0.2143 0.2319668,0.134 0.1339263,-0.232 0.4821337,-0.8354 -0.2319668,-0.1339 z"
       style="fill:url(#radialGradient4028);fill-opacity:1;fill-rule:nonzero;stroke:url(#linearGradient4030);stroke-width:0.02664394;stroke-linecap:butt;stroke-linejoin:round;stroke-miterlimit:0;stroke-opacity:1;stroke-dasharray:none;stroke-dashoffset:0" />
    <text
       xml:space="preserve"
       style="font-size:1.18644059px;font-style:normal;font-variant:normal;font-weight:normal;font-stretch:normal;line-height:125%;letter-spacing:0px;word-spacing:0px;fill:#000000;fill-opacity:0.18039216;stroke:none;font-family:Jenna Sue;-inkscape-font-specification:Jenna Sue"
       x="3.749711"
       y="1040.8976"
       id="text5612"
       sodipodi:linespacing="125%"><tspan
         sodipodi:role="line"
         id="tspan5614"
         x="3.749711"
         y="1040.8976">don't forget to create enote</tspan></text>
    <text
       xml:space="preserve"
       style="font-size:1.18644059px;font-style:normal;font-variant:normal;font-weight:normal;font-stretch:normal;line-height:125%;letter-spacing:0px;word-spacing:0px;fill:#000000;fill-opacity:0.18039216;stroke:none;font-family:Jenna Sue;-inkscape-font-specification:Jenna Sue"
       x="3.749711"
       y="1050.5468"
       id="text5620"
       sodipodi:linespacing="125%"><tspan
         sodipodi:role="line"
         id="tspan5622"
         x="3.749711"
         y="1050.5468">have breakfast at Milliways!</tspan></text>
    <g
       transform="matrix(0.03872361,0,0,0.03872361,1.033067,1043.8165)"
       id="g3877"
       style="fill:url(#linearGradient6202);fill-opacity:1;stroke:none">
      <path
         inkscape:connector-curvature="0"
         id="path3873"
         d="m 24.687233,30.666734 c -5.038477,0 -9.179644,3.914524 -9.666422,8.932263 -0.100328,-0.0038 -0.192261,-0.02447 -0.293664,-0.02447 -3.782503,0 -6.852147,2.726367 -6.852147,6.069045 0,3.321091 3.029942,6.009886 6.778731,6.044573 0.02436,2.25e-4 0.04899,0 0.07342,0 l 26.160519,0 c 2.419203,0 4.356008,-1.660841 4.356008,-3.719737 0,-1.785037 -1.46007,-3.258825 -3.426074,-3.62185 0.0054,-0.100203 0.02447,-0.192136 0.02447,-0.293663 0,-3.108103 -2.559689,-5.62855 -5.726437,-5.62855 -0.660784,0 -1.293645,0.116271 -1.88434,0.318136 -0.85005,-4.596751 -4.798492,-8.075745 -9.544062,-8.075745 z"
         style="fill:url(#linearGradient6204);fill-opacity:1;stroke:#0c80c8;stroke-opacity:1" />
    </g>
    <text
       sodipodi:linespacing="125%"
       id="text5628"
       y="1040.4231"
       x="11.342933"
       style="font-size:1.18644059px;font-style:normal;font-variant:normal;font-weight:normal;font-stretch:normal;line-height:125%;letter-spacing:0px;word-spacing:0px;fill:#000000;fill-opacity:0.18039216;stroke:none;font-family:Jenna Sue;-inkscape-font-specification:Jenna Sue"
       xml:space="preserve"><tspan
         y="1040.4231"
         x="11.342933"
         id="tspan5630"
         sodipodi:role="line">,</tspan></text>
    <text
       xml:space="preserve"
       style="font-size:1.18644059px;font-style:normal;font-variant:normal;font-weight:normal;font-stretch:normal;line-height:125%;letter-spacing:0px;word-spacing:0px;fill:#000000;fill-opacity:0.18039216;stroke:none;font-family:Jenna Sue;-inkscape-font-specification:Jenna Sue"
       x="3.749711"
       y="1048.1738"
       id="text6243"
       sodipodi:linespacing="125%"><tspan
         sodipodi:role="line"
         id="tspan6245"
         x="3.749711"
         y="1048.1738">well..            ..more work on icon?</tspan></text>
    <path
       style="fill:#ffeeaa;fill-opacity:1;stroke:#0c80c8;stroke-width:0.23728816;stroke-linejoin:round;stroke-miterlimit:4;stroke-opacity:1;stroke-dasharray:none;stroke-dashoffset:0"
       id="path6268"
       d="m 0.99470265,1046.9795 c 0.41626095,-0.017 0.81753955,-0.1474 1.21298965,-0.2669 0.7144856,-0.2345 1.3935653,-0.5654 1.9885507,-1.0287 0.1364324,-0.1062 0.262409,-0.2253 0.3936135,-0.3379 0.4815131,-0.4567 0.8844421,-0.9866 1.231251,-1.5508 0.2059496,-0.3351 0.2676389,-0.4645 0.4494551,-0.8078 0.218029,-0.4606 0.4301378,-0.9378 0.5141605,-1.4445 0.00752,-0.045 0.010841,-0.092 0.016284,-0.1376 -4.813e-4,-0.034 0.00814,-0.1177 -0.021254,-0.1533 -0.067795,-0.082 -0.3547705,0.1079 -0.3994007,0.1331 0.055904,0.1533 0.015846,0.013 -0.2759811,0.2852 -0.3658717,0.3421 -0.6804718,0.7055 -0.9570913,1.1243 -0.095072,0.144 -0.1773625,0.296 -0.2660438,0.4439 -0.07068,0.1468 -0.1489635,0.2903 -0.2120387,0.4405 -0.2005798,0.4778 -0.3203095,1.0001 -0.3124007,1.52 0.00129,0.084 0.013469,0.1681 0.020201,0.2522 0.027744,0.1443 0.029593,0.1993 0.082467,0.3281 0.018229,0.045 0.050785,0.1136 0.099622,0.1386 0.048889,0.025 0.087551,-0.01 0.1327836,-0.018 -0.056724,0.028 -0.1241181,0.1278 -0.1701706,0.084 -0.043371,-0.041 0.091052,-0.077 0.133882,-0.1186 0.050709,-0.049 0.099338,-0.1003 0.1464943,-0.1529 0.151515,-0.1688 0.2864452,-0.3513 0.4217832,-0.533 0.1447746,-0.1968 0.2168274,-0.3003 0.4964748,-0.3748 0.025987,-0.01 0.030651,0.045 0.037039,0.072 0.013326,0.054 0.00332,0.1956 0.00149,0.2433 -0.00411,0.1323 -0.020729,0.2643 -0.019294,0.3968 2.922e-4,0.028 0.00271,0.094 0.015881,0.1263 0.00271,0.01 0.010089,0.01 0.015146,0.016 0.017456,-0.01 0.025174,-0.027 0.044021,-0.029 0.032681,-0.01 0.048055,0.037 0.059867,0.06 0.021464,0.052 0.028271,0.1067 0.055038,0.1555 0.026976,0.036 0.054635,0.073 0.08603,0.106 0.017649,0.011 0.034151,0.024 0.055239,0.027 0.06006,0.011 0.1368535,-0.01 0.1965127,-0.014 0.1106796,-0.02 0.1936288,-0.025 0.30037,0.013 0.127939,0.061 0.2431231,0.1465 0.3632659,0.2216 0.1737907,0.1172 0.3563324,0.2203 0.5351054,0.3295 0.1000195,0.061 0.1987125,0.1243 0.2986576,0.1855 0.041886,0.025 0.083379,0.053 0.1256675,0.077 0.00499,0.01 0.1452824,0.085 0.165683,0.088 0.00805,0 0.02072,-0.024 0.01316,-0.02 -0.3596644,0.1474 -0.2358038,0.236 -0.3889349,0.054 -0.2704975,-0.3071 -0.5454942,-0.6108 -0.8029647,-0.929 -0.089868,-0.1111 -0.1810148,-0.2214 -0.2642378,-0.3376 -0.087238,-0.1218 -0.1644606,-0.2503 -0.2466905,-0.3755 -0.1460532,-0.2749 -0.2850155,-0.4996 -0.3693051,-0.8023 -0.077831,-0.2795 -0.096296,-0.5528 -0.050838,-0.8395 0.056499,-0.3564 0.131327,-0.4413 0.29274,-0.7564 0.091233,-0.1096 0.1732062,-0.2275 0.2736982,-0.3287 0.209111,-0.2104 0.441854,-0.3694 0.6986018,-0.5148 0.1847055,-0.1047 0.3721847,-0.2049 0.5642122,-0.2954 0.1994983,-0.094 0.3858225,-0.1413 0.5944208,-0.2027 0.1428035,-0.02 0.37093,-0.1118 0.49483,0.024 0.1251486,0.1366 0.083606,0.4212 0.076729,0.5821 -0.06069,0.4519 -0.1586348,0.8977 -0.2416863,1.3457 -0.055038,0.2969 -0.056831,0.3206 -0.1019218,0.6077 -0.020571,0.1512 -0.038089,0.2687 -0.053392,0.4176 -0.00481,0.046 -0.015426,0.1393 -0.00814,0.1938 0.00551,0.041 0.00866,0.031 0.023056,0.015 0.0056,-0.01 0.00934,-0.013 0.016774,-0.015 0.026513,-0.01 0.042061,0.022 0.047617,0.041 0.017964,0.065 -0.014761,0.1625 -0.029829,0.2227 -0.067533,0.2608 -0.1715385,0.51 -0.2484598,0.7678 -0.086669,0.055 -0.00613,0.07 0.010159,0.059 0.017587,-0.013 0.067742,-0.051 0.047285,-0.045 -0.066456,0.022 -0.120092,0.1022 -0.1892345,0.091 -0.04984,-0.01 0.074069,-0.068 0.1102193,-0.1039 0.039821,-0.039 0.078435,-0.079 0.1176499,-0.1182 0.1856689,-0.2064 0.3005039,-0.3395 0.5948535,-0.428 0.03624,-0.011 0.05382,0.082 0.07101,0.1442 0.02215,0.1048 0.01576,0.2129 0.03602,0.3179 0.0072,0.038 0.01866,0.089 0.04575,0.076 0.01583,-0.01 0.02115,-0.027 0.03174,-0.041 -0.2831152,0.1273 -0.2652714,0.1691 -0.170121,0.011 0.01886,-0.031 0.03623,-0.063 0.05379,-0.095 0.01392,-0.025 0.02741,-0.051 0.04064,-0.076 0.0055,-0.01 0.0048,-0.027 0.01564,-0.032 0.09886,-0.048 0.203855,-0.083 0.305779,-0.1251 -0.155559,0.2642 -0.255861,0.5547 -0.340455,0.848 -0.01889,0.077 -0.04667,0.1789 -0.05739,0.2594 -0.0039,0.03 -0.02105,0.1086 0.02388,0.1323 0.04362,0.023 0.166025,-0.017 0.190481,-0.022 0.178938,-0.065 0.192775,-0.061 0.371061,-0.1677 0.0037,-0.01 -0.01191,-0.01 -0.0086,-0.01 0.07762,-0.063 0.162441,-0.1165 0.240706,-0.1786 0.1477545,-0.1171 0.2602315,-0.2242 0.3980775,-0.3504 0.188004,-0.1801 0.356392,-0.3461 0.626512,-0.4069 0.02321,-0.01 0.01984,0.044 0.02441,0.067 0.0053,0.027 0.0033,0.055 0.005,0.083 7.59e-4,0.085 -0.0132,0.1694 -0.01894,0.2541 -1.1e-4,0.01 -0.0059,0.062 0.0053,0.074 0.0027,0.01 0.0054,-0.01 0.0081,-0.01 0.05523,-0.1176 0.0078,-0.01 -0.255973,0.1252 -0.0113,0.01 0.01648,-0.018 0.02411,-0.029 0.018,-0.024 0.03349,-0.048 0.05291,-0.07 0.226022,-0.2139 0.256243,-0.1848 0.45255,-0.2042 0.0641,-0.011 0.128826,-0.018 0.192831,-0.032 0,0 -0.268943,0.2028 -0.268943,0.2028 l 0,0 c -0.06542,0.011 -0.130981,0.021 -0.196542,0.031 -0.03259,0.01 -0.06721,0.01 -0.09874,0.013 -0.0065,0.01 -0.02477,0.011 -0.01889,0.01 0.240696,-0.1438 0.372451,-0.2109 0.254928,-0.1506 -0.02076,0.017 -0.02124,0.015 -0.03851,0.038 -0.007,0.01 -0.01331,0.018 -0.0197,0.029 -0.0073,0.011 -0.01049,0.025 -0.02131,0.033 -0.296632,0.2037 -0.193293,0.1995 -0.345894,0.1975 -0.0074,-0.01 -0.01784,-0.013 -0.02245,-0.022 -0.01082,-0.022 -0.0027,-0.071 -5.7e-4,-0.089 0.01026,-0.082 0.02512,-0.165 0.02268,-0.2489 -0.002,-0.024 -0.0025,-0.048 -0.0062,-0.073 -0.02207,-0.1455 -0.150811,0.061 0.246404,-0.2021 0.02405,-0.016 -0.05094,0.027 -0.07421,0.045 -0.07053,0.052 -0.207146,0.1764 -0.263805,0.2268 -0.129504,0.1166 -0.272648,0.2484 -0.407901,0.3572 -0.07681,0.062 -0.1533685,0.1244 -0.2356325,0.1787 -0.155886,0.1029 -0.31659,0.1984 -0.478008,0.2925 -0.194537,0.1133 -0.202394,0.107 -0.3972126,0.1768 -0.069309,0.011 -0.1598468,0.049 -0.227472,-0.01 -0.048825,-0.038 -0.030301,-0.1136 -0.02212,-0.1593 0.012241,-0.068 0.051677,-0.2055 0.068582,-0.2673 0.084,-0.2834 0.1779225,-0.5651 0.3042716,-0.8327 0.105725,-0.053 0.208328,-0.1123 0.317183,-0.1582 0.01387,-0.01 -0.01935,0.024 -0.02741,0.036 -0.02255,0.036 -0.08011,0.1424 -0.09814,0.1747 -0.01726,0.031 -0.02552,0.069 -0.0524,0.092 -0.10394,0.089 -0.222706,0.1587 -0.334061,0.2381 -0.019364,0.01 -0.039279,0.015 -0.058144,0.01 -0.039016,-0.011 -0.042551,-0.081 -0.045736,-0.1053 -0.013772,-0.1036 -0.010876,-0.2093 -0.035796,-0.3114 -0.00814,-0.024 -0.012469,-0.051 -0.024439,-0.073 -0.059036,-0.1128 -0.3051545,0.1447 0.2068115,-0.1795 0.025926,-0.017 -0.052211,0.032 -0.075539,0.053 -0.060533,0.052 -0.14938,0.1529 -0.2003908,0.2086 -0.037826,0.039 -0.07553,0.078 -0.1134954,0.1172 -0.033679,0.034 -0.062379,0.075 -0.1014431,0.1033 -0.1178161,0.086 -0.2412025,0.1634 -0.3670275,0.2366 -0.026031,0.015 -0.098648,0.047 -0.1076521,-0.015 -0.00341,-0.024 0.010929,-0.046 0.016389,-0.069 0.087531,-0.2532 0.1913345,-0.5017 0.2480065,-0.7648 0.018016,-0.084 0.020624,-0.079 0.025506,-0.1543 7.577e-4,-0.013 0.00359,-0.043 -0.00333,-0.044 -0.015584,-0.01 -0.030065,0.017 -0.046786,0.01 -0.00934,-0.01 -0.022269,-0.011 -0.028026,-0.022 -0.015706,-0.028 -0.00131,-0.1022 0.00131,-0.1204 0.028096,-0.1874 0.07231,-0.3722 0.099906,-0.5597 0.058756,-0.3209 0.1216688,-0.6408 0.1825049,-0.9612 0.042971,-0.2264 0.08694,-0.4559 0.1183394,-0.6843 0.013676,-0.099 0.022426,-0.1993 0.033652,-0.2989 7.586e-4,-0.1429 0.026066,-0.418 -0.086074,-0.5384 -0.1119448,-0.1201 -0.3212877,-0.041 -0.4504062,-0.026 -0.3794805,0.1059 -0.1538836,0.035 -0.5680649,0.188 -0.047408,0.018 -0.098359,0.027 -0.1426871,0.052 -0.2549234,0.1396 -0.4932016,0.3017 -0.7003299,0.5073 -0.099578,0.099 -0.1809727,0.2145 -0.27146,0.3218 -0.1635401,0.311 -0.2390797,0.3954 -0.2995405,0.7482 -0.049053,0.2862 -0.034029,0.5524 0.041659,0.8327 0.083676,0.3098 0.2148422,0.5184 0.363825,0.7994 0.083326,0.1237 0.1616247,0.251 0.2499726,0.3712 0.084551,0.115 0.176099,0.2249 0.2682584,0.3339 0.2672845,0.3164 0.5602651,0.6092 0.8635532,0.8907 0.1696056,0.1585 0.1380575,0.072 -0.1562584,0.3238 -0.00525,0.01 -0.012066,-0.01 -0.017894,-0.01 -0.020169,-0.013 -0.040197,-0.025 -0.060104,-0.039 -0.030546,-0.02 -0.060839,-0.041 -0.091269,-0.061 -0.040119,-0.027 -0.080246,-0.053 -0.1203755,-0.081 -0.043584,-0.027 -0.255339,-0.1617 -0.2961394,-0.1861 -0.1820656,-0.1092 -0.369068,-0.2103 -0.551236,-0.3193 -0.030712,-0.017 -0.061784,-0.034 -0.092138,-0.052 -0.091882,-0.053 -0.1775803,-0.1204 -0.2788607,-0.1565 -0.098461,-0.028 -0.189819,-0.02 -0.2898499,-0.01 -0.094559,0.011 -0.1964489,0.031 -0.2752846,-0.036 -0.032944,-0.036 -0.065721,-0.073 -0.093819,-0.1124 -0.024754,-0.05 -0.027711,-0.1064 -0.052316,-0.1566 -0.00341,-0.01 -0.00551,-0.013 -0.010176,-0.018 -0.00236,-0.01 -0.0063,-0.01 -0.00983,-0.01 -0.00473,0 -0.00879,0.01 -0.013265,0.01 -0.026889,0.01 -0.04578,0.01 -0.068355,-0.011 -0.00577,-0.01 -0.014219,-0.02 -0.017386,-0.032 -0.00925,-0.034 -0.00656,-0.1121 -0.00525,-0.1398 0.00621,-0.1328 0.023643,-0.2649 0.023949,-0.3981 -3.789e-4,-0.063 0.00332,-0.1552 -0.010159,-0.2207 -0.00254,-0.013 -0.026346,-0.027 -0.016608,-0.035 0.071654,-0.062 0.1532729,-0.1126 0.2374523,-0.1561 0.084709,-0.044 -0.3826953,0.2919 -0.192283,0.2118 -0.1370688,0.1801 -0.2713591,0.3634 -0.4189874,0.5351 -0.02863,0.033 -0.2113311,0.2372 -0.2597052,0.2706 -0.1233616,0.085 -0.2570674,0.1541 -0.3856008,0.2311 -0.029161,0.01 -0.057936,0.017 -0.087473,0.015 -0.094816,-0.01 -0.1350947,-0.1116 -0.1583645,-0.186 -0.043704,-0.1398 -0.042216,-0.193 -0.06138,-0.347 -0.00269,-0.087 -0.010191,-0.1744 -0.00797,-0.2616 0.013481,-0.5303 0.1393513,-1.0609 0.347431,-1.5478 0.064875,-0.1518 0.1448877,-0.2967 0.2173319,-0.445 0.08894,-0.1488 0.17206,-0.3011 0.2668219,-0.4463 0.1811373,-0.2773 0.3973774,-0.5603 0.6189029,-0.8072 0.095762,-0.1067 0.1985358,-0.207 0.3012695,-0.3071 0.087133,-0.085 0.1715175,-0.1736 0.2681473,-0.2475 0.1528292,-0.1167 0.318801,-0.2153 0.4782024,-0.3229 0.095925,-0.053 0.2773828,-0.183 0.4034957,-0.1453 0.094926,0.029 0.06993,0.1469 0.065144,0.216 -0.00907,0.048 -0.016301,0.097 -0.027204,0.1453 -0.1172972,0.5164 -0.3399839,1.0038 -0.5693756,1.4782 -0.1839574,0.3418 -0.2516273,0.4788 -0.4570143,0.8131 -0.3484705,0.5672 -0.7523894,1.0999 -1.2356857,1.5597 -0.130648,0.1131 -0.2558938,0.2329 -0.3919429,0.3395 -0.3254655,0.2551 -0.700245,0.4758 -1.0576889,0.6764 -0.4245916,0.2383 -0.8728444,0.4323 -1.3343285,0.5866 -0.4229314,0.1332 -0.8500014,0.2744 -1.29392645,0.3164 0,0 0.2793189,-0.203 0.2793189,-0.203 z"
       inkscape:connector-curvature="0" />
    <path
       style="fill:#ffeeaa;fill-opacity:1;stroke:#0c80c8;stroke-width:0.23728816;stroke-linejoin:round;stroke-miterlimit:4;stroke-opacity:1;stroke-dasharray:none;stroke-dashoffset:0"
       id="path6270"
       d="m 10.427235,1044.603 c 0.04701,0 0.09404,0 0.141067,0 0,0 -0.27627,0.2007 -0.27627,0.2007 l 0,0 c -0.04823,0 -0.09647,0 -0.144681,0 0,0 0.279884,-0.2033 0.279884,-0.2033 z"
       inkscape:connector-curvature="0" />
    <path
       style="fill:#ffeeaa;fill-opacity:1;stroke:#0c80c8;stroke-width:0.23728816;stroke-linejoin:round;stroke-miterlimit:4;stroke-opacity:1;stroke-dasharray:none;stroke-dashoffset:0"
       id="path6272"
       d="m 9.7956945,1044.379 c 0.06724,-0.031 0.134617,-0.06 0.197937,-0.098 0,0 -0.262456,0.2124 -0.262456,0.2124 l 0,0 c -0.06708,0.036 -0.137027,0.067 -0.204708,0.1012 0,0 0.269227,-0.2153 0.269227,-0.2153 z"
       inkscape:connector-curvature="0" />
    <path
       style="fill:#ffeeaa;fill-opacity:1;stroke:#0c80c8;stroke-width:0.23728816;stroke-linejoin:round;stroke-miterlimit:4;stroke-opacity:1;stroke-dasharray:none;stroke-dashoffset:0"
       id="path6274"
       d="m 5.1917527,1049.1348 c 0.3047429,-0.2234 0.6594329,-0.3626 1.0042722,-0.5094 0.6461245,-0.2484 1.3080497,-0.4575 1.9787959,-0.6288 0.1568113,-0.039 0.3148258,-0.075 0.4722401,-0.1128 0.6807076,-0.1543 1.3675691,-0.2792 2.0558541,-0.3944 0.178054,-0.022 0.35614,-0.07 0.536723,-0.057 0.02384,0.01 0.04763,0.01 0.07146,0.01 0,0 -0.281005,0.1989 -0.281005,0.1989 l 0,0 c -0.02258,-0.01 -0.04516,-0.01 -0.06784,-0.01 -0.166184,-0.013 -0.331692,0.02 -0.496463,0.037 -0.6710397,0.091 -1.3389317,0.2069 -1.9999229,0.3548 -0.1570905,0.038 -0.3149082,0.073 -0.4712715,0.1131 -0.6864585,0.1782 -1.3635423,0.3987 -2.0204818,0.6658 -0.162197,0.072 -0.2872222,0.1259 -0.444521,0.2013 -0.046226,0.022 -0.178045,0.1002 -0.1374931,0.069 0.06174,-0.048 0.1343851,-0.08 0.2018397,-0.1185 0.028516,-0.017 -0.094903,0.055 -0.083195,0.053 0,0 -0.3189896,0.1287 -0.3189896,0.1287 z"
       inkscape:connector-curvature="0" />
  </g>
</svg>
