<?xml version="1.0" encoding="UTF-8" standalone="no"?>
<!-- Created with Inkscape (http://www.inkscape.org/) -->

<svg
   xmlns:osb="http://www.openswatchbook.org/uri/2009/osb"
   xmlns:dc="http://purl.org/dc/elements/1.1/"
   xmlns:cc="http://creativecommons.org/ns#"
   xmlns:rdf="http://www.w3.org/1999/02/22-rdf-syntax-ns#"
   xmlns:svg="http://www.w3.org/2000/svg"
   xmlns="http://www.w3.org/2000/svg"
   xmlns:xlink="http://www.w3.org/1999/xlink"
   xmlns:sodipodi="http://sodipodi.sourceforge.net/DTD/sodipodi-0.dtd"
   xmlns:inkscape="http://www.inkscape.org/namespaces/inkscape"
   width="64"
   height="64"
   id="svg7564"
   version="1.1"
   inkscape:version="0.48.3.1 r9886"
   sodipodi:docname="enote.svg">
  <title
     id="title5651">enote icon</title>
  <defs
     id="defs7566">
    <linearGradient
       id="linearGradient6206">
      <stop
         offset="0"
         style="stop-color:#fefdf6;stop-opacity:1;"
         id="stop6208" />
      <stop
         offset="1"
         style="stop-color:#f8e384;stop-opacity:1;"
         id="stop6210" />
    </linearGradient>
    <linearGradient
       id="linearGradient5604"
       osb:paint="solid">
      <stop
         style="stop-color:#ff80c8;stop-opacity:1;"
         offset="0"
         id="stop5606" />
    </linearGradient>
    <linearGradient
       id="linearGradient5578"
       osb:paint="gradient">
      <stop
         style="stop-color:#0c80c8;stop-opacity:1;"
         offset="0"
         id="stop5580" />
      <stop
         style="stop-color:#0c80c8;stop-opacity:0;"
         offset="1"
         id="stop5582" />
    </linearGradient>
    <linearGradient
       id="linearGradient5570"
       osb:paint="solid">
      <stop
         style="stop-color:#ff80c8;stop-opacity:1;"
         offset="0"
         id="stop5572" />
    </linearGradient>
    <linearGradient
       id="linearGradient4040">
      <stop
         style="stop-color:#0c80c8;stop-opacity:1;"
         offset="0"
         id="stop4042" />
      <stop
         style="stop-color:#0c80c8;stop-opacity:0;"
         offset="1"
         id="stop4044" />
    </linearGradient>
    <linearGradient
       id="linearGradient3894">
      <stop
         id="stop3896"
         offset="0"
         style="stop-color:#0c80c8;stop-opacity:1" />
      <stop
         id="stop3898"
         offset="1"
         style="stop-color:#185f9a;stop-opacity:1;" />
    </linearGradient>
    <linearGradient
       inkscape:collect="always"
       xlink:href="#linearGradient3688-166-749"
       id="linearGradient18443"
       gradientUnits="userSpaceOnUse"
       gradientTransform="translate(-0.12497443,0.06897341)"
       x1="34.124973"
       y1="42.931026"
       x2="34.124973"
       y2="16.931026" />
    <linearGradient
       id="linearGradient3688-166-749">
      <stop
         id="stop2883"
         style="stop-color:#181818;stop-opacity:1"
         offset="0" />
      <stop
         id="stop2885"
         style="stop-color:#181818;stop-opacity:0"
         offset="1" />
    </linearGradient>
    <linearGradient
       inkscape:collect="always"
       xlink:href="#linearGradient3688-166-749"
       id="linearGradient18440"
       gradientUnits="userSpaceOnUse"
       gradientTransform="translate(-0.12497443,0.06897341)"
       x1="34.124973"
       y1="42.931026"
       x2="34.124973"
       y2="16.931026" />
    <linearGradient
       id="linearGradient7476">
      <stop
         id="stop7478"
         style="stop-color:#181818;stop-opacity:1"
         offset="0" />
      <stop
         id="stop7480"
         style="stop-color:#181818;stop-opacity:0"
         offset="1" />
    </linearGradient>
    <linearGradient
       inkscape:collect="always"
       xlink:href="#linearGradient3688-166-749"
       id="linearGradient18437"
       gradientUnits="userSpaceOnUse"
       gradientTransform="translate(-0.12497443,0.06897341)"
       x1="34.124973"
       y1="42.931026"
       x2="34.124973"
       y2="16.931026" />
    <linearGradient
       id="linearGradient7483">
      <stop
         id="stop7485"
         style="stop-color:#181818;stop-opacity:1"
         offset="0" />
      <stop
         id="stop7487"
         style="stop-color:#181818;stop-opacity:0"
         offset="1" />
    </linearGradient>
    <radialGradient
       inkscape:collect="always"
       xlink:href="#linearGradient18375"
       id="radialGradient18432"
       gradientUnits="userSpaceOnUse"
       gradientTransform="matrix(-8.6867956e-8,2.3570682,-1.5152443,-5.5842562e-8,64.085431,-60.140705)"
       cx="33.575909"
       cy="22.495005"
       fx="33.575909"
       fy="22.495005"
       r="11.879165" />
    <linearGradient
       id="linearGradient18375">
      <stop
         style="stop-color:#90dbec;stop-opacity:1;"
         offset="0"
         id="stop18377" />
      <stop
         id="stop18387"
         offset="0.35714287"
         style="stop-color:#55c1ec;stop-opacity:1;" />
      <stop
         id="stop18385"
         offset="0.60714287"
         style="stop-color:#3689e6;stop-opacity:1;" />
      <stop
         style="stop-color:#2b63a0;stop-opacity:1;"
         offset="1"
         id="stop18379" />
    </linearGradient>
    <linearGradient
       inkscape:collect="always"
       xlink:href="#linearGradient18393"
       id="linearGradient18434"
       gradientUnits="userSpaceOnUse"
       x1="46"
       y1="18"
       x2="46"
       y2="41.999996" />
    <linearGradient
       id="linearGradient18393">
      <stop
         style="stop-color:#599ec9;stop-opacity:1;"
         offset="0"
         id="stop18395" />
      <stop
         style="stop-color:#185f9a;stop-opacity:1;"
         offset="1"
         id="stop18397" />
    </linearGradient>
    <linearGradient
       inkscape:collect="always"
       xlink:href="#linearGradient3924"
       id="linearGradient18429"
       gradientUnits="userSpaceOnUse"
       gradientTransform="translate(-2.523e-5,0.06602467)"
       x1="44.000027"
       y1="19.933975"
       x2="44.000027"
       y2="39.933975" />
    <linearGradient
       id="linearGradient3924">
      <stop
         id="stop3926"
         style="stop-color:#ffffff;stop-opacity:1"
         offset="0" />
      <stop
         id="stop3928"
         style="stop-color:#ffffff;stop-opacity:0.23529412"
         offset="0.10000001" />
      <stop
         id="stop3930"
         style="stop-color:#ffffff;stop-opacity:0.15686275"
         offset="0.94999999" />
      <stop
         id="stop3932"
         style="stop-color:#ffffff;stop-opacity:0.39215687"
         offset="1" />
    </linearGradient>
    <linearGradient
       inkscape:collect="always"
       xlink:href="#linearGradient3104-6"
       id="linearGradient7095"
       gradientUnits="userSpaceOnUse"
       gradientTransform="matrix(0.9631795,0,0,1.2144438,-1048.9442,9.2910835)"
       x1="0.50847417"
       y1="-34"
       x2="59.491524"
       y2="-34" />
    <linearGradient
       id="linearGradient3104-6">
      <stop
         offset="0"
         style="stop-color:#000000;stop-opacity:0.31782946"
         id="stop3106-3" />
      <stop
         offset="1"
         style="stop-color:#000000;stop-opacity:0.24031007"
         id="stop3108-9" />
    </linearGradient>
    <linearGradient
       inkscape:collect="always"
       xlink:href="#linearGradient3977-4-9"
       id="linearGradient7004"
       gradientUnits="userSpaceOnUse"
       gradientTransform="matrix(0.94447703,0,0,1.1908623,991.71439,8.4893147)"
       x1="1.5087713"
       y1="-34"
       x2="58.491226"
       y2="-34" />
    <linearGradient
       id="linearGradient3977-4-9">
      <stop
         id="stop3979-7-0"
         style="stop-color:#ffffff;stop-opacity:1"
         offset="0" />
      <stop
         id="stop3981-6-9"
         style="stop-color:#ffffff;stop-opacity:0.23529412"
         offset="0.01785714" />
      <stop
         id="stop3983-5-2"
         style="stop-color:#ffffff;stop-opacity:0.15686275"
         offset="0.98245609" />
      <stop
         id="stop3985-6-8"
         style="stop-color:#ffffff;stop-opacity:0.39215687"
         offset="1" />
    </linearGradient>
    <linearGradient
       id="linearGradient3600-9-3">
      <stop
         id="stop3602-3-0"
         style="stop-color:#f4f4f4;stop-opacity:1"
         offset="0" />
      <stop
         id="stop3604-7-1"
         style="stop-color:#dbdbdb;stop-opacity:1"
         offset="1" />
    </linearGradient>
    <linearGradient
       id="linearGradient7520">
      <stop
         id="stop7522"
         style="stop-color:#181818;stop-opacity:1"
         offset="0" />
      <stop
         id="stop7524"
         style="stop-color:#181818;stop-opacity:0"
         offset="1" />
    </linearGradient>
    <linearGradient
       id="linearGradient3688-464-309">
      <stop
         id="stop2889"
         style="stop-color:#181818;stop-opacity:1"
         offset="0" />
      <stop
         id="stop2891"
         style="stop-color:#181818;stop-opacity:0"
         offset="1" />
    </linearGradient>
    <linearGradient
       inkscape:collect="always"
       xlink:href="#linearGradient3702-501-757"
       id="linearGradient7118"
       gradientUnits="userSpaceOnUse"
       gradientTransform="matrix(1.5714287,0,0,0.7142857,-5.7142845,28.428574)"
       x1="25.058096"
       y1="47.027729"
       x2="25.058096"
       y2="39.999443" />
    <linearGradient
       id="linearGradient3702-501-757">
      <stop
         id="stop2895"
         style="stop-color:#181818;stop-opacity:0"
         offset="0" />
      <stop
         id="stop2897"
         style="stop-color:#181818;stop-opacity:1"
         offset="0.5" />
      <stop
         id="stop2899"
         style="stop-color:#181818;stop-opacity:0"
         offset="1" />
    </linearGradient>
    <linearGradient
       inkscape:collect="always"
       xlink:href="#linearGradient3702-501-757"
       id="linearGradient7788"
       gradientUnits="userSpaceOnUse"
       gradientTransform="matrix(3.0714288,0,0,1.4285713,-9.7142831,979.21942)"
       x1="25.058096"
       y1="47.027729"
       x2="25.058096"
       y2="39.999443" />
    <radialGradient
       inkscape:collect="always"
       xlink:href="#linearGradient3688-464-309"
       id="radialGradient7791"
       gradientUnits="userSpaceOnUse"
       gradientTransform="matrix(6.4121086,0,0,2,-53.037984,-1128.3622)"
       cx="4.9929786"
       cy="43.5"
       fx="4.9929786"
       fy="43.5"
       r="2.5" />
    <radialGradient
       inkscape:collect="always"
       xlink:href="#linearGradient3688-166-749"
       id="radialGradient7794"
       gradientUnits="userSpaceOnUse"
       gradientTransform="matrix(6.4121086,0,0,2,74.96201,954.36222)"
       cx="4.9929786"
       cy="43.5"
       fx="4.9929786"
       fy="43.5"
       r="2.5" />
    <linearGradient
       inkscape:collect="always"
       xlink:href="#linearGradient3924"
       id="linearGradient8332"
       gradientUnits="userSpaceOnUse"
       gradientTransform="matrix(2.1484769,0,0,2.1494197,-53.84864,933.94246)"
       x1="44.000027"
       y1="19.933975"
       x2="44.000027"
       y2="39.933975" />
    <radialGradient
       inkscape:collect="always"
       xlink:href="#linearGradient18375"
       id="radialGradient8335"
       gradientUnits="userSpaceOnUse"
       gradientTransform="matrix(-1.746571e-7,4.7406513,-3.046557,-1.123133e-7,79.789501,817.24102)"
       cx="33.575909"
       cy="22.495005"
       fx="33.575909"
       fy="22.495005"
       r="11.879165" />
    <linearGradient
       inkscape:collect="always"
       xlink:href="#linearGradient18393"
       id="linearGradient8337"
       gradientUnits="userSpaceOnUse"
       x1="46"
       y1="18"
       x2="46"
       y2="41.999996"
       gradientTransform="matrix(2.0106045,0,0,2.0112491,-49.060955,938.19897)" />
    <linearGradient
       inkscape:collect="always"
       xlink:href="#linearGradient3688-166-749"
       id="linearGradient8340"
       gradientUnits="userSpaceOnUse"
       gradientTransform="matrix(1.9206264,0,0,1.9212894,-46.360527,941.29341)"
       x1="34.124973"
       y1="42.931026"
       x2="34.124973"
       y2="16.931026" />
    <linearGradient
       inkscape:collect="always"
       xlink:href="#linearGradient3688-166-749"
       id="linearGradient8343"
       gradientUnits="userSpaceOnUse"
       gradientTransform="matrix(1.7998049,0,0,1.8003922,-42.912231,945.62838)"
       x1="34.124973"
       y1="42.931026"
       x2="34.124973"
       y2="16.931026" />
    <linearGradient
       inkscape:collect="always"
       xlink:href="#linearGradient3688-166-749"
       id="linearGradient8346"
       gradientUnits="userSpaceOnUse"
       gradientTransform="matrix(1.7405727,0,0,1.7412667,-40.869182,947.39659)"
       x1="34.124973"
       y1="42.931026"
       x2="34.124973"
       y2="16.931026" />
    <linearGradient
       inkscape:collect="always"
       xlink:href="#linearGradient3688-166-749"
       id="linearGradient8355"
       gradientUnits="userSpaceOnUse"
       gradientTransform="matrix(1.7405727,0,0,1.7412667,-40.869182,947.39659)"
       x1="34.124973"
       y1="42.931026"
       x2="34.124973"
       y2="16.931026" />
    <linearGradient
       inkscape:collect="always"
       xlink:href="#linearGradient3688-166-749"
       id="linearGradient8357"
       gradientUnits="userSpaceOnUse"
       gradientTransform="matrix(1.7998049,0,0,1.8003922,-42.912231,945.62838)"
       x1="34.124973"
       y1="42.931026"
       x2="34.124973"
       y2="16.931026" />
    <linearGradient
       inkscape:collect="always"
       xlink:href="#linearGradient3688-166-749"
       id="linearGradient8359"
       gradientUnits="userSpaceOnUse"
       gradientTransform="matrix(1.9206264,0,0,1.9212894,-46.360527,941.29341)"
       x1="34.124973"
       y1="42.931026"
       x2="34.124973"
       y2="16.931026" />
    <radialGradient
       inkscape:collect="always"
       xlink:href="#linearGradient18375"
       id="radialGradient8361"
       gradientUnits="userSpaceOnUse"
       gradientTransform="matrix(-1.746571e-7,4.7406513,-3.046557,-1.123133e-7,79.789501,817.24102)"
       cx="35.207165"
       cy="22.940353"
       fx="33.194881"
       fy="17.51687"
       r="11.879165" />
    <linearGradient
       inkscape:collect="always"
       xlink:href="#linearGradient18393"
       id="linearGradient8363"
       gradientUnits="userSpaceOnUse"
       gradientTransform="matrix(2.0106045,0,0,2.0112491,-49.060955,938.19897)"
       x1="45.738163"
       y1="18.576885"
       x2="45.738163"
       y2="41.448246" />
    <linearGradient
       inkscape:collect="always"
       xlink:href="#linearGradient3924"
       id="linearGradient8365"
       gradientUnits="userSpaceOnUse"
       gradientTransform="matrix(2.1484769,0,0,2.1494197,-53.84864,933.94246)"
       x1="44.000027"
       y1="19.933975"
       x2="44.000027"
       y2="39.933975" />
    <radialGradient
       inkscape:collect="always"
       xlink:href="#linearGradient18375-4"
       id="radialGradient8361-8"
       gradientUnits="userSpaceOnUse"
       gradientTransform="matrix(-1.746571e-7,4.7406513,-3.046557,-1.123133e-7,79.789501,817.24102)"
       cx="35.207165"
       cy="22.940353"
       fx="33.194881"
       fy="17.51687"
       r="11.879165" />
    <linearGradient
       id="linearGradient18375-4">
      <stop
         style="stop-color:#90dbec;stop-opacity:1;"
         offset="0"
         id="stop18377-1" />
      <stop
         id="stop18387-4"
         offset="0.35714287"
         style="stop-color:#55c1ec;stop-opacity:1;" />
      <stop
         id="stop18385-5"
         offset="0.60714287"
         style="stop-color:#3689e6;stop-opacity:1;" />
      <stop
         style="stop-color:#2b63a0;stop-opacity:1;"
         offset="1"
         id="stop18379-1" />
    </linearGradient>
    <linearGradient
       inkscape:collect="always"
       xlink:href="#linearGradient18393-9"
       id="linearGradient8363-4"
       gradientUnits="userSpaceOnUse"
       gradientTransform="matrix(2.0106045,0,0,2.0112491,-49.060955,938.19897)"
       x1="45.738163"
       y1="18.576885"
       x2="45.738163"
       y2="41.448246" />
    <linearGradient
       id="linearGradient18393-9">
      <stop
         style="stop-color:#599ec9;stop-opacity:1;"
         offset="0"
         id="stop18395-1" />
      <stop
         style="stop-color:#185f9a;stop-opacity:1;"
         offset="1"
         id="stop18397-8" />
    </linearGradient>
    <radialGradient
       r="11.879165"
       fy="17.51687"
       fx="33.194881"
       cy="22.940353"
       cx="35.207165"
       gradientTransform="matrix(-2.1273391e-8,0.57741555,-0.37107336,-1.3679861e-8,17.487769,975.82945)"
       gradientUnits="userSpaceOnUse"
       id="radialGradient3929"
       xlink:href="#linearGradient18375-4"
       inkscape:collect="always" />
    <linearGradient
       y2="41.448246"
       x2="45.738163"
       y1="18.576885"
       x1="45.738163"
       gradientTransform="matrix(0.24489343,0,0,0.24497192,1.7936678,990.56223)"
       gradientUnits="userSpaceOnUse"
       id="linearGradient3931"
       xlink:href="#linearGradient18393-9"
       inkscape:collect="always" />
    <radialGradient
       r="11.879165"
       fy="17.51687"
       fx="33.194881"
       cy="22.940353"
       cx="35.207165"
       gradientTransform="matrix(-3.9222812e-8,1.0646099,-0.68416647,-2.5222241e-8,37.243071,909.83295)"
       gradientUnits="userSpaceOnUse"
       id="radialGradient3929-1"
       xlink:href="#linearGradient18375-4-9"
       inkscape:collect="always" />
    <linearGradient
       id="linearGradient18375-4-9">
      <stop
         style="stop-color:#ffdbec;stop-opacity:1;"
         offset="0"
         id="stop18377-1-2" />
      <stop
         id="stop18387-4-1"
         offset="0.35714287"
         style="stop-color:#55c1ec;stop-opacity:1;" />
      <stop
         id="stop18385-5-6"
         offset="0.60714287"
         style="stop-color:#3689e6;stop-opacity:1;" />
      <stop
         style="stop-color:#2b63a0;stop-opacity:1;"
         offset="1"
         id="stop18379-1-7" />
    </linearGradient>
    <linearGradient
       y2="41.448246"
       x2="45.738163"
       y1="18.576885"
       x1="45.738163"
       gradientTransform="matrix(0.45152221,0,0,0.45166697,8.3070727,936.99652)"
       gradientUnits="userSpaceOnUse"
       id="linearGradient3931-4"
       xlink:href="#linearGradient18393-9-0"
       inkscape:collect="always" />
    <linearGradient
       id="linearGradient18393-9-0">
      <stop
         style="stop-color:#ffffff;stop-opacity:1;"
         offset="0"
         id="stop18395-1-8" />
      <stop
         id="stop5876"
         offset="0.5"
         style="stop-color:#0e97ee;stop-opacity:1;" />
      <stop
         style="stop-color:#074871;stop-opacity:1;"
         offset="1"
         id="stop18397-8-4" />
    </linearGradient>
    <radialGradient
       inkscape:collect="always"
       xlink:href="#linearGradient18375-4"
       id="radialGradient4022"
       gradientUnits="userSpaceOnUse"
       gradientTransform="matrix(-2.1273391e-8,0.57741555,-0.37107336,-1.3679861e-8,17.487769,986.6769)"
       cx="35.207165"
       cy="22.940353"
       fx="33.194881"
       fy="17.51687"
       r="11.879165" />
    <linearGradient
       inkscape:collect="always"
       xlink:href="#linearGradient18393-9"
       id="linearGradient4024"
       gradientUnits="userSpaceOnUse"
       gradientTransform="matrix(0.24489343,0,0,0.24497192,1.7936678,1001.4097)"
       x1="45.738163"
       y1="18.576885"
       x2="45.738163"
       y2="41.448246" />
    <radialGradient
       inkscape:collect="always"
       xlink:href="#linearGradient18375-4"
       id="radialGradient4028"
       gradientUnits="userSpaceOnUse"
       gradientTransform="matrix(-2.1273391e-8,0.57741555,-0.37107336,-1.3679861e-8,17.487769,1020.3041)"
       cx="35.207165"
       cy="22.940353"
       fx="33.194881"
       fy="17.51687"
       r="11.879165" />
    <linearGradient
       inkscape:collect="always"
       xlink:href="#linearGradient18393-9"
       id="linearGradient4030"
       gradientUnits="userSpaceOnUse"
       gradientTransform="matrix(0.24489343,0,0,0.24497192,1.7936678,1035.0369)"
       x1="45.738163"
       y1="18.576885"
       x2="45.738163"
       y2="41.448246" />
    <linearGradient
       inkscape:collect="always"
       xlink:href="#linearGradient18375-4"
       id="linearGradient6202"
       x1="7.875"
       y1="38.697365"
       x2="55.59375"
       y2="38.697365"
       gradientUnits="userSpaceOnUse" />
    <linearGradient
       inkscape:collect="always"
       xlink:href="#linearGradient18375-4"
       id="linearGradient6204"
       gradientUnits="userSpaceOnUse"
       x1="27.750006"
       y1="16.916304"
       x2="27.750006"
       y2="54.037865"
       gradientTransform="matrix(0.78310253,0,0,0.78310253,1.7080675,10.873486)" />
    <linearGradient
       inkscape:collect="always"
       xlink:href="#linearGradient6206"
       id="linearGradient6218"
       x1="940.54749"
       y1="-64"
       x2="1042.3622"
       y2="-64"
       gradientUnits="userSpaceOnUse"
       gradientTransform="matrix(0.54237288,0,0,0.54237288,482.36063,2.7118642)" />
  </defs>
  <sodipodi:namedview
     id="base"
     pagecolor="#ffffff"
     bordercolor="#666666"
     borderopacity="1.0"
     inkscape:pageopacity="0.0"
     inkscape:pageshadow="2"
     inkscape:zoom="12.699485"
     inkscape:cx="32"
     inkscape:cy="31.500005"
     inkscape:document-units="px"
     inkscape:current-layer="layer1"
     showgrid="false"
     inkscape:window-width="1371"
     inkscape:window-height="931"
     inkscape:window-x="437"
     inkscape:window-y="139"
     inkscape:window-maximized="0">
    <inkscape:grid
       type="xygrid"
       id="grid7756"
       empspacing="12"
       visible="true"
       enabled="true"
       snapvisiblegridlinesonly="true" />
  </sodipodi:namedview>
  <metadata
     id="metadata7569">
    <rdf:RDF>
      <cc:Work
         rdf:about="">
        <dc:format>image/svg+xml</dc:format>
        <dc:type
           rdf:resource="http://purl.org/dc/dcmitype/StillImage" />
        <dc:title>enote icon</dc:title>
        <cc:license
           rdf:resource="http://creativecommons.org/licenses/by/3.0/" />
        <dc:date>01/14/2014</dc:date>
        <dc:creator>
          <cc:Agent>
            <dc:title>Nikos Vasilakis</dc:title>
          </cc:Agent>
        </dc:creator>
        <dc:subject>
          <rdf:Bag>
            <rdf:li>enote</rdf:li>
            <rdf:li>icon</rdf:li>
            <rdf:li>note taking</rdf:li>
            <rdf:li>reminders</rdf:li>
          </rdf:Bag>
        </dc:subject>
        <dc:rights>
          <cc:Agent>
            <dc:title>Nikos Vasilakis</dc:title>
          </cc:Agent>
        </dc:rights>
      </cc:Work>
      <cc:License
         rdf:about="http://creativecommons.org/licenses/by/3.0/">
        <cc:permits
           rdf:resource="http://creativecommons.org/ns#Reproduction" />
        <cc:permits
           rdf:resource="http://creativecommons.org/ns#Distribution" />
        <cc:requires
           rdf:resource="http://creativecommons.org/ns#Notice" />
        <cc:requires
           rdf:resource="http://creativecommons.org/ns#Attribution" />
        <cc:permits
           rdf:resource="http://creativecommons.org/ns#DerivativeWorks" />
      </cc:License>
    </rdf:RDF>
  </metadata>
  <g
     inkscape:label="Layer 1"
     inkscape:groupmode="layer"
     id="layer1"
     transform="translate(0,-988.36218)"
     style="display:inline">
    <g
       id="g7796"
       transform="matrix(0.54237288,0,0,0.54237288,-2.7118642,482.36063)">
      <rect
         width="16"
         height="10"
         x="107"
         y="1036.3622"
         id="rect2801"
         style="opacity:0.4;fill:url(#radialGradient7794);fill-opacity:1;stroke:none" />
      <rect
         width="16"
         height="10"
         x="-21"
         y="-1046.3622"
         transform="scale(-1,-1)"
         id="rect3696"
         style="opacity:0.4;fill:url(#radialGradient7791);fill-opacity:1;stroke:none" />
      <rect
         width="86"
         height="10"
         x="21"
         y="1036.3622"
         id="rect3700"
         style="opacity:0.4;fill:url(#linearGradient7788);fill-opacity:1;stroke:none" />
    </g>
    <g
       id="g8348"
       transform="matrix(0.54237288,0,0,0.54237288,21.206564,477.91342)">
      <path
         sodipodi:nodetypes="ccccccccc"
         style="opacity:0.03999999;fill:none;stroke:url(#linearGradient8355);stroke-width:1;stroke-linecap:round;stroke-linejoin:bevel;stroke-miterlimit:0;stroke-opacity:1;stroke-dasharray:none;stroke-dashoffset:0"
         d="M 32.146618,972.84239 14.481464,1003.7119 0.25213459,995.56921 -6.3604727,1007.0981 c -0.6756764,0.9281 0.603646,2.8845 1.2993198,3.2507 l 22.2297879,13.0891 c 1.607447,0.7136 3.744467,0.025 4.636044,-1.3342 l 23.915319,-41.55498 z"
         id="path18415"
         inkscape:connector-curvature="0" />
      <path
         inkscape:connector-curvature="0"
         id="path18413"
         d="M 32.709552,973.48232 14.791386,1004.8476 0.54199027,996.84625 -5.0493947,1006.577 c -0.6986698,0.9596 -0.503036,2.4458 0.2163119,2.8244 l 22.0830658,12.8732 c 1.538328,1.0447 3.60011,-0.074 4.005012,-1.1695 l 23.265002,-40.52121 z"
         style="opacity:0.07999998;fill:none;stroke:url(#linearGradient8357);stroke-width:0.99999994;stroke-linecap:round;stroke-linejoin:bevel;stroke-miterlimit:0;stroke-opacity:1;stroke-dasharray:none;stroke-dashoffset:0"
         sodipodi:nodetypes="ccccccccc" />
      <path
         sodipodi:nodetypes="ccccccccc"
         style="opacity:0.16000001;fill:none;stroke:url(#linearGradient8359);stroke-width:1;stroke-linecap:round;stroke-linejoin:bevel;stroke-miterlimit:0;stroke-opacity:1;stroke-dasharray:none;stroke-dashoffset:0"
         d="m 33.076658,974.85342 -17.985637,31.24988 -14.1064917,-7.98513 -5.2332754,9.05693 c -0.7455718,1.024 -0.024603,1.556 0.7430347,1.9601 l 20.9618774,12.1367 c 1.701319,1.0081 2.313327,0.6102 3.213661,-1.0503 l 22.650011,-39.44359 z"
         id="path18407"
         inkscape:connector-curvature="0" />
      <path
         inkscape:connector-curvature="0"
         id="rect17386"
         d="m 33.472758,975.97308 -18.095441,31.35232 -13.9298759,-8.045 -5.0265112,8.7089 13.9298761,8.045 8.706173,5.0281 5.026511,-8.7089 18.095441,-31.35233 -8.706173,-5.02809 z"
         style="fill:url(#radialGradient8361);fill-opacity:1;fill-rule:nonzero;stroke:url(#linearGradient8363);stroke-width:0.99999994;stroke-linecap:butt;stroke-linejoin:round;stroke-miterlimit:0;stroke-opacity:1;stroke-dasharray:none;stroke-dashoffset:0" />
      <path
         sodipodi:nodetypes="ccccccc"
         style="opacity:0.5;fill:none;stroke:url(#linearGradient8365);stroke-width:0.99999994;stroke-linecap:butt;stroke-linejoin:round;stroke-miterlimit:0;stroke-opacity:1;stroke-dasharray:none;stroke-dashoffset:0"
         d="m 33.931024,977.34784 -18.036292,31.40606 -13.9850866,-8.1977 -4.2227153,6.9843 20.9669919,12.1219 22.159008,-38.39042 z"
         id="path18401"
         inkscape:connector-curvature="0" />
    </g>
    <rect
       style="fill:url(#linearGradient6218);fill-opacity:1;stroke:none"
       id="rect6994"
       width="55.322033"
       height="55.322033"
       x="992.38763"
       y="-59.661018"
       rx="1.3559321"
       ry="1.3559321"
       transform="matrix(0,1,-1,0,0,0)" />
    <rect
       style="fill:none;stroke:url(#linearGradient7004);stroke-width:0.54237288"
       id="rect7002"
       width="54.779663"
       height="54.779663"
       x="992.65881"
       y="-59.389828"
       rx="1.0847458"
       ry="1.0847458"
       transform="matrix(0,1,-1,0,0,0)" />
    <rect
       transform="matrix(0,-1,-1,0,0,0)"
       ry="1.6271186"
       rx="1.6271186"
       y="-59.932194"
       x="-1047.9808"
       height="55.864399"
       width="55.864399"
       id="rect6998"
       style="fill:none;stroke:url(#linearGradient7095);stroke-width:0.54237294" />
    <g
       id="g8367"
       style="opacity:0.6"
       transform="matrix(0.54237288,0,0,0.54237288,-2.7118642,482.36063)">
      <rect
         y="940.36218"
         x="33"
         height="102"
         width="1"
         id="rect15708"
         style="opacity:0.12000002;fill:#da4d45;fill-opacity:1;fill-rule:nonzero;stroke:none" />
      <rect
         y="960.36218"
         x="13"
         height="1"
         width="102"
         id="rect15710"
         style="opacity:0.5;fill:#b9b9b9;fill-opacity:1;fill-rule:nonzero;stroke:none" />
      <rect
         style="opacity:0.5;fill:#b9b9b9;fill-opacity:1;fill-rule:nonzero;stroke:none"
         id="rect15712"
         width="102"
         height="1"
         x="13"
         y="981.36218" />
      <rect
         y="1002.3622"
         x="13"
         height="1"
         width="102"
         id="rect16848"
         style="opacity:0.5;fill:#b9b9b9;fill-opacity:1;fill-rule:nonzero;stroke:none" />
      <rect
         style="opacity:0.5;fill:#b9b9b9;fill-opacity:1;fill-rule:nonzero;stroke:none"
         id="rect7153"
         width="102"
         height="1"
         x="13"
         y="1023.3622" />
      <rect
         style="opacity:0.12000002;fill:#da4d45;fill-opacity:1;fill-rule:nonzero;stroke:none"
         id="rect5610"
         width="1"
         height="102"
         x="31"
         y="940.36218" />
    </g>
    <text
       sodipodi:linespacing="125%"
       id="text5616"
       y="1010.3681"
       x="19.156702"
       style="font-size:5.42372847px;font-style:normal;font-variant:normal;font-weight:normal;font-stretch:normal;line-height:125%;letter-spacing:0px;word-spacing:0px;fill:#000000;fill-opacity:0.18039216;stroke:none;font-family:Jenna Sue;-inkscape-font-specification:Jenna Sue"
       xml:space="preserve"><tspan
         y="1010.3681"
         x="19.156702"
         id="tspan5618"
         sodipodi:role="line">create the application icon</tspan></text>
    <text
       sodipodi:linespacing="125%"
       id="text6239"
       y="1021.9365"
       x="16.987207"
       style="font-size:5.42372847px;font-style:normal;font-variant:normal;font-weight:normal;font-stretch:normal;line-height:125%;letter-spacing:0px;word-spacing:0px;fill:#000000;fill-opacity:0.18039216;stroke:none;font-family:Jenna Sue;-inkscape-font-specification:Jenna Sue"
       xml:space="preserve"><tspan
         y="1021.9365"
         x="16.987207"
         id="tspan6241"
         sodipodi:role="line">enote, for real!</tspan></text>
    <path
       inkscape:connector-curvature="0"
       id="rect17386-9"
       d="m 11.846347,995.16301 -2.2040407,3.81877 -1.696671,-0.97994 -0.612234,1.06079 1.6966714,0.97997 1.0604193,0.6123 0.612233,-1.06064 2.20404,-3.81882 -1.060418,-0.61243 z"
       style="fill:url(#radialGradient3929);fill-opacity:1;fill-rule:nonzero;stroke:url(#linearGradient3931);stroke-width:0.12180088;stroke-linecap:butt;stroke-linejoin:round;stroke-miterlimit:0;stroke-opacity:1;stroke-dasharray:none;stroke-dashoffset:0" />
    <path
       style="fill:url(#radialGradient4022);fill-opacity:1;fill-rule:nonzero;stroke:url(#linearGradient4024);stroke-width:0.12180088;stroke-linecap:butt;stroke-linejoin:round;stroke-miterlimit:0;stroke-opacity:1;stroke-dasharray:none;stroke-dashoffset:0"
       d="m 11.846347,1006.0105 -2.2040407,3.8186 -1.696671,-0.9798 -0.612234,1.0607 1.6966714,0.98 1.0604193,0.6124 0.612233,-1.0608 2.20404,-3.8188 -1.060418,-0.6123 z"
       id="path4020"
       inkscape:connector-curvature="0" />
    <path
       inkscape:connector-curvature="0"
       id="path4026"
       d="m 11.846347,1039.6376 -2.2040407,3.8187 -1.696671,-0.9799 -0.612234,1.0608 1.6966714,0.9798 1.0604193,0.6125 0.612233,-1.0608 2.20404,-3.8187 -1.060418,-0.6124 z"
       style="fill:url(#radialGradient4028);fill-opacity:1;fill-rule:nonzero;stroke:url(#linearGradient4030);stroke-width:0.12180088;stroke-linecap:butt;stroke-linejoin:round;stroke-miterlimit:0;stroke-opacity:1;stroke-dasharray:none;stroke-dashoffset:0" />
    <text
       xml:space="preserve"
       style="font-size:5.42372847px;font-style:normal;font-variant:normal;font-weight:normal;font-stretch:normal;line-height:125%;letter-spacing:0px;word-spacing:0px;fill:#000000;fill-opacity:0.18039216;stroke:none;font-family:Jenna Sue;-inkscape-font-specification:Jenna Sue"
       x="16.987207"
       y="999.52075"
       id="text5612"
       sodipodi:linespacing="125%"><tspan
         sodipodi:role="line"
         id="tspan5614"
         x="16.987207"
         y="999.52075">don't forget to create enote</tspan></text>
    <text
       xml:space="preserve"
       style="font-size:5.42372847px;font-style:normal;font-variant:normal;font-weight:normal;font-stretch:normal;line-height:125%;letter-spacing:0px;word-spacing:0px;fill:#000000;fill-opacity:0.18039216;stroke:none;font-family:Jenna Sue;-inkscape-font-specification:Jenna Sue"
       x="16.987207"
       y="1043.6316"
       id="text5620"
       sodipodi:linespacing="125%"><tspan
         sodipodi:role="line"
         id="tspan5622"
         x="16.987207"
         y="1043.6316">have breakfast at Milliways!</tspan></text>
    <g
       transform="matrix(0.17702223,0,0,0.17702223,4.5682627,1012.8642)"
       id="g3877"
       style="fill:url(#linearGradient6202);fill-opacity:1;stroke:none">
      <path
         inkscape:connector-curvature="0"
         id="path3873"
         d="m 24.687233,30.666734 c -5.038477,0 -9.179644,3.914524 -9.666422,8.932263 -0.100328,-0.0038 -0.192261,-0.02447 -0.293664,-0.02447 -3.782503,0 -6.852147,2.726367 -6.852147,6.069045 0,3.321091 3.029942,6.009886 6.778731,6.044573 0.02436,2.25e-4 0.04899,0 0.07342,0 l 26.160519,0 c 2.419203,0 4.356008,-1.660841 4.356008,-3.719737 0,-1.785037 -1.46007,-3.258825 -3.426074,-3.62185 0.0054,-0.100203 0.02447,-0.192136 0.02447,-0.293663 0,-3.108103 -2.559689,-5.62855 -5.726437,-5.62855 -0.660784,0 -1.293645,0.116271 -1.88434,0.318136 -0.85005,-4.596751 -4.798492,-8.075745 -9.544062,-8.075745 z"
         style="fill:url(#linearGradient6204);fill-opacity:1;stroke:#0c80c8;stroke-opacity:1" />
    </g>
    <text
       sodipodi:linespacing="125%"
       id="text5628"
       y="997.35126"
       x="51.699066"
       style="font-size:5.42372847px;font-style:normal;font-variant:normal;font-weight:normal;font-stretch:normal;line-height:125%;letter-spacing:0px;word-spacing:0px;fill:#000000;fill-opacity:0.18039216;stroke:none;font-family:Jenna Sue;-inkscape-font-specification:Jenna Sue"
       xml:space="preserve"><tspan
         y="997.35126"
         x="51.699066"
         id="tspan5630"
         sodipodi:role="line">,</tspan></text>
    <text
       xml:space="preserve"
       style="font-size:5.42372847px;font-style:normal;font-variant:normal;font-weight:normal;font-stretch:normal;line-height:125%;letter-spacing:0px;word-spacing:0px;fill:#000000;fill-opacity:0.18039216;stroke:none;font-family:Jenna Sue;-inkscape-font-specification:Jenna Sue"
       x="16.987207"
       y="1032.7839"
       id="text6243"
       sodipodi:linespacing="125%"><tspan
         sodipodi:role="line"
         id="tspan6245"
         x="16.987207"
         y="1032.7839">well..            ..more work on icon?</tspan></text>
    <path
       style="fill:#ffeeaa;fill-opacity:1;stroke:#0c80c8;stroke-width:1.08474576;stroke-linejoin:round;stroke-miterlimit:4;stroke-opacity:1;stroke-dasharray:none;stroke-dashoffset:0"
       id="path6268"
       d="m 4.3928829,1027.3231 c 1.9029074,-0.078 3.737324,-0.6733 5.5450959,-1.2196 3.2662202,-1.0723 6.3705832,-2.5849 9.0905182,-4.7032 0.623689,-0.4855 1.199583,-1.0297 1.799375,-1.5447 2.201201,-2.0877 4.043162,-4.5101 5.628576,-7.0894 0.941483,-1.5317 1.223494,-2.1231 2.054655,-3.6926 0.996699,-2.1058 1.966341,-4.2873 2.350447,-6.6037 0.03453,-0.2082 0.04959,-0.4192 0.07441,-0.6287 -0.0023,-0.1555 0.03721,-0.5381 -0.09714,-0.7007 -0.309917,-0.3747 -1.621812,0.4932 -1.825834,0.6083 0.255568,0.7008 0.07247,0.058 -1.261629,1.3039 -1.672556,1.5637 -3.110726,3.225 -4.375276,5.1396 -0.43461,0.658 -0.810798,1.3528 -1.216197,2.0293 -0.323109,0.6712 -0.680977,1.3267 -0.969323,2.0136 -0.916932,2.1843 -1.464269,4.5722 -1.428114,6.949 0.0059,0.3853 0.06158,0.7683 0.09236,1.1526 0.126818,0.6597 0.135284,0.9111 0.376992,1.4996 0.08333,0.203 0.232153,0.5195 0.45541,0.6336 0.223503,0.114 0.400235,-0.012 0.607014,-0.082 -0.259309,0.1286 -0.567399,0.5844 -0.777926,0.3857 -0.198256,-0.1869 0.416241,-0.3526 0.612034,-0.5422 0.231803,-0.2245 0.454117,-0.4589 0.669688,-0.6991 0.692641,-0.7716 1.309462,-1.6059 1.92815,-2.4364 0.661831,-0.8997 0.991213,-1.3728 2.269601,-1.7137 0.118799,-0.031 0.140105,0.2083 0.169315,0.3277 0.06092,0.249 0.0152,0.8941 0.0068,1.1119 -0.01867,0.6048 -0.09475,1.2083 -0.08817,1.8142 0.0014,0.1282 0.01215,0.4311 0.07257,0.5773 0.01272,0.03 0.04613,0.047 0.06922,0.072 0.07983,-0.019 0.115072,-0.1272 0.201242,-0.1312 0.149382,-0.012 0.219671,0.1685 0.273694,0.2724 0.09809,0.2336 0.129248,0.4878 0.251592,0.711 0.123336,0.1669 0.249751,0.3344 0.393288,0.4847 0.08071,0.05 0.156104,0.1056 0.25251,0.1248 0.274538,0.053 0.625616,-0.025 0.898344,-0.064 0.505964,-0.091 0.885159,-0.1186 1.373118,0.059 0.584864,0.2797 1.111422,0.6699 1.660647,1.0132 0.794472,0.5357 1.628949,1.0073 2.446197,1.5063 0.457227,0.2791 0.908397,0.5681 1.365286,0.8479 0.191493,0.1179 0.381166,0.2389 0.57448,0.3538 0.02275,0.014 0.664152,0.3894 0.757412,0.4029 0.037,0 0.09472,-0.1092 0.06016,-0.094 -1.644177,0.6733 -1.077961,1.0785 -1.777987,0.2474 -1.23656,-1.404 -2.493687,-2.7918 -3.670696,-4.2468 -0.410825,-0.5079 -0.827497,-1.012 -1.207946,-1.5431 -0.398778,-0.5566 -0.751818,-1.1445 -1.127727,-1.7169 -0.667672,-1.2562 -1.302927,-2.2834 -1.688251,-3.6674 -0.355812,-1.2778 -0.440213,-2.527 -0.232397,-3.8378 0.258285,-1.629 0.600349,-2.0169 1.338239,-3.458 0.417064,-0.5006 0.791798,-1.04 1.251193,-1.5023 0.955932,-0.9619 2.019905,-1.6888 3.193607,-2.3536 0.844366,-0.4783 1.701418,-0.9364 2.579256,-1.3502 0.911989,-0.4298 1.76376,-0.6461 2.717348,-0.9266 0.652823,-0.09 1.695686,-0.5113 2.262086,0.107 0.572102,0.6244 0.382184,1.9254 0.350743,2.6607 -0.277457,2.066 -0.72519,4.1036 -1.104849,6.1521 -0.25159,1.3574 -0.259817,1.4655 -0.465932,2.7779 -0.09403,0.6912 -0.174115,1.2285 -0.244084,1.9088 -0.02188,0.2123 -0.07052,0.6368 -0.03724,0.8861 0.02501,0.1872 0.03968,0.1383 0.105429,0.07 0.0256,-0.024 0.0427,-0.063 0.07669,-0.07 0.121193,-0.03 0.192245,0.097 0.217671,0.189 0.08215,0.297 -0.06749,0.7426 -0.136357,1.0177 -0.308736,1.1921 -0.784173,2.3318 -1.135813,3.5101 -0.396206,0.2511 -0.02781,0.3209 0.04643,0.2685 0.0804,-0.058 0.309691,-0.2327 0.21617,-0.2016 -0.303803,0.1013 -0.548992,0.4673 -0.865071,0.4168 -0.22783,-0.036 0.338618,-0.3135 0.503855,-0.4745 0.182038,-0.1774 0.358563,-0.3605 0.537832,-0.5405 0.848768,-0.9436 1.373731,-1.5519 2.719325,-1.9569 0.165691,-0.049 0.246016,0.3768 0.324655,0.6593 0.101227,0.4792 0.07203,0.9732 0.164642,1.4535 0.03269,0.1702 0.0853,0.4053 0.209106,0.3485 0.07237,-0.033 0.09669,-0.1264 0.145083,-0.1897 -1.294243,0.5815 -1.212672,0.7727 -0.777694,0.055 0.08622,-0.1423 0.165644,-0.2885 0.2459,-0.4344 0.06365,-0.1152 0.125335,-0.2322 0.185821,-0.3498 0.02525,-0.048 0.02199,-0.125 0.07145,-0.1494 0.451921,-0.2218 0.93191,-0.3811 1.397854,-0.5718 -0.711134,1.2081 -1.169654,2.5363 -1.556365,3.8771 -0.08635,0.3507 -0.213363,0.8173 -0.262353,1.1857 -0.01804,0.1353 -0.09624,0.4966 0.109153,0.6047 0.199377,0.1045 0.758971,-0.073 0.870771,-0.098 0.818002,-0.2957 0.881258,-0.2796 1.69628,-0.766 0.01676,-0.012 -0.05445,-0.032 -0.03922,-0.043 0.354828,-0.2876 0.742587,-0.5324 1.100369,-0.8162 0.675456,-0.5358 1.189645,-1.0251 1.8198,-1.602 0.859438,-0.8235 1.629219,-1.582 2.864058,-1.8599 0.106123,-0.024 0.09065,0.1999 0.111593,0.3066 0.02432,0.124 0.01524,0.2525 0.02281,0.3788 0.0035,0.3893 -0.06039,0.7745 -0.08658,1.1619 -7.1e-4,0.012 -0.02665,0.2853 0.02455,0.3401 0.01245,0.014 0.02478,-0.027 0.03724,-0.04 0.252486,-0.5376 0.03549,-0.021 -1.170163,0.5718 -0.05166,0.026 0.07529,-0.087 0.110201,-0.133 0.08227,-0.107 0.1531,-0.2184 0.241873,-0.3212 1.033252,-0.9777 1.171411,-0.845 2.068819,-0.9336 0.293061,-0.055 0.588915,-0.087 0.881512,-0.1439 0,0 -1.229452,0.9271 -1.229452,0.9271 l 0,0 c -0.299066,0.05 -0.598772,0.096 -0.89849,0.1414 -0.148992,0.015 -0.307224,0.018 -0.451375,0.063 -0.02979,0.012 -0.113222,0.053 -0.08635,0.036 1.100334,-0.657 1.702644,-0.9639 1.165394,-0.6882 -0.09495,0.077 -0.09705,0.069 -0.176058,0.173 -0.03212,0.042 -0.06085,0.086 -0.09006,0.1297 -0.03328,0.05 -0.04795,0.1173 -0.09739,0.1513 -1.356032,0.9314 -0.883631,0.9124 -1.581231,0.903 -0.03421,-0.033 -0.08157,-0.057 -0.102634,-0.099 -0.04945,-0.1003 -0.01245,-0.3246 -0.0023,-0.4073 0.0469,-0.3779 0.11485,-0.7543 0.10368,-1.1375 -0.0093,-0.1105 -0.01176,-0.2223 -0.0284,-0.3322 -0.100885,-0.6654 -0.68943,0.2817 1.126412,-0.924 0.109958,-0.072 -0.232866,0.1259 -0.339247,0.2041 -0.322454,0.2367 -0.946956,0.807 -1.205969,1.037 -0.592023,0.5329 -1.246395,1.1357 -1.864692,1.6329 -0.351104,0.2826 -0.701127,0.5688 -1.077191,0.8169 -0.712623,0.4705 -1.447272,0.9074 -2.18518,1.3371 -0.889309,0.5178 -0.92523,0.4892 -1.815832,0.8083 -0.316822,0.055 -0.730728,0.2241 -1.039872,-0.016 -0.223208,-0.1736 -0.138508,-0.5187 -0.10112,-0.7277 0.05597,-0.3135 0.23623,-0.9395 0.313531,-1.222 0.383988,-1.2954 0.813359,-2.5833 1.390952,-3.8068 0.483317,-0.2411 0.952355,-0.5132 1.449984,-0.7229 0.06341,-0.027 -0.08844,0.1056 -0.125347,0.1643 -0.103093,0.1623 -0.366208,0.6506 -0.448652,0.7981 -0.0789,0.1411 -0.116654,0.3168 -0.239557,0.4217 -0.475159,0.4061 -1.018089,0.7256 -1.527133,1.0883 -0.08855,0.015 -0.17956,0.069 -0.265786,0.046 -0.178363,-0.052 -0.194549,-0.3728 -0.20907,-0.482 -0.06296,-0.4733 -0.04969,-0.9563 -0.163631,-1.4232 -0.03724,-0.1116 -0.05701,-0.2311 -0.11171,-0.3356 -0.269882,-0.5164 -1.39499,0.661 0.945421,-0.8208 0.118504,-0.075 -0.238674,0.1492 -0.345322,0.2404 -0.276712,0.2364 -0.68288,0.699 -0.916072,0.9538 -0.17294,0.1786 -0.345286,0.3578 -0.51883,0.5357 -0.153974,0.1581 -0.285174,0.3426 -0.463744,0.4721 -0.53859,0.3908 -1.102639,0.7469 -1.677837,1.0813 -0.119027,0.068 -0.450969,0.2151 -0.492126,-0.069 -0.01558,-0.1081 0.04994,-0.212 0.07492,-0.3181 0.40014,-1.1576 0.87467,-2.2935 1.133742,-3.4955 0.08239,-0.384 0.09426,-0.3609 0.116608,-0.7055 0.0035,-0.062 0.01618,-0.1967 -0.01524,-0.2002 -0.07122,-0.011 -0.137449,0.079 -0.213865,0.022 -0.04271,-0.033 -0.101813,-0.051 -0.128105,-0.098 -0.0718,-0.1276 -0.0059,-0.4675 0.0059,-0.5504 0.128418,-0.8567 0.330553,-1.7017 0.456704,-2.559 0.268589,-1.4668 0.556205,-2.9294 0.834314,-4.3941 0.196412,-1.0347 0.397431,-2.084 0.540976,-3.1279 0.06249,-0.4541 0.102518,-0.9112 0.153856,-1.3666 0.0035,-0.6533 0.119168,-1.911 -0.393506,-2.4611 -0.511745,-0.5491 -1.468743,-0.1865 -2.058998,-0.1196 -1.734769,0.4836 -0.70347,0.1599 -2.596871,0.8594 -0.216731,0.081 -0.449636,0.1235 -0.652283,0.2344 -1.165364,0.6384 -2.254633,1.3791 -3.201507,2.3194 -0.455212,0.4521 -0.827305,0.9808 -1.240958,1.4711 -0.747614,1.4215 -1.092937,1.8075 -1.36933,3.4202 -0.224232,1.3083 -0.155581,2.5252 0.190412,3.8064 0.382521,1.4166 0.982136,2.37 1.663201,3.6544 0.380911,0.5658 0.738857,1.1477 1.142733,1.6974 0.386509,0.5258 0.805023,1.028 1.226323,1.5265 1.22187,1.446 2.561212,2.7847 3.947674,4.0713 0.775336,0.7246 0.631116,0.3284 -0.714329,1.4807 -0.02395,0.021 -0.05515,-0.03 -0.08182,-0.046 -0.09221,-0.059 -0.183758,-0.1172 -0.274756,-0.1772 -0.139665,-0.092 -0.278116,-0.1859 -0.417229,-0.2788 -0.183398,-0.1224 -0.366853,-0.2447 -0.550283,-0.3671 -0.199235,-0.1259 -1.167266,-0.7388 -1.353781,-0.8507 -0.832299,-0.4991 -1.687169,-0.961 -2.519936,-1.4594 -0.1404,-0.078 -0.28245,-0.1538 -0.421202,-0.235 -0.42003,-0.2459 -0.811796,-0.5503 -1.274792,-0.715 -0.450108,-0.1282 -0.867743,-0.09 -1.325025,-0.011 -0.43227,0.054 -0.898053,0.1378 -1.258447,-0.1664 -0.150624,-0.1638 -0.300456,-0.3321 -0.428885,-0.5136 -0.113187,-0.228 -0.126679,-0.4861 -0.239151,-0.7155 -0.01552,-0.027 -0.02539,-0.059 -0.04655,-0.082 -0.01092,-0.011 -0.02879,-0.019 -0.04495,-0.019 -0.02155,0 -0.04019,0.017 -0.06064,0.022 -0.122948,0.04 -0.209275,0.043 -0.312484,-0.05 -0.02649,-0.047 -0.06502,-0.091 -0.07946,-0.1439 -0.04229,-0.1549 -0.02983,-0.5123 -0.02393,-0.6388 0.02839,-0.607 0.108083,-1.2114 0.109451,-1.8198 -0.0017,-0.2878 0.01529,-0.71 -0.04642,-1.0088 -0.0119,-0.058 -0.120432,-0.121 -0.07592,-0.1595 0.327544,-0.2832 0.700677,-0.515 1.085499,-0.7136 0.387253,-0.1997 -1.749464,1.3339 -0.879011,0.9677 -0.626601,0.8234 -1.240499,1.6612 -1.915372,2.4464 -0.130875,0.1523 -0.966086,1.0842 -1.187223,1.2367 -0.56394,0.389 -1.175167,0.7045 -1.762749,1.0566 -0.13329,0.024 -0.264857,0.078 -0.399874,0.069 -0.433443,-0.028 -0.617576,-0.5106 -0.723952,-0.8506 -0.19981,-0.639 -0.192995,-0.8824 -0.280592,-1.5862 -0.01215,-0.3987 -0.04658,-0.7975 -0.03645,-1.1964 0.06161,-2.4237 0.637036,-4.8496 1.588257,-7.0754 0.296571,-0.6941 0.662344,-1.3563 0.993517,-2.0345 0.406585,-0.6799 0.78656,-1.3764 1.219758,-2.0398 0.828058,-1.2678 1.816581,-2.5612 2.82927,-3.69 0.43777,-0.4879 0.907592,-0.9465 1.377236,-1.404 0.398306,-0.3878 0.78408,-0.7935 1.225811,-1.1311 0.698653,-0.5339 1.45738,-0.9845 2.18607,-1.4766 0.438516,-0.2428 1.268036,-0.8362 1.844552,-0.6639 0.433948,0.1295 0.319682,0.6715 0.297805,0.9872 -0.04146,0.2214 -0.0745,0.4447 -0.124391,0.6644 -0.536217,2.3609 -1.554213,4.5886 -2.60286,6.757 -0.840947,1.5627 -1.150296,2.1894 -2.08921,3.7174 -1.593006,2.5926 -3.439494,5.0277 -5.648849,7.1299 -0.597247,0.5173 -1.1698,1.0647 -1.791738,1.5521 -1.487842,1.1663 -3.201121,2.1752 -4.835149,3.0922 -1.940989,1.0892 -3.990145,1.9762 -6.0997874,2.6818 -1.9334007,0.6086 -3.8857208,1.2545 -5.9150921,1.4461 0,0 1.2768862,-0.9277 1.2768862,-0.9277 z"
       inkscape:connector-curvature="0" />
    <path
       style="fill:#ffeeaa;fill-opacity:1;stroke:#0c80c8;stroke-width:1.08474576;stroke-linejoin:round;stroke-miterlimit:4;stroke-opacity:1;stroke-dasharray:none;stroke-dashoffset:0"
       id="path6270"
       d="m 47.513042,1016.4592 c 0.214899,0 0.429917,0 0.644886,0 0,0 -1.262952,0.9177 -1.262952,0.9177 l 0,0 c -0.220475,-2e-4 -0.440995,-10e-5 -0.6614,0 0,0 1.279466,-0.9296 1.279466,-0.9296 z"
       inkscape:connector-curvature="0" />
    <path
       style="fill:#ffeeaa;fill-opacity:1;stroke:#0c80c8;stroke-width:1.08474576;stroke-linejoin:round;stroke-miterlimit:4;stroke-opacity:1;stroke-dasharray:none;stroke-dashoffset:0"
       id="path6272"
       d="m 44.625989,1015.4351 c 0.307387,-0.1404 0.61539,-0.2738 0.904856,-0.4491 0,0 -1.199802,0.9708 -1.199802,0.9708 l 0,0 c -0.30663,0.1655 -0.626408,0.3029 -0.935808,0.4629 0,0 1.230754,-0.9846 1.230754,-0.9846 z"
       inkscape:connector-curvature="0" />
    <path
       style="fill:#ffeeaa;fill-opacity:1;stroke:#0c80c8;stroke-width:1.08474576;stroke-linejoin:round;stroke-miterlimit:4;stroke-opacity:1;stroke-dasharray:none;stroke-dashoffset:0"
       id="path6274"
       d="m 23.579398,1037.1762 c 1.393107,-1.0213 3.014553,-1.6576 4.590961,-2.3288 2.953708,-1.1355 5.979652,-2.0915 9.04592,-2.8745 0.716859,-0.1829 1.439209,-0.3437 2.158814,-0.5157 3.111808,-0.7055 6.251741,-1.2766 9.398202,-1.8027 0.813964,-0.099 1.628079,-0.3188 2.453598,-0.2612 0.109031,0.012 0.217704,0.027 0.326666,0.04 0,0 -1.284596,0.9089 -1.284596,0.9089 l 0,0 c -0.103211,-0.014 -0.206417,-0.03 -0.31012,-0.041 -0.759692,-0.062 -1.516312,0.093 -2.269545,0.1674 -3.067626,0.4174 -6.120845,0.9455 -9.142517,1.6219 -0.718127,0.1722 -1.439581,0.3311 -2.154386,0.5167 -3.138096,0.8148 -6.233334,1.8228 -9.236485,3.0438 -0.741474,0.3294 -1.313016,0.5756 -2.0321,0.9201 -0.211324,0.1013 -0.81392,0.4582 -0.628538,0.3149 0.282232,-0.2182 0.614333,-0.3629 0.922696,-0.5422 0.130363,-0.076 -0.433844,0.2531 -0.380334,0.245 0,0 -1.458236,0.5886 -1.458236,0.5886 z"
       inkscape:connector-curvature="0" />
  </g>
</svg>
